<?xml version="1.0" encoding="utf-8"?>
<!-- Generator: Adobe Illustrator 25.0.0, SVG Export Plug-In . SVG Version: 6.00 Build 0)  -->
<svg version="1.1" id="Layer_1" xmlns="http://www.w3.org/2000/svg" xmlns:xlink="http://www.w3.org/1999/xlink" x="0px" y="0px"
	 viewBox="0 0 676 142" style="enable-background:new 0 0 676 142;" xml:space="preserve">
<style type="text/css">
	.st0{fill:#08088C;}
	.st1{fill:#00EAE4;}
</style>
<rect class="st0" width="676" height="142"/>
<path class="st1" d="M161,20.8h21v100h-21V20.8z M148.5,47.1V51c0,12.7-4.5,18.4-16.3,19.6v1.8c11.8,1.2,16.3,6.9,16.3,19.6v28.8
	h-21V91.3c0-8-2.4-10.4-8.7-10.4h-7v39.9h-21v-100H123C141.7,20.8,148.5,28.6,148.5,47.1z M127.5,48.2c0-8-2.4-10.4-8.7-10.4h-7
	v26.1h6c7,0,9.7-2.5,9.7-10.7V48.2z M79.3,89.5v5c0,18.5-6.8,26.3-25.5,26.3h-33v-100h32.5c18.7,0,25.5,7.8,25.5,26.3v1.4
	c0,12.7-4.5,18.4-16.3,19.6v1.8C74.8,71.1,79.3,76.8,79.3,89.5z M41.8,61.5h6.5c7,0,9.7-2.5,9.7-10.7v-2.6c0-8-2.4-10.4-8.7-10.4
	h-7.5V61.5z M58.3,88.9c0-8-2.4-10.4-8.7-10.4h-7.8v25.3h7.8c6.3,0,8.7-2.4,8.7-10.4V88.9z M223.6,19.3c-19,0-28.7,10.5-28.7,30v46
	c0,18.2,7.5,27,24,27c13.8,0,19.4-5.8,20-19.9h1.5l2.7,18.4h9.2V65.5h-28.5v15.2h8.5v14.8c0,7-2.7,10-8.2,10s-8.2-3-8.2-10V46.1
	c0-7,2.7-10,7.8-10c5.1,0,7.8,3,7.8,10v10.6h20.8v-8.4C252.3,29.2,242.8,19.3,223.6,19.3z M546.3,103.5h-1.9l-7.6-82.7h-21.7
	l11.7,100h34.8l11.3-100h-19.4L546.3,103.5z M508.2,49.3v43c0,19.5-10,30-29,30s-29-10.5-29-30v-43c0-19.5,10-30,29-30
	S508.2,29.8,508.2,49.3z M487.2,46.1c0-7-2.9-10-8-10c-5.1,0-8,3-8,10v49.4c0,7,2.9,10,8,10c5.1,0,8-3,8-10V46.1z M629.2,38.1V20.8
	h-47.5v100h47.5v-17.3h-26.5V78.7h24.7V61.9h-24.7V38.1H629.2z M329.5,38.1h14.7v82.7h21V38.1h14.7V20.8h-50.4V38.1z M412.7,19.3
	c-18.4,0-28.3,10.5-28.3,30v43c0,19.5,9.9,30,28.3,30c18.7,0,28.3-9.9,28.3-29V81.1h-20.8v14.4c0,7-2.7,10-7.4,10s-7.4-3-7.4-10
	V46.1c0-7,2.7-10,7.4-10s7.4,3,7.4,10v13.4H441V48.3C441,29.2,431.4,19.3,412.7,19.3z M301.5,62h-14.7V20.8h-21v100h21v-42h14.7v42
	h21v-100h-21V62z"/>
<g>
	<path class="st1" d="M649.6,26.8v-0.3c0-1.6-1.2-2.7-3.4-2.7h-3.7v8.6h1.8v-2.9h2l1.5,2.9h2l-1.8-3.4
		C649,28.7,649.6,27.9,649.6,26.8 M644.3,25.4h2c1.1,0,1.6,0.4,1.6,1.2v0.1c0,0.7-0.5,1.2-1.6,1.2h-2V25.4z"/>
	<path class="st1" d="M645.9,19.3c-5,0-8.9,3.8-8.9,8.9s3.8,8.9,8.9,8.9c5,0,8.9-3.8,8.9-8.9S650.9,19.3,645.9,19.3 M645.9,35.8
		c-4.4,0-7.6-3.2-7.6-7.6s3.2-7.6,7.6-7.6c4.4,0,7.6,3.2,7.6,7.6S650.2,35.8,645.9,35.8"/>
</g>
</svg>
