<?xml version="1.0" encoding="utf-8"?>
<!-- Generator: Adobe Illustrator 23.0.1, SVG Export Plug-In . SVG Version: 6.00 Build 0)  -->
<!DOCTYPE svg PUBLIC "-//W3C//DTD SVG 1.1//EN" "http://www.w3.org/Graphics/SVG/1.1/DTD/svg11.dtd" [
	<!ENTITY ns_extend "http://ns.adobe.com/Extensibility/1.0/">
	<!ENTITY ns_ai "http://ns.adobe.com/AdobeIllustrator/10.0/">
	<!ENTITY ns_graphs "http://ns.adobe.com/Graphs/1.0/">
	<!ENTITY ns_vars "http://ns.adobe.com/Variables/1.0/">
	<!ENTITY ns_imrep "http://ns.adobe.com/ImageReplacement/1.0/">
	<!ENTITY ns_sfw "http://ns.adobe.com/SaveForWeb/1.0/">
	<!ENTITY ns_custom "http://ns.adobe.com/GenericCustomNamespace/1.0/">
	<!ENTITY ns_adobe_xpath "http://ns.adobe.com/XPath/1.0/">
]>
<svg version="1.1" id="Layer_1" xmlns:x="&ns_extend;" xmlns:i="&ns_ai;" xmlns:graph="&ns_graphs;"
	 xmlns="http://www.w3.org/2000/svg" xmlns:xlink="http://www.w3.org/1999/xlink" x="0px" y="0px" width="180px" height="32px"
	 viewBox="0 0 180 32" style="enable-background:new 0 0 180 32;" xml:space="preserve">
<style type="text/css">
	.st0{fill-rule:evenodd;clip-rule:evenodd;fill:#ECB360;}
	.st1{fill-rule:evenodd;clip-rule:evenodd;fill:#D76835;}
	.st2{fill-rule:evenodd;clip-rule:evenodd;fill:#D33A41;}
	.st3{fill-rule:evenodd;clip-rule:evenodd;fill:#B6CB46;}
	.st4{fill-rule:evenodd;clip-rule:evenodd;fill:#66AD4A;}
	.st5{fill-rule:evenodd;clip-rule:evenodd;fill:#AED7DC;}
	.st6{fill-rule:evenodd;clip-rule:evenodd;fill:#5BB1CF;}
	.st7{fill-rule:evenodd;clip-rule:evenodd;fill:#25A8C3;}
	.st8{fill:none;}
	.st9{fill-rule:evenodd;clip-rule:evenodd;fill:#1B1A18;}
	.st10{fill-rule:evenodd;clip-rule:evenodd;fill:#FFFFFE;}
</style>
<metadata>
	<sfw  xmlns="&ns_sfw;">
		<slices></slices>
		<sliceSourceBounds  bottomLeftOrigin="true" height="31" width="179.1" x="0" y="1"></sliceSourceBounds>
	</sfw>
</metadata>
<title>Browserstack-logo-black</title>
<desc>Created with Sketch.</desc>
<g id="Final">
	<g transform="translate(-40.000000, -16.000000)">
		<g id="Browserstack-logo-black" transform="translate(40.000000, 16.000000)">
			<g>
				<g id="Group-2">
					<path id="Fill-1" class="st0" d="M31,15.5C31,24.1,24.1,31,15.5,31C6.9,31,0,24.1,0,15.5C0,6.9,6.9,0,15.5,0
						C24.1,0,31,6.9,31,15.5"/>
					<path id="Fill-2" class="st1" d="M26.9,14c0,7.7-6,14-13.4,14C6,27.9,0,21.7,0,14S6,0,13.4,0C20.9,0,26.9,6.3,26.9,14"/>
					<path id="Fill-3" class="st2" d="M27.9,12.4c0,6.9-5.3,12.4-11.9,12.4c-6.6,0-11.9-5.6-11.9-12.4C4.1,5.6,9.5,0,16,0
						C22.6,0,27.9,5.6,27.9,12.4"/>
					<path id="Fill-4" class="st3" d="M26.9,13.4c0,6.3-4.9,11.4-10.9,11.4S5.2,19.7,5.2,13.4C5.2,7.2,10,2.1,16,2.1
						S26.9,7.2,26.9,13.4"/>
					<path id="Fill-5" class="st4" d="M25.9,14.5c0,5.7-4.6,10.3-10.3,10.3c-5.7,0-10.3-4.6-10.3-10.3S9.8,4.1,15.5,4.1
						C21.2,4.1,25.9,8.8,25.9,14.5"/>
					<path id="Fill-6" class="st5" d="M21.7,12.4c0,4.6-3.7,8.3-8.3,8.3c-4.6,0-8.3-3.7-8.3-8.3s3.7-8.3,8.3-8.3
						C18,4.1,21.7,7.8,21.7,12.4"/>
					<path id="Fill-7" class="st6" d="M22.8,11.4c0,4-3.2,7.2-7.2,7.2s-7.2-3.2-7.2-7.2c0-4,3.2-7.2,7.2-7.2S22.8,7.4,22.8,11.4"/>
					<path id="Fill-8" class="st7" d="M22.8,11.9c0,3.7-2.8,6.7-6.2,6.7s-6.2-3-6.2-6.7c0-3.7,2.8-6.7,6.2-6.7S22.8,8.2,22.8,11.9"
						/>
					<path id="Fill-9" class="st8" d="M20.7,12.9c0,3.1-2.3,5.7-5.2,5.7c-2.9,0-5.2-2.5-5.2-5.7s2.3-5.7,5.2-5.7
						C18.4,7.2,20.7,9.8,20.7,12.9"/>
					<path id="Fill-11" class="st9" d="M15.5,18.6c-2.9,0-5.2-2.5-5.2-5.7s2.3-5.7,5.2-5.7c2.9,0,5.2,2.5,5.2,5.7
						S18.4,18.6,15.5,18.6z"/>
					<path id="Fill-12" class="st10" d="M18.3,11.3c-0.5,0.8-1.5,1.3-2.2,1.1c-0.7-0.2-0.9-1.1-0.4-1.9c0.5-0.8,1.5-1.3,2.2-1.1
						C18.7,9.6,18.8,10.5,18.3,11.3"/>
				</g>
				<g id="Group-26" transform="translate(40.344828, 7.241379)">
					<path id="Fill-23" class="st9" d="M117.3,14.1c-0.2-0.7-0.4-1.6-0.4-2.8s0.1-2.1,0.4-2.8c0.7-2,2.5-3.1,4.9-3.1
						c1.8,0,3.2,0.7,4.1,1.7c0.1,0.1,0.1,0.2,0,0.3l-1.6,1.3c-0.1,0.1-0.2,0.1-0.3,0c-0.6-0.6-1.2-1-2.2-1c-1.1,0-1.9,0.5-2.2,1.5
						c-0.2,0.6-0.2,1.2-0.2,2.1c0,0.9,0,1.5,0.2,2.1c0.3,0.9,1.2,1.4,2.2,1.4c1,0,1.6-0.3,2.2-1c0.1-0.1,0.2-0.1,0.3,0l1.6,1.3
						c0.1,0.1,0.1,0.2,0,0.3c-0.9,1-2.3,1.7-4.1,1.7C119.8,17.2,118,16.1,117.3,14.1"/>
					<path id="Fill-25" class="st9" d="M136,16.9c-0.2,0-0.3-0.1-0.4-0.2l-3-4.7l-1.6,1.7v2.9c0,0.1-0.1,0.2-0.2,0.2h-2.3
						c-0.1,0-0.2-0.1-0.2-0.2V1.4c0-0.1,0.1-0.2,0.2-0.2h2.3c0.1,0,0.2,0.1,0.2,0.2v9.1l4.1-4.5c0.1-0.2,0.3-0.2,0.5-0.2h2.5
						c0.1,0,0.2,0.1,0.1,0.2l-3.8,4.1l4.4,6.6c0.1,0.1,0,0.2-0.1,0.2H136"/>
					<path id="Fill-13" class="st9" d="M3.4,14.5H7c1.6,0,2.5-0.9,2.5-2.2c0-1.3-0.9-2.2-2.5-2.2H3.4c-0.1,0-0.1,0-0.1,0.1v4.1
						C3.3,14.5,3.3,14.5,3.4,14.5z M6.8,7.7c1.5,0,2.4-0.8,2.4-2.1c0-1.2-0.9-2.1-2.4-2.1H3.4c-0.1,0-0.1,0-0.1,0.1v3.9
						c0,0.1,0,0.1,0.1,0.1H6.8z M0.4,1.4c0-0.1,0.1-0.2,0.2-0.2h6.3c3.6,0,5.2,1.7,5.2,4.2c0,1.8-0.9,2.8-2,3.3v0
						c1,0.4,2.3,1.6,2.3,3.5c0,3.1-2.1,4.6-5.8,4.6h-6c-0.1,0-0.2-0.1-0.2-0.2V1.4z"/>
					<path id="Fill-14" class="st9" d="M14.5,16.9c-0.1,0-0.2-0.1-0.2-0.2V6c0-0.1,0.1-0.2,0.2-0.2h2.3C16.9,5.8,17,5.9,17,6v0.9h0
						c0.6-0.9,1.6-1.4,3.1-1.4c0.9,0,1.9,0.3,2.5,0.9c0.1,0.1,0.1,0.2,0,0.3l-1.3,1.6c-0.1,0.1-0.2,0.1-0.3,0
						c-0.5-0.3-1.1-0.5-1.8-0.5c-1.6,0-2.3,1-2.3,2.8v6c0,0.1-0.1,0.2-0.2,0.2H14.5"/>
					<path id="Fill-15" class="st9" d="M30.3,13.4c0.2-0.6,0.2-1.1,0.2-2.1c0-0.9,0-1.5-0.2-2.1c-0.3-0.9-1.1-1.5-2.2-1.5
						c-1.1,0-1.9,0.5-2.3,1.5c-0.2,0.6-0.2,1.1-0.2,2.1c0,0.9,0,1.5,0.2,2.1c0.3,0.9,1.1,1.5,2.3,1.5C29.1,14.9,29.9,14.3,30.3,13.4
						z M23.1,14.1c-0.3-0.8-0.4-1.5-0.4-2.8c0-1.2,0.1-2,0.4-2.8c0.7-1.9,2.5-3.1,4.9-3.1c2.4,0,4.2,1.1,4.9,3.1
						c0.3,0.8,0.4,1.5,0.4,2.8c0,1.2-0.1,2-0.4,2.8c-0.7,1.9-2.5,3.1-4.9,3.1C25.6,17.2,23.8,16,23.1,14.1z"/>
					<path id="Fill-16" class="st9" d="M45.3,16.9c-0.1,0-0.2-0.1-0.3-0.2l-2.3-7.1h0l-2.3,7.1c0,0.1-0.1,0.2-0.3,0.2h-2
						c-0.1,0-0.2-0.1-0.3-0.2L34,6c0-0.1,0-0.2,0.2-0.2h2.4c0.2,0,0.3,0.1,0.3,0.2l2.3,7.4h0L41.5,6c0-0.1,0.2-0.2,0.3-0.2h1.8
						c0.1,0,0.3,0.1,0.3,0.2l2.4,7.4h0L48.5,6c0-0.2,0.1-0.2,0.3-0.2h2.4c0.1,0,0.2,0.1,0.2,0.2l-3.8,10.7c0,0.1-0.1,0.2-0.3,0.2
						H45.3"/>
					<path id="Fill-17" class="st9" d="M51.9,15.4c-0.1-0.1-0.1-0.2,0-0.3l1.4-1.4c0.1-0.1,0.2-0.1,0.3,0c0.9,0.7,2.3,1.3,3.5,1.3
						c1.5,0,2.2-0.6,2.2-1.3c0-0.7-0.4-1.1-2-1.2l-1.3-0.1c-2.4-0.2-3.7-1.4-3.7-3.3c0-2.2,1.7-3.5,4.6-3.5c1.9,0,3.4,0.6,4.5,1.4
						c0.1,0.1,0.1,0.2,0,0.3l-1.2,1.4c-0.1,0.1-0.2,0.1-0.3,0c-0.7-0.5-1.9-0.9-3.1-0.9c-1.2,0-1.8,0.5-1.8,1.2c0,0.6,0.4,1,2,1.2
						l1.3,0.1c2.5,0.2,3.7,1.4,3.7,3.3c0,2.2-1.7,3.8-5,3.8C54.6,17.2,52.9,16.3,51.9,15.4"/>
					<path id="Fill-18" class="st9" d="M71.1,9.1c-0.3-0.9-1.2-1.4-2.3-1.4c-1.1,0-2,0.5-2.3,1.4c-0.1,0.3-0.1,0.6-0.1,0.9
						c0,0.1,0,0.1,0.1,0.1h4.7c0.1,0,0.1,0,0.1-0.1C71.2,9.7,71.2,9.4,71.1,9.1z M63.9,14.1c-0.2-0.7-0.4-1.6-0.4-2.7
						c0-1.2,0.1-2,0.4-2.8c0.7-1.9,2.5-3.1,4.9-3.1c2.4,0,4.2,1.2,4.9,3.1c0.3,0.8,0.4,1.6,0.4,3.4c0,0.1-0.1,0.2-0.3,0.2h-7.3
						c-0.1,0-0.1,0-0.1,0.1c0,0.3,0.1,0.6,0.2,0.9c0.4,1.1,1.3,1.7,2.7,1.7c1.3,0,2.2-0.5,2.8-1.1c0.1-0.1,0.2-0.1,0.4,0l1.5,1.2
						c0.1,0.1,0.1,0.2,0,0.3c-1,1.1-2.7,1.9-4.9,1.9C66.4,17.2,64.6,16,63.9,14.1z"/>
					<path id="Fill-19" class="st9" d="M76.1,16.9c-0.1,0-0.2-0.1-0.2-0.2V6c0-0.1,0.1-0.2,0.2-0.2h2.3c0.1,0,0.2,0.1,0.2,0.2v0.9h0
						c0.6-0.9,1.6-1.4,3.1-1.4c0.9,0,1.9,0.3,2.5,0.9c0.1,0.1,0.1,0.2,0,0.3L83,8.3c-0.1,0.1-0.2,0.1-0.3,0
						c-0.5-0.3-1.1-0.5-1.8-0.5c-1.6,0-2.3,1-2.3,2.8v6c0,0.1-0.1,0.2-0.2,0.2H76.1"/>
					<path id="Fill-20" class="st9" d="M84.7,15.1c-0.1-0.1-0.1-0.2,0-0.3l1.5-1.7c0.1-0.1,0.2-0.1,0.3,0c1.1,0.8,2.7,1.7,4.6,1.7
						c2,0,3.2-0.9,3.2-2.3c0-1.1-0.7-1.9-3.1-2.2l-0.9-0.1c-3.2-0.4-5.1-1.9-5.1-4.5c0-2.8,2.2-4.7,5.7-4.7c2.1,0,4.1,0.6,5.4,1.6
						c0.1,0.1,0.1,0.2,0,0.3l-1.2,1.7c-0.1,0.1-0.2,0.1-0.3,0.1c-1.4-0.8-2.6-1.2-4-1.2c-1.7,0-2.6,0.9-2.6,2.1
						c0,1.1,0.8,1.8,3.1,2.1l0.9,0.1c3.2,0.4,5,1.9,5,4.6c0,2.8-2.2,4.9-6.3,4.9C88.4,17.2,86,16.2,84.7,15.1"/>
					<path id="Fill-21" class="st9" d="M102.3,17.1c-2.4,0-3.3-1.1-3.3-3.3V8c0-0.1,0-0.1-0.1-0.1h-0.8c-0.1,0-0.2-0.1-0.2-0.2V6.1
						c0-0.1,0.1-0.2,0.2-0.2h0.8c0.1,0,0.1,0,0.1-0.1V2.6c0-0.1,0.1-0.2,0.2-0.2h2.3c0.1,0,0.2,0.1,0.2,0.2v3.1c0,0.1,0,0.1,0.1,0.1
						h1.6c0.1,0,0.2,0.1,0.2,0.2v1.5c0,0.1-0.1,0.2-0.2,0.2h-1.6c-0.1,0-0.1,0-0.1,0.1v5.8c0,0.8,0.3,1,1.1,1h0.6
						c0.1,0,0.2,0.1,0.2,0.2v1.9c0,0.1-0.1,0.2-0.2,0.2H102.3"/>
					<path id="Fill-22" class="st9" d="M112.5,13.2v-0.9c0-0.1,0-0.1-0.1-0.1h-2c-1.8,0-2.6,0.5-2.6,1.5c0,0.9,0.7,1.4,2.1,1.4
						C111.6,15.1,112.5,14.4,112.5,13.2z M112.8,16.9c-0.1,0-0.2-0.1-0.2-0.2v-0.8h0c-0.6,0.8-1.7,1.3-3.4,1.3c-2.2,0-4-1.1-4-3.4
						c0-2.4,1.8-3.5,4.8-3.5h2.4c0.1,0,0.1,0,0.1-0.1V9.6c0-1.3-0.6-1.9-2.6-1.9c-1.3,0-2.2,0.3-2.7,0.8c-0.1,0.1-0.3,0.1-0.3,0
						l-0.9-1.5c-0.1-0.1,0-0.2,0-0.3c1-0.6,2.3-1.1,4.2-1.1c3.6,0,5,1.2,5,3.9v7.3c0,0.1-0.1,0.2-0.2,0.2H112.8z"/>
				</g>
			</g>
		</g>
	</g>
</g>
</svg>
