<svg enable-background="new 0 0 147 24.4" height="24.4" viewBox="0 0 147 24.4" width="147" xmlns="http://www.w3.org/2000/svg"><g fill="#fff"><path d="m0 4h6.1c1.3 0 2.4.2 3.5.6s2 1 2.7 1.7c.8.7 1.4 1.6 1.8 2.6s.6 2.1.6 3.2c0 1.1-.2 2.2-.6 3.2s-1 1.9-1.8 2.6-1.7 1.3-2.7 1.7c-1.1.4-2.2.6-3.5.6h-6.1zm6.1 13.8c.9 0 1.6-.1 2.3-.4s1.3-.7 1.8-1.1c.5-.5.9-1.1 1.1-1.8.3-.7.4-1.4.4-2.2 0-.8-.1-1.5-.4-2.2s-.7-1.3-1.1-1.8c-.5-.6-1.1-1-1.8-1.2-.7-.3-1.5-.5-2.3-.5h-3.3v11.1z"/><path d="m22.9 4h12.1v2.6h-9.2v4.2h8.2v2.6h-8.2v4.4h9.3v2.6h-12.2z"/><path d="m43.2 4h3.1l5 7.7 5-7.7h3.1v16.3h-2.8v-11.6l-5.1 7.7h-.1l-5.4-7.7v11.7h-2.8z"/><path d="m74.7 20.6c-1.1 0-2-.2-2.9-.5s-1.6-.8-2.2-1.4-1.1-1.4-1.4-2.2c-.3-.9-.5-1.9-.5-3.1v-9.4h2.8v9.3c0 1.5.4 2.7 1.1 3.5s1.7 1.2 3 1.2 2.3-.4 3-1.1c.7-.8 1.1-1.9 1.1-3.4v-9.5h2.8v9.3c0 1.2-.2 2.3-.5 3.2s-.8 1.7-1.4 2.3-1.3 1.1-2.2 1.4c-.6.3-1.6.4-2.7.4z"/><path d="m100.8 4h3.3l-11.7 16.4h-3.3z"/></g><path d="m90.3 0h-4.1l7.2 10.2 2-2.7z" fill="#763faa"/><path d="m100 13.8-2 2.8 5.5 7.8h4z" fill="#fb7afa"/><path d="m112 4h12v2.6h-9.2v4.2h8.2v2.6h-8.2v4.4h9.3v2.6h-12.1z" fill="#fff"/><path d="m132.3 4h6.1c1.3 0 2.4.2 3.5.6s2 1 2.7 1.7c.8.7 1.4 1.6 1.8 2.6s.6 2.1.6 3.2c0 1.1-.2 2.2-.6 3.2s-1 1.9-1.8 2.6-1.7 1.3-2.7 1.7c-1.1.4-2.2.6-3.5.6h-6.1zm6 13.8c.9 0 1.6-.1 2.3-.4s1.3-.7 1.8-1.1c.5-.5.9-1.1 1.1-1.8.3-.7.4-1.4.4-2.2 0-.8-.1-1.5-.4-2.2s-.7-1.3-1.1-1.8c-.5-.5-1.1-.9-1.8-1.2s-1.5-.4-2.3-.4h-3.2v11.1z" fill="#fff"/></svg>