<?xml version="1.0" encoding="UTF-8"?>
<svg width="156px" height="60px" viewBox="0 0 156 60" version="1.1" xmlns="http://www.w3.org/2000/svg" xmlns:xlink="http://www.w3.org/1999/xlink">
    <!-- Generator: Sketch 55.2 (78181) - https://sketchapp.com -->
    <title>fastly</title>
    <desc>Created with Sketch.</desc>
    <g id="Page-1" stroke="none" stroke-width="1" fill="none" fill-rule="evenodd">
        <g id="fastly" fill="#D42F30" fill-rule="nonzero">
            <polyline id="Fill-1" points="106 6.2 106 46.6 118.1 46.6 118.1 40.4 114.1 40.4 114.1 0 106 0 106 6.2"></polyline>
            <path d="M0.5,40.4 L4.6,40.4 L4.6,20.9 L0.5,20.9 L0.5,15.5 L4.6,14.8 L4.6,9.4 C4.6,2.8 6,0 14.4,0 C16.2,0 18.4,0.3 20.2,0.6 L19.1,7.2 C17.9,7 17.3,7 16.5,7 C13.5,7 12.8,7.3 12.8,10.2 L12.8,14.9 L18.9,14.9 L18.9,20.9 L12.8,20.9 L12.8,40.4 L16.9,40.4 L16.9,46.6 L0.6,46.6 L0.6,40.4" id="Fill-2"></path>
            <path d="M101.8,38.5 C100.5,38.8 99.4,38.7 98.6,38.8 C95.3,38.9 95.5,37.8 95.5,34.6 L95.5,20.9 L101.9,20.9 L101.9,14.9 L95.5,14.9 L95.5,0 L87.4,0 L87.4,36.2 C87.4,43.3 89.2,46.6 96.8,46.6 C98.6,46.6 101.1,46.1 103,45.7 L101.8,38.5" id="Fill-3"></path>
            <path d="M151.9,43.5 L152.5,43.5 C152.8,43.5 153,43.4 153,43 C153,42.7 152.8,42.6 152.5,42.6 L151.9,42.6 L151.9,43.5 Z M152.9,45 L152.3,44.1 L151.9,44.1 L151.9,45 L151.2,45 L151.2,42 L152.5,42 C153.2,42 153.7,42.4 153.7,43 C153.7,43.5 153.5,43.8 153.1,43.9 L153.9,44.9 L152.9,44.9 L152.9,45 Z M152.4,46.1 C153.8,46.1 155,44.9 155,43.5 C155,42.1 153.8,40.9 152.4,40.9 C151,40.9 149.8,42 149.8,43.5 C149.8,44.9 150.9,46.1 152.4,46.1 Z M152.4,40.4 C154.1,40.4 155.5,41.8 155.5,43.5 C155.5,45.2 154.1,46.6 152.4,46.6 C150.7,46.6 149.3,45.2 149.3,43.5 C149.3,41.8 150.6,40.4 152.4,40.4 Z" id="Fill-4"></path>
            <path d="M77.3,20.9 L77.3,19.8 C74.8,19.4 72.4,19.3 71.1,19.3 C67.3,19.3 66.9,21.3 66.9,22.4 C66.9,23.9 67.4,24.8 71.5,25.7 C77.5,27 83.5,28.4 83.5,35.9 C83.5,42.9 79.9,46.6 72.2,46.6 C67.1,46.6 62.1,45.5 58.4,44.5 L58.4,38.4 L64.6,38.4 L64.6,39.5 C67.2,40 70,40 71.5,40 C75.5,40 76.2,37.8 76.2,36.7 C76.2,35.1 75,34.3 71.3,33.6 C64.2,32.4 58.5,29.9 58.5,22.7 C58.5,15.8 63.1,13.2 70.7,13.2 C75.9,13.2 79.8,14 83.6,15 L83.6,21 L77.3,21" id="Fill-5"></path>
            <path d="M39.9,26.2 L39.3,25.6 L36.2,28.3 C36,28.2 35.9,28.2 35.7,28.2 C34.9,28.2 34.2,28.9 34.2,29.8 C34.2,30.7 34.9,31.4 35.7,31.4 C36.5,31.4 37.2,30.7 37.2,29.8 C37.2,29.6 37.2,29.5 37.1,29.3 L39.9,26.2" id="Fill-6"></path>
            <path d="M36.1,38.4 L36.1,37.4 L35.1,37.4 L35.1,38.4 C30.7,38.1 27.2,34.6 27,30.3 L28,30.3 L28,29.3 L27,29.3 C27.3,25 30.7,21.5 35.1,21.2 L35.1,22.2 L36.1,22.2 L36.1,21.2 C40.4,21.4 43.8,24.8 44.2,29 L44.2,29.3 L43.2,29.3 L43.2,30.3 L44.2,30.3 L44.2,30.6 C43.8,34.8 40.4,38.2 36.1,38.4 Z M52.4,38.5 L52.4,13.2 L44.3,13.2 L44.3,15.6 C42.6,14.6 40.8,13.9 38.8,13.5 L38.8,13.5 L38.8,10.7 L39.8,10.7 L39.8,8.6 L31.6,8.6 L31.6,10.7 L32.6,10.7 L32.6,13.5 L32.7,13.5 C24.9,14.9 19,21.7 19,29.9 C19,39.1 26.5,46.6 35.7,46.6 C38.9,46.6 41.8,45.7 44.3,44.2 L45.8,46.6 L54.4,46.6 L54.4,38.5 L52.4,38.5 L52.4,38.5 Z" id="Fill-7"></path>
            <path d="M138.7,14.9 L155.5,14.9 L155.5,20.9 L151.5,20.9 L141.2,46.2 C138.2,53.3 133.4,60 126,60 C124.2,60 121.8,59.8 120.1,59.4 L120.8,52 C121.9,52.2 123.3,52.3 124,52.3 C127.4,52.3 131.3,50.2 132.5,46.5 L122.1,20.9 L118.1,20.9 L118.1,14.9 L134.9,14.9 L134.9,20.9 L130.9,20.9 L136.8,35.4 L142.7,20.9 L138.7,20.9 L138.7,14.9" id="Fill-8"></path>
        </g>
    </g>
</svg>