<?xml version="1.0" encoding="utf-8"?>
<!-- Generator: Adobe Illustrator 23.0.1, SVG Export Plug-In . SVG Version: 6.00 Build 0)  -->
<!DOCTYPE svg PUBLIC "-//W3C//DTD SVG 1.1//EN" "http://www.w3.org/Graphics/SVG/1.1/DTD/svg11.dtd" [
	<!ENTITY ns_extend "http://ns.adobe.com/Extensibility/1.0/">
	<!ENTITY ns_ai "http://ns.adobe.com/AdobeIllustrator/10.0/">
	<!ENTITY ns_graphs "http://ns.adobe.com/Graphs/1.0/">
	<!ENTITY ns_vars "http://ns.adobe.com/Variables/1.0/">
	<!ENTITY ns_imrep "http://ns.adobe.com/ImageReplacement/1.0/">
	<!ENTITY ns_sfw "http://ns.adobe.com/SaveForWeb/1.0/">
	<!ENTITY ns_custom "http://ns.adobe.com/GenericCustomNamespace/1.0/">
	<!ENTITY ns_adobe_xpath "http://ns.adobe.com/XPath/1.0/">
]>
<svg version="1.1" id="Layer_1" xmlns:x="&ns_extend;" xmlns:i="&ns_ai;" xmlns:graph="&ns_graphs;"
	 xmlns="http://www.w3.org/2000/svg" xmlns:xlink="http://www.w3.org/1999/xlink" x="0px" y="0px" width="1760px" height="1135px"
	 viewBox="0 0 1760 1135" style="enable-background:new 0 0 1760 1135;" xml:space="preserve">
<style type="text/css">
	.st0{fill:#CD6271;}
	.st1{fill-rule:evenodd;clip-rule:evenodd;fill:#CE616F;}
	.st2{fill-rule:evenodd;clip-rule:evenodd;fill:#B33747;}
	.st3{fill-rule:evenodd;clip-rule:evenodd;fill:#C84C5D;}
	.st4{fill-rule:evenodd;clip-rule:evenodd;fill:#C64D5E;}
	.st5{fill-rule:evenodd;clip-rule:evenodd;fill:#CD6271;}
	.st6{fill-rule:evenodd;clip-rule:evenodd;fill:#983040;}
	.st7{fill-rule:evenodd;clip-rule:evenodd;fill:#A53343;}
	.st8{fill-rule:evenodd;clip-rule:evenodd;fill:#CF6473;}
	.st9{fill:#C84C5D;}
	.st10{fill:#D98A94;}
	.st11{fill:#B33747;}
	.st12{fill:#983040;}
	.st13{fill:none;stroke:#983040;stroke-width:2;stroke-miterlimit:10;}
	.st14{fill:#C64D5E;}
	.st15{fill:none;stroke:#CB4C5E;stroke-width:2;stroke-miterlimit:10;}
	.st16{fill:#BF3B4D;}
	.st17{fill:none;stroke:#983040;stroke-miterlimit:10;}
	.st18{fill:none;stroke:#CC6170;stroke-miterlimit:10;stroke-dasharray:12;}
	.st19{fill:none;stroke:#CC6170;stroke-miterlimit:10;}
	.st20{fill:none;stroke:#CC6170;stroke-miterlimit:10;stroke-dasharray:11.8935,11.8935;}
	.st21{fill:none;stroke:#D6908F;stroke-miterlimit:10;}
	.st22{fill:none;stroke:#C64C5D;stroke-miterlimit:10;}
	.st23{fill:none;stroke:#B94543;stroke-miterlimit:10;}
	.st24{fill:#A53343;}
	.st25{fill:none;stroke:#983040;stroke-linecap:round;stroke-miterlimit:10;}
	.st26{fill:none;stroke:#983040;stroke-width:2;stroke-linecap:round;stroke-miterlimit:10;}
	.st27{fill:none;stroke:#A53443;stroke-width:12;stroke-linecap:round;stroke-miterlimit:10;stroke-dasharray:0,30;}
	.st28{fill:none;stroke:#983040;stroke-width:3;stroke-miterlimit:10;}
	.st29{fill:none;stroke:#983040;stroke-width:3;stroke-linecap:round;stroke-miterlimit:10;}
	.st30{fill:none;stroke:#983040;stroke-width:4;stroke-linecap:round;stroke-miterlimit:10;}
	.st31{fill:none;stroke:#C64C5D;stroke-width:3;stroke-miterlimit:10;}
	.st32{fill:url(#SVGID_1_);}
	.st33{fill:none;stroke:#D6908F;stroke-linecap:round;stroke-miterlimit:10;}
	.st34{fill:#CF6473;}
</style>
<metadata>
	<sfw  xmlns="&ns_sfw;">
		<slices></slices>
		<sliceSourceBounds  bottomLeftOrigin="true" height="1141" width="1760" x="0" y="0"></sliceSourceBounds>
	</sfw>
</metadata>
<rect x="1037.9" y="1062.9" class="st0" width="213.2" height="61.6"/>
<g id="Rectangle_2">
	<g>
		<rect y="799.5" class="st1" width="154" height="119"/>
	</g>
</g>
<g id="Rectangle_2_copy_23">
	<g>
		<rect x="543" class="st2" width="173" height="142.5"/>
	</g>
</g>
<g id="Rectangle_2_copy_6">
	<g>
		<rect x="446" y="910.5" class="st2" width="327" height="199"/>
	</g>
</g>
<g id="Rectangle_2_copy_7">
	<g>
		<rect x="110" y="965" class="st3" width="255" height="114.5"/>
	</g>
</g>
<g id="Rectangle_2_copy_9">
	<g>
		<rect x="1238" y="713.5" class="st4" width="196.9" height="316.2"/>
	</g>
</g>
<g id="Rectangle_2_copy_10_1_">
	<g>
		<rect x="154" y="695.5" class="st2" width="97" height="104"/>
	</g>
</g>
<g id="Rectangle_2_copy_26_1_">
	<g>
		<rect x="1623" y="713.5" class="st2" width="93" height="104"/>
	</g>
</g>
<g id="Rectangle_2_copy_25_1_">
	<g>
		<rect x="123.4" y="498.5" class="st3" width="97" height="104"/>
	</g>
</g>
<g id="Rectangle_2_copy_18_1_">
	<g>
		<rect x="1667" y="416.5" class="st5" width="93" height="104"/>
	</g>
</g>
<g id="Rectangle_2_copy_3_1_">
	<g>
		<rect x="1699" y="1079.5" class="st2" width="61" height="36"/>
	</g>
</g>
<g id="Rectangle_2_copy_8_1_">
	<g>
		<rect x="120" class="st6" width="61" height="36"/>
	</g>
</g>
<g id="Rectangle_2_copy_19_1_">
	<g>
		<rect x="986" y="11.5" class="st2" width="61" height="36"/>
	</g>
</g>
<g id="Rectangle_2_copy_24_1_">
	<g>
		<rect x="1047" y="916.5" class="st3" width="61" height="36"/>
	</g>
</g>
<g id="Rectangle_2_copy_27_1_">
	<g>
		<rect x="236" y="1113" class="st2" width="166" height="22"/>
	</g>
</g>
<g id="Rectangle_2_copy_20_1_">
	<g>
		<rect x="1428" y="302.5" class="st2" width="61" height="36"/>
	</g>
</g>
<g id="Rectangle_2_copy_14">
	<g>
		<rect x="264" y="124.5" class="st7" width="194" height="36"/>
	</g>
</g>
<g id="Rectangle_2_copy_17_1_">
	<g>
		<rect x="1487" y="141.5" class="st8" width="194" height="36"/>
	</g>
</g>
<g id="Rectangle_2_copy_5">
	<g>
		<rect x="81" y="220.5" class="st2" width="309" height="182"/>
	</g>
</g>
<g id="Rectangle_2_copy_11_1_">
	<g>
		<rect x="1233" y="338.5" class="st8" width="195" height="115"/>
	</g>
</g>
<g id="Rectangle_2_copy_16">
	<g>
		<rect x="251" y="797.5" class="st2" width="195" height="115"/>
	</g>
</g>
<g>
	<polygon class="st9" points="771.6,939.6 728,1018.7 646.8,1109.3 771.6,1109.3 	"/>
	<polygon class="st9" points="445.3,950.1 503.3,1008.1 545.7,1109.3 445.3,1109.3 	"/>
	<path class="st10" d="M720,989.4c-1.9-3-5.2-4.9-9-4.9c-0.1,0-0.2,0-0.3,0c-2.7,0.1-5.2-1.6-6.2-4.2c-2.7-7-9.5-11.9-17.4-11.9
		c-6,0-11.3,2.8-14.7,7.2c-1.7,2.2-4.7,3-7.4,2c-1.6-0.6-3.3-0.9-5.1-0.9c-4.8,0-9.1,2.3-11.7,5.9c-1.6,2.2-4.4,3.2-7,2.4
		c-1-0.3-2.1-0.5-3.2-0.5c-3.8,0-7.1,2-9,4.9H720z"/>
	<path class="st10" d="M1394,779.8c-1.2-1.9-3.4-3.2-5.8-3.2c-0.1,0-0.1,0-0.2,0c-1.8,0-3.4-1.1-4-2.7c-1.8-4.5-6.2-7.7-11.3-7.7
		c-3.9,0-7.3,1.8-9.6,4.7c-1.1,1.4-3.1,2-4.8,1.3c-1-0.4-2.1-0.6-3.3-0.6c-3.1,0-5.9,1.5-7.6,3.9c-1,1.4-2.9,2.1-4.6,1.5
		c-0.7-0.2-1.4-0.3-2.1-0.3c-2.5,0-4.6,1.3-5.8,3.2h59.1V779.8z"/>
	<path class="st10" d="M606.5,965.9c-3.3-4.9-8.9-8.2-15.2-8.2c-0.4,0-0.8,0-1.2,0c-5.1,0.3-10.1-1.4-13.7-5.1
		c-4.4-4.5-10.6-7.3-17.4-7.3c-1.2,0-2.4,0.1-3.6,0.3c-5.6,0.8-11.1-1.3-14.9-5.4c-5.9-6.3-14.2-10.2-23.5-10.2
		c-17.7,0-32.1,14.4-32.1,32.1c0,1.3,0.1,2.6,0.2,3.9L606.5,965.9L606.5,965.9z"/>
	<polygon class="st11" points="495.5,1029.6 488.3,1029.6 492,1015.8 	"/>
	<polygon class="st11" points="757.2,1004.7 749.9,1004.7 753.6,990.9 	"/>
	<polygon class="st11" points="457.8,1018.4 450.6,1018.4 454.3,1004.7 	"/>
	<polygon class="st11" points="456.3,980.2 452.2,980.2 454.3,972.4 	"/>
	<polygon class="st11" points="676.6,1101.1 672.5,1101.1 674.6,1093.2 	"/>
	<polygon class="st11" points="764.3,988.1 760.2,988.1 762.3,980.2 	"/>
	<polygon class="st11" points="478.1,1013.6 468.7,1013.6 473.5,995.8 	"/>
	<circle class="st10" cx="1388.5" cy="743" r="10.3"/>
	<polygon class="st11" points="1236.8,896.8 1256.8,866.8 1275.9,866.8 1275.9,879.2 1289.9,893.3 1289.9,876.7 1289.9,821.9 
		1303.2,821.9 1303.2,750 1310.2,743 1318,750.9 1318,881.7 1335.9,899.6 1352.5,883.1 1352.5,852.8 1361.8,852.8 1361.8,807.3 
		1373.4,807.3 1373.4,878.4 1382.7,887.7 1382.7,920.6 1398.9,920.6 1398.9,836.8 1410.6,821.6 1410.6,1029.7 1236.8,1029.7 	"/>
	<rect x="1234.9" y="951.5" class="st12" width="200" height="20.6"/>
	<polygon class="st12" points="1270,713.6 1270,764.1 1255.1,779 1255.1,858.2 1245.2,868.1 1245.2,984.2 1271.4,1010.4 
		1271.4,1029.7 1234.9,1029.7 1234.9,713.6 	"/>
	<polygon class="st12" points="1406.9,713.6 1423.4,729.9 1423.4,854.3 1409.4,872.4 1409.4,1029.7 1434.9,1029.7 1434.9,713.6 	"/>
	<rect x="1372.8" y="965.9" class="st12" width="5" height="63.9"/>
	<rect x="1329.9" y="965.9" class="st12" width="5" height="63.9"/>
	<rect x="1288.2" y="965.9" class="st12" width="5" height="63.9"/>
	<path class="st13" d="M1332.4,822.6L1332.4,822.6c-27.2,11.4-57.8,11.7-85.2,0.8l-1.9-0.8"/>
	<path class="st13" d="M1421.8,822.6L1421.8,822.6c-27.2,11.4-57.8,11.7-85.2,0.8l-1.9-0.8"/>
	<rect x="1477.8" y="905.9" class="st14" width="204.5" height="169.1"/>
	<g>
		<path class="st10" d="M1322.2,945.1h-65v-13.5h48C1313.3,931.6,1320.4,937.2,1322.2,945.1L1322.2,945.1z"/>
		<polygon class="st10" points="1306.9,938.4 1263.6,938.4 1266.7,918.4 1300.5,918.4 		"/>
		<circle class="st12" cx="1306.9" cy="945.1" r="6.3"/>
		<circle class="st12" cx="1271.2" cy="945.1" r="6.3"/>
		<polygon class="st14" points="1300.8,929.7 1298.2,921.6 1269.4,921.6 1268.2,929.7 		"/>
		<rect x="1280.7" y="920.3" class="st10" width="1.6" height="12.1"/>
	</g>
	<rect x="1329.9" y="804.7" class="st12" width="5" height="148.2"/>
	<path class="st12" d="M500.8,1109.3c27-28.6,65.2-46.5,107.7-46.5c42.4,0,80.7,17.9,107.7,46.5h55.5v-65.4H445.3v65.4H500.8z"/>
	<path class="st15" d="M722,1095.3c-17.2-17-37.6-29.6-59.8-37.4h95.4v37.4H722z M459.3,1095.3v-37.4h95.4
		c-22.2,7.8-42.5,20.4-59.8,37.4H459.3z M745.6,1057.9v37.4 M730.8,1057.9v37.4 M716,1057.9v31.6 M701.2,1057.9v20 M686.4,1057.9
		v10.8 M472.5,1095.3v-37.4 M487.3,1095.3v-37.4 M502.1,1089.4v-31.6 M516.9,1077.9v-20 M531.7,1068.7v-10.8"/>
	<g>
		<polygon class="st10" points="614,1040 577,1040 591.8,1014.5 614,1014.5 		"/>
		<rect x="616.7" y="1040" class="st16" width="76.4" height="3.9"/>
		<rect x="572.1" y="1040" class="st16" width="42" height="3.9"/>
		<rect x="695.7" y="1040" class="st16" width="76.4" height="3.9"/>
		<rect x="616.7" y="1014.5" class="st10" width="76.4" height="25.4"/>
		<rect x="695.7" y="1014.5" class="st10" width="76.4" height="25.4"/>
		<g>
			<rect x="707.6" y="1014.5" class="st12" width="13.2" height="16.3"/>
			<rect x="727.3" y="1014.5" class="st12" width="13.2" height="16.3"/>
			<rect x="747" y="1014.5" class="st12" width="13.2" height="16.3"/>
		</g>
		<g>
			<rect x="628.6" y="1014.5" class="st12" width="13.2" height="16.3"/>
			<rect x="648.3" y="1014.5" class="st12" width="13.2" height="16.3"/>
			<rect x="668" y="1014.5" class="st12" width="13.2" height="16.3"/>
		</g>
		<polygon class="st12" points="582.3,1030.9 600.4,1030.9 600.4,1014.5 591.8,1014.5 582.3,1030.8 		"/>
	</g>
	<polygon class="st11" points="345,965 327,965 327,985.5 299.8,985.5 299.8,1023.9 286.3,1023.9 286.3,992.5 271.6,992.5 
		271.6,1034.1 247.4,1034.1 247.4,976.1 237.8,965 237.8,1003 211.3,1003 211.3,965 206.2,965 206.2,991.9 183.9,1014.3 
		165.2,1014.3 165.2,1030.1 153.3,1030.1 153.3,994.4 139.7,980.8 139.7,1016.6 130.8,1007.7 130.8,980.1 121.1,980.1 121.1,965 
		110,965 110,1079.5 365,1079.5 365,1023.9 345,1023.9 	"/>
	<polygon class="st12" points="339.9,1045.4 325,1025.1 311.4,1025.1 311.4,1006.1 280.1,1006.1 280.1,1025.1 260,1025.1 260,985.4 
		247,985.4 247,1045.4 231.8,1045.4 231.8,1035.1 216.7,1035.1 216.7,1013 191.3,1013 191.3,1029.3 176.7,1043.5 176.7,984.2 
		152.3,984.2 152.3,1025.1 110,1025.1 110,1079.5 152.3,1079.5 157,1079.5 173.4,1079.5 176.7,1079.5 191.3,1079.5 216.7,1079.5 
		247,1079.5 260,1079.5 277,1079.5 280.1,1079.5 311.4,1079.5 365,1079.5 365,1045.4 	"/>
	<g>
		<path class="st12" d="M130.9,1018.7L130.9,1018.7c-3.8,0-6.8-3.1-6.8-6.8v-5.8h13.7v5.8C137.7,1015.7,134.6,1018.7,130.9,1018.7z"
			/>
		<line class="st17" x1="134" y1="1017" x2="136.5" y2="1025.6"/>
		<line class="st17" x1="127.6" y1="1017" x2="125.1" y2="1025.6"/>
		<line class="st17" x1="130.9" y1="1018.7" x2="130.9" y2="1026.1"/>
	</g>
	<polygon class="st12" points="139.2,1006.7 122.7,1006.7 130.9,999.6 	"/>
	<g>
		<rect x="136.5" y="1034.6" class="st9" width="3.7" height="7.7"/>
		<rect x="127.3" y="1034.6" class="st9" width="3.7" height="7.7"/>
		<rect x="118.1" y="1034.6" class="st9" width="3.7" height="7.7"/>
		<rect x="136.5" y="1046.6" class="st9" width="3.7" height="7.7"/>
		<rect x="127.3" y="1046.6" class="st9" width="3.7" height="7.7"/>
		<rect x="118.1" y="1046.6" class="st9" width="3.7" height="7.7"/>
		<rect x="136.5" y="1058.6" class="st9" width="3.7" height="7.7"/>
		<rect x="127.3" y="1058.6" class="st9" width="3.7" height="7.7"/>
		<rect x="118.1" y="1058.6" class="st9" width="3.7" height="7.7"/>
	</g>
	<g>
		<rect x="196.7" y="1022.2" class="st9" width="1.8" height="18.7"/>
		<rect x="201.7" y="1022.2" class="st9" width="1.8" height="18.7"/>
		<rect x="206.7" y="1022.2" class="st9" width="1.8" height="18.7"/>
	</g>
	<g>
		<rect x="196.7" y="1044.2" class="st9" width="1.8" height="18.7"/>
		<rect x="201.7" y="1044.2" class="st9" width="1.8" height="18.7"/>
		<rect x="206.7" y="1044.2" class="st9" width="1.8" height="18.7"/>
	</g>
	<g>
		<rect x="252" y="1033.7" class="st9" width="3.5" height="3.5"/>
		<rect x="268.5" y="1033.7" class="st9" width="3.5" height="3.5"/>
		<rect x="252" y="1041.9" class="st9" width="3.5" height="3.5"/>
		<rect x="260.2" y="1041.9" class="st9" width="3.5" height="3.5"/>
		<rect x="268.5" y="1041.9" class="st9" width="3.5" height="3.5"/>
		<rect x="252" y="993.2" class="st9" width="3.5" height="3.5"/>
		<rect x="252" y="1001.4" class="st9" width="3.5" height="3.5"/>
		<rect x="252" y="1009.7" class="st9" width="3.5" height="3.5"/>
		<rect x="260.2" y="1050.1" class="st9" width="3.5" height="3.5"/>
		<rect x="268.5" y="1050.1" class="st9" width="3.5" height="3.5"/>
	</g>
	<g>
		<rect x="318.5" y="1033.6" class="st9" width="3.5" height="3.5"/>
		<rect x="318.5" y="1041.9" class="st9" width="3.5" height="3.5"/>
		<rect x="318.5" y="1050.1" class="st9" width="3.5" height="3.5"/>
	</g>
	<g>
		<rect x="167.4" y="994.7" class="st9" width="3.5" height="3.5"/>
		<rect x="167.4" y="1002.9" class="st9" width="3.5" height="3.5"/>
		<rect x="167.4" y="1011.2" class="st9" width="3.5" height="3.5"/>
		<rect x="159.4" y="1002.9" class="st9" width="3.5" height="3.5"/>
		<rect x="159.4" y="1011.2" class="st9" width="3.5" height="3.5"/>
		<rect x="159.4" y="1019.2" class="st9" width="3.5" height="3.5"/>
	</g>
	<g>
		<g>
			<rect x="286.4" y="1021.8" class="st9" width="7.6" height="3.7"/>
			<rect x="286.4" y="1027.6" class="st9" width="7.6" height="3.7"/>
		</g>
		<g>
			<rect x="295.5" y="1021.8" class="st9" width="7.6" height="3.7"/>
			<rect x="295.5" y="1027.6" class="st9" width="7.6" height="3.7"/>
		</g>
		<path class="st9" d="M303.1,1019.6h-16.7l0,0c0-3.6,2.9-6.5,6.5-6.5h3.6C300.2,1013,303.1,1016,303.1,1019.6L303.1,1019.6z"/>
	</g>
	<line class="st13" x1="303.1" y1="1008.5" x2="303.1" y2="997.6"/>
	<line class="st13" x1="159.5" y1="985.7" x2="159.5" y2="974.8"/>
	<rect x="1336.4" y="521.2" class="st11" width="286" height="192.4"/>
	<g>
		<path class="st12" d="M1500.1,701.2h-28.8c-33.3,0-60.3-27.1-60.3-60.3v-34.8c0-22.2-18.1-40.3-40.3-40.3h-33.8v-20h33.8
			c33.3,0,60.3,27.1,60.3,60.3v34.8c0,22.2,18.1,40.3,40.3,40.3h28.8c22.2,0,40.3-18.1,40.3-40.3V521.3h20v119.6
			C1560.4,674.1,1533.4,701.2,1500.1,701.2z"/>
	</g>
	<path class="st18" d="M1336.9,555.8h33.8c27.8,0,50.3,22.5,50.3,50.3v34.8c0,27.8,22.5,50.3,50.3,50.3h28.8
		c27.8,0,50.3-22.5,50.3-50.3V521.3"/>
	<g>
		<rect x="1336.9" y="596" class="st12" width="285.5" height="49.5"/>
		<line class="st19" x1="1336.9" y1="596" x2="1622.4" y2="596"/>
		<line class="st19" x1="1336.9" y1="620.8" x2="1622.4" y2="620.8"/>
		<g>
			<g>
				<line class="st19" x1="1336.9" y1="608.4" x2="1342.9" y2="608.4"/>
				<line class="st20" x1="1354.8" y1="608.4" x2="1610.5" y2="608.4"/>
				<line class="st19" x1="1616.4" y1="608.4" x2="1622.4" y2="608.4"/>
			</g>
		</g>
		<g>
			<g>
				<line class="st19" x1="1336.9" y1="633.2" x2="1342.9" y2="633.2"/>
				<line class="st20" x1="1354.8" y1="633.2" x2="1610.5" y2="633.2"/>
				<line class="st19" x1="1616.4" y1="633.2" x2="1622.4" y2="633.2"/>
			</g>
		</g>
		<line class="st19" x1="1622.4" y1="645.5" x2="1336.9" y2="645.5"/>
	</g>
	<g>
		<path class="st16" d="M1590.9,613.8h-23c-1.7,0-3-1.3-3-3V606c0-1.7,1.3-3,3-3h23V613.8z"/>
		<rect x="1583.4" y="600.8" class="st10" width="4.3" height="2.2"/>
		<rect x="1571" y="600.8" class="st10" width="4.3" height="2.2"/>
		<rect x="1583.4" y="613.8" class="st10" width="4.3" height="2.2"/>
		<rect x="1571" y="613.8" class="st10" width="4.3" height="2.2"/>
		<rect x="1588.1" y="604.1" class="st12" width="1.8" height="8.3"/>
		<rect x="1568.1" y="604.1" class="st12" width="2.9" height="8.3"/>
	</g>
	<g>
		<path class="st16" d="M1479.6,627.7h23c1.7,0,3,1.3,3,3v4.8c0,1.7-1.3,3-3,3h-23V627.7z"/>
		<rect x="1482.9" y="638.5" class="st10" width="4.3" height="2.2"/>
		<rect x="1495.2" y="638.5" class="st10" width="4.3" height="2.2"/>
		<rect x="1482.9" y="625.5" class="st10" width="4.3" height="2.2"/>
		<rect x="1495.2" y="625.5" class="st10" width="4.3" height="2.2"/>
		<rect x="1480.6" y="629.1" class="st12" width="1.8" height="8.3"/>
		<rect x="1499.5" y="629.1" class="st12" width="2.9" height="8.3"/>
	</g>
	<g>
		<path class="st10" d="M1423.7,613.8h-23c-1.7,0-3-1.3-3-3V606c0-1.7,1.3-3,3-3h23V613.8z"/>
		<rect x="1416.2" y="600.8" class="st16" width="4.3" height="2.2"/>
		<rect x="1403.9" y="600.8" class="st16" width="4.3" height="2.2"/>
		<rect x="1416.2" y="613.8" class="st16" width="4.3" height="2.2"/>
		<rect x="1403.9" y="613.8" class="st16" width="4.3" height="2.2"/>
		<rect x="1421" y="604.1" class="st12" width="1.8" height="8.3"/>
		<rect x="1401" y="604.1" class="st12" width="2.9" height="8.3"/>
	</g>
	<path class="st0" d="M1472.7,547.9L1472.7,547.9c0-8.8-7.1-15.9-15.9-15.9h-11.5c-8.8,0-15.9,7.1-15.9,15.9l0,0
		c0,8.8,7.1,15.9,15.9,15.9h17.3l0,0c0,8.8,7.1,15.9,15.9,15.9h35c8.8,0,15.9-7.1,15.9-15.9l0,0c0-8.8-7.1-15.9-15.9-15.9H1472.7z"
		/>
	<path class="st14" d="M1590.9,579.7L1590.9,579.7c-9.8,0-17.7-7.9-17.7-17.7l0,0c0-9.8,7.9-17.7,17.7-17.7l0,0
		c9.8,0,17.7,7.9,17.7,17.7l0,0C1608.6,571.8,1600.7,579.7,1590.9,579.7z"/>
	<path class="st14" d="M1381.9,694.1h-16.7c-9.8,0-17.7-7.9-17.7-17.7l0,0c0-9.8,7.9-17.7,17.7-17.7h16.7c9.8,0,17.7,7.9,17.7,17.7
		l0,0C1399.6,686.2,1391.7,694.1,1381.9,694.1z"/>
	<path class="st0" d="M1592.9,658.7h-7.8c-6.2,0-11.2,5-11.2,11.2v7.8l0,0c-6.2,0-11.2,5-11.2,11.2v0.1c0,6.2,5,11.2,11.2,11.2h0.1
		c6.2,0,11.2-5,11.2-11.2l0,0h7.8c6.2,0,11.2-5,11.2-11.2V670C1604.2,663.8,1599.2,658.7,1592.9,658.7z"/>
	<rect x="252" y="893.9" class="st9" width="194.8" height="18.6"/>
	<g>
		<path class="st10" d="M367.4,844H295v44h94.6v-8.5c0-5.2-3.4-9.8-8.4-11.3l-8.6-2.7L367.4,844z"/>
		<polygon class="st12" points="367.3,865.4 363.3,849.2 352.4,849.2 352.4,865.4 		"/>
		<rect x="331.2" y="849.2" class="st12" width="16.2" height="16.2"/>
		<rect x="318.7" y="849" class="st12" width="8.4" height="8.4"/>
		<path class="st12" d="M317.8,844c0-3.6,2.9-6.5,6.5-6.5s6.5,2.9,6.5,6.5"/>
		<polyline class="st21" points="324.2,837.7 324.2,834.6 321.6,831.9 		"/>
		<line class="st21" x1="309.5" y1="828.8" x2="302.1" y2="821.3"/>
		<path class="st12" d="M300.1,823.8c-1.4-1.4-1.4-3.6,0-5s3.6-1.4,5,0"/>
		<circle class="st12" cx="372.6" cy="888" r="9.6"/>
		<circle class="st12" cx="312.8" cy="888" r="9.6"/>
		<rect x="346.2" y="838.9" class="st12" width="12.5" height="5.1"/>
		<line class="st21" x1="355.4" y1="841.4" x2="355.4" y2="817.6"/>
		<path class="st12" d="M322.1,812.7c5.1,5.1,5.1,13.3,0,18.3c-5.1,5.1-13.3,5.1-18.3,0"/>
	</g>
	
		<rect x="1404.6" y="535.8" transform="matrix(0.7071 -0.7071 0.7071 0.7071 31.0601 1153.7206)" class="st0" width="7.1" height="7.1"/>
	
		<rect x="1491.7" y="663.3" transform="matrix(0.7071 -0.7071 0.7071 0.7071 -33.5883 1252.5951)" class="st0" width="7.1" height="7.1"/>
	
		<rect x="1407.2" y="695.6" transform="matrix(0.7071 -0.7071 0.7071 0.7071 -81.1348 1202.3351)" class="st0" width="7.1" height="7.1"/>
	
		<rect x="1602.8" y="533.5" transform="matrix(0.7071 -0.7071 0.7071 0.7071 90.7565 1293.1124)" class="st0" width="7.1" height="7.1"/>
	
		<rect x="1352.2" y="576.1" transform="matrix(0.7071 -0.7071 0.7071 0.7071 -12.7919 1128.4017)" class="st0" width="7.1" height="7.1"/>
	<polygon class="st16" points="387,335.2 362.6,254 319.9,302.2 309.5,283.2 268,335.2 	"/>
	<polygon class="st16" points="222.2,338.2 185.9,323.9 155.6,272.8 133.5,296.6 110.4,250 89.1,338.2 	"/>
	<rect x="323.5" y="258.3" class="st14" width="4" height="96"/>
	<rect x="322" y="325.7" class="st14" width="7" height="29.4"/>
	<rect x="146.6" y="258.3" class="st14" width="4" height="96"/>
	<rect x="145.1" y="325.7" class="st14" width="7" height="29.4"/>
	<g>
		<path class="st9" d="M351,362.9c3.3,5.4,9.2,9,15.9,9c6.7,0,12.7-3.6,15.9-9H351z"/>
		<path class="st9" d="M277.7,362.9c3.3,5.4,9.2,9,15.9,9c6.7,0,12.7-3.6,15.9-9H277.7z"/>
		<path class="st9" d="M241.1,362.9c3.3,5.4,9.2,9,15.9,9c6.7,0,12.7-3.6,15.9-9H241.1z"/>
		<path class="st9" d="M204.4,362.9c3.3,5.4,9.2,9,15.9,9s12.7-3.6,15.9-9H204.4z"/>
		<path class="st9" d="M167.8,362.9c3.3,5.4,9.2,9,15.9,9s12.7-3.6,15.9-9H167.8z"/>
		<path class="st9" d="M131.1,362.9c3.3,5.4,9.2,9,15.9,9s12.7-3.6,15.9-9H131.1z"/>
		<path class="st9" d="M94.5,362.9c3.3,5.4,9.2,9,15.9,9c6.7,0,12.7-3.6,15.9-9H94.5z"/>
		<path class="st9" d="M314.4,362.9c3.3,5.4,9.2,9,15.9,9c6.7,0,12.7-3.6,15.9-9H314.4z"/>
	</g>
	<g>
		<path class="st9" d="M298.6,378.4c3.3,5.4,9.2,9,15.9,9c6.7,0,12.7-3.6,15.9-9H298.6z"/>
		<path class="st9" d="M261.9,378.4c3.3,5.4,9.2,9,15.9,9c6.7,0,12.7-3.6,15.9-9H261.9z"/>
		<path class="st9" d="M225.3,378.4c3.3,5.4,9.2,9,15.9,9s12.7-3.6,15.9-9H225.3z"/>
		<path class="st9" d="M188.6,378.4c3.3,5.4,9.2,9,15.9,9s12.7-3.6,15.9-9H188.6z"/>
		<path class="st9" d="M152,378.4c3.3,5.4,9.2,9,15.9,9s12.7-3.6,15.9-9H152z"/>
		<path class="st9" d="M115.3,378.4c3.3,5.4,9.2,9,15.9,9s12.7-3.6,15.9-9H115.3z"/>
		<path class="st9" d="M335.2,378.4c3.3,5.4,9.2,9,15.9,9c6.7,0,12.7-3.6,15.9-9H335.2z"/>
	</g>
	<g>
		<path class="st9" d="M224,347.1c2.6,4.3,7.4,7.2,12.8,7.2c5.4,0,10.2-2.9,12.8-7.2H224z"/>
		<path class="st9" d="M193.8,347.1c2.6,4.3,7.4,7.2,12.8,7.2c5.4,0,10.2-2.9,12.8-7.2H193.8z"/>
		<path class="st9" d="M163.7,347.1c2.6,4.3,7.4,7.2,12.8,7.2c5.4,0,10.2-2.9,12.8-7.2H163.7z"/>
		<path class="st9" d="M103.8,347.1c2.6,4.3,7.4,7.2,12.8,7.2s10.2-2.9,12.8-7.2H103.8z"/>
		<path class="st9" d="M338.3,347.1c2.6,4.3,7.4,7.2,12.8,7.2s10.2-2.9,12.8-7.2H338.3z"/>
		<path class="st9" d="M254.1,347.1c2.6,4.3,7.4,7.2,12.8,7.2s10.2-2.9,12.8-7.2H254.1z"/>
		<path class="st9" d="M284.3,347.1c2.6,4.3,7.4,7.2,12.8,7.2s10.2-2.9,12.8-7.2H284.3z"/>
	</g>
	<g>
		<polygon class="st12" points="310.2,311.6 292.2,311.6 296.9,304.8 310.2,304.8 		"/>
		<circle class="st14" cx="297.9" cy="311.6" r="1.9"/>
		<circle class="st14" cx="306.9" cy="311.6" r="1.9"/>
	</g>
	<g>
		<polygon class="st10" points="194.7,312.6 176.7,312.6 181.4,305.8 194.7,305.8 		"/>
		<circle class="st12" cx="182.4" cy="312.6" r="1.9"/>
		<circle class="st12" cx="191.4" cy="312.6" r="1.9"/>
	</g>
	<g>
		<polygon class="st12" points="103.8,312.6 121.8,312.6 117,305.8 103.8,305.8 		"/>
		<circle class="st14" cx="116.1" cy="312.6" r="1.9"/>
		<circle class="st14" cx="107" cy="312.6" r="1.9"/>
	</g>
	<g>
		<polygon class="st10" points="335.8,311.6 353.8,311.6 349,304.8 335.8,304.8 		"/>
		<circle class="st12" cx="348.1" cy="311.6" r="1.9"/>
		<circle class="st12" cx="339" cy="311.6" r="1.9"/>
	</g>
	<line class="st22" x1="325.4" y1="237.4" x2="325.4" y2="261.8"/>
	<line class="st22" x1="148.5" y1="237.4" x2="148.5" y2="261.8"/>
	<g>
		<g>
			<path class="st21" d="M182.1,254c-3.2,0-6.1,1.5-8,3.7c-1.9-2.3-4.8-3.7-8-3.7"/>
		</g>
		<g>
			<path class="st21" d="M201.6,246.3c-3.2,0-6.1,1.5-8,3.7c-1.9-2.3-4.8-3.7-8-3.7"/>
		</g>
		<g>
			<path class="st21" d="M216.8,267.2c-3.2,0-6.1,1.5-8,3.7c-1.9-2.3-4.8-3.7-8-3.7"/>
		</g>
	</g>
	<g>
		<polygon class="st16" points="424.1,872.8 400.9,872.8 412.5,817.6 		"/>
		<line class="st13" x1="412.5" y1="870.1" x2="412.5" y2="895"/>
	</g>
	<g>
		<polygon class="st16" points="283.4,878.5 266.2,878.5 274.8,837.5 		"/>
		<line class="st13" x1="274.8" y1="876.5" x2="274.8" y2="895"/>
	</g>
	<g>
		<polygon class="st16" points="443.5,880.7 428.6,880.7 436,845.2 		"/>
		<line class="st13" x1="436" y1="879" x2="436" y2="895"/>
	</g>
	<path class="st23" d="M366.7,875L366.7,875c1.6,0,2.8-1.3,2.8-2.8v-2.9H350v14.8h7.6l0,0C357.6,879,361.7,875,366.7,875z"/>
	<path class="st23" d="M354.7,884.1h-29.4l0,0c0-5-4.1-9.1-9.1-9.1l0,0c-1.6,0-2.8-1.3-2.8-2.8v-2.9h41.3"/>
	<rect x="389.6" y="880.3" class="st12" width="5.3" height="7.7"/>
	<rect x="842.4" y="834.8" class="st24" width="195.5" height="260.4"/>
	<rect x="842.4" y="981" class="st9" width="56.4" height="97.5"/>
	<path class="st12" d="M859.5,1034.4h-17.1v-180h22.7c10.8,0,21.3,3.8,29.6,10.8l0,0c10.3,8.7,16.3,21.6,16.3,35.1v80.9
		c0,10.2-3.4,20.2-9.7,28.2l-5.6,7.2C887,1027.9,873.6,1034.4,859.5,1034.4z"/>
	<path class="st9" d="M911.1,965.4L911.1,965.4v-43.3h1c6.1,0,11,5.1,10.7,11.2l-1,21.9C921.5,960.9,916.8,965.4,911.1,965.4z"/>
	<path class="st12" d="M842.4,1057.6h77.7c24.3,0,48.2,6.2,69.5,18l6.6,3.7H842.4V1057.6z"/>
	<path class="st9" d="M1021.4,961.7h-13v-23c0-7.2,5.8-13,13-13l0,0V961.7z"/>
	<path class="st9" d="M988.3,1028.3h33.1v-66.6H958V998C958,1014.8,971.6,1028.3,988.3,1028.3z"/>
	<g>
		<path class="st10" d="M1000.6,1019.1h-49c-4.4,0-8-3.6-8-8V893.7c0-4.4,3.6-8,8-8h49c4.4,0,8,3.6,8,8v117.4
			C1008.6,1015.6,1005,1019.1,1000.6,1019.1z"/>
		<circle class="st12" cx="985.4" cy="889.7" r="0.9"/>
		<path class="st12" d="M981.1,890.2h-16.3c-0.2,0-0.3-0.1-0.3-0.3l0,0c0-0.2,0.1-0.3,0.3-0.3h16.3c0.2,0,0.3,0.1,0.3,0.3l0,0
			C981.4,890.1,981.3,890.2,981.1,890.2z"/>
		<path class="st12" d="M998.2,889.2h-4.9v0.2c0,2.4-1.9,4.3-4.3,4.3h-25.3c-2.4,0-4.3-1.9-4.3-4.3v-0.2H954c-3.8,0-6.9,3.1-6.9,6.9
			v44.8v3.9v53.9c0,3.8,3.1,6.9,6.9,6.9h44.2c3.8,0,6.9-3.1,6.9-6.9v-53.9v-3.9v-44.8C1005.1,892.3,1002,889.2,998.2,889.2z"/>
		<circle class="st12" cx="974.9" cy="1011.9" r="4"/>
		<circle class="st9" cx="991.3" cy="909.7" r="5"/>
		<circle class="st9" cx="961" cy="994.1" r="5"/>
		<path class="st15" d="M991.3,909.7h-26.7c-2.2,0-4,1.8-4,4v17.9c0,2.2,1.8,4,4,4h29.5c2.2,0,4,1.8,4,4v46.6c0,2.2-1.8,4-4,4h-8.7
			c-2.2,0-4-1.8-4-4v-20.4c0-2.2-1.8-4-4-4H965c-2.2,0-4,1.8-4,4v28.4"/>
		<rect x="968.9" y="919.2" class="st11" width="26.9" height="7.6"/>
		<rect x="967.7" y="970" class="st11" width="6.6" height="6.6"/>
		<rect x="967.6" y="980.4" class="st11" width="6.6" height="6.6"/>
		<rect x="986.4" y="963.6" class="st11" width="6.6" height="17"/>
		<rect x="959" y="943" class="st11" width="17.1" height="3.8"/>
		<rect x="979.6" y="943" class="st11" width="8.1" height="12.3"/>
		<rect x="959" y="951.5" class="st11" width="17.1" height="3.8"/>
	</g>
	<path class="st9" d="M947.1,938.5h-7c-3.6,0-6.5-2.9-6.5-6.5l0,0c0-3.6,2.9-6.5,6.5-6.5h7c3.6,0,6.5,2.9,6.5,6.5l0,0
		C953.6,935.6,950.7,938.5,947.1,938.5z"/>
	<path class="st9" d="M947.1,954h-7c-3.6,0-6.5-2.9-6.5-6.5l0,0c0-3.6,2.9-6.5,6.5-6.5h7c3.6,0,6.5,2.9,6.5,6.5l0,0
		C953.6,951.1,950.7,954,947.1,954z"/>
	<path class="st9" d="M947.1,969.6h-7c-3.6,0-6.5-2.9-6.5-6.5l0,0c0-3.6,2.9-6.5,6.5-6.5h7c3.6,0,6.5,2.9,6.5,6.5l0,0
		C953.6,966.7,950.7,969.6,947.1,969.6z"/>
	<path class="st9" d="M947.1,985.1h-7c-3.6,0-6.5-2.9-6.5-6.5l0,0c0-3.6,2.9-6.5,6.5-6.5h7c3.6,0,6.5,2.9,6.5,6.5l0,0
		C953.6,982.2,950.7,985.1,947.1,985.1z"/>
	<rect x="973" y="1029.7" class="st12" width="49.5" height="65.5"/>
	<polygon class="st11" points="1671.1,972.9 1671.1,915.2 1642.3,915.2 1642.3,982.9 1618.6,982.9 1618.6,961.3 1589.8,961.3 
		1589.8,972.9 1575.7,972.9 1575.7,925.2 1554.3,925.2 1554.3,982.9 1533.5,982.9 1533.5,941.8 1504.7,941.8 1504.7,962.9 
		1477.8,962.9 1477.8,997.5 1504.7,997.5 1533.5,997.5 1554.3,997.5 1575.7,997.5 1589.8,997.5 1618.6,997.5 1642.3,997.5 
		1671.1,997.5 1682.3,997.5 1682.3,972.9 	"/>
	<g>
		<rect x="1667" y="962.1" class="st12" width="2" height="46.9"/>
		<rect x="1610" y="962" class="st12" width="2" height="46.9"/>
		<rect x="1553.1" y="962.1" class="st12" width="2" height="46.9"/>
		<rect x="1496.2" y="962.1" class="st12" width="2" height="46.9"/>
		<path class="st17" d="M1668,962.1c0,8.5-12.7,15.4-28.5,15.4c-15.7,0-28.5-6.9-28.5-15.4"/>
		<path class="st17" d="M1682.3,975.4c-8.6-2.6-14.3-7.6-14.3-13.3"/>
		<path class="st17" d="M1497.2,962.1c0,6.8-8.1,12.5-19.4,14.6"/>
		<path class="st17" d="M1611.1,962.1c0,8.5-12.7,15.4-28.5,15.4c-15.7,0-28.5-6.9-28.5-15.4"/>
		<path class="st17" d="M1554.1,962.1c0,8.5-12.7,15.4-28.5,15.4c-15.7,0-28.5-6.9-28.5-15.4"/>
	</g>
	<g>
		<path class="st12" d="M1534,1014.4L1534,1014.4c-1.2,0-2.1-0.9-2.1-2.1v-7.5h4.2v7.5C1536.1,1013.5,1535.1,1014.4,1534,1014.4z"/>
		<polyline class="st25" points="1535.1,1005.7 1536.7,1009.1 1540.1,1011.2 		"/>
		<polyline class="st25" points="1532.1,1006.1 1528.8,1007.4 1527.7,1011.5 		"/>
		<line class="st17" x1="1534.3" y1="1013" x2="1538.9" y2="1022.7"/>
		<line class="st17" x1="1533.6" y1="1013" x2="1530.5" y2="1022.7"/>
		<circle class="st12" cx="1533.6" cy="1002.4" r="1.5"/>
	</g>
	<g>
		<path class="st12" d="M1644.6,1013.8L1644.6,1013.8c1.2,0,2.1-0.9,2.1-2.1v-7.5h-4.2v7.5
			C1642.5,1012.9,1643.5,1013.8,1644.6,1013.8z"/>
		<polyline class="st25" points="1643.6,1005.1 1641.8,1007.9 1638.5,1010.6 		"/>
		<polyline class="st25" points="1646.5,1005.5 1648.1,1008.8 1648.1,1012.4 		"/>
		<line class="st17" x1="1644.3" y1="1012.4" x2="1642.4" y2="1022.1"/>
		<line class="st17" x1="1645" y1="1012.4" x2="1648.1" y2="1022.1"/>
		<circle class="st12" cx="1645" cy="1001.8" r="1.5"/>
	</g>
	<g>
		<path class="st12" d="M1509.9,1014.4L1509.9,1014.4c1.2,0,2.1-0.9,2.1-2.1v-7.5h-4.2v7.5
			C1507.8,1013.4,1508.7,1014.4,1509.9,1014.4z"/>
		<polyline class="st25" points="1508.8,1005.7 1508.3,1009.6 1506.3,1012.6 		"/>
		<polyline class="st25" points="1511.7,1006 1513.4,1009.1 1513.3,1012.9 		"/>
		<line class="st17" x1="1509.5" y1="1012.9" x2="1508.3" y2="1022.6"/>
		<line class="st17" x1="1510.2" y1="1012.9" x2="1515.7" y2="1021.7"/>
		<circle class="st12" cx="1510.2" cy="1002.3" r="1.5"/>
	</g>
	<rect x="1477.8" y="1026.3" class="st16" width="204.5" height="30.9"/>
	<line class="st18" x1="1477.8" y1="1041.2" x2="1682.3" y2="1041.2"/>
	<g>
		<path class="st12" d="M1567.9,1050.3h-1.3c-1.8,0-3.2-1.4-3.2-3.2v-14.5h7.7v14.5C1571.1,1048.9,1569.7,1050.3,1567.9,1050.3z"/>
		<polyline class="st26" points="1569.3,1034.2 1575.9,1031.1 1579.8,1023.1 		"/>
		<polyline class="st26" points="1563.8,1034.2 1557.8,1037.3 1555.7,1045 		"/>
		<line class="st13" x1="1569.8" y1="1047.6" x2="1570.1" y2="1066.2"/>
		<line class="st13" x1="1565.3" y1="1047.6" x2="1565.6" y2="1066.2"/>
		<circle class="st12" cx="1566.6" cy="1028" r="2.7"/>
	</g>
	<g>
		<path class="st12" d="M1599.5,1050.7h-1.3c-1.8,0-3.2-1.4-3.2-3.2V1033h7.7v14.5C1602.7,1049.2,1601.3,1050.7,1599.5,1050.7z"/>
		<polyline class="st26" points="1601.5,1034.6 1606.7,1038.4 1606.7,1045.3 		"/>
		<polyline class="st26" points="1595.8,1034.6 1592,1039.6 1588.6,1043 		"/>
		<line class="st13" x1="1600.4" y1="1048" x2="1600.7" y2="1066.5"/>
		<line class="st13" x1="1596.9" y1="1048" x2="1592.8" y2="1065.9"/>
		<circle class="st12" cx="1598.2" cy="1028.3" r="2.7"/>
	</g>
	<rect x="842.4" y="1072.5" class="st12" width="137.2" height="22.8"/>
	<path class="st27" d="M1465.5,158.5h-153.3c-20.4,0-37,16.6-37,37v143"/>
	<path class="st27" d="M149.2,413.1v10.3c0,20.9,16.9,37.8,37.8,37.8h187.6c20.9,0,37.8,16.9,37.8,37.8v234.6
		c0,20.9,16.9,37.8,37.8,37.8h76.4"/>
	<g>
		<rect x="220.6" y="498.6" class="st11" width="303.3" height="177.8"/>
		<path class="st16" d="M311.3,524L311.3,524c22.3,0,40.4,18.1,40.4,40.4v81.8h-80.8v-81.8C270.9,542.1,289,524,311.3,524z"/>
		<path class="st16" d="M406.4,524L406.4,524c22.3,0,40.4,18.1,40.4,40.4v81.8H366v-81.8C366,542.1,384,524,406.4,524z"/>
		<path class="st16" d="M523.9,530.9c-6.4-4.3-14.2-6.9-22.6-6.9l0,0c-22.3,0-40.4,18.1-40.4,40.4v81.8h63V530.9z"/>
		<path class="st16" d="M220.6,524.3v122h36.1v-81.8C256.7,543.6,240.9,526.4,220.6,524.3z"/>
		<polygon class="st12" points="508.3,504.5 508.3,578.5 488.8,578.5 488.8,646.2 256.4,646.2 256.4,617.4 235.6,617.4 235.6,585.8 
			220.6,585.8 220.6,676.4 523.9,676.4 523.9,504.5 		"/>
		<g>
			<g>
				<circle class="st28" cx="352.4" cy="629.7" r="14.2"/>
				<circle class="st28" cx="306.6" cy="629.7" r="14.2"/>
				<path class="st28" d="M333.6,598.7"/>
				<polyline class="st29" points="352.8,629.2 341.7,605.9 341.7,598.7 				"/>
				<line class="st30" x1="343.8" y1="598.7" x2="333.6" y2="598.7"/>
				<polyline class="st28" points="319.7,608.3 342.5,607.7 344.2,611.2 326.7,629.9 				"/>
				<polyline class="st28" points="319.7,608.3 306.2,629.9 326.7,629.9 				"/>
				<line class="st28" x1="317.6" y1="602.8" x2="326.7" y2="629.9"/>
				<path class="st12" d="M323.1,603.2l-9.3,1.4c-2.3,0.4-4.4-1.4-4.4-3.8l0,0h15.7l0,0C325.1,602,324.2,603,323.1,603.2z"/>
				<circle class="st12" cx="306.2" cy="629.9" r="2.4"/>
				<circle class="st12" cx="326.7" cy="629.9" r="4"/>
			</g>
			<g>
				<path class="st10" d="M313.1,593.4l9.8,4.7l12.3-22l0,0c-2.9-2.2-7.1-1.7-9.4,1.2L313.1,593.4z"/>
				<circle class="st10" cx="336" cy="568.9" r="5.2"/>
				<g>
					<path class="st10" d="M332.9,578.8l1.5,9l-0.3-0.6l5.6,10.5c0.3,0.5,0.1,1.1-0.4,1.4c-0.4,0.2-1,0.1-1.3-0.3l-7.5-9.2l-0.1-0.1
						l-0.2-0.5l-3.2-8.5c-0.6-1.6,0.2-3.3,1.8-3.9c1.6-0.6,3.3,0.2,3.9,1.8C332.8,578.4,332.9,578.6,332.9,578.8z"/>
				</g>
				<g>
					<path class="st10" d="M319,594.5l13.5,15.2l1.4,1.6l-1.1,1.5l-10.2,14.5l-0.4-2l4.7,3.9c0.5,0.4,0.6,1.2,0.2,1.7
						s-1.1,0.6-1.6,0.2l-5.1-3.3l-1.1-0.7l0.7-1.3l8.5-15.5l0.3,3.1l-14.8-14c-1.4-1.3-1.5-3.5-0.2-5s3.5-1.5,5-0.2
						C318.8,594.4,318.9,594.5,319,594.5z"/>
				</g>
			</g>
		</g>
		<g>
			<path class="st14" d="M465.8,594.2L465.8,594.2c3.9,0,7,3.1,7,7v45h-14v-45C458.8,597.3,461.9,594.2,465.8,594.2z"/>
			<path class="st31" d="M465.8,597.5v-76.8c0-4.9-3.9-8.8-8.8-8.8h-8.8c-4.9,0-8.8,3.9-8.8,8.8l0,0"/>
			<path class="st14" d="M449.3,526.4c-1.9-3.5-5.6-5.9-9.9-5.9s-8,2.4-9.9,5.9H449.3z"/>
			
				<linearGradient id="SVGID_1_" gradientUnits="userSpaceOnUse" x1="439.35" y1="501" x2="439.35" y2="607.3" gradientTransform="matrix(1 0 0 -1 0 1136)">
				<stop  offset="0" style="stop-color:#FFFFFF;stop-opacity:0"/>
				<stop  offset="1" style="stop-color:#FFFFFF;stop-opacity:0.2"/>
			</linearGradient>
			<polygon class="st32" points="479.3,635 399.4,635 429.4,528.7 449.3,528.7 			"/>
		</g>
		<rect x="354.7" y="519.3" class="st14" width="8.3" height="8.3"/>
		<rect x="371.2" y="507.7" class="st14" width="8.3" height="8.3"/>
		<rect x="245.5" y="507.7" class="st14" width="8.3" height="8.3"/>
		<rect x="484.2" y="505.8" class="st14" width="8.3" height="8.3"/>
	</g>
	<path class="st11" d="M1427.8,453.9V378c-7.9-1.1-16.3,2-21.4,9.2c-7.8,11.1-23.7,12.7-33.6,3.3l-5-4.8c-9.1-8.6-23.4-8.1-31.8,1.2
		l-3.1,3.4c-10.5,11.6-29.4,9-36.4-5l-10.1-20.2c-8.6-17.2-33.5-16.1-40.6,1.8l-12.6,31.8V454L1427.8,453.9L1427.8,453.9z"/>
	<polygon class="st12" points="1427.8,453.9 1235.4,453.9 1427.8,428 	"/>
	<g>
		<path class="st10" d="M1397.6,396.3l-11,0.4l-2.4-25.5l0,0c3.6-0.9,7.3,1.3,8.2,4.9L1397.6,396.3z"/>
		<circle class="st10" cx="1386.4" cy="364.1" r="5.3"/>
		<g>
			<path class="st10" d="M1390.1,377.1l-8.5,11.8l-0.4,0.6l-0.3,0.2l-11.5,5.3c-0.5,0.2-1.1,0-1.3-0.5c-0.2-0.5-0.1-1,0.3-1.3
				l10.4-7.2l-0.7,0.7l7.1-12.7c0.8-1.5,2.6-2,4.1-1.2s2,2.6,1.2,4.1C1390.3,376.9,1390.2,377,1390.1,377.1z"/>
		</g>
		<g>
			<path class="st10" d="M1394,400l-10.9,17.3l0.3-1.6l1.6,18l0.1,1.5l-1.3,0.2l-6.1,1c-0.6,0.1-1.2-0.3-1.4-1
				c-0.1-0.6,0.3-1.2,0.8-1.3l5.9-1.7l-1.2,1.7l-3.5-17.7l-0.1-0.7l0.4-0.9l9.2-18.3c0.9-1.7,3-2.4,4.7-1.6c1.7,0.9,2.4,3,1.6,4.7
				C1394.1,399.8,1394.1,399.9,1394,400z"/>
		</g>
		<g>
			<path class="st10" d="M1396.1,397l2.5,15.5l-0.3-0.8l9.8,17.3l1.1,1.9l-2,0.3l-6.1,1c-0.6,0.1-1.3-0.3-1.4-1
				c-0.1-0.6,0.3-1.2,0.9-1.3l5.9-1.6l-0.9,2.3l-11.5-16.3l-0.2-0.2l-0.2-0.6l-4.4-15c-0.5-1.9,0.5-3.8,2.4-4.4
				c1.9-0.5,3.8,0.5,4.4,2.4C1396.1,396.7,1396.1,396.9,1396.1,397z"/>
		</g>
	</g>
	<g>
		<path class="st10" d="M1343.7,427.1l-12.6,4.2c-4.9,1.6-10.1-1.3-11.3-6.3l0,0l17.6-2.7C1340.5,421.8,1343.3,424,1343.7,427.1
			L1343.7,427.1z"/>
		<polygon class="st10" points="1324.3,432.2 1315.7,425.1 1316,419.1 1327.4,426.1 		"/>
		<path class="st10" d="M1317.3,426.4l-3.1-0.2c-2.2-0.2-3.9-1.9-4.2-4.1l0,0l6.8-0.7L1317.3,426.4z"/>
		<g>
			<path class="st10" d="M1338.1,423.2l1.9-2.4c0.7-0.8,1.5-1.6,2.3-2.3c0.9-0.7,1.8-1.2,2.9-1.6s2.2-0.5,3.3-0.3
				c0.4,0.1,0.6,0.4,0.5,0.7c0,0.3-0.4,0.6-0.7,0.5l0,0c-0.9-0.1-1.8,0.1-2.7,0.4c-0.8,0.4-1.6,0.9-2.4,1.5
				c-0.7,0.6-1.4,1.3-1.9,2.1l-1.7,2.5l0,0c-0.3,0.5-0.9,0.6-1.4,0.2C1337.9,424.3,1337.7,423.7,1338.1,423.2L1338.1,423.2z"/>
		</g>
		<g>
			<path class="st10" d="M1325.9,431l-0.7,3.9v0.2l-0.1,0.1l-3.4,6.1l-0.2,0.3h-0.3l-1.9,0.1c-0.3,0-0.6-0.2-0.7-0.6
				c0-0.3,0.2-0.6,0.5-0.7l1.9-0.2l-0.5,0.4l3-6.2l-0.1,0.3l0.5-3.9c0.1-0.5,0.6-0.9,1.1-0.9S1326,430.4,1325.9,431L1325.9,431z"/>
		</g>
		<g>
			<path class="st10" d="M1327.8,430.1l1.6,2.4l0.2,0.3v0.3l-1,6.9v0.3l-0.2,0.2l-1.5,1.3c-0.3,0.2-0.6,0.2-0.9-0.1
				c-0.2-0.2-0.2-0.6,0-0.8l1.4-1.4l-0.2,0.4l0.5-7l0.2,0.6l-1.8-2.3c-0.3-0.4-0.2-1.1,0.2-1.4
				C1326.8,429.5,1327.4,429.6,1327.8,430.1L1327.8,430.1z"/>
		</g>
		<g>
			<path class="st10" d="M1343.1,426.3l-3.1,3.8l0.2-0.7l0.9,6.1l0.1,0.3l-0.2,0.2l-3.2,3.9c-0.2,0.3-0.6,0.3-0.9,0.1
				c-0.3-0.2-0.3-0.6-0.1-0.8l3-4l-0.1,0.6l-1.2-6.1l-0.1-0.4l0.2-0.3l2.9-4c0.3-0.4,1-0.5,1.4-0.2
				C1343.3,425.1,1343.4,425.8,1343.1,426.3C1343.1,426.2,1343.1,426.2,1343.1,426.3z"/>
		</g>
		<g>
			<path class="st10" d="M1343.3,426.1l1.4,3.5l-0.4-0.4l4,2.4l0.2,0.1l0.1,0.1l3.1,4.6c0.2,0.3,0.1,0.7-0.2,0.9
				c-0.3,0.2-0.6,0.1-0.8-0.1l-3.4-4.4l0.2,0.2l-4.1-2.1l-0.2-0.1l-0.1-0.3l-1.6-3.4c-0.2-0.5,0-1.1,0.5-1.3
				C1342.4,425.3,1343,425.5,1343.3,426.1L1343.3,426.1z"/>
		</g>
	</g>
	<line class="st33" x1="1365.5" y1="397.8" x2="1324.3" y2="423.8"/>
	<g>
		<polygon class="st34" points="1279.8,427.5 1256.2,427.5 1268,371.4 		"/>
		<line class="st28" x1="1268" y1="424.9" x2="1268" y2="450.1"/>
	</g>
	<g>
		<circle class="st11" cx="767.7" cy="96.9" r="20"/>
		<circle class="st11" cx="829.1" cy="96.9" r="20"/>
		<circle class="st11" cx="890.5" cy="96.9" r="20"/>
		<circle class="st11" cx="951.9" cy="96.9" r="20"/>
		
			<ellipse transform="matrix(0.1602 -0.9871 0.9871 0.1602 755.3387 1081.5941)" class="st11" cx="1013.3" cy="96.9" rx="20" ry="20"/>
	</g>
	<g>
		<circle class="st11" cx="1158.7" cy="1098.6" r="20"/>
		<circle class="st11" cx="1220.1" cy="1098.6" r="20"/>
		<circle class="st11" cx="1281.5" cy="1098.6" r="20"/>
		<circle class="st11" cx="1342.9" cy="1098.6" r="20"/>
		<circle class="st11" cx="1404.3" cy="1098.6" r="20"/>
	</g>
	<path class="st27" d="M1216.7,884.1h-34c-16.6,0-30,13.4-30,30v76.4c0,16.6-13.4,30-30,30h-70.4"/>
	<path class="st27" d="M1506.1,884.6V786c0-16.6,13.4-30,30-30h81.6"/>
	<path class="st27" d="M409.9,255.9h49.2c16.6,0,30-13.4,30-30V0"/>
	<rect x="1489.4" y="253.1" class="st12" width="151.1" height="164.7"/>
	<rect x="1524.2" y="273.9" class="st16" width="66.8" height="143.8"/>
	<rect x="1575.4" y="330.5" class="st0" width="65.1" height="87.3"/>
	<g>
		<rect x="1585" y="340.9" class="st16" width="10" height="10"/>
		<rect x="1600.1" y="340.9" class="st16" width="10" height="10"/>
		<rect x="1615.2" y="340.9" class="st16" width="10" height="10"/>
	</g>
	<g>
		<rect x="1585" y="355.9" class="st16" width="10" height="10"/>
		<rect x="1600.1" y="355.9" class="st16" width="10" height="10"/>
	</g>
	<g>
		<rect x="1585" y="370.9" class="st16" width="10" height="10"/>
		<rect x="1615.2" y="370.9" class="st16" width="10" height="10"/>
	</g>
	<g>
		<rect x="1600.1" y="385.9" class="st16" width="10" height="10"/>
		<rect x="1615.2" y="385.9" class="st16" width="10" height="10"/>
	</g>
	<g>
		<line class="st13" x1="1534.1" y1="292.2" x2="1566.7" y2="292.2"/>
		<line class="st13" x1="1534.1" y1="315.4" x2="1566.7" y2="315.4"/>
		<line class="st13" x1="1534.1" y1="338.6" x2="1566.7" y2="338.6"/>
		<line class="st13" x1="1534.1" y1="361.9" x2="1566.7" y2="361.9"/>
		<line class="st13" x1="1534.1" y1="385.1" x2="1566.7" y2="385.1"/>
	</g>
	<rect x="81" y="313.9" class="st14" width="308.5" height="3.6"/>
	<path class="st14" d="M357.4,294.2c-15.6-7-26.7-16.9-31.2-27.7l-0.9,0.4l-0.6-0.2c-0.1,0.2-0.2,0.4-0.3,0.6h-0.1v0.1
		c-10,22.4-45.7,38-87.4,38c-41.5,0-78.4-16.3-87.7-38.9l-0.9,0.4l-0.5-0.2c-0.1,0.2-0.1,0.3-0.2,0.5l-0.2,0.1
		c0,0.1,0.1,0.1,0.1,0.2C139.3,286,113.3,299.8,81,304v2c32.2-4.1,58.4-17.8,67.7-36.2c11.3,22.2,47,37.5,88.4,37.5
		s77.2-15.4,88.5-37.6c8.9,17.7,33.4,31.1,63.9,35.8v-2.1C377.9,301.6,366.9,298.4,357.4,294.2z"/>
</g>
</svg>
