<?xml version="1.0" encoding="utf-8"?>
<!-- Generator: Adobe Illustrator 23.0.1, SVG Export Plug-In . SVG Version: 6.00 Build 0)  -->
<!DOCTYPE svg PUBLIC "-//W3C//DTD SVG 1.1//EN" "http://www.w3.org/Graphics/SVG/1.1/DTD/svg11.dtd" [
	<!ENTITY ns_extend "http://ns.adobe.com/Extensibility/1.0/">
	<!ENTITY ns_ai "http://ns.adobe.com/AdobeIllustrator/10.0/">
	<!ENTITY ns_graphs "http://ns.adobe.com/Graphs/1.0/">
	<!ENTITY ns_vars "http://ns.adobe.com/Variables/1.0/">
	<!ENTITY ns_imrep "http://ns.adobe.com/ImageReplacement/1.0/">
	<!ENTITY ns_sfw "http://ns.adobe.com/SaveForWeb/1.0/">
	<!ENTITY ns_custom "http://ns.adobe.com/GenericCustomNamespace/1.0/">
	<!ENTITY ns_adobe_xpath "http://ns.adobe.com/XPath/1.0/">
]>
<svg version="1.1" id="Layer_1" xmlns:x="&ns_extend;" xmlns:i="&ns_ai;" xmlns:graph="&ns_graphs;"
	 xmlns="http://www.w3.org/2000/svg" xmlns:xlink="http://www.w3.org/1999/xlink" x="0px" y="0px" width="170px" height="170px"
	 viewBox="0 0 170 170" style="enable-background:new 0 0 170 170;" xml:space="preserve">
<style type="text/css">
	.st0{fill:#B0CFEE;}
	.st1{fill:#5785C2;}
	.st2{fill:#375F93;}
	.st3{fill:none;stroke:#375F93;stroke-width:3;stroke-linecap:round;stroke-miterlimit:10;}
	.st4{fill:none;stroke:#375F93;stroke-width:3;stroke-miterlimit:10;}
</style>
<metadata>
	<sfw  xmlns="&ns_sfw;">
		<slices></slices>
		<sliceSourceBounds  bottomLeftOrigin="true" height="150" width="157.4" x="8.3" y="6.9"></sliceSourceBounds>
	</sfw>
</metadata>
<g>
	<circle class="st0" cx="90.7" cy="88.1" r="75"/>
	<g>
		<path class="st1" d="M77.4,143.8c3.2,5.2,8.9,8.7,15.5,8.7s12.3-3.5,15.5-8.7H77.4z"/>
		<path class="st1" d="M8.3,143.8c3.2,5.2,8.9,8.7,15.5,8.7s12.3-3.5,15.5-8.7H8.3z"/>
		<path class="st1" d="M42.9,143.8c3.2,5.2,8.9,8.7,15.5,8.7s12.3-3.5,15.5-8.7H42.9z"/>
	</g>
	<g>
		<rect x="108.3" y="15.5" class="st1" width="5" height="29.3"/>
		<rect x="122.3" y="15.5" class="st1" width="5" height="29.3"/>
		<rect x="136.3" y="15.5" class="st1" width="5" height="29.3"/>
		<rect x="150.3" y="15.5" class="st1" width="5" height="29.3"/>
	</g>
	<g>
		<g>
			<path class="st2" d="M76,95.7h-4.6c-1.8,0-3.2-1.4-3.2-3.2V74.1c0-2.1,1.7-3.9,3.9-3.9h3.4c2.1,0,3.9,1.7,3.9,3.9v18.4
				C79.3,94.3,77.8,95.7,76,95.7z"/>
			<polyline class="st3" points="76.6,72.6 85,81.4 92.6,83.5 			"/>
			<polyline class="st3" points="69.9,73.8 60,81.4 66.5,88 			"/>
			<line class="st4" x1="77.4" y1="91.8" x2="77.8" y2="118.5"/>
			<line class="st4" x1="70.9" y1="91.8" x2="71.3" y2="118.5"/>
			<circle class="st2" cx="72.7" cy="63.7" r="3.9"/>
		</g>
		<g>
			<path class="st2" d="M111.8,96.2h-4.6c-1.8,0-3.2-1.4-3.2-3.2V74.6c0-2.1,1.7-3.9,3.9-3.9h3.4c2.1,0,3.9,1.7,3.9,3.9V93
				C115.1,94.8,113.6,96.2,111.8,96.2z"/>
			<polyline class="st3" points="113.2,74.2 120.7,78.7 120.7,88.6 			"/>
			<polyline class="st3" points="106,74.2 99.7,80.3 92.5,83.5 			"/>
			<line class="st4" x1="111.7" y1="92.4" x2="112.1" y2="119"/>
			<line class="st4" x1="106.7" y1="92.4" x2="100.7" y2="118.1"/>
			<circle class="st2" cx="108.5" cy="64.2" r="3.9"/>
		</g>
	</g>
	<g>
		<circle class="st1" cx="16.9" cy="44.8" r="5.8"/>
		<circle class="st1" cx="34.7" cy="44.8" r="5.8"/>
		<circle class="st1" cx="52.6" cy="44.8" r="5.8"/>
	</g>
</g>
</svg>
