<?xml version="1.0" encoding="utf-8"?>
<!-- Generator: Adobe Illustrator 23.0.1, SVG Export Plug-In . SVG Version: 6.00 Build 0)  -->
<!DOCTYPE svg PUBLIC "-//W3C//DTD SVG 1.1//EN" "http://www.w3.org/Graphics/SVG/1.1/DTD/svg11.dtd" [
	<!ENTITY ns_extend "http://ns.adobe.com/Extensibility/1.0/">
	<!ENTITY ns_ai "http://ns.adobe.com/AdobeIllustrator/10.0/">
	<!ENTITY ns_graphs "http://ns.adobe.com/Graphs/1.0/">
	<!ENTITY ns_vars "http://ns.adobe.com/Variables/1.0/">
	<!ENTITY ns_imrep "http://ns.adobe.com/ImageReplacement/1.0/">
	<!ENTITY ns_sfw "http://ns.adobe.com/SaveForWeb/1.0/">
	<!ENTITY ns_custom "http://ns.adobe.com/GenericCustomNamespace/1.0/">
	<!ENTITY ns_adobe_xpath "http://ns.adobe.com/XPath/1.0/">
]>
<svg version="1.1" id="Layer_1" xmlns:x="&ns_extend;" xmlns:i="&ns_ai;" xmlns:graph="&ns_graphs;"
	 xmlns="http://www.w3.org/2000/svg" xmlns:xlink="http://www.w3.org/1999/xlink" x="0px" y="0px" width="170px" height="170px"
	 viewBox="0 0 170 170" style="enable-background:new 0 0 170 170;" xml:space="preserve">
<style type="text/css">
	.st0{fill:#C5E1B5;}
	.st1{fill:#548941;}
	.st2{fill:#7FB764;}
	.st3{fill:#67A24C;}
	.st4{fill:#8DBF74;}
	.st5{fill:none;stroke:#548941;stroke-width:3;stroke-miterlimit:10;}
	.st6{fill:none;stroke:#67A24C;stroke-width:4;stroke-miterlimit:10;}
	.st7{fill:none;stroke:#7FB764;stroke-width:4;stroke-miterlimit:10;}
</style>
<metadata>
	<sfw  xmlns="&ns_sfw;">
		<slices></slices>
		<sliceSourceBounds  bottomLeftOrigin="true" height="150" width="162.9" x="2" y="7.5"></sliceSourceBounds>
	</sfw>
</metadata>
<g>
	<circle class="st0" cx="89.9" cy="87.5" r="75"/>
	<g>
		<polygon class="st1" points="121.3,127.8 121.3,110.8 138.4,127.8 		"/>
		<polygon class="st1" points="121.3,111.9 121.3,94.9 138.4,111.9 		"/>
		<polygon class="st1" points="121.3,96.1 121.3,79 138.4,96.1 		"/>
		<polygon class="st1" points="121.3,80.2 121.3,63.1 138.4,80.2 		"/>
		<polygon class="st1" points="121.3,64.3 121.3,47.2 138.4,64.3 		"/>
	</g>
	<g>
		<rect x="80.9" y="47.4" class="st1" width="18" height="72"/>
		<rect x="80.9" y="31.6" class="st2" width="18" height="15.8"/>
		<rect x="80.9" y="47.4" class="st3" width="9" height="72"/>
		<polygon class="st4" points="98.9,119.4 89.9,137.4 80.9,119.4 		"/>
		<line class="st5" x1="89.9" y1="135.2" x2="89.9" y2="143.5"/>
	</g>
	<g>
		<line class="st6" x1="17.2" y1="121.5" x2="17.2" y2="147.6"/>
		<line class="st6" x1="27.6" y1="121.5" x2="27.6" y2="147.6"/>
		<line class="st6" x1="37.9" y1="121.5" x2="37.9" y2="147.6"/>
		<line class="st6" x1="48.3" y1="121.5" x2="48.3" y2="147.6"/>
		<line class="st6" x1="58.7" y1="121.5" x2="58.7" y2="147.6"/>
	</g>
	<g>
		<circle class="st7" cx="33.7" cy="74.9" r="29.7"/>
		<circle class="st7" cx="33.7" cy="74.9" r="20.5"/>
		<circle class="st7" cx="33.7" cy="74.9" r="11.4"/>
	</g>
</g>
</svg>
