<?xml version="1.0" encoding="utf-8"?>
<!-- Generator: Adobe Illustrator 23.0.1, SVG Export Plug-In . SVG Version: 6.00 Build 0)  -->
<!DOCTYPE svg PUBLIC "-//W3C//DTD SVG 1.1//EN" "http://www.w3.org/Graphics/SVG/1.1/DTD/svg11.dtd" [
	<!ENTITY ns_extend "http://ns.adobe.com/Extensibility/1.0/">
	<!ENTITY ns_ai "http://ns.adobe.com/AdobeIllustrator/10.0/">
	<!ENTITY ns_graphs "http://ns.adobe.com/Graphs/1.0/">
	<!ENTITY ns_vars "http://ns.adobe.com/Variables/1.0/">
	<!ENTITY ns_imrep "http://ns.adobe.com/ImageReplacement/1.0/">
	<!ENTITY ns_sfw "http://ns.adobe.com/SaveForWeb/1.0/">
	<!ENTITY ns_custom "http://ns.adobe.com/GenericCustomNamespace/1.0/">
	<!ENTITY ns_adobe_xpath "http://ns.adobe.com/XPath/1.0/">
]>
<svg version="1.1" id="Layer_1" xmlns:x="&ns_extend;" xmlns:i="&ns_ai;" xmlns:graph="&ns_graphs;"
	 xmlns="http://www.w3.org/2000/svg" xmlns:xlink="http://www.w3.org/1999/xlink" x="0px" y="0px" width="1760px" height="1135px"
	 viewBox="0 0 1760 1135" style="enable-background:new 0 0 1760 1135;" xml:space="preserve">
<style type="text/css">
	.st0{fill:none;stroke:#A958BB;stroke-width:10;stroke-miterlimit:10;}
	.st1{fill-rule:evenodd;clip-rule:evenodd;fill:#B369C5;}
	.st2{fill-rule:evenodd;clip-rule:evenodd;fill:#B56BC7;}
	.st3{fill-rule:evenodd;clip-rule:evenodd;fill:#943FA9;}
	.st4{fill-rule:evenodd;clip-rule:evenodd;fill:#A956BB;}
	.st5{fill-rule:evenodd;clip-rule:evenodd;fill:#AA56BD;}
	.st6{fill-rule:evenodd;clip-rule:evenodd;fill:#A954BE;}
	.st7{fill-rule:evenodd;clip-rule:evenodd;fill:#8B3B9E;}
	.st8{fill:#7E378F;}
	.st9{fill:none;stroke:#7E378F;stroke-width:10;stroke-miterlimit:10;}
	.st10{fill:none;stroke:#9F46B4;stroke-width:10;stroke-miterlimit:10;}
	.st11{fill:#B46DC5;}
	.st12{fill:#C690D2;}
	.st13{fill:#B56BC7;}
	.st14{fill:none;stroke:#7E378F;stroke-width:2;stroke-linecap:round;stroke-miterlimit:10;}
	.st15{fill:#9F46B4;}
	.st16{fill:#9341A7;}
	.st17{fill:#B26BC3;}
	.st18{fill:#A856BC;}
	.st19{fill:url(#SVGID_1_);}
	.st20{fill:#A954BE;}
	.st21{fill:#C78FD5;}
	.st22{fill:#A043B6;}
	.st23{opacity:0.25;fill:#FFFFFF;enable-background:new    ;}
	.st24{fill:none;stroke:#7E378F;stroke-width:2;stroke-miterlimit:10;}
	.st25{fill:url(#SVGID_2_);}
	.st26{fill:none;stroke:#B46DC5;stroke-width:3;stroke-linecap:round;stroke-miterlimit:10;}
	.st27{fill:none;stroke:#7E378F;stroke-width:4;stroke-miterlimit:10;}
	.st28{fill:#AA58BD;}
	.st29{fill:#9E46B3;}
	.st30{fill:#8A3E9C;}
	.st31{fill:#9546A6;}
	.st32{fill:#BC78CC;}
	.st33{fill:#893F9A;}
	.st34{fill:none;stroke:#9F46B4;stroke-miterlimit:10;}
	.st35{fill:url(#SVGID_3_);}
	.st36{fill:url(#SVGID_4_);}
	.st37{fill:#9F44B4;}
	.st38{fill:#A956BB;}
	.st39{fill:#B26AC3;}
	.st40{fill:none;stroke:#7E378F;stroke-miterlimit:10;}
	.st41{fill:none;stroke:#C690D2;stroke-width:13;stroke-miterlimit:10;}
	.st42{fill:none;stroke:#9341A7;stroke-width:13;stroke-miterlimit:10;}
	.st43{fill:none;stroke:#B26BC3;stroke-width:4;stroke-miterlimit:10;}
	.st44{fill:#9340A7;}
	.st45{fill:none;stroke:#7E378F;stroke-width:3;stroke-linecap:round;stroke-linejoin:round;stroke-miterlimit:10;}
	.st46{fill:url(#SVGID_5_);}
</style>
<metadata>
	<sfw  xmlns="&ns_sfw;">
		<slices></slices>
		<sliceSourceBounds  bottomLeftOrigin="true" height="1134.6" width="1761.4" x="-0.7" y="0"></sliceSourceBounds>
	</sfw>
</metadata>
<path class="st0" d="M1648,181.3h-246.5c-27.6,0-50,22.4-50,50v256.5c0,27.6-22.4,50-50,50H896.4c-19.7,0-35.6-16-35.6-35.6l0,0
	c0-19.7-16-35.6-35.6-35.6H436.6c-29.5,0-53.5,24-53.5,53.5v101.7c0,29.5-24,53.5-53.5,53.5h-67.4c-29.5,0-53.5,24-53.5,53.5l0,0
	c0,29.5-24,53.5-53.5,53.5H0.8"/>
<g id="Rectangle_2_copy_22">
	<g>
		<rect x="768.2" y="822.4" class="st1" width="201.4" height="119"/>
	</g>
</g>
<g id="Rectangle_2_copy_2">
	<g>
		<rect x="1260.7" y="264.1" class="st2" width="305" height="182.4"/>
	</g>
</g>
<g id="Rectangle_2_copy_7">
	<g>
		<rect x="1404.7" y="444.1" class="st3" width="253" height="113"/>
	</g>
</g>
<g id="Rectangle_2_copy_10">
	<g>
		<rect x="1212.7" y="820.1" class="st2" width="97" height="104"/>
	</g>
</g>
<g id="Rectangle_2_copy_26">
	<g>
		<rect x="337.6" y="294.1" class="st4" width="97" height="104"/>
	</g>
</g>
<g id="Rectangle_2_copy_25">
	<g>
		<rect x="1606.7" y="1.1" class="st5" width="97" height="58"/>
	</g>
</g>
<g id="Rectangle_2_copy_18">
	<g>
		<rect x="1558.7" y="840.1" class="st6" width="97" height="104"/>
	</g>
</g>
<g id="Rectangle_2_copy_3">
	<g>
		<rect x="227.6" y="143.1" class="st4" width="61" height="36"/>
	</g>
</g>
<g id="Rectangle_2_copy_8">
	<g>
		<rect x="862.6" y="23.1" class="st7" width="61" height="36"/>
	</g>
</g>
<g id="Rectangle_2_copy_19">
	<g>
		<rect x="462.6" y="7.1" class="st3" width="61" height="36"/>
	</g>
</g>
<g id="Rectangle_2_copy_24">
	<g>
		<rect x="625.6" y="890.1" class="st7" width="61" height="36"/>
	</g>
</g>
<g id="Rectangle_2_copy_27">
	<g>
		<rect x="1115.7" y="12.1" class="st3" width="166" height="22"/>
	</g>
</g>
<g id="Rectangle_2_copy_20">
	<g>
		<rect x="86.6" y="657.1" class="st3" width="61" height="36"/>
	</g>
</g>
<g id="Rectangle_2_copy_21">
	<g>
		<rect x="523.6" y="43.1" class="st7" width="194" height="60"/>
	</g>
</g>
<g id="Rectangle_2_copy_17">
	<g>
		<rect x="33.6" y="179.1" class="st3" width="194" height="36"/>
	</g>
</g>
<g id="Rectangle_2_copy_12">
	<g>
		<rect x="288.6" y="179.1" class="st3" width="195" height="115"/>
	</g>
</g>
<g id="Rectangle_2_copy_11">
	<g>
		<rect x="1565.7" y="149.1" class="st3" width="195" height="115"/>
	</g>
</g>
<rect x="856" y="942.7" class="st8" width="317.1" height="120.2"/>
<g>
	<polyline class="st9" points="1044,967 1019.2,967 1019.2,976.8 979.1,976.8 979.1,972 923.1,972 923.1,963.1 855.2,963.1 	"/>
	<polyline class="st10" points="1044,977 1019.2,977 1019.2,986.8 979.1,986.8 979.1,982 923.1,982 923.1,973.1 855.2,973.1 	"/>
	<polyline class="st0" points="1044,987 1019.2,987 1019.2,996.8 979.1,996.8 979.1,992 923.1,992 923.1,983.1 855.2,983.1 	"/>
	<polyline class="st10" points="1044,997 1019.2,997 1019.2,1006.8 979.1,1006.8 979.1,1002 923.1,1002 923.1,993.1 855.2,993.1 	
		"/>
	<polyline class="st0" points="1044,1007 1019.2,1007 1019.2,1016.8 979.1,1016.8 979.1,1012 923.1,1012 923.1,1003.1 855.2,1003.1 
			"/>
	<polyline class="st10" points="1044,1017 1019.2,1017 1019.2,1026.8 979.1,1026.8 979.1,1022 923.1,1022 923.1,1013.1 
		855.2,1013.1 	"/>
</g>
<path class="st11" d="M1044.2,1022.1l-29-29l0,0c5.2-5.2,13.6-5.2,18.8,0l19.6,19.6L1044.2,1022.1z"/>
<path class="st12" d="M1121.8,1033.9h-70.2c-5.5,0-10-4.5-10-10v-55.3c0-5.5,4.5-10,10-10h70.2c5.5,0,10,4.5,10,10v55.3
	C1131.8,1029.4,1127.3,1033.9,1121.8,1033.9z"/>
<path class="st11" d="M1106.8,1047.1L1106.8,1047.1c-3.8,0-6.9-3.1-6.9-6.9v-6.9h13.9v6.9C1113.7,1044,1110.5,1047.1,1106.8,1047.1z
	"/>
<path class="st11" d="M1129.8,1047.1L1129.8,1047.1c-3.8,0-6.9-3.1-6.9-6.9v-6.9h13.9v6.9C1136.7,1044,1133.5,1047.1,1129.8,1047.1z
	"/>
<path class="st11" d="M1065,1047.1L1065,1047.1c-3.8,0-6.9-3.1-6.9-6.9v-6.9h13.9v6.9C1071.9,1044,1068.8,1047.1,1065,1047.1z"/>
<path class="st11" d="M1040.5,1047.1L1040.5,1047.1c-3.8,0-6.9-3.1-6.9-6.9v-0.4c0-7.7,6.2-13.9,13.9-13.9l0,0v14.3
	C1047.5,1044,1044.4,1047.1,1040.5,1047.1z"/>
<path class="st8" d="M1062,1024c-5.5,0-10-4.5-10-10v-37.3c0-5.5,4.5-10,10-10h52.2c5.5,0,10,4.5,10,10v37.3c0,5.5-4.5,10-10,10
	H1062z"/>
<path class="st13" d="M1152.2,999.9v-13.3c0-4.2-4.8-6.5-8.1-3.9l-17.7,13.7h-11.9l-17.7-13.7c-3.3-2.6-8.1-0.2-8.1,3.9v13.3
	c-1.5,1.8-2.4,4-2.4,6.5v15.7c0,6.9,5.6,12.4,12.4,12.4h43.5c6.9,0,12.4-5.6,12.4-12.4v-15.7
	C1154.8,1003.9,1153.8,1001.6,1152.2,999.9z"/>
<g>
	<circle class="st8" cx="1126.2" cy="1013.2" r="1.5"/>
	<polyline class="st14" points="1139,1020.2 1139,1027.3 1109.5,1027.3 1109.5,1020.2 	"/>
	<line class="st14" x1="1126" y1="1022.2" x2="1126" y2="1027.3"/>
</g>
<g>
	<circle class="st11" cx="1063.9" cy="983" r="2"/>
	<circle class="st11" cx="1108.2" cy="975.1" r="2"/>
	<circle class="st11" cx="1077.8" cy="997.6" r="2"/>
	<circle class="st11" cx="1116.8" cy="987.2" r="2"/>
	<circle class="st11" cx="1061.5" cy="1012.4" r="2"/>
	<circle class="st11" cx="1077.4" cy="1017.1" r="2"/>
	<circle class="st11" cx="1080.7" cy="975.7" r="2"/>
</g>
<path class="st8" d="M1141,1013.8h-3c-1.1,0-2-0.9-2-2v-3c0-1.1,0.9-2,2-2h3c1.1,0,2,0.9,2,2v3
	C1143,1012.9,1142.2,1013.8,1141,1013.8z"/>
<path class="st8" d="M1112.2,1013.8h-3c-1.1,0-2-0.9-2-2v-3c0-1.1,0.9-2,2-2h3c1.1,0,2,0.9,2,2v3
	C1114.2,1012.9,1113.3,1013.8,1112.2,1013.8z"/>
<path class="st12" d="M1005.1,964.1l-3.9-0.6l0,0c-1.8-0.3-3.2-1.7-3.4-3.4l0,0l-0.6-3.9l-0.6,3.9l0,0c-0.3,1.8-1.7,3.2-3.4,3.4l0,0
	l-3.9,0.6l3.9,0.6l0,0c1.8,0.3,3.2,1.7,3.4,3.4l0,0l0.6,3.9l0.6-3.9l0,0c0.3-1.8,1.7-3.2,3.4-3.4l0,0L1005.1,964.1z"/>
<path class="st12" d="M886.5,1036.1l-2.4-0.4l0,0c-1.1-0.2-2-1-2.2-2.2l0,0l-0.4-2.4l-0.4,2.4l0,0c-0.2,1.1-1,2-2.2,2.2l0,0
	l-2.4,0.4l2.4,0.4l0,0c1.1,0.2,2,1,2.2,2.2l0,0l0.4,2.4l0.4-2.4l0,0c0.2-1.1,1-2,2.2-2.2l0,0L886.5,1036.1z"/>
<path class="st15" d="M1157.8,963.2l-2.4-0.4l0,0c-1.1-0.2-2-1-2.2-2.2l0,0l-0.4-2.4l-0.4,2.4l0,0c-0.2,1.1-1,2-2.2,2.2l0,0
	l-2.4,0.4l2.4,0.4l0,0c1.1,0.2,2,1,2.2,2.2l0,0l0.4,2.4l0.4-2.4l0,0c0.2-1.1,1-2,2.2-2.2l0,0L1157.8,963.2z"/>
<path class="st11" d="M951.3,952l-2.4-0.4l0,0c-1.1-0.2-2-1-2.2-2.2l0,0l-0.4-2.4l-0.4,2.4l0,0c-0.2,1.1-1,2-2.2,2.2l0,0l-2.4,0.4
	l2.4,0.4l0,0c1.1,0.2,2,1,2.2,2.2l0,0l0.4,2.4l0.4-2.4l0,0c0.2-1.1,1-2,2.2-2.2l0,0L951.3,952z"/>
<path class="st11" d="M957.9,1044.7l-2.4-0.4l0,0c-1.1-0.2-2-1-2.2-2.2l0,0l-0.4-2.4l-0.4,2.4l0,0c-0.2,1.1-1,2-2.2,2.2l0,0
	l-2.4,0.4l2.4,0.4l0,0c1.1,0.2,2,1,2.2,2.2l0,0l0.4,2.4l0.4-2.4l0,0c0.2-1.1,1-2,2.2-2.2l0,0L957.9,1044.7z"/>
<rect x="47.9" y="844.3" class="st16" width="362.2" height="231.9"/>
<rect x="48.2" y="306.2" class="st17" width="244" height="318.3"/>
<path class="st18" d="M68.4,546c0,10.6,11.2,29,22.4,23.2l21.8,28.8h103.2l20.7-37.2h35.2v-75.5l-53.6,47.5
	c-7.7,6.8-17.6,10.6-27.8,10.6h-43.4c-13.4,0-25.9-6.4-33.8-17.1l-44.7-60.8L68.4,546L68.4,546z"/>
<path class="st8" d="M48.2,306.2v318.3h244V306.2H48.2z M271.9,541.8c0,8.2-6.6,14.8-14.8,14.8h-11.7c-5.4,0-10.3,2.9-12.9,7.6
	l-12.2,22c-2.6,4.7-7.6,7.6-12.9,7.6h-85.8c-5.4,0-10.3-2.9-12.9-7.6l-12.2-22c-2.6-4.7-7.6-7.6-12.9-7.6c-8.2,0-14.8-6.6-14.8-14.8
	v-136c0-8.2,6.6-14.8,14.8-14.8h5.7c6.5,0,12.3-4.2,14.2-10.5l3.9-12.8c1.9-6.2,7.6-10.5,14.2-10.5h22.1c5.6,0,10.7-3.1,13.2-8.1
	l2.1-4.1c2.5-5,7.6-8.1,13.2-8.1h55.3c4.9,0,9.5,2.4,12.3,6.5l1.5,2.3c2.8,4.1,7.4,6.5,12.3,6.5h3.8c8.2,0,14.8,6.6,14.8,14.8v174.8
	H271.9z"/>
<path class="st12" d="M259.9,472.9c-1.3-2.1-3.6-3.4-6.2-3.4c-0.1,0-0.1,0-0.2,0c-1.9,0-3.6-1.1-4.3-2.9c-1.9-4.9-6.6-8.3-12.1-8.3
	c-4.2,0-7.9,2-10.2,5c-1.2,1.5-3.3,2.1-5.1,1.4c-1.1-0.4-2.3-0.6-3.5-0.6c-3.3,0-6.3,1.6-8.1,4.1c-1.1,1.5-3.1,2.2-4.9,1.7
	c-0.7-0.2-1.5-0.3-2.2-0.3c-2.6,0-4.9,1.4-6.2,3.4h63V472.9z"/>
<path class="st12" d="M144.2,490c-1.1-1.6-2.9-2.7-4.9-2.7c-0.1,0-0.3,0-0.4,0c-1.7,0.1-3.3-0.5-4.5-1.6c-1.4-1.5-3.4-2.4-5.6-2.4
	c-0.4,0-0.8,0-1.2,0.1c-1.8,0.3-3.6-0.4-4.8-1.8c-1.9-2-4.6-3.3-7.6-3.3c-5.7,0-10.4,4.7-10.4,10.4c0,0.4,0,0.8,0.1,1.2L144.2,490
	L144.2,490z"/>
<path class="st8" d="M285,553.5c-0.8-3.5-1.7-7-2.7-10.4c-0.9-3.5-1.9-6.9-2.9-10.3c-1-3.4-2.1-6.8-3.1-10.2l-0.9-2.7l-4.1-1.6
	c-4.8-1.9-9.7-3.6-14.5-5.4c-4.8-1.7-9.7-3.4-14.6-5c-9.8-3.2-19.6-6.2-29.5-8.8l-1.7-0.5l-1.5,0.1c-7.5,0.4-15,1.3-22.4,2.2
	c-3.7,0.4-7.5,0.8-11.2,1.4s-7.5,1.4-11.2,2.3s-7.4,1.7-11.2,2.5c-3.7,0.7-7.5,1.3-11.2,1.6c-3.7,0.3-7.5,0.5-11.3,0.3
	s-7.5-0.7-11.3-1.3l-1.3,0.2c-4.8,0.6-9.7,1-14.5,1.7s-9.5,1.7-14.1,3.1c-4.6,1.4-9.1,3.1-13.6,4.8c-4.5,1.8-8.9,3.7-13.2,5.8
	l-4.9,2.4v3.8c0,4.5,0.1,8.9,0.2,13.4c0.1,4.5,0.2,8.9,0.4,13.4s0.4,8.9,0.7,13.4s0.7,9,1.2,13.5l2,0.1c1.1-4.4,2-8.8,2.9-13.2
	s1.7-8.8,2.4-13.2c0.7-4.4,1.5-8.8,2.1-13.2c0.4-2.6,0.8-5.2,1.1-7.8c3.4-0.6,6.7-1.4,10.1-2.1c4.7-1.1,9.3-2.4,13.9-3.8
	c4.6-1.5,9-3.4,13.3-5.6c4.3-2.2,8.6-4.6,12.9-7l-1.3,0.2c3.7-0.9,7.5-1.7,11.2-2.1c3.7-0.5,7.5-0.5,11.2-0.5
	c3.8,0.1,7.5,0.3,11.3,0.8s7.5,1.1,11.3,1.7c3.8,0.6,7.5,1.2,11.3,1.5c3.8,0.4,7.5,0.5,11.3,0.7c6.9,0.3,13.8,0.7,20.7,0.6
	c9.4,2.7,19,5,28.5,7.1c5,1.1,10.1,2.1,15.1,3.1c4.1,0.8,8.3,1.6,12.4,2.3c1,1.8,2.1,3.6,3.2,5.4c1.8,3.1,3.7,6.1,5.6,9.1
	s3.9,6,5.9,9s4.1,5.9,6.3,8.8l1.8-0.8C286.6,560.6,285.8,557,285,553.5z"/>
<path class="st12" d="M230.7,414.4c16.8,0,31.7-8,41.2-20.4v-26.9c0-8.2-6.6-14.8-14.8-14.8h-3.8c-4.9,0-9.5-2.4-12.3-6.5l-1.5-2.3
	c-2.8-4.1-7.4-6.5-12.3-6.5h-41.6c-4.3,7.6-6.8,16.3-6.8,25.6C178.8,391.2,202,414.4,230.7,414.4z"/>
<g>
	<path class="st15" d="M274.2,354.6c-8.7,13.1-19.5,24.7-31.2,35.2c-5.9,5.2-12.1,10.2-18.5,14.7c-6.5,4.6-13.2,8.8-20.3,12.5
		c-3.6,1.8-7.2,3.6-10.9,5.2c-3.8,1.5-7.6,2.9-11.6,4c-4,1-8.2,1.8-12.8,1.8c-2.3-0.1-4.7-0.3-7.2-1.1c-2.4-0.8-5.1-2.3-6.9-4.7
		c-1.8-2.3-2.6-5.2-2.7-7.7c-0.1-2.5,0.3-4.8,0.8-6.9c1.2-4.2,3.1-7.9,5.1-11.4c2.1-3.4,4.5-6.7,7-9.7c1.3-1.5,2.6-3,3.9-4.4
		c1.4-1.4,2.7-2.8,4.2-4.2c-0.9,1.7-1.9,3.4-2.8,5.1c-0.9,1.7-1.9,3.4-2.7,5.1c-1.7,3.4-3.4,6.9-4.7,10.4s-2.5,7-2.9,10.4
		c-0.2,1.7-0.2,3.3,0,4.6c0.2,1.4,0.8,2.3,1.4,3c0.7,0.6,1.6,1.1,2.8,1.4c1.3,0.3,2.8,0.3,4.4,0.2c3.2-0.3,6.7-1,10.1-2.1
		c3.4-1.1,6.9-2.4,10.2-4c3.4-1.5,6.8-3.1,10.1-4.9c3.3-1.7,6.6-3.6,9.9-5.5c3.3-1.9,6.5-3.9,9.7-5.9s6.4-4.2,9.5-6.3
		c3.1-2.2,6.3-4.3,9.4-6.6C250.1,374.1,262.1,364.6,274.2,354.6z"/>
</g>
<g>
	<g>
		
			<linearGradient id="SVGID_1_" gradientUnits="userSpaceOnUse" x1="90.6308" y1="368.5039" x2="124.6983" y2="368.5039" gradientTransform="matrix(1 0 0 1 7.0711 51.8711)">
			<stop  offset="0" style="stop-color:#C690D2;stop-opacity:0"/>
			<stop  offset="1" style="stop-color:#C690D2"/>
		</linearGradient>
		<path class="st19" d="M130.7,431.5c1.4,1.4,1.4,3.5,0,4.9s-3.5,1.4-4.9,0l-28.2-33.1L130.7,431.5z"/>
		<circle class="st15" cx="128.3" cy="433.9" r="1.9"/>
	</g>
</g>
<path class="st18" d="M234.1,436.1l-4-0.7l0,0c-1.8-0.3-3.3-1.7-3.6-3.6l0,0l-0.7-4l-0.7,4l0,0c-0.3,1.8-1.7,3.3-3.6,3.6l0,0l-4,0.7
	l4,0.7l0,0c1.8,0.3,3.3,1.7,3.6,3.6l0,0l0.7,4l0.7-4l0,0c0.3-1.8,1.7-3.3,3.6-3.6l0,0L234.1,436.1z"/>
<path class="st18" d="M146.4,372.7l-2.5-0.4l0,0c-1.1-0.2-2-1.1-2.2-2.2l0,0l-0.4-2.5l-0.4,2.5l0,0c-0.2,1.1-1.1,2-2.2,2.2l0,0
	l-2.5,0.4l2.5,0.4l0,0c1.1,0.2,2,1.1,2.2,2.2l0,0l0.4,2.5l0.4-2.5l0,0c0.2-1.1,1.1-2,2.2-2.2l0,0L146.4,372.7z"/>
<path class="st18" d="M95.7,444.8l-2.5-0.4l0,0c-1.1-0.2-2-1.1-2.2-2.2l0,0l-0.4-2.5l-0.4,2.5l0,0c-0.2,1.1-1.1,2-2.2,2.2l0,0
	l-2.5,0.4l2.5,0.4l0,0c1.1,0.2,2,1.1,2.2,2.2l0,0l0.4,2.5l0.4-2.5l0,0c0.2-1.1,1.1-2,2.2-2.2l0,0L95.7,444.8z"/>
<g>
	<path class="st12" d="M166.5,542.8l7.5,6.8c0.2,0.2,0.2,0.5,0,0.7c0,0.1-0.1,0.1-0.2,0.1l0,0l-28,11.3l-0.1-3.7l60.7,12.6
		c2.6,0.5,4.3,3.1,3.7,5.7c-0.3,1.6-1.5,2.9-2.9,3.5l-0.5,0.2l-94.6,36.8l-3.4-19.6l45.4-5.9l0.6,30l-45.6-4l-1.6-0.1
		c-5.5-0.5-9.5-5.3-9-10.7c0.4-4.2,3.4-7.6,7.2-8.7l97.9-27l0.3,9.4l-59.2-18.4l-0.2-0.1c-1-0.3-1.6-1.4-1.3-2.4
		c0.2-0.6,0.7-1.1,1.3-1.3l29-8.5l-0.2,0.8L166.5,542.8z"/>
</g>
<rect x="76.5" y="593.8" class="st8" width="183.7" height="30.9"/>
<polygon class="st17" points="216.1,559.8 208.9,559.8 212.6,546 "/>
<polygon class="st17" points="244.5,553.4 237.3,553.4 241,539.7 "/>
<polygon class="st17" points="265.2,506.8 261,506.8 263.1,498.9 "/>
<polygon class="st17" points="83.5,503.6 79.3,503.6 81.4,495.7 "/>
<polygon class="st17" points="233.7,550.3 224.3,550.3 229.1,532.5 "/>
<polygon class="st17" points="126.7,567.7 119.4,567.7 123.1,553.9 "/>
<polygon class="st17" points="118.8,549.4 111.5,549.4 115.2,535.7 "/>
<polygon class="st17" points="105.7,555.6 96.3,555.6 101.1,537.8 "/>
<rect x="1294" y="591" class="st16" width="309.1" height="183.3"/>
<path class="st12" d="M1360.2,697.2l-6.3-1.1c0,0,0,0-0.1,0c-2.9-0.5-5.1-2.7-5.6-5.6c0,0,0,0,0-0.1l-1.1-6.3l-1.1,6.3
	c0,0,0,0,0,0.1c-0.5,2.9-2.7,5.1-5.6,5.6c0,0,0,0-0.1,0l-6.3,1.1l6.3,1.1c0,0,0,0,0.1,0c2.9,0.5,5.1,2.7,5.6,5.6c0,0,0,0,0,0.1
	l1.1,6.3l1.1-6.3c0,0,0,0,0-0.1c0.5-2.9,2.7-5.1,5.6-5.6c0,0,0,0,0.1,0L1360.2,697.2z"/>
<path class="st12" d="M1587.9,645.9l-3.9-0.6l0,0c-1.8-0.3-3.2-1.7-3.4-3.4l0,0l-0.6-3.9l-0.6,3.9l0,0c-0.3,1.8-1.7,3.2-3.4,3.4l0,0
	l-3.9,0.6l3.9,0.6l0,0c1.8,0.3,3.2,1.7,3.4,3.4l0,0l0.6,3.9l0.6-3.9l0,0c0.3-1.8,1.7-3.2,3.4-3.4l0,0L1587.9,645.9z"/>
<path class="st11" d="M1469.8,623.3l-3.9-0.6l0,0c-1.8-0.3-3.2-1.7-3.4-3.4l0,0l-0.6-3.9l-0.6,3.9l0,0c-0.3,1.8-1.7,3.2-3.4,3.4l0,0
	l-3.9,0.6l3.9,0.6l0,0c1.8,0.3,3.2,1.7,3.4,3.4l0,0l0.6,3.9l0.6-3.9l0,0c0.3-1.8,1.7-3.2,3.4-3.4l0,0L1469.8,623.3z"/>
<rect x="1497.9" y="624.9" class="st20" width="36.8" height="151"/>
<polygon class="st8" points="1564,680.1 1430.7,680.1 1403.8,708.6 1590.8,708.6 "/>
<rect x="1412.9" y="706.8" class="st15" width="163.1" height="69.1"/>
<rect x="1412.8" y="687.6" class="st20" width="17.5" height="88.3"/>
<rect x="1509.9" y="687.6" class="st20" width="17.5" height="88.3"/>
<rect x="1453.5" y="675.9" class="st20" width="29.2" height="100"/>
<rect x="1565.2" y="687.6" class="st20" width="17.5" height="88.3"/>
<polygon class="st21" points="1407.4,690.5 1421.7,676.3 1435.8,690.5 "/>
<polygon class="st21" points="1504.3,690.5 1518.4,676.3 1532.7,690.5 "/>
<polygon class="st21" points="1447.8,676.7 1468.7,655.8 1489.5,676.7 "/>
<polygon class="st21" points="1490.8,625.2 1516.2,569.8 1541.5,625.2 "/>
<polygon class="st21" points="1559.8,690.5 1574,676.3 1588.2,690.5 "/>
<path class="st8" d="M1424.3,717.4h-5.8v-12.3c0-1.6,1.3-2.9,2.9-2.9l0,0c1.6,0,2.9,1.3,2.9,2.9V717.4z"/>
<path class="st8" d="M1520.8,717.4h-5.8v-12.3c0-1.6,1.3-2.9,2.9-2.9l0,0c1.6,0,2.9,1.3,2.9,2.9V717.4z"/>
<path class="st8" d="M1499.2,761.9h-5.8v-12.3c0-1.6,1.3-2.9,2.9-2.9l0,0c1.6,0,2.9,1.3,2.9,2.9V761.9z"/>
<path class="st8" d="M1549.3,761.9h-5.8v-12.3c0-1.6,1.3-2.9,2.9-2.9l0,0c1.6,0,2.9,1.3,2.9,2.9V761.9z"/>
<path class="st8" d="M1445.2,761.9h-5.8v-12.3c0-1.6,1.3-2.9,2.9-2.9l0,0c1.6,0,2.9,1.3,2.9,2.9V761.9z"/>
<path class="st8" d="M1576.3,717.4h-5.8v-12.3c0-1.6,1.3-2.9,2.9-2.9l0,0c1.6,0,2.9,1.3,2.9,2.9V717.4z"/>
<path class="st8" d="M1470.7,705.7h-5.8v-12.3c0-1.6,1.3-2.9,2.9-2.9l0,0c1.6,0,2.9,1.3,2.9,2.9V705.7z"/>
<path class="st8" d="M1518.8,649.6h-5.8v-12.3c0-1.6,1.3-2.9,2.9-2.9l0,0c1.6,0,2.9,1.3,2.9,2.9V649.6z"/>
<path class="st8" d="M1475.3,776.2h-15.2v-22.3c0-4.2,3.4-7.6,7.6-7.6l0,0c4.2,0,7.6,3.4,7.6,7.6V776.2z"/>
<path class="st13" d="M1267.7,775.8h145.1v-41.3H1284c-9,0-16.3,7.3-16.3,16.3L1267.7,775.8L1267.7,775.8z"/>
<g>
	<path class="st22" d="M1403.8,776h-15.2v-22.3c0-4.2,3.4-7.6,7.6-7.6l0,0c4.2,0,7.6,3.4,7.6,7.6V776z"/>
	<path class="st22" d="M1375.8,776h-15.2v-22.3c0-4.2,3.4-7.6,7.6-7.6l0,0c4.2,0,7.6,3.4,7.6,7.6V776z"/>
	<path class="st22" d="M1347.8,776h-15.2v-22.3c0-4.2,3.4-7.6,7.6-7.6l0,0c4.2,0,7.6,3.4,7.6,7.6V776z"/>
	<path class="st22" d="M1319.8,776h-15.2v-22.3c0-4.2,3.4-7.6,7.6-7.6l0,0c4.2,0,7.6,3.4,7.6,7.6V776z"/>
	<path class="st22" d="M1291.8,776h-15.2v-22.3c0-4.2,3.4-7.6,7.6-7.6l0,0c4.2,0,7.6,3.4,7.6,7.6V776z"/>
</g>
<circle class="st11" cx="1414.4" cy="626.4" r="10.3"/>
<path class="st11" d="M1407.5,663.7c-2.7-4.3-7.5-7.1-13-7.1c-0.1,0-0.3,0-0.4,0c-4,0.1-7.5-2.4-8.9-6.1
	c-3.9-10.1-13.7-17.2-25.1-17.2c-8.6,0-16.3,4.1-21.3,10.4c-2.5,3.2-6.9,4.3-10.7,2.9c-2.3-0.9-4.8-1.3-7.3-1.3
	c-6.9,0-13.1,3.4-16.9,8.6c-2.3,3.2-6.4,4.6-10.1,3.4c-1.5-0.5-3-0.7-4.6-0.7c-5.4,0-10.2,2.8-13,7.1L1407.5,663.7L1407.5,663.7z"/>
<g>
	<path class="st8" d="M173.7,484.5H170c-1.8,0-3.2-1.4-3.2-3.2v-20.2H177v20.2C176.9,483,175.4,484.5,173.7,484.5z"/>
	<circle class="st23" cx="170.8" cy="455.1" r="6"/>
	<polyline class="st14" points="173.3,462.3 183.2,459.2 188.3,448.6 	"/>
	<polyline class="st14" points="168.2,461.1 159.2,467.4 156.6,477.5 	"/>
	<g>
		<polygon class="st8" points="174.7,480.9 175.7,505.4 172.7,505.4 172.9,480.9 		"/>
	</g>
	<g>
		<polygon class="st8" points="170.1,480.9 171.1,505.4 168.1,505.4 168.3,480.9 		"/>
	</g>
	<circle class="st8" cx="170.8" cy="455.1" r="3.6"/>
	<path class="st12" d="M167.4,476.7h-5.9v-16.9h11.9v10.9C173.4,474,170.8,476.7,167.4,476.7z"/>
</g>
<polygon class="st8" points="410.2,844.3 313.7,844.3 260.1,1044.7 47.9,1044.7 47.9,1076.3 410.2,1076.3 "/>
<polygon class="st8" points="310.7,1051.3 214.2,1051.3 244.2,1016.9 310.7,1016.9 "/>
<g>
	<path class="st17" d="M307.1,934.6c-0.3-1.7-0.6-3.4-0.8-5.2c-0.2-1.9,0.3-3.9,1.5-5.7c1.1-1.7,2.9-3.2,5.1-3.9
		c0.5-0.2,1.1-0.3,1.7-0.4l0.4-0.1c0.2,0,0.2,0,0.3-0.1c0.1,0,0.3-0.1,0.4-0.1c0.5-0.2,1-0.5,1.4-0.8c0.8-0.7,1.3-1.6,1.4-2.4
		c0.1-0.4,0.1-0.9,0-1.2c0-0.2-0.1-0.4-0.1-0.6l-0.2-1.3l-1.6-10.3l-0.1-0.6l-0.1-0.3V901c-0.1-0.8,0-1.6,0.1-2.4
		c0.2-1.6,0.6-3.2,1.3-4.7c1.4-3,3.9-5.6,6.9-7.2c1.6-0.8,3.3-1.3,5-1.6l1.3-0.2l0.6-0.1c0.3,0,0.1-0.1,0.2-0.1l-0.1-0.1
		c-0.3-0.2-0.7-0.4-1.2-0.3c-0.5,0.1-1,0.4-1.3,0.9c0,0.1-0.1,0.1-0.1,0.2v0.1c0,0,0,0.1,0,0v-0.2l-0.2-1.3l-0.4-2.6l-1.6-10.3
		c-1.1-7.2,3.8-13.9,10.9-15.1c7.2-1.1,13.9,3.8,15.1,10.9c0.2,1.4,0.2,2.8,0,4.1l-1.6,10.3l-0.4,2.6l-0.2,1.3v0.2v0.3l-0.1,0.7
		c-0.1,0.5-0.1,1-0.2,1.5c-0.8,3.9-2.9,7.5-5.8,10s-6.5,4-10.2,4.2c-0.5,0-0.9,0-1.4,0c-0.4,0-1,0-1.1-0.1l-0.6-0.1
		c-0.1,0,0-0.1,0-0.1c0-0.1,0.1-0.3,0-0.4c0-0.3-0.3-0.5-0.6-0.5c-0.1,0-0.3,0-0.5,0.1c-0.1,0-0.2,0.1-0.2,0.2c0,0,0,0-0.1,0.1
		l-0.1,0.3l-0.1,0.6l-1.6,10.3l-0.2,1.3c-0.1,0.7-0.2,1.3-0.4,2c-0.4,1.3-0.9,2.5-1.6,3.6c-1.5,2.2-3.6,3.8-5.9,4.5
		c-1.2,0.4-2.3,0.6-3.5,0.6c-0.3,0-0.6,0-0.9,0c-0.1,0-0.3,0-0.4,0H315c-0.3-0.1-0.6-0.1-0.9-0.1c-1.2,0-2.5,0.4-3.6,1.3
		c-1.1,0.9-2,2.1-2.3,3.7C307.7,931.2,307.4,933,307.1,934.6z"/>
</g>
<polygon class="st16" points="325.9,943.7 394.3,928.9 394.3,1051.7 305.9,1051.7 "/>
<path class="st24" d="M316,934.1l24.1,9.4c17.2,6.7,36.2,7.7,54,2.7l11.7-3.3"/>
<path class="st24" d="M328,927.1l24.1,9.4c17.2,6.7,36.2,7.7,54,2.7l1.7-3.3"/>
<linearGradient id="SVGID_2_" gradientUnits="userSpaceOnUse" x1="151.6" y1="908.7999" x2="394.3" y2="908.7999" gradientTransform="matrix(1 0 0 1 0 54.8)">
	<stop  offset="0" style="stop-color:#FFFFFF;stop-opacity:0"/>
	<stop  offset="0.8613" style="stop-color:#FFFFFF;stop-opacity:0.1723"/>
	<stop  offset="1" style="stop-color:#FFFFFF;stop-opacity:0.2"/>
</linearGradient>
<polygon class="st25" points="247.7,855.5 394.3,928.9 394.3,1051.7 151.6,1071.7 "/>
<g>
	<g>
		<g>
			<path class="st12" d="M343,978.9L343,978.9l-5.7-8.9l8.9-5.7l0,0C349.3,969.3,347.9,975.8,343,978.9z"/>
			<path class="st12" d="M331.5,961.2L331.5,961.2l5.7,8.9l-8.9,5.7l0,0C325.2,970.9,326.6,964.4,331.5,961.2z"/>
		</g>
		<line class="st24" x1="338.3" y1="965.2" x2="331.6" y2="996.4"/>
	</g>
	<polyline class="st26" points="354.1,1003.4 340.3,999.6 333.3,992.9 	"/>
	<path class="st8" d="M364.2,1024.7h-11.4v-24.9h3.8c4.2,0,7.7,3.4,7.7,7.7v17.2H364.2z"/>
	<polyline class="st27" points="362.1,1024.2 359.6,1032.6 366,1050.9 362.3,1051.2 	"/>
	<polyline class="st27" points="356.6,1023.5 348.6,1033.1 351.8,1050.9 347.8,1051.1 	"/>
	<g>
		<path class="st8" d="M354.9,985c-1.2-1.8-1.9-3.6-2.4-5.5c-0.1-0.5-0.2-0.9-0.3-1.4c-0.1-0.8,0.1-1.8,0.5-2.7c0.8-1.7,2.7-3,4.6-3
			h0.3h0.2h0.3h0.7c0.5,0,0.9,0.1,1.4,0.1c0.9,0.1,1.8,0.3,2.7,0.5c0.4,0.1,0.9,0.2,1.3,0.4c0.1,0.1,0.3,0.3,0.6,0.3
			c0.5,0.1,1.4-0.1,2-1c0.7,0.9,0.5,2.5-0.5,3.5c-0.5,0.5-1.2,0.9-2,1.1c-0.5,0.2-0.9,0.3-1.4,0.4c-0.9,0.2-1.8,0.4-2.7,0.5
			c-0.5,0.1-0.9,0.1-1.4,0.1h-0.7h-0.6c0.1,0,0.2-0.1,0.2-0.3c0,0-0.1-0.1-0.2-0.1c-0.1,0.5-0.2,0.9-0.3,1.4
			C356.8,981.4,356.2,983.2,354.9,985z"/>
	</g>
	<path class="st11" d="M332.8,994.6L332.8,994.6c-1.2,0-2.2-1-2.2-2.2v-0.8c0-1.2,1-2.2,2.2-2.2l0,0c1.2,0,2.2,1,2.2,2.2v0.8
		C335,993.6,334,994.6,332.8,994.6z"/>
	<path class="st8" d="M360.6,1003.4h-6.5v-14.8h1.3c2.9,0,5.2,2.3,5.2,5.2V1003.4z"/>
	<path class="st17" d="M351.5,998.3L351.5,998.3v-7c0-2.6,2.1-4.7,4.7-4.7h3.1v3.9C359.3,994.8,355.8,998.3,351.5,998.3z"/>
	<polyline class="st26" points="359.8,1004 355.5,1012.2 347.4,1012.2 	"/>
	<path class="st12" d="M337.4,1034.6L337.4,1034.6v-30.1h11.3v18.8C348.8,1029.5,343.7,1034.6,337.4,1034.6z"/>
	<g>
		<path class="st17" d="M340.4,1009.2c-0.9,0.9-1.4,2.3-1.4,4s0.6,3.2,1.4,4V1009.2z"/>
		<path class="st17" d="M340.6,1027c0.9-0.9,1.4-2.3,1.4-4s-0.6-3.2-1.4-4V1027z"/>
		<path class="st17" d="M346.3,1017.9c-0.6-1.3-1.5-2.2-2.6-2.2s-2.1,0.9-2.6,2.2H346.3z"/>
		<path class="st17" d="M337.4,1018.3v2.2c1.1-0.1,2-0.9,2.5-2.2H337.4z"/>
	</g>
	<path class="st17" d="M364.6,1053.2h-6.1l0,0c0-2.3,1.9-4.2,4.2-4.2h1.9V1053.2z"/>
	<path class="st17" d="M349.7,1053.1h-6.1l0,0c0-2.3,1.9-4.2,4.2-4.2h1.9V1053.1z"/>
</g>
<g>
	<g>
		<path class="st28" d="M244.9,940.6l-14,2l-7,1l-3.5,0.5l-0.9,0.1l-0.4,0.1c-0.2,0-0.3,0-0.4,0.1l-1.1,0.3c-6,1.6-11,5.1-14.2,9.4
			c-1.6,2.1-2.8,4.5-3.6,6.8c-0.4,1.2-0.7,2.4-0.8,3.5c-0.1,0.6-0.1,1.2-0.2,1.8v0.4v0.2v0.1l-0.1,0.3c-0.2,0.9-0.4,1.7-0.7,2.6
			c-3.7,13.9-12.2,26.9-24.1,36.4c-5.9,4.7-12.7,8.6-20.1,11.3c-3.7,1.4-7.5,2.4-11.4,3.2c-1.9,0.4-3.9,0.7-5.9,0.9l-1.5,0.2
			c-0.5,0-1.1,0.1-1.3,0.1l-1.8,0.1l-28,1.2l-56,2.3v-70l56,2.3l28,1.2l1.8,0.1c0.4,0,0.3,0.1,0.5,0.1l0.3,0.1
			c0.4,0.2,0.7,0.3,1.1,0.4c0.8,0.2,1.6,0.4,2.4,0.6c1.7,0.2,3.5,0.2,5.3-0.3c3.7-0.8,7.4-3.1,10.2-6.7l0.5-0.7l0.1-0.1l0.1-0.3
			l0.3-0.6l0.6-1.2c0.8-1.6,1.6-3.2,2.5-4.7c1.8-3.1,3.8-6,6-8.7c4.4-5.4,9.6-10.1,15.3-13.8c11.4-7.4,24.7-10.8,37.4-10l2.4,0.2
			c0.2,0,0.4,0,0.5,0.1l0.4,0.1l0.9,0.1l3.5,0.5l7,1l14,2v23.4L244.9,940.6L244.9,940.6z"/>
	</g>
	<g>
		<path class="st8" d="M62.1,880h41.5c15.1,0,27.3,12.2,27.3,27.3v59.2l0,0c-8,0-14.5-6.5-14.5-14.5v-7.3
			c0-13.5-10.9-24.4-24.4-24.4l0,0c-10.9,0-20.6-7.3-23.5-17.8L62.1,880z"/>
		<g>
			<path class="st29" d="M130.9,966.5c-1-11.1-1.6-22.3-1.9-33.4c-0.2-5.6-0.3-11.1-0.4-16.7l-0.1-8.3c0-0.7,0-1.3-0.1-2
				c0-0.6,0-1.3-0.2-1.9l-0.3-1.9l-0.5-1.8c-0.7-2.4-1.7-4.8-3.1-6.9c-1.4-2.1-3.1-4-5-5.7c-1.9-1.6-4.2-2.9-6.5-4l-1.8-0.7
				l-1.8-0.5c-0.6-0.2-1.3-0.3-1.9-0.4c-0.6-0.1-1.3-0.3-1.9-0.3l-1.9-0.2l-2.1-0.1c-1.4-0.1-2.8-0.1-4.2-0.2l-8.3-0.4
				c-5.6-0.3-11.1-0.7-16.7-1.2c5.6-0.6,11.1-0.9,16.7-1.2l8.3-0.4c1.4-0.1,2.8-0.1,4.2-0.2l2.1-0.1h2.2c6,0.2,11.9,2.4,16.6,6.1
				c2.4,1.9,4.4,4.1,6.1,6.6c1.7,2.5,2.9,5.3,3.8,8.2c0.9,2.9,1.1,6,1.1,8.9v8.6c-0.1,5.6-0.2,11.1-0.4,16.7
				C132.5,944.3,132,955.4,130.9,966.5z"/>
		</g>
		<g>
			<path class="st29" d="M130.9,966.5c-1-8.7-1.6-17.3-1.9-26c-0.2-4.3-0.3-8.7-0.4-13l-0.1-6.5c0-0.6,0-1-0.1-1.5
				c0-0.5,0-1-0.1-1.4l-0.2-1.4l-0.4-1.4c-0.5-1.8-1.3-3.6-2.4-5.2c-1-1.6-2.3-3.1-3.8-4.3c-2.9-2.5-6.6-4.1-10.5-4.6l-1.5-0.1
				l-1.6-0.1c-1.1-0.1-2.2-0.1-3.2-0.2l-6.5-0.4c-4.3-0.3-8.7-0.7-13-1.2c4.3-0.6,8.7-0.9,13-1.2l6.5-0.4c1.1-0.1,2.2-0.1,3.2-0.2
				l1.6-0.1h1.8c4.7,0.1,9.5,1.9,13.3,4.8c1.9,1.5,3.5,3.3,4.9,5.3s2.3,4.2,3,6.6c0.7,2.3,0.9,4.8,0.9,7.1l-0.1,6.5
				c-0.1,4.3-0.2,8.7-0.4,13C132.5,949.2,132,957.9,130.9,966.5z"/>
		</g>
		<g>
			<path class="st29" d="M98.6,918.9c3.1-0.6,6.1-0.9,9.2-1.2c1.5-0.2,3.1-0.3,4.6-0.4l2.3-0.2l1.1-0.1c0.4,0,0.9,0,1.3,0
				c3.5,0,7,1.3,9.8,3.4c1.4,1.1,2.6,2.4,3.6,3.9s1.7,3.1,2.3,4.8c0.5,1.7,0.6,3.6,0.7,5.2l-0.1,4.6c-0.1,3.1-0.2,6.1-0.4,9.2
				c-0.4,6.1-0.9,12.3-2,18.4c-1-6.1-1.6-12.3-2-18.4c-0.2-3.1-0.3-6.1-0.4-9.2l-0.1-4.6c0-0.4,0-0.7,0-1s0-0.6-0.1-1l-0.1-0.9
				l-0.2-0.9c-0.7-2.5-2.1-4.7-4.1-6.4s-4.4-2.8-7.1-3.2l-1-0.1l-1.1-0.1l-2.3-0.2c-1.5-0.1-3.1-0.3-4.6-0.4
				C104.7,919.8,101.6,919.4,98.6,918.9z"/>
		</g>
	</g>
	<g>
		<polygon class="st28" points="100.5,987.4 145.6,1032.5 152.7,1039.7 149.6,1042.8 136.4,1056.2 129.5,1038.8 133.5,1049.1 
			76.8,1019.6 		"/>
	</g>
	<g>
		<polygon class="st28" points="109.8,978.8 188.8,1010.8 199.6,1015.2 196.3,1021.6 183.8,1045.8 175.9,1019.7 183.3,1030.6 
			99.1,1017.4 		"/>
	</g>
	<path class="st15" d="M72.8,962.7c2.1,3.4,5.8,5.6,10,5.6s7.9-2.2,10-5.6H72.8z"/>
	<path class="st15" d="M90.8,968.4c2.1,3.4,5.8,5.6,10,5.6s7.9-2.2,10-5.6H90.8z"/>
	<path class="st15" d="M137.5,964.4c2.1,3.4,5.8,5.6,10,5.6s7.9-2.2,10-5.6H137.5z"/>
	<path class="st15" d="M159.8,953c2.1,3.4,5.8,5.6,10,5.6s7.9-2.2,10-5.6H159.8z"/>
	<path class="st15" d="M215.8,918.7c1,1.7,2.9,2.8,5,2.8s4-1.1,5-2.8H215.8z"/>
	<path class="st15" d="M199.1,924.2c1,1.7,2.9,2.8,5,2.8s4-1.1,5-2.8H199.1z"/>
	<path class="st15" d="M180.2,935.2c1,1.7,2.9,2.8,5,2.8s4-1.1,5-2.8H180.2z"/>
	<path class="st15" d="M167.4,941.8c1,1.7,2.9,2.8,5,2.8s4-1.1,5-2.8H167.4z"/>
	<path class="st15" d="M182.4,924.4c1,1.7,2.9,2.8,5,2.8s4-1.1,5-2.8H182.4z"/>
	<path class="st15" d="M103.2,982.3c2.1,3.4,5.8,5.6,10,5.6s7.9-2.2,10-5.6H103.2z"/>
	<path class="st15" d="M55.2,993.9c2.1,3.4,5.8,5.6,10,5.6s7.9-2.2,10-5.6H55.2z"/>
	<path class="st15" d="M72.1,978.3c2.1,3.4,5.8,5.6,10,5.6s7.9-2.2,10-5.6H72.1z"/>
	<path class="st15" d="M50.6,966.8c2.1,3.4,5.8,5.6,10,5.6s7.9-2.2,10-5.6H50.6z"/>
	<polygon class="st28" points="202.5,1047.3 183,1047.3 190,1032.4 	"/>
	<polygon class="st28" points="155.6,1056.4 136.1,1056.4 143.1,1041.4 	"/>
	<g>
		<polygon class="st16" points="199.4,1045.7 205.6,1046.4 205.8,1046.4 205.8,1046.5 207.5,1048.8 205.4,1046.9 205.6,1047 
			199.4,1047.7 		"/>
	</g>
	<g>
		<polygon class="st16" points="193.3,1045.7 199.5,1046.4 199.7,1046.4 199.7,1046.5 201.4,1048.8 199.3,1046.9 199.5,1047 
			193.3,1047.7 		"/>
	</g>
	<g>
		<polygon class="st16" points="189.7,1045.7 195.9,1046.4 196,1046.4 196.1,1046.5 197.8,1048.8 195.6,1046.9 195.9,1047 
			189.7,1047.7 		"/>
	</g>
	<g>
		<g>
			<path class="st12" d="M184.4,1046.4c2.3-0.5,4.5-0.8,6.8-1.1c2.3-0.2,4.5-0.4,6.8-0.4c4.5-0.1,9.1,0.1,13.6,0.7l0.4,0.1l0.1,0.2
				c0.8,1.1,1.6,2.1,2.3,3.3c-1.2-0.7-2.2-1.4-3.3-2.2l0.5,0.2c-4.5,0.6-9.1,0.8-13.6,0.7c-2.3,0-4.5-0.2-6.8-0.4
				C188.9,1047.3,186.6,1047,184.4,1046.4z"/>
		</g>
		<g>
			<path class="st12" d="M202.2,1046.4c0.7-0.1,1.3,0,1.8,0.1c0.6,0.1,1.1,0.3,1.5,0.6c0.9,0.5,1.7,1.1,2.4,2l0.6,0.8l-0.1,0.2
				c-0.1,0.3-0.3,0.7-0.4,1c-0.2,0.3-0.4,0.7-0.7,1c-0.3-0.3-0.5-0.7-0.7-1s-0.3-0.7-0.4-1l0.5,0.9c-1-0.3-1.9-0.9-2.7-1.6
				c-0.4-0.4-0.7-0.8-1-1.3C202.6,1047.6,202.4,1047.1,202.2,1046.4z"/>
		</g>
		<g>
			<path class="st12" d="M195.6,1046.4c0.6-0.1,1.1-0.1,1.6-0.1c0.5,0.1,0.9,0.2,1.3,0.4c0.8,0.4,1.4,0.9,1.9,1.7l0.5,0.8v0.1
				c-0.1,0.3-0.3,0.5-0.4,0.8c-0.2,0.3-0.4,0.5-0.7,0.8c-0.3-0.3-0.5-0.5-0.7-0.8s-0.3-0.5-0.4-0.8l0.5,0.9
				c-0.9-0.2-1.6-0.7-2.2-1.3c-0.3-0.3-0.6-0.7-0.8-1.1C195.8,1047.5,195.7,1047.1,195.6,1046.4z"/>
		</g>
		<g>
			<path class="st12" d="M136,1055.8c1.8-0.5,3.7-0.8,5.5-1s3.7-0.4,5.5-0.4c3.7-0.1,7.3,0,11,0.4l0.5,0.1l0.2,0.2
				c0.6,0.8,1.2,1.5,1.7,2.3c0.6,0.8,1.1,1.6,1.6,2.4c-0.9-0.5-1.7-1-2.5-1.5s-1.5-1.1-2.3-1.7l0.7,0.3c-3.7,0.4-7.3,0.5-11,0.4
				c-1.8-0.1-3.7-0.2-5.5-0.4C139.6,1056.6,137.8,1056.3,136,1055.8z"/>
		</g>
		<g>
			<path class="st12" d="M148.2,1055.8c0.9,0.1,1.7,0.3,2.4,0.5c0.7,0.3,1.4,0.6,2.1,1c1.3,0.8,2.5,1.7,3.5,2.8l0.6,0.6l-0.1,0.3
				c-0.1,0.5-0.3,1-0.4,1.4c-0.2,0.5-0.4,1-0.7,1.4c-0.3-0.5-0.5-1-0.7-1.4c-0.2-0.5-0.3-1-0.4-1.4l0.5,0.9
				c-1.4-0.6-2.7-1.4-3.8-2.4c-0.6-0.5-1.1-1-1.6-1.7C149,1057.3,148.6,1056.6,148.2,1055.8z"/>
		</g>
		<g>
			<path class="st12" d="M140.9,1055.8c0.8,0,1.4,0.1,2.1,0.3c0.6,0.2,1.2,0.4,1.7,0.7c1.1,0.6,2,1.4,2.8,2.3l0.6,0.7l-0.1,0.2
				c-0.1,0.4-0.3,0.8-0.4,1.2c-0.2,0.4-0.4,0.8-0.7,1.2c-0.3-0.4-0.5-0.8-0.7-1.2c-0.2-0.4-0.3-0.8-0.4-1.2l0.5,0.9
				c-1.2-0.4-2.2-1.1-3.1-1.9c-0.5-0.4-0.9-0.9-1.2-1.4C141.5,1057.1,141.2,1056.5,140.9,1055.8z"/>
		</g>
	</g>
	<polygon class="st8" points="229.6,915.7 212.8,915.7 212.8,898.9 	"/>
	<polygon class="st8" points="273.4,916.6 259,908 267.7,893.6 	"/>
	<polygon class="st8" points="204.8,916.7 188.5,920.4 184.8,904.1 	"/>
	<polygon class="st8" points="181.5,922.7 168.6,933.4 157.9,920.5 	"/>
	<polygon class="st8" points="162.6,940 154.3,954.6 139.8,946.3 	"/>
	<polygon class="st8" points="111.4,960.8 85.9,959.2 87.5,933.8 	"/>
	<polygon class="st8" points="78.3,958.1 52.9,956.5 54.5,931.1 	"/>
	
		<rect x="290.7" y="946" transform="matrix(0.9059 -0.4235 0.4235 0.9059 -374.9008 214.702)" class="st12" width="9.9" height="9.9"/>
	
		<rect x="282.1" y="942.9" transform="matrix(0.9059 -0.4235 0.4235 0.9059 -374.3994 210.7669)" class="st12" width="9.9" height="9.9"/>
	
		<rect x="273" y="939.6" transform="matrix(0.9059 -0.4235 0.4235 0.9059 -373.8582 206.6032)" class="st12" width="9.9" height="9.9"/>
	<path class="st28" d="M303.3,955.1c5.8-3,5.3-11.6-0.9-13.8l-2-0.7l-9.5-6.4c-4.1-2.7-7.2-6.7-8.8-11.3l-1-2.8l-34.2-27.9l-7,26.3
		l-3.3-1.2l-0.7,11c-0.1,1.3,0,2.6,0.2,3.9l65.6,23.8L303.3,955.1z"/>
	<path class="st28" d="M249.2,950l42.5,17.9l5.9-1.9l-17.5-10.1L237.2,931C236.9,939.2,241.5,946.8,249.2,950z"/>
	<path class="st30" d="M255.1,923.5L255.1,923.5c2.7,5.7,9.4,8.1,15.1,5.5l0,0c1-0.5,1.5-1.7,1-2.7l0,0c-2.7-5.7-9.4-8.1-15.1-5.5
		l0,0C255,921.3,254.6,922.5,255.1,923.5z"/>
	<circle class="st12" cx="264.8" cy="924.4" r="3.5"/>
	<path class="st16" d="M295,945.6L295,945.6c1.4,3.1,5.1,4.4,8.1,2.9l0,0l0,0C301.7,945.5,298.1,944.2,295,945.6L295,945.6z"/>
	<g>
		<path class="st17" d="M307.1,916l-1.2-11.1l-0.2-1.4c0-0.5-0.1-0.9-0.2-1.2c-0.2-0.7-0.5-1.3-1-1.8c-0.9-1-2.1-1.6-3.3-1.6h-0.4
			c-0.2,0-0.3,0-0.5,0.1c-0.6,0-1.3,0-1.9-0.1c-1.3-0.2-2.6-0.6-3.7-1.3c-2.3-1.4-4.1-3.9-4.6-6.7c-0.1-0.4-0.1-0.7-0.1-1.1
			c-0.1-0.3-0.2-0.5-0.3-0.7l-0.6-1.4l-1.1-2.8l-2.2-5.5c-1.8-4.4,0.3-9.4,4.8-11.2c4.4-1.8,9.4,0.3,11.2,4.8c0.9,2.2,0.8,4.5,0,6.5
			l-2.2,5.5l-1.1,2.8l-0.6,1.4c-0.1,0.2-0.2,0.5-0.3,0.6c0,0.1,0,0.2-0.1,0.3c-0.1,0.8,0.1,1.8,0.8,2.5c0.3,0.4,0.8,0.7,1.3,0.9
			c0.2,0.1,0.5,0.2,0.8,0.2l0.9,0.1c0.3,0.1,0.6,0.1,0.9,0.2c2.5,0.7,4.5,2.5,5.5,4.6c0.5,1.1,0.8,2.2,0.8,3.4c0,0.3,0,0.6,0,0.9
			c0,0.3,0,0.5-0.1,0.7l-0.2,1.4L307.1,916z"/>
	</g>
	<polygon class="st8" points="255.1,917.9 238.4,917.9 238.4,901.1 	"/>
</g>
<rect x="1261.7" y="964.7" class="st13" width="288.5" height="170"/>
<g>
	<path class="st12" d="M1261.7,964.7v40.3c3.1,0.8,6.3,1.3,9.6,1.3l0,0c1.6,0,3.2,0.7,4.2,2.1c6.5,9,17.1,14.9,29.1,14.9
		c2.5,0,4.9-0.3,7.3-0.7c4,12,15.3,20.6,28.6,20.6c3.6,0,7-0.6,10.2-1.8c2.7-1,5.7-0.9,8.3,0.4c4.4,2.1,9.3,3.2,14.6,3
		c12.7-0.6,23.6-9.3,27.4-21.4c1.9-6,1.7-11.7,0.2-16.9c1.5-1,2.9-2.1,4.2-3.3c-1.6,4.8-2.2,10.1-1,15.7
		c2.6,12.8,13.3,22.7,26.2,24.1c8,0.9,15.4-1.4,21.2-5.7c3.3,1.3,7,2,10.7,2c6.3,0,12.2-2,17.1-5.3c2.6-1.8,6.1-1.9,8.8-0.3
		c3.7,2.2,8.2,3.2,12.9,2.6c9-1.1,16.4-8.1,17.8-17.1c0.4-2.2,0.4-4.3,0.1-6.4c-0.4-2.6,2-4.8,4.6-4.3c1.8,0.4,3.6,0.5,5.4,0.5
		c8.4,0,15.8-3.7,20.9-9.6v-34.9h-288.4L1261.7,964.7L1261.7,964.7z"/>
	<g>
		<path class="st12" d="M1509.7,1053.7c0.8,3.9,1.3,7.7,1.6,11.6c0.2,1.9,0.3,3.9,0.5,5.8l0.3,5.8c0.2,3.9,0.2,7.8,0.2,11.6
			c-0.1,3.9-0.2,7.8-0.7,11.7c-0.8-3.9-1.3-7.7-1.6-11.6c-0.4-3.9-0.7-7.7-0.8-11.6l-0.2-5.8c0-1.9,0-3.9,0-5.8
			C1509,1061.5,1509.2,1057.6,1509.7,1053.7z"/>
	</g>
	<line class="st24" x1="1503" y1="1060.1" x2="1516.4" y2="1058.3"/>
	<line class="st24" x1="1510" y1="1060" x2="1509.4" y2="1046.6"/>
	<polygon class="st8" points="1528.4,1112.5 1521.2,1092.4 1497.2,1093 1492,1111.9 1459.5,1120.3 1538.2,1117.7 	"/>
	<path class="st15" d="M1551.8,985.2l-22.8-0.4l-11.4-0.2l-5.7-0.1h-0.4h-0.2h-0.3c-0.4,0-0.7,0-1.1,0.1c-0.8,0.2-1.5,0.4-2.1,0.8
		c-1.3,0.7-2.3,1.9-2.9,3.3c-0.3,0.7-0.4,1.5-0.5,2.2v0.5v0.4v0.7l-0.1,2.9l-0.1,5.7l-0.2,11.4l-0.1,2.9v1.4v0.7c0,0.3,0,0.3,0,0.4
		c0,0.6-0.6,1.1-1.1,1.1l-10.9-0.2l-22.8-0.4l-5.7-0.1h-1.4h-0.7h-0.4h-0.2h-0.3c-1.8,0.1-3.6,0.8-5,1.9s-2.5,2.7-2.9,4.5
		c-0.1,0.4-0.2,0.8-0.2,1.3v0.6v0.4v1.4l-0.1,5.7l-0.1,2.9c0,0.1,0,0.3,0,0.3c-0.1,0-0.1,0-0.1,0h-1.4l-11.4-0.2l-18.4-0.3
		l-3.9-53.6l-33.5,23.3l-1.1,19l-11.9,0.2l-9.9,0.2l-2.5,0.1h-0.5c-0.1,0-0.2,0-0.2-0.1c0-1.5-0.5-3.2-1.4-4.5
		c-0.9-1.4-2.2-2.4-3.6-3.1c-0.7-0.4-1.5-0.6-2.3-0.7c-0.4-0.1-0.8-0.1-1.2-0.1c-0.2,0-0.3,0-0.4,0h-0.3l-2.5,0.1l-9.9,0.2
		l-19.8,0.4l-9.9,0.2h-0.4c-0.1,0-0.1,0-0.2,0c-0.1,0-0.2,0-0.3-0.1c-0.3-0.1-0.5-0.3-0.6-0.5c-0.1-0.1-0.2-0.2-0.2-0.3
		c0-0.1,0-0.1,0-0.2s0,0,0-0.3l-0.1-2.5l-0.2-9.9l-0.1-4.9v-1.2v-0.6v-0.4V997c-0.2-1.3-0.7-2.6-1.5-3.6c-0.8-1-1.9-1.8-3.1-2.2
		c-0.6-0.3-1.3-0.4-1.9-0.4h-0.4h-0.3h-0.6l-4.9,0.1l-9.9,0.2l-19.8,0.4v3.4l19.8,0.4l9.9,0.2l4.9,0.1h0.6h0.3c0.1,0,0.1,0,0.2,0
		c0.2,0,0.3,0,0.5,0.1c0.3,0.2,0.6,0.4,0.8,0.7c0.2,0.3,0.3,0.7,0.3,1v2.2l-0.1,4.9l-0.2,9.9l-0.1,2.5c0,0.1,0,0.6,0,0.9
		c0.1,0.3,0.1,0.7,0.2,1c0.2,0.6,0.5,1.3,0.8,1.9c0.6,1.2,1.7,2.2,2.9,2.9c0.6,0.3,1.3,0.5,2,0.7c0.3,0,0.6,0.1,1,0.1h0.5h0.3
		l9.9,0.2l19.8,0.4l9.9,0.2l2.5,0.1h0.3c0.1,0,0.2,0,0.2,0c0.1,0,0.1,0,0.1,0c0.1,0,0.1,0,0.1,0c0.1,0.1,0.1,0.2,0.1,0.3
		c0,1.6,0.4,3.2,1.3,4.6c0.9,1.4,2.1,2.5,3.6,3.2c0.7,0.4,1.5,0.7,2.3,0.8c0.4,0.1,0.8,0.1,1.2,0.1h0.7l2.5,0.1l9.9,0.2l11.2,0.2
		l-1.5,24.7l-15,0.7h-0.6h-0.4h-0.5c-0.7,0-1.4,0.2-2,0.4c-1.3,0.5-2.4,1.2-3.4,2.1c-0.9,0.9-1.7,2-2.2,3.2
		c-0.2,0.6-0.4,1.3-0.5,1.9c0,0.4-0.1,0.7-0.1,1v0.8c0.1,0.5,0,1-0.4,1.4c-0.2,0.2-0.5,0.4-0.7,0.5c-0.1,0-0.3,0.1-0.4,0.1h-0.1
		h-0.3h-0.6l-36.7,1.7v3.4l36.7,1.7h0.6h0.3h0.5c0.7-0.1,1.3-0.1,1.9-0.3c1.2-0.3,2.4-0.9,3.4-1.7c2-1.6,3.3-4.1,3.4-6.7
		c0-0.2,0-0.1,0-0.2v-0.1c0-0.1,0-0.1,0-0.2c0-0.1,0-0.2,0.1-0.3s0.2-0.3,0.4-0.4c0.1-0.1,0.3-0.2,0.5-0.2c0.1,0,0.2,0,0.3,0
		s0.1,0,0.1,0h0.1h0.6l14.5,0.6l-0.9,15l-6.1,9.1l-12.4-1.6l-1.1-0.2l-0.8,0.3l-32.5,10.8l-41.7,1.4v3.4l42.3,1.4h0.3l0.6-0.1
		l32.4-8.3l7.2,1.4l-4.4,6.5h45.7h17.8l-0.3-4.1l15.9-9l8.6,4.9l0.6,0.3l0.4,0.1l30,7.4l1-3.2l-28.6-10.1l-9.8-7.1l-1.6-1.1
		l-2.3,0.9l-15,6.5l-3.4-46.9l17.7-0.3l11.4-0.2h1.5c1,0,1.9-0.2,2.8-0.5c1.8-0.7,3.3-1.9,4.3-3.5c0.5-0.8,0.9-1.7,1.1-2.6
		c0.1-0.5,0.2-0.9,0.2-1.4v-0.7v-0.4l-0.1-2.9l-0.1-5.7v-1.4v-0.4c0-0.1,0-0.1,0-0.1c0-0.1,0-0.1,0-0.1s0-0.1,0.1-0.2
		c0,0,0.1-0.1,0.2-0.1h0.2h0.4h0.7h1.4l5.7-0.1l22.8-0.4l5.7-0.1l2.9-0.1h1.4h0.7c0.4,0,0.8,0,1.2-0.1c1.6-0.3,3.1-1.1,4.2-2.3
		c1.1-1.1,1.8-2.7,2-4.3c0-1,0-1.3,0-1.8v-1.4l-0.1-2.9l-0.2-11.4l-0.1-5.7l-0.1-2.9v-0.7v-0.4v-0.2c0-0.2,0-0.4,0.1-0.6
		c0.2-0.3,0.4-0.7,0.8-0.9c0.2-0.2,0.4-0.2,0.6-0.3c0.1,0,0.2,0,0.3,0h0.1h0.2h0.4l5.7-0.1l11.4-0.2l22.8-0.4L1551.8,985.2z"/>
	<g>
		<polygon class="st8" points="1383.4,1049.3 1392.8,1049.3 1389.8,1051.2 		"/>
		<g>
			<path class="st8" d="M1409.8,1070.9c-2.2,0-4.4-0.3-6.5-0.6h0.2l-2.3,0.7h-0.2l-0.2-0.1l-2.3-0.8h0.3c-1.6,0.4-3.3,0.6-5,0.8
				c1.6-0.7,3.2-1.2,4.8-1.7h0.1h0.1l2.3,0.8h-0.3l2.3-0.7h0.1h0.1C1405.7,1069.8,1407.8,1070.3,1409.8,1070.9z"/>
		</g>
		<g>
			<path class="st8" d="M1408.2,1072.3c-0.9,0.2-1.9,0.4-2.8,0.5l0.3-0.2c-0.2,0.5-0.4,1-0.6,1.4l-0.1,0.2h-0.3
				c-2,0.1-4.1,0.1-6.1,0h-0.2l-0.1-0.1c-0.4-0.4-0.7-0.8-1.1-1.2l0.2,0.1c-1-0.1-1.9-0.2-2.9-0.3c1-0.2,1.9-0.3,2.9-0.3h0.1
				l0.1,0.1c0.4,0.4,0.8,0.7,1.2,1.1l-0.3-0.1c2-0.1,4.1-0.1,6.1,0l-0.4,0.2c0.3-0.5,0.5-0.9,0.8-1.4l0.1-0.2h0.2
				C1406.2,1072.2,1407.2,1072.2,1408.2,1072.3z"/>
		</g>
		<g>
			<path class="st8" d="M1400.4,1042.7c0,2.9-0.2,5.8-0.6,8.6c-0.4,2.9-0.8,5.7-1.5,8.5c0-2.9,0.2-5.8,0.6-8.6
				C1399.2,1048.4,1399.7,1045.5,1400.4,1042.7z"/>
		</g>
		<g>
			<path class="st8" d="M1407.4,1061.5c-1.1,0.3-2.2,0.5-3.3,0.7l0.3-0.3l0.1,1.4v0.4h-0.4c-1.9,0.1-3.7,0.1-5.6,0h-0.5v-0.5
				l0.1-1.4l0.4,0.4c-0.8,0-1.5-0.1-2.3-0.2s-1.5-0.1-2.3-0.3c0.8-0.1,1.5-0.2,2.3-0.3c0.8-0.1,1.5-0.1,2.3-0.2h0.4v0.4l0.1,1.4
				l-0.5-0.5c1.9,0,3.7,0,5.6,0l-0.4,0.4l0.1-1.4v-0.3h0.3C1405.2,1061.4,1406.2,1061.4,1407.4,1061.5z"/>
		</g>
		<g>
			<path class="st8" d="M1392.8,1046.4c-0.9-0.5-1.7-1-2.5-1.6l0.3,0.1c-1.5,0.3-3.1,0.5-4.6,0.7c-1.6,0.2-3.1,0.2-4.7,0.1
				c1.5-0.5,3-0.8,4.6-1.1c1.5-0.2,3.1-0.4,4.6-0.5h0.2l0.1,0.1C1391.3,1044.9,1392,1045.6,1392.8,1046.4z"/>
		</g>
		<polygon class="st8" points="1416.7,1049.3 1407.4,1049.3 1410.4,1051.2 		"/>
		<g>
			<path class="st8" d="M1407.4,1046.4c0.6-0.8,1.3-1.5,2-2.2l0.1-0.1h0.2c1.6,0.1,3.1,0.3,4.6,0.5c1.5,0.3,3.1,0.6,4.6,1.1
				c-1.6,0.1-3.1,0-4.7-0.1c-1.6-0.2-3.1-0.4-4.6-0.7l0.3-0.1C1409.2,1045.4,1408.3,1045.9,1407.4,1046.4z"/>
		</g>
		<g>
			<path class="st8" d="M1407.9,1055c1.7,2.4,3.2,4.9,4.6,7.5s2.7,5.2,3.8,7.9c-1.7-2.4-3.2-4.9-4.6-7.5S1408.9,1057.7,1407.9,1055z
				"/>
		</g>
		<g>
			<path class="st8" d="M1393.4,1054.8c-1.1,2.8-2.4,5.4-3.8,7.9c-1.4,2.6-2.9,5.1-4.6,7.5c1.1-2.8,2.4-5.4,3.8-7.9
				C1390.2,1059.7,1391.7,1057.2,1393.4,1054.8z"/>
		</g>
	</g>
	<path class="st12" d="M1455.8,1061.2v3.4h-3.4c-3.9,0-7.1-3.2-7.1-7.1v-3.4h3.4C1452.7,1054.2,1455.8,1057.3,1455.8,1061.2z"/>
	<path class="st12" d="M1536.2,1021.5v3.4h-3.4c-3.9,0-7.1-3.2-7.1-7.1v-3.4h3.4C1533,1014.4,1536.2,1017.6,1536.2,1021.5z"/>
	<path class="st28" d="M1474.5,1002.2h3.4v3.4c0,3.9-3.2,7.1-7.1,7.1h-3.4v-3.4C1467.4,1005.3,1470.7,1002.2,1474.5,1002.2z"/>
	<path class="st28" d="M1536.2,970.8h3.4v3.4c0,3.9-3.2,7.1-7.1,7.1h-3.4v-3.4C1529.2,974,1532.3,970.8,1536.2,970.8z"/>
	<path class="st28" d="M1290.7,1002.2h3.4v3.4c0,3.9-3.2,7.1-7.1,7.1h-3.4v-3.4C1283.5,1005.3,1286.7,1002.2,1290.7,1002.2z"/>
	<path class="st28" d="M1378.8,1004v3.4h-3.4c-3.9,0-7.1-3.2-7.1-7.1v-3.4h3.4C1375.7,996.9,1378.8,1000.1,1378.8,1004z"/>
	<path class="st28" d="M1333.8,1009.2v3.4h-3.4c-3.9,0-7.1-3.2-7.1-7.1v-3.4h3.4C1330.5,1002.2,1333.8,1005.3,1333.8,1009.2z"/>
	<path class="st28" d="M1279.8,983.7v3.4h-3.4c-3.9,0-7.1-3.2-7.1-7.1v-3.4h3.4C1276.8,976.7,1279.8,979.8,1279.8,983.7z"/>
	<path class="st12" d="M1333.8,1060.5v3.4h-3.4c-3.9,0-7.1-3.2-7.1-7.1v-3.4h3.4C1330.7,1053.4,1333.8,1056.6,1333.8,1060.5z"/>
</g>
<path class="st20" d="M1554.3,384.2c0-12-8.7-22-20.1-24.1h11l0,0c0-12.1-8.8-22.2-20.4-24.1h7.3c0-13.5-10.9-24.4-24.4-24.4h-33.1
	c-13.5,0-24.4,10.9-24.4,24.4h35.7v24.1h25.3v24.1h4.6v13.6h-5.6v24.4h40.3c0-7.2-3.1-13.6-8-18.1h11.8c0-8.2-4.1-15.5-10.3-19.9
	H1554.3L1554.3,384.2z"/>
<path class="st31" d="M1436.8,338.9v-26.1c57.7,0,104.5,46.8,104.5,104.5v27.1h-70.2v-77.3L1436.8,338.9z"/>
<path class="st31" d="M1483.8,375.9l-77.7,28.4c-6.8,2.5-14.3-0.2-18.1-6.3l0,0c-3.5-5.6-2.9-12.8,1.4-17.8l53.4-62.7L1483.8,375.9z
	"/>
<path class="st31" d="M1487.9,329.7h-20v-8.5c0-11,9-20,20-20l0,0V329.7z"/>
<path class="st32" d="M1487.9,329.7h-10v-4.3c0-5.5,4.5-10,10-10l0,0V329.7z"/>
<circle class="st21" cx="1446.7" cy="355.3" r="5"/>
<path class="st21" d="M1428.4,337.7l-42.9-45.5l51.9,34.9c3.2,2.2,4.1,6.5,1.9,9.8c-2.2,3.2-6.5,4.1-9.8,1.9
	C1429.2,338.4,1428.8,338,1428.4,337.7z"/>
<path class="st31" d="M1469.8,376.1v7.6c0,17.2-13.9,31.1-31.1,31.1h-95.4c-17.5,0-31.7,14.2-31.7,31.7l0,0h229.8L1469.8,376.1z"/>
<path class="st20" d="M1325.2,432.1c-2.8,1.5-5.6,2.7-8.4,3.7c-0.4,0.1-0.7,0.3-1.1,0.4c-0.5,0.1-0.9,0.2-1.4,0.3
	c-0.5,0.1-0.9,0.1-1.4,0.2c-0.5,0-1,0.1-1.5,0.1c-2,0.1-4-0.3-6-0.9c-4-1.3-7.7-4-10.3-7.8c-1.3-1.9-2.3-4-3-6.3
	c-0.4-1.1-0.6-2.3-0.7-3.5l-0.1-0.4l-0.1-0.3l-0.1-0.5l-0.2-1c-2-11.2-2.9-22.4-2.9-33.6c0-5.6,0.2-11.2,0.7-16.8l0.2-2.1v-0.3
	c0-0.1,0-0.1,0-0.1s0,0,0-0.1l0.1-0.1c0.1-0.2,0.2-0.4,0.3-0.7c0.2-0.6,0.1-1.3-0.2-2.1c-0.2-0.4-0.4-0.8-0.7-1.2
	c-0.1-0.1-0.2-0.2-0.3-0.3c-0.1-0.1-0.2-0.2-0.3-0.3c-0.1-0.1-0.2-0.2-0.4-0.3c-0.2-0.1-0.2-0.2-0.6-0.3c-0.7-0.2-1.4-0.3-2.1-0.5
	l-0.5-0.1h-0.1h-0.1l-0.1-0.1c-0.2-0.1-0.3-0.2-0.5-0.3c-0.7-0.3-1.4-0.5-2.3-0.6c-0.8-0.1-1.8-0.1-2.8,0.1s-2,0.6-3,1.1
	c-1,0.6-2,1.3-3,2.3s-1.8,2.2-2.6,3.5c-0.7-1.4-1.2-3-1.3-4.7c-0.1-1.7,0.1-3.5,0.6-5.3s1.4-3.5,2.6-5.1s2.7-3,4.4-4.2
	c1.7-1.2,3.7-2.1,5.8-2.7c0.5-0.1,1.1-0.3,1.6-0.4l0.4-0.1h0.2h0.1l0.5-0.1c0.7-0.2,1.4-0.4,2.1-0.5c0.3-0.1,0.9-0.1,1.5-0.2
	c0.6,0,1.2-0.1,1.7-0.1c0.6,0,1.2,0,1.8,0c0.6,0,1.2,0.1,1.8,0.2c2.3,0.4,4.7,1.1,6.9,2.2c4.4,2.2,8.2,5.8,10.6,10.4
	c1.2,2.3,2.1,4.8,2.5,7.4c0.1,0.6,0.2,1.3,0.3,1.9l0.2,1.7l0.2,2.1c0.5,5.6,0.7,11.2,0.7,16.8c0,11.2-0.9,22.4-2.9,33.6l-0.2,1
	l-0.1,0.5l-0.1,0.3v0.1c-0.1,0.1-0.1,0.2-0.2,0.3c-0.1,0.1-0.1,0.2-0.2,0.3c-0.2,0.5-0.4,1-0.4,1.6c-0.1,1.2,0.2,2.8,1,4.2
	c0.4,0.7,1,1.5,1.8,2.1c0.2,0.2,0.4,0.3,0.6,0.5c0.2,0.1,0.4,0.3,0.7,0.5c0.2,0.1,0.5,0.3,0.7,0.4c0.3,0.1,0.7,0.3,1,0.4
	C1319.7,429.5,1322.4,430.6,1325.2,432.1z"/>
<path class="st20" d="M1421.9,394c0-13.1-9.5-24.1-22-26.2l-10.6,12.4c-4.3,5-4.8,12.2-1.4,17.8c3.8,6.1,11.3,8.7,18.1,6.3l15.5-5.6
	C1421.8,397.1,1421.9,395.6,1421.9,394z"/>
<path class="st32" d="M1395.7,390.5L1395.7,390.5c2.8,2.8,7.2,2.8,10,0l0,0l0,0C1402.9,387.7,1398.4,387.7,1395.7,390.5
	L1395.7,390.5z"/>
<path class="st33" d="M1383.2,309.8l-7.3-1.2c0,0,0,0-0.1,0c-3.3-0.6-5.9-3.1-6.5-6.5c0,0,0,0,0-0.1l-1.2-7.3l-1.2,7.3
	c0,0,0,0,0,0.1c-0.6,3.3-3.1,5.9-6.5,6.5c0,0,0,0-0.1,0l-7.3,1.2l7.3,1.2c0,0,0,0,0.1,0c3.3,0.6,5.9,3.1,6.5,6.5c0,0,0,0,0,0.1
	l1.2,7.3l1.2-7.3c0,0,0,0,0-0.1c0.6-3.3,3.1-5.9,6.5-6.5c0,0,0,0,0.1,0L1383.2,309.8z"/>
<path class="st20" d="M1342.2,346.2l-3.9-0.6l0,0c-1.8-0.3-3.2-1.7-3.4-3.4l0,0l-0.6-3.9l-0.6,3.9l0,0c-0.3,1.8-1.7,3.2-3.4,3.4l0,0
	l-3.9,0.6l3.9,0.6l0,0c1.8,0.3,3.2,1.7,3.4,3.4l0,0l0.6,3.9l0.6-3.9l0,0c0.3-1.8,1.7-3.2,3.4-3.4l0,0L1342.2,346.2z"/>
<path class="st21" d="M1311.2,306.6l-3.9-0.6l0,0c-1.8-0.3-3.2-1.7-3.4-3.4l0,0l-0.6-3.9l-0.6,3.9l0,0c-0.3,1.8-1.7,3.2-3.4,3.4l0,0
	l-3.9,0.6l3.9,0.6l0,0c1.8,0.3,3.2,1.7,3.4,3.4l0,0l0.6,3.9l0.6-3.9l0,0c0.3-1.8,1.7-3.2,3.4-3.4l0,0L1311.2,306.6z"/>
<g>
	<line class="st34" x1="1398.8" y1="306.2" x2="1401.2" y2="302.6"/>
	<line class="st34" x1="1407" y1="314.9" x2="1410.9" y2="309.2"/>
	<line class="st34" x1="1423.5" y1="332.5" x2="1430.4" y2="322.2"/>
	<line class="st34" x1="1420.7" y1="315.7" x2="1415.2" y2="323.7"/>
</g>
<g>
	
		<linearGradient id="SVGID_3_" gradientUnits="userSpaceOnUse" x1="896.1" y1="810.0472" x2="957" y2="810.0472" gradientTransform="matrix(1 0 0 1 0 54.8)">
		<stop  offset="0" style="stop-color:#FFFFFF;stop-opacity:0.2"/>
		<stop  offset="1" style="stop-color:#FFFFFF;stop-opacity:0"/>
	</linearGradient>
	<path class="st35" d="M957,864.8l-52.8,7.1c-2.2,0.3-4.4-0.5-6-2l0,0c-2.8-2.8-2.8-7.3,0-10.1l0,0c1.6-1.6,3.8-2.3,6-2L957,864.8z"
		/>
	
		<linearGradient id="SVGID_4_" gradientUnits="userSpaceOnUse" x1="900.5037" y1="810.0999" x2="924.2205" y2="810.0999" gradientTransform="matrix(1 0 0 1 0 54.8)">
		<stop  offset="0" style="stop-color:#FFFFFF;stop-opacity:0.2"/>
		<stop  offset="1" style="stop-color:#FFFFFF;stop-opacity:0"/>
	</linearGradient>
	<path class="st36" d="M903.2,867.6c-0.7,0-1.4-0.3-2-0.8c-1.1-1.1-1.1-2.8,0-3.9c0.5-0.5,1.2-0.8,2-0.8c0.1,0,0.2,0,0.4,0l20.6,2.8
		l-20.6,2.8C903.5,867.6,903.4,867.6,903.2,867.6z"/>
	<polygon class="st12" points="894.8,868.2 883.8,868.2 883.8,863.2 891.6,863.2 	"/>
	<polygon class="st37" points="892.2,872.9 829.3,872.9 843.8,858.4 882.5,858.4 	"/>
	<polygon class="st12" points="806.1,872.9 829.3,872.9 843.8,858.4 	"/>
	<polygon class="st12" points="912,902.3 852.8,865.7 877.6,865.7 	"/>
	<path class="st8" d="M843.5,867.6h-10.4v-3.8h10.4c1.1,0,1.9,0.9,1.9,1.9l0,0C845.5,866.7,844.6,867.6,843.5,867.6z"/>
	<polygon class="st8" points="820,867.6 834.6,867.6 838.5,863.8 829.9,863.8 	"/>
</g>
<polygon class="st38" points="831.6,941.4 768.2,941.4 768.2,894.5 "/>
<polygon class="st38" points="883.8,941.4 969.6,941.4 969.6,877.9 "/>
<polygon class="st38" points="877.8,941.4 813.1,941.4 845.5,909 "/>
<rect x="156.9" y="729.4" class="st38" width="194.6" height="114.9"/>
<path class="st12" d="M844.8,899.6c-1.3-2.1-3.6-3.4-6.2-3.4c-0.1,0-0.1,0-0.2,0c-1.9,0-3.6-1.1-4.3-2.9c-1.9-4.9-6.6-8.3-12.1-8.3
	c-4.2,0-7.9,2-10.2,5c-1.2,1.5-3.3,2.1-5.1,1.4c-1.1-0.4-2.3-0.6-3.5-0.6c-3.3,0-6.3,1.6-8.1,4.1c-1.1,1.5-3.1,2.2-4.9,1.7
	c-0.7-0.2-1.5-0.3-2.2-0.3c-2.6,0-4.9,1.4-6.2,3.4h63V899.6z"/>
<path class="st12" d="M953.6,845.7c-1.1-1.6-2.9-2.7-4.9-2.7c-0.1,0-0.3,0-0.4,0c-1.7,0.1-3.3-0.5-4.5-1.6c-1.4-1.5-3.4-2.4-5.6-2.4
	c-0.4,0-0.8,0-1.2,0.1c-1.8,0.3-3.6-0.4-4.8-1.8c-1.9-2-4.6-3.3-7.6-3.3c-5.7,0-10.4,4.7-10.4,10.4c0,0.4,0,0.8,0.1,1.2L953.6,845.7
	L953.6,845.7z"/>
<polygon class="st39" points="351.5,744.4 293.2,844.3 351.5,844.3 "/>
<polygon class="st39" points="156.8,744.4 213.6,844.3 156.8,844.3 "/>
<g>
	<path class="st16" d="M254.5,823.3c42.6,0,78.6,13.6,96.9,18.9v-31.6H156.7v31.6C175,836.9,211.9,823.3,254.5,823.3z"/>
	<rect x="156.7" y="807.5" class="st12" width="194.8" height="3"/>
	<path class="st40" d="M343.7,817h-5.1c-1.3,0-2.3,1-2.3,2.3l0,0c0,1.3-1,2.3-2.3,2.3h-5.1c-1.3,0-2.3-1-2.3-2.3l0,0
		c0-1.3-1-2.3-2.3-2.3h-8"/>
	<path class="st40" d="M165.4,817h5.1c1.3,0,2.3,1,2.3,2.3l0,0c0,1.3,1,2.3,2.3,2.3h5.1c1.3,0,2.3-1,2.3-2.3l0,0
		c0-1.3,1-2.3,2.3-2.3h7.9"/>
	<line class="st40" x1="238.7" y1="817" x2="271.5" y2="817"/>
	<path class="st40" d="M306.2,815.2h-7.9c-1,0-1.9,0.8-1.9,1.9l0,0c0,1-0.8,1.9-1.9,1.9h-11.2"/>
	<path class="st40" d="M204,815.2h7.9c1,0,1.9,0.8,1.9,1.9l0,0c0,1,0.8,1.9,1.9,1.9H227"/>
	<circle class="st8" cx="341.8" cy="823.7" r="2"/>
	<circle class="st8" cx="277.4" cy="816.2" r="2"/>
	<circle class="st8" cx="232.8" cy="816.2" r="2"/>
	<circle class="st8" cx="165.4" cy="823.7" r="2"/>
</g>
<g>
	<path class="st16" d="M279.5,766.5H224v-1.6c0-9,7.3-16.3,16.3-16.3h22.9c9,0,16.3,7.3,16.3,16.3V766.5z"/>
	<g>
		<polygon class="st12" points="257.9,779.2 266.6,789.8 268,791.4 267.7,793 265.3,806.3 259.2,805.6 259.7,792.1 260.8,795.3 
			250.7,786.1 		"/>
	</g>
	<g>
		<polygon class="st12" points="251.7,785.7 242.6,796 243.4,793.4 242.9,805.8 236.7,806.1 235.4,793.7 235.2,792.5 236.2,791.1 
			243.8,779.6 		"/>
	</g>
	<g>
		<polygon class="st16" points="257.9,779.2 266.6,789.8 260.8,795.3 250.7,786.1 		"/>
	</g>
	<g>
		<polygon class="st16" points="251.7,785.7 242.6,796 236.2,791.1 243.8,779.6 		"/>
	</g>
	<path class="st16" d="M275.8,807.5H259v-4.4h3.9C267.5,803.1,272.1,804.6,275.8,807.5L275.8,807.5z"/>
	<path class="st16" d="M226.3,807.5h16.8v-4.4h-3.9C234.5,803.1,230,804.6,226.3,807.5L226.3,807.5z"/>
	<polyline class="st41" points="272.8,763.7 278.2,779.6 276.2,786.9 	"/>
	<line class="st42" x1="278.2" y1="779.6" x2="276.2" y2="786.9"/>
	<polyline class="st41" points="230.2,763.9 224.8,779.8 226.9,787 	"/>
	<polygon class="st12" points="263.2,785.5 239.8,785.5 232.9,766.4 270.1,766.4 	"/>
	<path class="st16" d="M262.1,771h-0.5c-0.4,0-0.8-0.3-0.8-0.8l0,0c0-0.4,0.3-0.8,0.8-0.8h0.5c0.4,0,0.8,0.3,0.8,0.8l0,0
		C262.8,770.7,262.5,771,262.1,771z"/>
	<path class="st16" d="M241,771h-0.5c-0.4,0-0.8-0.3-0.8-0.8l0,0c0-0.4,0.3-0.8,0.8-0.8h0.5c0.4,0,0.8,0.3,0.8,0.8l0,0
		C241.7,770.7,241.4,771,241,771z"/>
	<g>
		<path class="st12" d="M256.6,762h-10.1c-3.2,0-5.7-2.6-5.7-5.7v-6.9c0-3.2,2.6-5.7,5.7-5.7h10.1c3.2,0,5.7,2.6,5.7,5.7v6.9
			C262.3,759.5,259.8,762,256.6,762z"/>
		<g>
			<path class="st16" d="M257.3,750.2c0,0.8-0.7,1.5-1.5,1.5c-0.8,0-1.5-0.7-1.5-1.5"/>
			<path class="st16" d="M248.9,750.2c0,0.8-0.7,1.5-1.5,1.5s-1.5-0.7-1.5-1.5"/>
			<g>
				<path class="st16" d="M248,752.8c0.2,0.1,0.3,0.2,0.5,0.3h-0.1c0.6-0.1,1.2-0.2,1.8-0.3h0.4l0.1,0.4c0,0.2,0,0.3,0,0.5l-0.4-0.4
					c1-0.1,1.9-0.1,2.9,0l-0.4,0.4c0-0.1,0-0.3,0-0.4l0.1-0.4h0.4c0.5,0.1,1,0.1,1.5,0.2l-0.1,0.1c0.2-0.2,0.5-0.3,0.7-0.4
					c-0.1,0.2-0.3,0.5-0.4,0.7l0,0h-0.1c-0.5,0.1-1,0.2-1.5,0.2l0.4-0.4c0,0.1,0,0.3,0,0.4v0.4h-0.5c-1,0.1-1.9,0.1-2.9,0h-0.5v-0.4
					c0-0.2,0-0.3,0-0.5l0.4,0.4c-0.6-0.1-1.2-0.1-1.8-0.3h-0.1l0,0C248.2,753.1,248.1,752.9,248,752.8z"/>
			</g>
			<g>
				<path class="st16" d="M250.4,752.6c-0.4-0.8-0.5-1.6-0.5-2.3c0-0.8,0.1-1.6,0.5-2.3c0.4,0.8,0.5,1.6,0.5,2.3
					C250.9,751.1,250.8,751.8,250.4,752.6z"/>
			</g>
			<g>
				<path class="st16" d="M256.4,758.1c-0.5-0.3-1-0.7-1.5-1l0.2,0.1c-1.3,0.2-2.6,0.2-3.9,0.2c-1.3,0-2.6-0.1-3.9-0.3l0.2-0.1
					c-0.3,0.2-0.7,0.5-1,0.7c0.2-0.4,0.5-0.7,0.7-1l0,0h0.1c1.3-0.2,2.6-0.3,3.9-0.3c1.3,0,2.6,0,3.9,0.2h0.2l0.1,0.1
					C255.7,757.1,256.1,757.5,256.4,758.1z"/>
			</g>
			<polygon class="st16" points="251.7,757.1 253.4,755.5 255.1,757.1 			"/>
			<polygon class="st16" points="248,757.1 249.7,755.5 251.3,757.1 			"/>
			<g>
				<path class="st16" d="M252.7,749.7c0.2-0.5,0.5-0.9,0.8-1.3l0.1-0.1h0.2c1.5-0.2,3-0.2,4.5,0.1h0.1l0,0c0.6,0.4,1.2,0.8,1.8,1.3
					c-0.7-0.2-1.4-0.5-2.1-0.8h0.1c-1.5,0.3-3,0.3-4.5,0.1l0.2-0.1C253.6,749.2,253.1,749.5,252.7,749.7z"/>
			</g>
			<g>
				<path class="st16" d="M249.4,749.7c-0.5-0.2-0.9-0.5-1.3-0.8l0.2,0.1c-1.5,0.2-3,0.2-4.5-0.1h0.1c-0.7,0.3-1.4,0.6-2.1,0.8
					c0.6-0.5,1.2-0.9,1.8-1.3l0,0h0.1c1.5-0.3,3-0.3,4.5-0.1h0.2l0.1,0.1C248.9,748.9,249.1,749.3,249.4,749.7z"/>
			</g>
		</g>
		<path class="st12" d="M263.8,752.2h-2l4.1-7.8v5.7C266,751.3,265,752.2,263.8,752.2z"/>
		<path class="st12" d="M239.3,752.2h2l-4.1-7.8v5.7C237.2,751.3,238.1,752.2,239.3,752.2z"/>
	</g>
	<polygon class="st16" points="238,780.5 239.8,788.8 263.2,788.8 265,780.5 	"/>
	<line class="st42" x1="224.8" y1="779.6" x2="226.9" y2="786.9"/>
	<path class="st12" d="M228.9,793.2h-5.2c-2.4,0-4.4-2-4.4-4.4V787c0-2.4,2-4.4,4.4-4.4h5.2c2.4,0,4.4,2,4.4,4.4v1.8
		C233.3,791.3,231.3,793.2,228.9,793.2z"/>
	<g>
		<g>
			<path class="st16" d="M253.4,767.1c0.2,0.8,0.3,1.6,0.4,2.4c0.1,0.8,0.1,1.6,0.1,2.4l-0.5-0.5c1.5,0,3,0.1,4.5,0.5
				c-1.5,0.4-3,0.5-4.5,0.5h-0.5v-0.5c0-0.8,0-1.6,0.1-2.4C253,768.7,253.1,767.9,253.4,767.1z"/>
		</g>
		<g>
			<path class="st16" d="M244.9,771.8c0.8-0.2,1.6-0.3,2.4-0.4c0.8-0.1,1.6-0.1,2.4-0.1l-0.5,0.5c0-1.5,0.1-3,0.5-4.5
				c0.4,1.5,0.5,3,0.5,4.5v0.5h-0.5c-0.8,0-1.6,0-2.4-0.1C246.5,772.1,245.7,772,244.9,771.8z"/>
		</g>
		<g>
			<path class="st16" d="M249.3,779.8c-0.2-0.8-0.3-1.6-0.4-2.4c-0.1-0.8-0.1-1.6-0.1-2.4l0.5,0.5c-1.5,0-3-0.1-4.5-0.5
				c1.5-0.4,3-0.5,4.5-0.5h0.5v0.5c0,0.8,0,1.6-0.1,2.4C249.6,778.3,249.5,779,249.3,779.8z"/>
		</g>
		<g>
			<path class="st16" d="M257.8,775.2c-0.8,0.2-1.6,0.3-2.4,0.4c-0.8,0.1-1.6,0.1-2.4,0.1l0.5-0.5c0,1.5-0.1,3-0.5,4.5
				c-0.4-1.5-0.5-3-0.5-4.5v-0.5h0.5c0.8,0,1.6,0,2.4,0.1C256.2,774.9,257,775,257.8,775.2z"/>
		</g>
	</g>
	<g>
		<path class="st16" d="M266,782.2l40.3,14.7c2.6,1,4,3.8,3,6.5c-1,2.6-3.8,4-6.5,3c-0.4-0.1-0.7-0.3-1-0.5L266,782.2z"/>
	</g>
	<path class="st12" d="M276.6,793.5l-4.7-2.3c-2.2-1.1-3.1-3.7-2-5.9l0.8-1.6c1.1-2.2,3.7-3.1,5.9-2l4.7,2.3c2.2,1.1,3.1,3.7,2,5.9
		l-0.8,1.6C281.4,793.7,278.8,794.6,276.6,793.5z"/>
</g>
<polyline class="st43" points="1378.7,871.1 1414.3,911.1 1450,871.1 1485.8,911.1 1521.4,871.1 1557.2,911.1 1592.9,871.1 
	1628.7,911.1 "/>
<polyline class="st43" points="0.8,222.1 36.5,262.1 72.2,222.1 107.9,262.1 143.6,222.1 179.4,262.1 215.1,222.1 250.8,262.1 "/>
<path class="st17" d="M1318.4,585.2L1318.4,585.2L1318.4,585.2c-17,0-30.7-13.8-30.7-30.7l0,0l0,0
	C1304.8,554.5,1318.4,568.2,1318.4,585.2z"/>
<path class="st17" d="M1445.8,228.2L1445.8,228.2L1445.8,228.2c-17,0-30.7-13.8-30.7-30.7l0,0l0,0
	C1431.9,197.5,1445.8,211.3,1445.8,228.2z"/>
<path class="st17" d="M359.9,540L359.9,540L359.9,540c-17,0-30.7-13.8-30.7-30.7l0,0l0,0C346.1,509.3,359.9,523.1,359.9,540z"/>
<path class="st17" d="M108.2,828.6L108.2,828.6L108.2,828.6c-17,0-30.7-13.8-30.7-30.7l0,0l0,0C94.4,797.9,108.2,811.7,108.2,828.6z
	"/>
<path class="st17" d="M428.5,447.5L428.5,447.5L428.5,447.5c0-17,13.8-30.7,30.7-30.7l0,0l0,0C459.2,433.7,445.5,447.5,428.5,447.5z
	"/>
<path class="st17" d="M1238.8,522.1L1238.8,522.1L1238.8,522.1c0-17,13.8-30.7,30.7-30.7l0,0l0,0
	C1269.5,508.4,1255.8,522.1,1238.8,522.1z"/>
<path class="st17" d="M1482.5,164L1482.5,164L1482.5,164c0-17,13.8-30.7,30.7-30.7l0,0l0,0C1513.2,150.3,1499.5,164,1482.5,164z"/>
<path class="st17" d="M397.4,585.9L397.4,585.9L397.4,585.9c0-17,13.8-30.7,30.7-30.7l0,0l0,0C428.1,572.1,414.4,585.9,397.4,585.9z
	"/>
<path class="st17" d="M285.1,659.9L285.1,659.9L285.1,659.9c0-17,13.8-30.7,30.7-30.7l0,0l0,0C315.8,646.1,302.1,659.9,285.1,659.9z
	"/>
<g>
	<polygon class="st44" points="158.6,0.4 132.2,26.8 105.8,0.4 	"/>
	<polygon class="st44" points="220.4,0.4 194,26.8 167.6,0.4 	"/>
	<polygon class="st44" points="282.2,0.4 255.8,26.8 229.4,0.4 	"/>
	<polygon class="st44" points="344,0.4 317.6,26.8 291.2,0.4 	"/>
	<polygon class="st44" points="405.8,0.4 379.4,26.8 353,0.4 	"/>
</g>
<rect x="351.7" y="616.1" class="st16" width="100.1" height="113.2"/>
<g>
	<g>
		<path class="st38" d="M420.4,659.9c0-10.4-8.5-18.7-19-18.7l0,0c-10.5,0-19,8.4-19,18.7v7.1l0,0c3.7,0,6.8,3,6.8,6.7v2h24.4v-2
			c0-3.7,3-6.7,6.8-6.7l0,0L420.4,659.9L420.4,659.9z"/>
		<circle class="st16" cx="393.1" cy="661.8" r="6"/>
		<circle class="st16" cx="409.8" cy="661.8" r="6"/>
		<polygon class="st16" points="398.6,670.2 401.4,667.4 404.2,670.2 		"/>
		<path class="st38" d="M408.7,686.3h-14.6c-2.7,0-4.9-2.2-4.9-4.9l0,0h24.4l0,0C413.6,684.1,411.4,686.3,408.7,686.3z"/>
		<g>
			<rect x="389.3" y="674.6" class="st38" width="3.8" height="3.8"/>
			<rect x="409.8" y="674.6" class="st38" width="3.8" height="3.8"/>
			<rect x="396.7" y="674.6" class="st38" width="3.8" height="3.8"/>
			<rect x="403.3" y="674.6" class="st38" width="3.8" height="3.8"/>
		</g>
	</g>
	<path class="st38" d="M425.4,703.1c0.5-0.4,0.9-1,1-1.8c0.1-0.9-0.3-1.9-1.1-2.4c-1.4-0.9-3.2-0.3-3.8,1.2l-38.5-14
		c0.5-1.5-0.4-3.2-2.1-3.4c-0.9-0.1-1.9,0.3-2.4,1.1c-0.4,0.6-0.5,1.4-0.3,2c0.2,0.8-0.1,1.6-0.8,2.1c-0.5,0.4-0.9,1-1,1.8
		c-0.1,0.9,0.3,1.9,1.1,2.4c1.4,0.9,3.2,0.3,3.8-1.2l38.5,14c-0.5,1.5,0.4,3.2,2.1,3.4c0.9,0.1,1.9-0.3,2.4-1.1
		c0.4-0.6,0.5-1.4,0.3-2C424.4,704.3,424.7,703.5,425.4,703.1z"/>
	<path class="st38" d="M377.5,703.1c-0.5-0.4-0.9-1-1-1.8c-0.1-0.9,0.3-1.9,1.1-2.4c1.4-0.9,3.2-0.3,3.8,1.2l38.5-14
		c-0.5-1.5,0.4-3.2,2.1-3.4c0.9-0.1,1.9,0.3,2.4,1.1c0.4,0.6,0.5,1.4,0.3,2c-0.2,0.8,0.1,1.6,0.8,2.1c0.5,0.4,0.9,1,1,1.8
		c0.1,0.9-0.3,1.9-1.1,2.4c-1.4,0.9-3.2,0.3-3.8-1.2l-38.5,14c0.5,1.5-0.4,3.2-2.1,3.4c-0.9,0.1-1.9-0.3-2.4-1.1
		c-0.4-0.6-0.5-1.4-0.3-2C378.4,704.3,378.1,703.5,377.5,703.1z"/>
</g>
<rect x="443.8" y="887.9" class="st16" width="280.4" height="146.7"/>
<g>
	<polyline class="st45" points="519.8,942.5 512.6,946.8 502,942.4 	"/>
	<polygon class="st8" points="528.5,981.9 510.1,981.9 519.8,941.1 528.5,941.1 	"/>
	<polygon class="st8" points="519.9,906.7 529.8,930.1 519.8,930.1 	"/>
	<path class="st8" d="M511.1,931.6h23.5c2.1,0,3.7-1.7,3.7-3.7l0,0l-28.9,2l0,0C509.4,930.8,510.2,931.6,511.1,931.6z"/>
	<polyline class="st45" points="528.3,941.5 534.3,947 545.9,939.6 	"/>
	<path class="st12" d="M545.9,927.7l0.2,0.2c0.5,0.7,1.1,1.3,1.8,1.8l0.3,0.2l-0.3,0.2c-0.7,0.5-1.3,1.1-1.8,1.8l-0.2,0.3l-0.2-0.3
		c-0.5-0.7-1.1-1.3-1.8-1.8l-0.2-0.2l0.3-0.2c0.7-0.5,1.3-1.1,1.8-1.8L545.9,927.7z"/>
	<g>
		<path class="st12" d="M547.4,931l-1.5,32.6l-1.5-32.6c0-0.8,0.6-1.5,1.4-1.6c0.8,0,1.5,0.6,1.6,1.4
			C547.4,930.9,547.4,930.9,547.4,931z"/>
	</g>
	<circle class="st12" cx="545.9" cy="929.9" r="3.3"/>
	<polygon class="st12" points="517.9,939.3 526,964.7 531.8,940.5 528.5,931.4 520.6,931.4 	"/>
	<path class="st17" d="M525.4,941.7L525.4,941.7c-1.6,0-2.9-1.3-2.9-2.9v-5.2h5.8v5.2C528.4,940.4,527.1,941.7,525.4,941.7z"/>
	<path class="st18" d="M535.3,998.3h-9.4c-14.4,0-27.9-7.1-36.1-19l0,0h85.8L561,989.9C553.6,995.4,544.6,998.3,535.3,998.3z"/>
</g>
<g>
	<polygon class="st8" points="700.5,997.9 691.4,963.6 687.9,940.6 674.6,940.6 674.6,970.6 657.1,997.9 	"/>
	
		<rect x="675.1" y="913.1" transform="matrix(0.7071 -0.7071 0.7071 0.7071 -451.056 752.3137)" class="st12" width="15" height="15"/>
</g>
<g>
	<path class="st17" d="M574.9,1008.4c3.3,5.4,9.2,9,15.9,9s12.7-3.6,15.9-9H574.9z"/>
	<path class="st17" d="M503.8,1008.4c3.3,5.4,9.2,9,15.9,9s12.7-3.6,15.9-9H503.8z"/>
	<path class="st17" d="M468.3,1008.4c3.3,5.4,9.2,9,15.9,9c6.7,0,12.7-3.6,15.9-9H468.3z"/>
	<path class="st17" d="M539.3,1008.4c3.3,5.4,9.2,9,15.9,9s12.7-3.6,15.9-9H539.3z"/>
</g>
<g>
	<path class="st17" d="M673.3,1008.4c3.3,5.4,9.2,9,15.9,9s12.7-3.6,15.9-9H673.3z"/>
	<path class="st17" d="M637.8,1008.4c3.3,5.4,9.2,9,15.9,9s12.7-3.6,15.9-9H637.8z"/>
</g>
<g>
	<path class="st17" d="M614.1,988.6c3.3,5.4,9.2,9,15.9,9s12.7-3.6,15.9-9H614.1z"/>
	<path class="st17" d="M578.6,988.6c3.3,5.4,9.2,9,15.9,9s12.7-3.6,15.9-9H578.6z"/>
</g>
<g>
	<path class="st17" d="M457.6,988.6c3.3,5.4,9.2,9,15.9,9c6.7,0,12.7-3.6,15.9-9H457.6z"/>
</g>
<linearGradient id="SVGID_5_" gradientUnits="userSpaceOnUse" x1="555.8" y1="867.35" x2="656.2" y2="867.35" gradientTransform="matrix(1 0 0 1 0 54.8)">
	<stop  offset="0" style="stop-color:#FFFFFF;stop-opacity:0.2"/>
	<stop  offset="1" style="stop-color:#FFFFFF;stop-opacity:0"/>
</linearGradient>
<polygon class="st46" points="656.2,943.1 555.8,933.1 555.8,924.2 656.2,901.2 "/>
<polygon class="st8" points="486.6,887.7 475.3,911.8 468.5,931.5 460.1,887.7 "/>
<polygon class="st8" points="498.3,887.7 500.7,917.6 506.2,887.7 "/>
<polygon class="st8" points="698.5,887.7 699.9,905 703.1,887.7 "/>
<polygon class="st8" points="450.2,887.7 451.8,907.5 455.5,887.7 "/>
<polygon class="st8" points="559.8,887.7 561.2,905 564.4,887.7 "/>
<polygon class="st8" points="709.9,887.7 712.3,915.8 717.4,887.7 "/>
<rect x="980.9" y="1111.2" class="st44" width="161.1" height="23.8"/>
<g>
	
		<rect x="522.2" y="1062" transform="matrix(0.7071 -0.7071 0.7071 0.7071 -605.733 698.9536)" class="st44" width="37.3" height="37.3"/>
	
		<rect x="584" y="1062" transform="matrix(0.7071 -0.7071 0.7071 0.7071 -587.6325 742.6522)" class="st44" width="37.3" height="37.3"/>
	
		<rect x="645.8" y="1062" transform="matrix(0.7071 -0.7071 0.7071 0.7071 -569.5322 786.3508)" class="st44" width="37.3" height="37.3"/>
	
		<rect x="707.6" y="1062" transform="matrix(0.7071 -0.7071 0.7071 0.7071 -551.4319 830.0495)" class="st44" width="37.3" height="37.3"/>
	
		<rect x="769.4" y="1062" transform="matrix(0.7071 -0.7071 0.7071 0.7071 -533.3314 873.7483)" class="st44" width="37.3" height="37.3"/>
</g>
</svg>
