<?xml version="1.0" encoding="utf-8"?>
<!-- Generator: Adobe Illustrator 23.0.1, SVG Export Plug-In . SVG Version: 6.00 Build 0)  -->
<!DOCTYPE svg PUBLIC "-//W3C//DTD SVG 1.1//EN" "http://www.w3.org/Graphics/SVG/1.1/DTD/svg11.dtd" [
	<!ENTITY ns_extend "http://ns.adobe.com/Extensibility/1.0/">
<!ENTITY ns_ai "http://ns.adobe.com/AdobeIllustrator/10.0/">
<!ENTITY ns_graphs "http://ns.adobe.com/Graphs/1.0/">
<!ENTITY ns_vars "http://ns.adobe.com/Variables/1.0/">
<!ENTITY ns_imrep "http://ns.adobe.com/ImageReplacement/1.0/">
<!ENTITY ns_sfw "http://ns.adobe.com/SaveForWeb/1.0/">
<!ENTITY ns_custom "http://ns.adobe.com/GenericCustomNamespace/1.0/">
<!ENTITY ns_adobe_xpath "http://ns.adobe.com/XPath/1.0/">
]>
<svg version="1.1" id="Layer_1" 
	xmlns:x="&ns_extend;" 
	xmlns:i="&ns_ai;" 
	xmlns:graph="&ns_graphs;" 
	xmlns="http://www.w3.org/2000/svg" 
	xmlns:xlink="http://www.w3.org/1999/xlink" x="0px" y="0px" width="1760px" height="1135px" viewBox="0 0 1760 1135" style="enable-background:new 0 0 1760 1135;" xml:space="preserve" opacity="0.5">
	<style type="text/css">
	.st0{fill:#528940;}
	.st1{fill-rule:evenodd;clip-rule:evenodd;fill:#8CC36F;}
	.st2{fill-rule:evenodd;clip-rule:evenodd;fill:#A8D293;}
	.st3{fill-rule:evenodd;clip-rule:evenodd;fill:#65A446;}
	.st4{fill-rule:evenodd;clip-rule:evenodd;fill:#7EB860;}
	.st5{fill-rule:evenodd;clip-rule:evenodd;fill:#7EB763;}
	.st6{fill-rule:evenodd;clip-rule:evenodd;fill:#538841;}
	.st7{fill-rule:evenodd;clip-rule:evenodd;fill:#5C9743;}
	.st8{fill-rule:evenodd;clip-rule:evenodd;fill:#538C3C;}
	.st9{fill-rule:evenodd;clip-rule:evenodd;fill:#7DB75E;}
	.st10{opacity:0.25;fill:#A9D195;enable-background:new    ;}
	.st11{fill:#8DBF72;}
	.st12{fill:none;stroke:#6EB14B;stroke-width:6;stroke-miterlimit:10;}
	.st13{fill:#6EB14B;}
	.st14{fill:none;stroke:#AACF97;stroke-miterlimit:10;}
	.st15{fill:none;stroke:#6EB14B;stroke-miterlimit:10;}
	.st16{fill:#67A24C;}
	.st17{fill:#A9D195;}
	.st18{fill:none;stroke:#538A3D;stroke-miterlimit:10;}
	.st19{fill:none;stroke:#538A3D;stroke-width:2;stroke-miterlimit:10;}
	.st20{fill:#7EB662;}
	.st21{fill:none;stroke:#8DBF74;stroke-miterlimit:10;}
	.st22{fill:#70AF53;}
	.st23{fill:#548940;}
	.st24{fill:none;stroke:#AACF97;stroke-width:3;stroke-linecap:round;stroke-miterlimit:10;}
	.st25{fill:none;stroke:#AACF97;stroke-width:3;stroke-linecap:round;stroke-miterlimit:10;stroke-dasharray:6.3078,6.3078;}
	.st26{fill:none;stroke:#67A24C;stroke-miterlimit:10;}
	.st27{fill:none;stroke:#6EB14B;stroke-width:4;stroke-miterlimit:10;}
	.st28{fill:none;stroke:#67A24C;stroke-width:6;stroke-linejoin:round;stroke-miterlimit:10;}
	.st29{fill:none;stroke:#67A24C;stroke-width:2;stroke-linejoin:round;stroke-miterlimit:10;}
	.st30{fill:none;stroke:#538A3D;stroke-linecap:round;stroke-linejoin:round;stroke-miterlimit:10;}
	.st31{fill:none;stroke:#7CB961;stroke-width:10;stroke-miterlimit:10;}
	.st32{fill:none;stroke:#7CB961;stroke-width:4;stroke-miterlimit:10;}
	.st33{fill:#7EB860;}
	.st34{fill:none;stroke:#538A3D;stroke-width:3;stroke-miterlimit:10;}
	.st35{fill:url(#SVGID_1_);}
	.st36{fill:#67A24C;stroke:#AACF97;stroke-miterlimit:10;}
	.st37{fill:url(#SVGID_2_);}
	.st38{fill:none;stroke:#AACF97;stroke-width:3;stroke-miterlimit:10;}
	.st39{fill:none;stroke:#548940;stroke-width:3;stroke-miterlimit:10;}
	.st40{fill:none;stroke:#7CB961;stroke-width:2;stroke-miterlimit:10;}
	.st41{fill:none;stroke:#6EB14B;stroke-width:2;stroke-miterlimit:10;}
	.st42{fill:none;stroke:#538A3D;stroke-width:2;stroke-linecap:round;stroke-miterlimit:10;}
	.st43{opacity:0.5;fill:#67A24C;enable-background:new    ;}
	</style>
	<metadata>
		<sfw xmlns="&ns_sfw;">
			<slices></slices>
			<sliceSourceBounds bottomLeftOrigin="true" height="1138.1" width="1691.9" x="0" y="-3.1"></sliceSourceBounds>
		</sfw>
	</metadata>
	<g>
		<path class="st0" d="M260.6,1129.8c0.2-1.7,0.3-3.5,0.3-5.2c0-19.1-9.1-36-23.2-46.8c-14.1,10.7-23.2,27.7-23.2,46.8
		c0,1.8,0.1,3.5,0.3,5.2H260.6z"/>
		<path class="st0" d="M322.1,1129.8c0.2-1.7,0.3-3.5,0.3-5.2c0-19.1-9.1-36-23.2-46.8c-14.1,10.7-23.2,27.7-23.2,46.8
		c0,1.8,0.1,3.5,0.3,5.2H322.1z"/>
		<path class="st0" d="M199.1,1129.8c0.2-1.7,0.3-3.5,0.3-5.2c0-19.1-9.1-36-23.2-46.8c-14.1,10.7-23.2,27.7-23.2,46.8
		c0,1.8,0.1,3.5,0.3,5.2H199.1z"/>
		<path class="st0" d="M137.6,1129.8c0.2-1.7,0.3-3.5,0.3-5.2c0-19.1-9.1-36-23.2-46.8c-14.1,10.7-23.2,27.7-23.2,46.8
		c0,1.8,0.1,3.5,0.3,5.2H137.6z"/>
	</g>
	<g>
		<g id="Rectangle_2_2_">
			<g>
				<rect x="322.9" y="696.8" class="st1" width="202" height="119"/>
			</g>
		</g>
		<g id="Rectangle_2_copy_22">
			<g>
				<rect x="35.9" class="st1" width="202" height="30.8"/>
			</g>
		</g>
		<g id="Rectangle_2_copy_23_2_">
			<g>
				<rect x="719.9" y="930.8" class="st2" width="173" height="146"/>
			</g>
		</g>
		<g id="Rectangle_2_copy_2">
			<g>
				<rect x="1374.9" y="208.8" class="st1" width="305" height="180"/>
			</g>
		</g>
		<g id="Rectangle_2_copy_6_2_">
			<g>
				<rect y="815.8" class="st3" width="322.9" height="199"/>
			</g>
		</g>
		<g id="Rectangle_2_copy_9_2_">
			<g>
				<rect x="79.9" y="502.8" class="st4" width="200" height="313"/>
			</g>
		</g>
		<g id="Rectangle_2_copy_10">
			<g>
				<rect x="427.9" y="502.8" class="st1" width="97" height="104"/>
			</g>
		</g>
		<g id="Rectangle_2_copy_26">
			<g>
				<rect x="1437.9" class="st4" width="97" height="46.8"/>
			</g>
		</g>
		<g id="Rectangle_2_copy_25">
			<g>
				<rect x="1095.9" y="813.8" class="st5" width="97" height="104"/>
			</g>
		</g>
		<g id="Rectangle_2_copy_18">
			<g>
				<rect x="1582.9" y="591.8" class="st4" width="97" height="104"/>
			</g>
		</g>
		<g id="Rectangle_2_copy_13_2_">
			<g>
				<rect x="322.9" y="862.3" class="st4" width="97" height="111.5"/>
			</g>
		</g>
		<g id="Rectangle_2_copy_3">
			<g>
				<rect x="463.9" y="284.8" class="st1" width="61" height="36"/>
			</g>
		</g>
		<g id="Rectangle_2_copy_8">
			<g>
				<rect x="1630.9" y="172.8" class="st6" width="61" height="36"/>
			</g>
		</g>
		<g id="Rectangle_2_copy_19">
			<g>
				<rect x="1264.9" y="255.8" class="st3" width="61" height="36"/>
			</g>
		</g>
		<g id="Rectangle_2_copy_24">
			<g>
				<rect x="896.9" y="847.8" class="st3" width="61" height="36"/>
			</g>
		</g>
		<g id="Rectangle_2_copy_27">
			<g>
				<rect x="600.9" y="302.8" class="st3" width="37.4" height="18"/>
			</g>
		</g>
		<g id="Rectangle_2_copy_20">
			<g>
				<rect x="513.9" class="st7" width="61" height="30.8"/>
			</g>
		</g>
		<g id="Rectangle_2_copy_14_2_">
			<g>
				<rect x="154.9" y="169.8" class="st3" width="194" height="36"/>
			</g>
		</g>
		<g id="Rectangle_2_copy_21">
			<g>
				<rect x="574.9" y="30.8" class="st7" width="194" height="60"/>
			</g>
		</g>
		<g id="Rectangle_2_copy_17">
			<g>
				<rect x="1485.9" y="996.8" class="st3" width="194" height="36"/>
			</g>
		</g>
		<g id="Rectangle_2_copy_5_2_">
			<g>
				<rect x="154.9" y="320.8" class="st8" width="309" height="182"/>
			</g>
		</g>
		<g id="Rectangle_2_copy_12">
			<g>
				<rect x="524.9" y="815.8" class="st3" width="195" height="115"/>
			</g>
		</g>
		<g id="Rectangle_2_copy_11">
			<g>
				<rect y="205.8" class="st3" width="155.9" height="115"/>
			</g>
		</g>
		<g id="Rectangle_2_copy_16_2_">
			<g>
				<rect x="1421.9" y="389.8" class="st3" width="195" height="115"/>
			</g>
		</g>
		<g id="Rectangle_2_copy_15_2_">
			<g>
				<rect x="1316.9" y="504.8" class="st9" width="187" height="193"/>
			</g>
		</g>
	</g>
	<path class="st10" d="M260.6,724.9c-4.8,0-9.3,1.2-13.2,3.4c-2.7,1.5-6.2,0.8-8.1-1.6c-6-7.4-15.2-12.1-25.5-12.1
	c-13.4,0-24.9,8-30,19.5c-1.1,2.4-3.5,3.8-6.2,3.8l0,0c-1.9,0-3.7,0.4-5.4,1c-2.8,1.1-5.9,0.1-7.7-2.4c-5-7.1-13.3-11.7-22.6-11.7
	c-5.1,0-9.8,1.4-13.9,3.7c-2.8,1.6-6.5,0.9-8.4-1.8c-4.6-6.1-11.9-10.1-20.2-10.1c-5.1,0-9.7,1.5-13.7,4v94.8h194.9v-82.2
	C275.5,728.2,268.4,724.9,260.6,724.9z"/>
	<path class="st11" d="M1302.2,169.1h-5.2c-6.9,0-12.4-5.6-12.4-12.4v-30.2l25.4,20.6c2.9,2.4,4.6,5.9,4.6,9.6l0,0
	C1314.7,163.5,1309.1,169.1,1302.2,169.1z"/>
	<path class="st12" d="M465.6,406.4h-194c-16.1,0-29.2,13.1-29.2,29.2l0,0c0,16.1-13.1,29.2-29.2,29.2h-56.5"/>
	<g>
		<path class="st13" d="M300,431.2h-8.6c-11.4,0-20.7,9.3-20.7,20.7v50.4L313,468c4.8-3.9,7.7-9.8,7.7-16.1l0,0
		C320.7,440.5,311.4,431.2,300,431.2z"/>
		<line class="st14" x1="312" y1="444.7" x2="289.5" y2="467.2"/>
		<line class="st14" x1="297.9" y1="450.3" x2="306.4" y2="450.3"/>
	</g>
	<path class="st15" d="M196.1,413.4L196.1,413.4c9.3,0,16.8,7.5,16.8,16.8v31"/>
	<path class="st15" d="M351.3,364.6L351.3,364.6c-10.8,0-19.5,8.7-19.5,19.5v18.5"/>
	<path class="st15" d="M395.9,433.6L395.9,433.6c0-7.1-5.8-12.9-12.9-12.9h-4c-7.1,0-12.9-5.8-12.9-12.9v-0.7"/>
	<g>
		<path class="st11" d="M406.3,435.4L406.3,435.4c4.2,3.2,6.6,8.2,6.6,13.5v84.8l-27.7-21.5c-4.2-3.2-6.6-8.2-6.6-13.5V449
		C378.7,434.7,395.1,426.7,406.3,435.4z"/>
		<line class="st14" x1="395.8" y1="439.5" x2="395.8" y2="499.7"/>
		<line class="st14" x1="385" y1="460.3" x2="395.7" y2="449.7"/>
		<line class="st14" x1="395.8" y1="486" x2="402.5" y2="492.7"/>
	</g>
	<g>
		<path class="st16" d="M175.3,431.7h7.5c13.8,0,21.8-15.7,13.6-26.9l0,0c-3.2-4.3-8.2-6.9-13.6-6.9H142l19.7,26.9
		C164.8,429.2,169.9,431.7,175.3,431.7z"/>
		<line class="st14" x1="158.7" y1="410.3" x2="196.1" y2="410.3"/>
		<line class="st14" x1="176.9" y1="421.1" x2="187.6" y2="410.5"/>
		<line class="st14" x1="167.4" y1="405.7" x2="171.4" y2="409.7"/>
	</g>
	<path class="st15" d="M314.3,439.9h10.2c4.4,0,7.9-3.5,7.9-7.9l0,0c0-4.4-3.5-7.9-7.9-7.9H307c-4.4,0-7.9-3.5-7.9-7.9v-9.9"/>
	<g>
		<path class="st17" d="M1349.8,590.4h-2.5c-2.2,0-4,1.8-4,4l0,0c0,2.2,1.8,4,4,4h2.5c4,0,7.7,2,10.1,5.2c2.7,3.5,7,5.8,11.9,5.8h3
		c6.6,0,12-5.4,12-12v-6c0-6.6-5.4-12-12-12h-3c-4.8,0-9.1,2.3-11.9,5.8C1357.5,588.4,1353.8,590.4,1349.8,590.4z"/>
		<path class="st0" d="M1416.8,589.4v10c0,11-9,20-20,20h-5c-13.8,0-25-11.2-25-25l0,0c0-13.8,11.2-25,25-25h5
		C1407.8,569.4,1416.8,578.4,1416.8,589.4z"/>
		<path class="st0" d="M1469.7,594.4L1469.7,594.4c0,18-14.6,32.6-32.6,32.6h-10.6c-18,0-32.6-14.6-32.6-32.6l0,0
		c0-18,14.6-32.6,32.6-32.6h10.6C1455.1,561.8,1469.7,576.4,1469.7,594.4z"/>
		<g>
			<polyline class="st18" points="1359.1,587 1353.1,581 1346.9,581 		"/>
			<polyline class="st18" points="1359.1,601.8 1353.1,607.8 1346.9,607.8 		"/>
		</g>
		<polyline class="st19" points="1438.4,572.1 1460.8,549.6 1482.2,549.6 	"/>
		<polyline class="st19" points="1407.3,571.2 1429.7,548.8 1448.1,548.8 	"/>
		<polyline class="st19" points="1388.3,615.8 1365.9,638.2 1345.5,638.2 	"/>
		<polyline class="st19" points="1388.3,574.3 1365.9,551.9 1345.5,551.9 	"/>
		<polyline class="st19" points="1438.4,619.2 1460.8,641.7 1482.2,641.7 	"/>
		<polyline class="st19" points="1407.3,620.1 1429.7,642.6 1448.1,642.6 	"/>
		<path class="st20" d="M1391.8,609.4c-8.3,0-15-6.7-15-15s6.7-15,15-15h5c5.5,0,10,4.5,10,10v10c0,5.5-4.5,10-10,10H1391.8z"/>
		<path class="st17" d="M1419.2,574.7h6l0,0c2.5,0,4.5,2,4.5,4.5v1.5c0,2.5-2,4.5-4.5,4.5l0,0v2.5c0,2.5-2,4.5-4.5,4.5h-0.4
		c-2.5,0-4.5-2-4.5-4.5v-9.5C1415.8,576.2,1417.3,574.7,1419.2,574.7L1419.2,574.7z"/>
		<path class="st17" d="M1447.1,579.7v4.3l0,0c0,1.8-1.4,3.2-3.2,3.2h-1.1c-1.8,0-3.2-1.4-3.2-3.2l0,0h-1.8c-1.8,0-3.2-1.4-3.2-3.2
		v-0.3c0-1.8,1.4-3.2,3.2-3.2h6.8C1446,577.2,1447.1,578.3,1447.1,579.7L1447.1,579.7z"/>
		<path class="st17" d="M1419.2,614.1h6l0,0c2.5,0,4.5-2,4.5-4.5v-1.5c0-2.5-2-4.5-4.5-4.5l0,0v-2.5c0-2.5-2-4.5-4.5-4.5h-0.4
		c-2.5,0-4.5,2-4.5,4.5v9.5C1415.8,612.6,1417.3,614.1,1419.2,614.1L1419.2,614.1z"/>
		<path class="st17" d="M1447.1,609.2v-4.3l0,0c0-1.8-1.4-3.2-3.2-3.2h-1.1c-1.8,0-3.2,1.4-3.2,3.2l0,0h-1.8c-1.8,0-3.2,1.4-3.2,3.2
		v0.3c0,1.8,1.4,3.2,3.2,3.2h6.8C1446,611.6,1447.1,610.5,1447.1,609.2L1447.1,609.2z"/>
		<path class="st17" d="M1456.4,589.3v9.2c0,0.9-0.7,1.6-1.6,1.6h-1.1c-0.9,0-1.6-0.7-1.6-1.6l0,0c0-0.9-0.7-1.6-1.6-1.6h-0.3
		c-0.9,0-1.6-0.7-1.6-1.6v-0.6c0-0.9,0.7-1.6,1.6-1.6h0.3c0.9,0,1.6-0.7,1.6-1.6v-2.4c0-0.9,0.7-1.6,1.6-1.6h1.1
		C1455.7,587.7,1456.4,588.4,1456.4,589.3z"/>
	</g>
	<g>
		<path class="st11" d="M281,399h-9.9l0.4-1.1c1.4-4,5.2-6.7,9.5-6.7l0,0c2.2,0,3.9,1.8,3.9,3.9l0,0C284.9,397.3,283.1,399,281,399z" />
		<path class="st11" d="M294.5,398.9H291c-1.2,0-2.2-1-2.2-2.2l0,0c0-1.2,1-2.2,2.2-2.2h0.7c2,0,3.6,1.6,3.6,3.6l0,0
		C295.3,398.6,295,398.9,294.5,398.9z"/>
		<polyline class="st21" points="293.7,396.1 296,393.9 301.1,393.9 	"/>
		<polyline class="st21" points="293.9,395.6 293.9,392.4 297.4,388.8 	"/>
		<path class="st11" d="M287.1,398.2h-1.7c-1.7,0-2.7-1.4-1.7-2.3l0,0c0.4-0.4,1-0.6,1.7-0.6h1.7c1.5,0,2.5,1,2,2l0,0
		C288.8,397.8,288,398.2,287.1,398.2z"/>
		<polyline class="st21" points="285.7,397.6 288.1,400.2 288.1,403.6 	"/>
		<polyline class="st21" points="285.2,397.7 282.8,400.3 278.7,403.7 	"/>
		<polyline class="st21" points="287.7,397.7 290.1,400.3 294.2,403.7 	"/>
	</g>
	<g>
		<g>
			<path class="st0" d="M217.4,956.8c9.2-4,2.5-1.1,4.6-2l0,0l0,0l0,0v0.1l0.1,0.2l0.1,0.4l0.2,0.7c0.1,0.5,0.3,1,0.4,1.4
			c0.3,1,0.5,1.9,0.7,2.9c0.5,1.9,0.8,3.9,1.1,5.8c0.6,3.9,0.8,7.8,0.8,11.6c-0.1,3.9-0.4,7.7-1.1,11.4c-0.7,3.7-1.5,7.3-2.2,11
			c-0.1-3.7-0.1-7.5-0.3-11.1c-0.2-3.7-0.7-7.3-1.4-10.8s-1.8-6.9-3-10.2c-0.7-1.6-1.3-3.3-2.1-4.8c-0.4-0.8-0.8-1.6-1.2-2.3
			c-0.2-0.4-0.4-0.8-0.6-1.1l-0.3-0.6l-0.2-0.3l-0.1-0.1v-0.1l0,0l0,0l0,0C214.8,957.9,208.2,960.8,217.4,956.8z"/>
		</g>
		<g>
			<path class="st0" d="M187.8,955.9c9.2,4,2.5,1.1,4.6,2l0,0l0,0l0,0v0.1l-0.1,0.1l-0.2,0.3l-0.3,0.6c-0.2,0.4-0.4,0.8-0.6,1.1
			c-0.4,0.8-0.8,1.5-1.2,2.3c-0.8,1.6-1.5,3.2-2.1,4.8c-1.3,3.3-2.3,6.7-3,10.2s-1.2,7.1-1.4,10.8c-0.1,3.7-0.2,7.4-0.3,11.1
			c-0.7-3.7-1.5-7.3-2.2-11s-1-7.5-1.1-11.4s0.2-7.7,0.8-11.6c0.3-1.9,0.6-3.9,1.1-5.8c0.2-1,0.5-1.9,0.7-2.9c0.1-0.5,0.3-1,0.4-1.4
			l0.2-0.7l0.1-0.4l0.1-0.2v-0.1l0,0l0,0l0,0C185.3,954.8,178.6,951.9,187.8,955.9z"/>
		</g>
		<path class="st17" d="M209.3,904.4h60.6c8.4,0,15.7-5.6,17.9-13.7l6.3-22.8c3.3-11.8-5.6-23.6-17.9-23.6l0,0
		c-2.8,0-5.6,0.6-8.2,1.9l-6,2.9c-22.5,11-40.5,29.3-51.2,51.9L209.3,904.4z"/>
		<path class="st22" d="M221,898.9c10.1-16.9,30.3-36.1,48.1-44.8l6-2.9c1.4-0.7,2.9-1,4.5-1c3.2,0,6.2,1.5,8.1,4
		c2,2.6,2.6,5.8,1.7,8.9l-6.3,22.8c-1.2,4.4-5.3,7.5-9.9,7.5L221,898.9z"/>
		<path class="st17" d="M195.4,904.4h-60.6c-8.4,0-15.7-5.6-17.9-13.7l-6.3-22.8c-3.3-11.8,5.6-23.6,17.9-23.6l0,0
		c2.8,0,5.6,0.6,8.2,1.9l6,2.9c22.5,11,40.5,29.3,51.2,51.9L195.4,904.4z"/>
		<path class="st17" d="M171.2,971.7L171.2,971.7c-4.9-0.2-9.6-1.9-13.5-4.9l-10.1-7.9c-7.4-5.8-10.7-15.5-8.1-24.6l3.6-13.2
		c2.8-10.1,12-17.1,22.5-17.1h29.8v44.4C195.4,961.6,184.4,972.1,171.2,971.7z"/>
		<path class="st22" d="M171.5,918.3c-6.7,0-12.6,4.5-14.4,11l-3.6,13.2c-1.1,4-0.5,8.2,1.5,11.6l7.9,6.1c2.5,1.9,5.5,3,8.7,3.1
		c0.2,0,0.4,0,0.5,0c8.2,0,14.9-6.7,14.9-14.9v-30.1L171.5,918.3L171.5,918.3z"/>
		<path class="st17" d="M233.4,971.7L233.4,971.7c4.9-0.2,9.6-1.9,13.5-4.9l10.1-7.9c7.4-5.8,10.7-15.5,8.1-24.6l-3.6-13.2
		c-2.8-10.1-12-17.1-22.5-17.1h-29.8v44.4C209.3,961.6,220.2,972.1,233.4,971.7z"/>
		<path class="st22" d="M233.6,918.3c6.7,0,12.6,4.5,14.4,11l3.6,13.2c1.1,4,0.5,8.2-1.5,11.6l-7.9,6.1c-2.5,1.9-5.5,3-8.7,3.1
		c-0.2,0-0.4,0-0.5,0c-8.2,0-14.9-6.7-14.9-14.9v-30.1L233.6,918.3L233.6,918.3z"/>
		<path class="st22" d="M185.8,899.2c-10.1-16.9-30.3-36.1-48.1-44.8l-6-2.9c-1.4-0.7-2.9-1-4.5-1c-3.2,0-6.2,1.5-8.1,4
		c-2,2.6-2.6,5.8-1.7,8.9l6.3,22.8c1.2,4.4,5.3,7.5,9.9,7.5L185.8,899.2z"/>
		<path class="st22" d="M183.8,904.5h-3.4l0,0c-1.4,0-2.5,1.1-2.5,2.5v0.8c0,1.4,1.1,2.5,2.5,2.5l0,0v1.4c0,1.4,1.1,2.5,2.5,2.5h0.2
		c1.4,0,2.5-1.1,2.5-2.5v-5.4C185.8,905.4,184.9,904.5,183.8,904.5L183.8,904.5z"/>
		<path class="st22" d="M222.1,904.5h3.4l0,0c1.4,0,2.5,1.1,2.5,2.5v0.8c0,1.4-1.1,2.5-2.5,2.5l0,0v1.4c0,1.4-1.1,2.5-2.5,2.5h-0.2
		c-1.4,0-2.5-1.1-2.5-2.5v-5.4C220.2,905.4,221,904.5,222.1,904.5L222.1,904.5z"/>
		<path class="st23" d="M167.3,909.1v2.4l0,0c0,1,0.8,1.8,1.8,1.8h0.6c1,0,1.8-0.8,1.8-1.8l0,0h1c1,0,1.8-0.8,1.8-1.8v-0.2
		c0-1-0.8-1.8-1.8-1.8h-3.9C167.9,907.8,167.3,908.4,167.3,909.1L167.3,909.1z"/>
		<path class="st23" d="M238.5,909.1v2.4l0,0c0,1-0.8,1.8-1.8,1.8h-0.6c-1,0-1.8-0.8-1.8-1.8l0,0h-1c-1,0-1.8-0.8-1.8-1.8v-0.2
		c0-1,0.8-1.8,1.8-1.8h3.9C237.9,907.8,238.5,908.4,238.5,909.1L238.5,909.1z"/>
		<path class="st17" d="M175.7,951.6h-8.8c-0.8,0-1.5,0.7-1.5,1.5v1c0,0.8,0.7,1.5,1.5,1.5l0,0c0.8,0,1.5,0.7,1.5,1.5v0.3
		c0,0.8,0.7,1.5,1.5,1.5h0.6c0.8,0,1.5-0.7,1.5-1.5V957c0-0.8,0.7-1.5,1.5-1.5h2.3c0.8,0,1.5-0.7,1.5-1.5v-1
		C177.2,952.3,176.5,951.6,175.7,951.6z"/>
		<path class="st17" d="M228.2,951.6h8.8c0.8,0,1.5,0.7,1.5,1.5v1c0,0.8-0.7,1.5-1.5,1.5l0,0c-0.8,0-1.5,0.7-1.5,1.5v0.3
		c0,0.8-0.7,1.5-1.5,1.5h-0.6c-0.8,0-1.5-0.7-1.5-1.5V957c0-0.8-0.7-1.5-1.5-1.5h-2.3c-0.8,0-1.5-0.7-1.5-1.5v-1
		C226.8,952.3,227.4,951.6,228.2,951.6z"/>
		<path class="st16" d="M164.5,882.1L164.5,882.1c0.1-1.2-0.4-2.3-1.3-3l-14.1-12l-0.3,7.6c-0.1,1.2,0.4,2.3,1.3,3l8.3,7
		C160.7,886.8,164.4,885.2,164.5,882.1z"/>
		<path class="st16" d="M242,882.1L242,882.1c-0.1-1.2,0.4-2.3,1.3-3l14.1-12l0.3,7.6c0.1,1.2-0.4,2.3-1.3,3l-8.3,7
		C245.8,886.8,242.1,885.2,242,882.1z"/>
		<circle class="st18" cx="233.6" cy="935.8" r="10.8"/>
		<circle class="st0" cx="233.6" cy="935.8" r="3.7"/>
		<circle class="st0" cx="171.9" cy="935.8" r="3.7"/>
		<circle class="st18" cx="171.9" cy="935.8" r="10.8"/>
		<path class="st17" d="M274.7,877.8h-10.9v-10.9c0-4.4,3.6-8,8-8h2.9c4.4,0,8,3.6,8,8v2.9C282.7,874.2,279.1,877.8,274.7,877.8z"/>
		<path class="st17" d="M132.6,877.8h10.9v-10.9c0-4.4-3.6-8-8-8h-2.9c-4.4,0-8,3.6-8,8v2.9C124.6,874.2,128.2,877.8,132.6,877.8z"/>
		<circle class="st0" cx="273.1" cy="868.4" r="3.1"/>
		<circle class="st0" cx="134" cy="868.4" r="3.1"/>
		<path class="st23" d="M238.2,893.2h-4.7v-4.7c0-1.3,1.1-2.4,2.4-2.4h4.7v4.7C240.5,892.2,239.5,893.2,238.2,893.2z"/>
		<path class="st17" d="M249.8,880h-1.2v-1.2c0-1.3,1.1-2.4,2.4-2.4h1.2v1.2C252.2,878.9,251.1,880,249.8,880z"/>
		<path class="st17" d="M154.4,877.2V876h1.2c1.3,0,2.4,1.1,2.4,2.4v1.2h-1.2C155.5,879.6,154.4,878.5,154.4,877.2z"/>
		<path class="st23" d="M168.2,893.2h4.7v-4.7c0-1.3-1.1-2.4-2.4-2.4h-4.7v4.7C165.8,892.2,166.9,893.2,168.2,893.2z"/>
		<g>
			<g>
				<path class="st24" d="M251.5,888.5c1.1-0.2,1.7,0.3,2.3,0.7"/>
				<path class="st25" d="M259,887.2c0.2-0.1,0.4-0.2,0.7-0.2c2.1-0.4,2.4,1.6,4.5,1.2c1.7-0.3,1.8-1.8,3-2.4"/>
				<path class="st24" d="M270.2,886.1c0.6,0.4,1.2,0.9,2.3,0.7"/>
			</g>
		</g>
		<g>
			<g>
				<path class="st24" d="M155.7,890.3c-1.1-0.2-1.5-0.8-1.9-1.4"/>
				<path class="st25" d="M148.2,888.8c-0.2,0-0.5,0-0.8,0c-2.1-0.4-1.7-2.3-3.8-2.7c-1.7-0.3-2.3,1-3.6,1.2"/>
				<path class="st24" d="M137.4,886c-0.5-0.6-0.9-1.2-2-1.4"/>
			</g>
		</g>
		<g>
			<path class="st18" d="M206.2,893.5v-7.8c0-26.1,21.2-47.3,47.3-47.3l0,0"/>
			<path class="st18" d="M199.2,893.5v-7.8c0-26.1-21.2-47.3-47.3-47.3l0,0"/>
		</g>
		<path class="st0" d="M194.3,926.9c0,17.9,3.1,34.4,8.3,48c5.2-13.6,8.3-30.1,8.3-48c0-14-1.9-27.2-5.3-38.8c-0.9-3.1-5.3-3.1-6.2,0
		C196.2,899.7,194.3,912.9,194.3,926.9z"/>
		<g>
			<line class="st26" x1="198.1" y1="896" x2="207" y2="896"/>
			<line class="st26" x1="195.8" y1="908.9" x2="209.4" y2="908.9"/>
			<line class="st26" x1="194.6" y1="921.7" x2="210.5" y2="921.7"/>
			<line class="st26" x1="194.6" y1="934.6" x2="210.5" y2="934.6"/>
			<line class="st26" x1="195.8" y1="947.4" x2="209.4" y2="947.4"/>
			<line class="st26" x1="198.1" y1="960.3" x2="207" y2="960.3"/>
		</g>
	</g>
	<path class="st17" d="M129.5,665.7c-0.8-1.2-2.1-2-3.7-2h-0.1c-1.1,0-2.1-0.7-2.5-1.7c-1.1-2.8-3.9-4.9-7.1-4.9
	c-2.4,0-4.6,1.1-6,2.9c-0.7,0.9-1.9,1.2-3,0.8c-0.6-0.2-1.3-0.4-2.1-0.4c-2,0-3.7,1-4.8,2.4c-0.7,0.9-1.8,1.3-2.9,1
	c-0.4-0.1-0.9-0.2-1.3-0.2c-1.5,0-2.9,0.8-3.7,2h37.2V665.7z"/>
	<path class="st17" d="M193.2,619.3c1.7-2.7,4.7-4.5,8.2-4.5c0.1,0,0.2,0,0.2,0c2.5,0.1,4.7-1.5,5.6-3.8c2.5-6.4,8.7-10.9,15.9-10.9
	c5.5,0,10.3,2.6,13.4,6.6c1.6,2,4.3,2.7,6.7,1.8c1.4-0.5,3-0.8,4.6-0.8c4.4,0,8.3,2.1,10.7,5.4c1.5,2,4,2.9,6.4,2.2
	c0.9-0.3,1.9-0.5,2.9-0.5c3.4,0,6.5,1.8,8.2,4.5H193.2z"/>
	<g>
		<g>
			<path class="st13" d="M1365.5,407.2c-6.6-11.4-8.8-24.1-7.2-36.2c11.3,4.7,21.2,12.9,27.8,24.4c6.6,11.4,8.8,24.1,7.2,36.2
			C1382,426.9,1372.1,418.6,1365.5,407.2z"/>
		</g>
		<g>
			<path class="st13" d="M1382.7,398.7c-11.4-6.6-19.7-16.5-24.4-27.8c12.1-1.6,24.8,0.6,36.2,7.2s19.7,16.5,24.4,27.8
			C1406.8,407.5,1394.1,405.3,1382.7,398.7z"/>
		</g>
		<g>
			<path class="st13" d="M1393.3,382.8c-13.2,0-25.3-4.4-35-11.9c9.7-7.5,21.8-11.9,35-11.9s25.3,4.4,35,11.9
			C1418.6,378.4,1406.5,382.8,1393.3,382.8z"/>
		</g>
		<g>
			<path class="st13" d="M1394.5,363.7c-11.4,6.6-24.1,8.8-36.2,7.2c4.7-11.3,12.9-21.2,24.4-27.8s24.1-8.8,36.2-7.2
			C1414.2,347.2,1405.9,357.1,1394.5,363.7z"/>
		</g>
		<g>
			<path class="st13" d="M1386.1,346.6c-6.6,11.4-16.5,19.7-27.8,24.4c-1.6-12.1,0.6-24.8,7.2-36.2c6.6-11.4,16.5-19.7,27.8-24.4
			C1394.9,322.5,1392.7,335.2,1386.1,346.6z"/>
		</g>
		<g>
			<path class="st13" d="M1370.2,335.9c0,13.2-4.4,25.3-11.9,35c-7.5-9.7-11.9-21.8-11.9-35s4.4-25.3,11.9-35
			C1365.7,310.6,1370.2,322.8,1370.2,335.9z"/>
		</g>
	</g>
	<g>
		<g>
			<path class="st13" d="M1413,189.7c-8.9,0-17.2,3-23.7,8.1c6.6,5.1,14.8,8.1,23.7,8.1s17.2-3,23.7-8.1
			C1430.2,192.7,1422,189.7,1413,189.7z"/>
		</g>
		<g>
			<path class="st13" d="M1413.9,202.7c-7.7-4.5-16.4-6-24.6-4.9c3.2,7.7,8.8,14.4,16.5,18.9s16.4,6,24.6,4.9
			C1427.2,213.8,1421.6,207.1,1413.9,202.7z"/>
		</g>
		<g>
			<path class="st13" d="M1408.1,214.3c-4.5-7.7-11.2-13.4-18.9-16.5c-1.1,8.2,0.4,16.9,4.9,24.6c4.5,7.7,11.2,13.4,18.9,16.5
			C1414.1,230.7,1412.6,222,1408.1,214.3z"/>
		</g>
		<g>
			<path class="st13" d="M1397.4,221.5c0-8.9-3-17.2-8.1-23.7c-5.1,6.6-8.1,14.8-8.1,23.7s3,17.2,8.1,23.7
			C1394.3,238.7,1397.4,230.4,1397.4,221.5z"/>
		</g>
		<g>
			<path class="st13" d="M1384.4,222.4c4.5-7.7,6-16.4,4.9-24.6c-7.7,3.2-14.4,8.8-18.9,16.5s-6,16.4-4.9,24.6
			C1373.2,235.7,1379.9,230.1,1384.4,222.4z"/>
		</g>
		<g>
			<path class="st13" d="M1372.8,216.6c7.7-4.5,13.4-11.2,16.5-18.9c-8.2-1.1-16.9,0.4-24.6,4.9s-13.4,11.2-16.5,18.9
			C1356.4,222.6,1365,221.1,1372.8,216.6z"/>
		</g>
		<g>
			<path class="st13" d="M1365.6,205.8c8.9,0,17.2-3,23.7-8.1c-6.6-5.1-14.8-8.1-23.7-8.1c-8.9,0-17.2,3-23.7,8.1
			C1348.4,202.8,1356.6,205.8,1365.6,205.8z"/>
		</g>
	</g>
	<g>
		<path class="st13" d="M1681.7,217.2c-30.4,4.7-57.9,20.3-77.4,43.7c-2.7,3.2-6.6,5.1-10.8,5.1l0.3-0.3l-4-3.9
		c-4.5-4.5-10.2-7.1-16.1-7.8c-10.3-1.2-19.2-9.2-18.7-23.3c0.2-5.3-6.1-8.3-9.9-4.6l-29,28c-4,3.9-10.1,4.6-15,1.8
		c-6.2-3.6-13.3-5.4-20.8-5c-9.1,0.5-17.7,4.7-24.1,11.2l-4,4c-4,4-9.4,6.2-15,6.2h-4.3c-7.6,0-14.6,4-18.4,10.6l-7.4,12.8
		l108.7,7.8l-107.9-1.8l6.1,8.6c3.1,4.3,7.2,7.7,12,9.8l92.1,41.4c20.2,9.1,42.2,13.8,64.4,13.8h99.2L1681.7,217.2L1681.7,217.2z"/>
		<path class="st17" d="M1459.5,279.9L1459.5,279.9c12.8,12.8,33.5,12.8,46.3,0l0,0c2.3-2.3,2.3-6,0-8.3l0,0
		c-12.8-12.8-33.5-12.8-46.3,0l0,0C1457.2,273.9,1457.2,277.6,1459.5,279.9z"/>
		<path class="st0" d="M1418.9,283.4l4.1,4.1c2.8,2.8,7.2,2.8,10,0l4.1-4.1l-4.1-4.1c-2.8-2.8-7.2-2.8-10,0L1418.9,283.4z"/>
		<circle class="st22" cx="1483.5" cy="275" r="10.1"/>
		<circle class="st0" cx="1483.5" cy="275" r="4.6"/>
		<path class="st0" d="M1476.2,307.4c48.3,0,90.2,27.1,111.5,66.9h-5.2c-22.2,0-44.1-4.7-64.4-13.8l-92.1-41.4c-4.8-2.1-9-5.5-12-9.8
		l-1.3-1.9L1476.2,307.4L1476.2,307.4z"/>
	</g>
	<path class="st27" d="M1308.1,532.3h39.6c3.6,0,6.6-3,6.6-6.6l0,0c0-3.6,3-6.6,6.6-6.6h38.3c3.6,0,6.6-3,6.6-6.6V486"/>
	<path class="st27" d="M1522.8,664.4c-10,0.6-88.9,0.2-113.9,0c-4.2,0-7.6,3.4-7.6,7.6l0,0c0,4.2-3.4,7.6-7.6,7.6h-83.6"/>
	<g>
		<polyline class="st28" points="176.4,574.6 176.4,594.2 182.9,594.2 191.3,605.8 203.8,593.4 233.6,593.4 245.5,581.5 	"/>
		<polyline class="st28" points="126.6,576.1 137.3,586.8 148.9,598.5 167.3,598.5 180,611.5 	"/>
		<polygon class="st16" points="190,815.7 177.4,815.7 177.4,604.1 177.5,590.3 190,604.1 	"/>
		<path class="st16" d="M259.4,583.7c-3.3-5.1-9.1-8.5-15.6-8.5l0,0c-2.7,0-5.2-1.2-6.7-3.5c-4.7-7.3-12.9-12.2-22.2-12.2
		c-3.4,0-6.6,0.6-9.6,1.8c-3.1,1.2-6.6,0.4-8.7-2.1c-5.9-7-14.8-11.5-24.7-11.5c-11.8,0-22.1,6.3-27.7,15.8
		c-1.6,2.6-4.5,4.1-7.6,3.8c-0.8-0.1-1.6-0.1-2.4-0.1c-10.4,0-19.1,7-21.8,16.5H259.4z"/>
	</g>
	<g>
		<polyline class="st29" points="243.3,656.7 243.3,666 240.2,666 239.2,671.4 234.4,665.6 220.3,665.6 214.7,660 	"/>
		<polyline class="st29" points="263.7,657.4 258.7,662.5 253.2,668 247.5,668 241.6,674.1 	"/>
		<polygon class="st16" points="236.9,815.7 242.8,815.7 242.8,670.6 242.7,664.1 236.9,670.6 	"/>
		<path class="st16" d="M204.1,661c1.6-2.4,4.3-4,7.4-4l0,0c1.3,0,2.5-0.6,3.2-1.6c2.2-3.4,6.1-5.7,10.5-5.7c1.6,0,3.1,0.3,4.5,0.9
		c1.4,0.6,3.1,0.2,4.1-1c2.8-3.3,7-5.4,11.6-5.4c5.6,0,10.4,3,13.1,7.4c0.7,1.2,2.1,1.9,3.6,1.8c0.4,0,0.7-0.1,1.1-0.1
		c4.9,0,9,3.3,10.2,7.8h-69.3V661z"/>
	</g>
	<g>
		<polyline class="st29" points="124.1,693.5 124.1,699.8 126.2,699.8 126.8,703.5 130.1,699.5 139.7,699.5 143.6,695.7 	"/>
		<polyline class="st29" points="110.1,694 113.6,697.4 117.3,701.2 121.1,701.2 125.2,705.4 	"/>
		<polygon class="st16" points="128.5,815.7 124.4,815.7 124.4,703 124.4,698.5 128.5,703 	"/>
		<path class="st16" d="M150.8,696.4c-1.1-1.6-2.9-2.7-5-2.7l0,0c-0.9,0-1.7-0.4-2.2-1.1c-1.5-2.4-4.1-3.9-7.1-3.9
		c-1.1,0-2.1,0.2-3.1,0.6c-1,0.4-2.1,0.1-2.8-0.7c-1.9-2.3-4.8-3.7-7.9-3.7c-3.8,0-7.1,2-8.9,5.1c-0.5,0.9-1.4,1.3-2.4,1.2
		c-0.3,0-0.5,0-0.8,0c-3.3,0-6.1,2.3-7,5.3L150.8,696.4L150.8,696.4z"/>
	</g>
	<path class="st26" d="M184.8,694.8L184.8,694.8c15.2,10.8,35.4,11.4,51.2,1.5l2.3-1.5"/>
	<path class="st26" d="M183.8,741.7l-5.9,3.3c-16.7,9.3-37.4,7.2-51.9-5.3l0,0"/>
	<path class="st26" d="M126.6,777.5l-4.1,2.3c-11.7,6.6-26.3,5.1-36.5-3.7l0,0"/>
	<path class="st26" d="M281.2,777.3l-3.9,2.2c-11.2,6.2-25.1,4.8-34.7-3.5l0,0"/>
	<path class="st18" d="M217.8,756.2l-11.7,6.6c-33.3,18.6-74.7,14.4-103.6-10.5l0,0"/>
	<path class="st18" d="M217.8,736.3l5,3.1c14.1,8.9,31.7,6.9,43.9-5l0,0"/>
	<path class="st26" d="M182.5,621.5l-17.7,7c-27.5,10.9-57.4,11.8-84.7,3.5"/>
	<path class="st15" d="M231.7,376.2v11.4c0,5.1,4.1,9.2,9.2,9.2l0,0c5.1,0,9.2,4.1,9.2,9.2v9.2"/>
	<path class="st17" d="M280.1,685.6c-0.7-0.2-1.5-0.4-2.3-0.4c-2.4,0-4.6,1.1-6,2.9c-0.7,0.9-1.9,1.2-3,0.8c-0.6-0.2-1.3-0.4-2.1-0.4
	c-2,0-3.7,1-4.8,2.4c-0.7,0.9-1.8,1.3-2.9,1c-0.4-0.1-0.9-0.2-1.3-0.2c-1.5,0-2.9,0.8-3.7,2h26L280.1,685.6L280.1,685.6z"/>
	<g>
		<polygon class="st0" points="99.5,815.9 105.4,815.9 105.4,503.2 105.3,503.2 99.5,503.2 	"/>
	</g>
	<g>
		<polygon class="st0" points="214.4,815.9 220.3,815.9 220.3,503.2 220.3,503.2 214.4,503.2 	"/>
	</g>
	<g>
		<polygon class="st0" points="263.3,815.8 269.2,815.8 269.2,503.2 269.2,503.2 263.3,503.2 	"/>
	</g>
	<g>
		<g>
			<path class="st0" d="M152.5,654.2l8.4,0.8l-0.5,0.2l8.6-7.5c0.1-0.1,0.4-0.1,0.5,0s0.1,0.3,0,0.5l-8.1,8.1
			c-0.1,0.1-0.3,0.2-0.5,0.2h-0.1l-8.4-0.2c-0.6,0-1-0.5-1-1C151.4,654.6,151.9,654.1,152.5,654.2
			C152.5,654.1,152.5,654.1,152.5,654.2z"/>
		</g>
		<g>
			<path class="st0" d="M148.4,654.3l-4.5-5.4l0,0c0-0.1-0.1-0.1-0.1-0.2l-4-10.6c-0.1-0.2,0-0.4,0.2-0.4c0.2-0.1,0.4,0,0.4,0.2
			l4.7,10.3L145,648l4.9,5.1c0.4,0.4,0.4,1,0,1.4S148.8,654.7,148.4,654.3L148.4,654.3z"/>
		</g>
		<g>
			<path class="st0" d="M143,662.8l-2.1,3l0.1-0.5l-0.5,7.4l0,0c0,0.1-0.1,0.3-0.1,0.4l-4.7,5.7l0.1-0.5l1.4,3.5
			c0.1,0.2,0,0.4-0.2,0.4c-0.2,0.1-0.3,0-0.4-0.2l-1.7-3.3c-0.1-0.2-0.1-0.4,0-0.5l0,0l4.4-5.9l-0.1,0.4l0.1-7.4
			c0-0.2,0-0.3,0.1-0.4l0,0l1.9-3.1c0.3-0.5,0.9-0.6,1.4-0.3C143.2,661.7,143.3,662.3,143,662.8L143,662.8z"/>
		</g>
		<g>
			<path class="st0" d="M144.2,664.1l0.2,6.1v0.1c0,0.1,0,0.3-0.1,0.4l-3.6,5.5v-0.4l0.9,2.7c0.1,0.2,0,0.4-0.2,0.4
			c-0.2,0.1-0.3,0-0.4-0.2l-1.1-2.6c-0.1-0.1,0-0.3,0-0.4l0,0l3.1-5.8l-0.1,0.4l-0.7-6.1c-0.1-0.5,0.3-1,0.9-1.1
			C143.7,663,144.2,663.4,144.2,664.1C144.2,664,144.2,664,144.2,664.1z"/>
		</g>
		<g>
			<path class="st0" d="M144,663.4c-2.1-0.7-4-2.3-5.2-4.3c-0.3-0.5-0.6-1-0.8-1.6c-0.1-0.3-0.2-0.6-0.3-0.8l-0.2-0.8
			c-0.2-1-0.6-1.9-1.1-2.8c-1-1.8-2.5-3.3-4.3-4.3l-5.8-3l0.1-0.2c2.1,0.8,4.1,1.5,6.1,2.3c2.1,0.9,3.9,2.4,5.2,4.4
			c0.7,0.9,1.2,2,1.6,3.1l0.3,0.8c0.1,0.2,0.2,0.5,0.3,0.7c0.2,0.5,0.4,0.9,0.6,1.4c0.4,0.9,0.9,1.8,1.5,2.6s1.3,1.6,2.1,2.5
			L144,663.4z"/>
		</g>
		<path class="st0" d="M155,651L155,651c0-1.2-0.9-2.2-2.1-2.2c-1.3,0-2.4,1-2.4,2.4l0,0c0,0.5-0.3,0.8-0.7,1s-0.7,0.5-0.9,0.9
		c-0.8,2.4-2.5,4.4-4.7,5.7l-0.1,0.1c-2.7,1-4.8,3.6-5,6.6l0,0h4.6c5.6,0,10.1-4.5,10.1-10.1v-0.6c0-0.7,0.4-1.3,1.1-1.5l0,0
		c0.9-0.4,1.5-1.2,1.5-2.2H155V651z"/>
	</g>
	<path class="st30" d="M162.9,536c-3-3.5-7.4-5.7-12.4-5.7c-4,0-7.6,1.4-10.4,3.7c-2.8-2.3-6.5-3.7-10.4-3.7c-5,0-9.4,2.2-12.4,5.7" />
	<path class="st30" d="M187.6,517.1c-1.3-1.5-3.2-2.4-5.3-2.4c-1.7,0-3.2,0.6-4.4,1.6c-1.2-1-2.7-1.6-4.4-1.6c-2.1,0-4,0.9-5.3,2.4" />
	<path class="st30" d="M254.7,546.9c-1.3-1.5-3.2-2.4-5.3-2.4c-1.7,0-3.2,0.6-4.4,1.6c-1.2-1-2.7-1.6-4.4-1.6c-2.1,0-4,0.9-5.3,2.4" />
	<path class="st31" d="M375,967.2h193c38.6,0,69.9,31.3,69.9,69.9l0,0c0,38.6,31.3,69.9,69.9,69.9h247c22.9,0,43.2,11,56,28.1"/>
	<g>
		<polygon class="st19" points="1564.7,409.4 1548.1,409.4 1536.4,421.1 1536.4,437.7 1548.1,449.4 1564.7,449.4 1576.5,437.7
		1576.5,421.1 	"/>
		<polyline class="st19" points="1520.1,389.8 1502.7,407.2 1502.7,451.6 1534.2,483.1 1578.7,483.1 1610.1,451.6 1610.1,407.2
		1593.5,390.5 	"/>
		<polygon class="st19" points="1569.3,398.3 1543.6,398.3 1525.3,416.5 1525.3,442.3 1543.6,460.5 1569.3,460.5 1587.5,442.3
		1587.5,416.5 	"/>
		<polygon class="st19" points="1560.3,420.1 1552.6,420.1 1547.2,425.6 1547.2,433.2 1552.6,438.7 1560.3,438.7 1565.7,433.2
		1565.7,425.6 	"/>
		<line class="st19" x1="1539.3" y1="389.1" x2="1589.3" y2="503.1"/>
		<line class="st19" x1="1526.1" y1="504.4" x2="1571.9" y2="389.7"/>
		<line class="st19" x1="1458.8" y1="389.6" x2="1617.8" y2="453.4"/>
		<line class="st19" x1="1425" y1="484.3" x2="1618" y2="403.6"/>
	</g>
	<path class="st31" d="M1236.9,395.5L1236.9,395.5c37.2,0,67.4-30.2,67.4-67.4V239c0-37.2,30.2-67.4,67.4-67.4H1551
	c37.2,0,67.4-30.2,67.4-67.4V0"/>
	<g>
		<g>
			<polyline class="st14" points="1477.5,453.8 1483.6,459.9 1483.6,468 1481.3,470.3 		"/>
			<polyline class="st14" points="1479.3,446.7 1491.9,453.3 1491.9,466.1 1488.4,469.6 		"/>
		</g>
		<g>
			<polyline class="st14" points="1477.1,439.6 1483.2,433.5 1483.2,425.3 1481,423.1 		"/>
			<polyline class="st14" points="1481.9,446.6 1491.5,441.1 1491.5,428.2 1488,424.7 		"/>
		</g>
		<g>
			<polyline class="st14" points="1460.3,453.8 1454.1,459.9 1454.1,468 1456.4,470.3 		"/>
			<polyline class="st14" points="1458.4,446.7 1445.8,453.3 1445.8,466.1 1449.3,469.6 		"/>
		</g>
		<g>
			<polyline class="st14" points="1460.6,439.6 1454.5,433.5 1454.5,425.3 1456.7,423.1 		"/>
			<polyline class="st14" points="1455.8,446.6 1446.2,442.1 1446.2,429.2 1449.7,425.7 		"/>
		</g>
		<path class="st0" d="M1468.6,457.4L1468.6,457.4c-8,0-14.6-6.5-14.6-14.6l0,0c0-8,6.5-14.6,14.6-14.6l0,0c8,0,14.6,6.5,14.6,14.6
		l0,0C1483.2,450.9,1476.6,457.4,1468.6,457.4z"/>
		<path class="st0" d="M1468.6,465.2L1468.6,465.2c-3.3,0-6-2.7-6-6l0,0c0-3.3,2.7-6,6-6l0,0c3.3,0,6,2.7,6,6l0,0
		C1474.6,462.5,1471.9,465.2,1468.6,465.2z"/>
		<path class="st0" d="M1468.6,470.3L1468.6,470.3c-1.6,0-3-1.3-3-3l0,0c0-1.6,1.3-3,3-3l0,0c1.6,0,3,1.3,3,3l0,0
		C1471.6,469,1470.2,470.3,1468.6,470.3z"/>
		<path class="st18" d="M1469.2,469.4c1,0,1.8,0.8,1.8,1.8s-0.8,1.8-1.8,1.8"/>
		<path class="st18" d="M1468,469.4c-1,0-1.8,0.8-1.8,1.8s0.8,1.8,1.8,1.8"/>
		<path class="st17" d="M1472.5,441.8l-4,4l-4-4c-1.3-1.3-1.3-3.4,0-4.8l4-4l4,4C1473.8,438.4,1473.8,440.5,1472.5,441.8z"/>
		<path class="st17" d="M1469.2,453l-0.8,0.8l-0.8-0.8c-1.3-1.3-1.3-3.4,0-4.8l0.8-0.8l0.8,0.8C1470.6,449.6,1470.6,451.7,1469.2,453
		z"/>
		<path class="st17" d="M1468.5,461.3L1468.5,461.3L1468.5,461.3c-1-1-1-2.6,0-3.6l0,0l0,0C1469.5,458.7,1469.5,460.3,1468.5,461.3z" />
	</g>
	<line class="st18" x1="1468.3" y1="432.2" x2="1468.3" y2="389.9"/>
	<path class="st11" d="M1357.5,129.2L1357.5,129.2c2.4-3.1,6.1-4.9,10-4.9h62.4l-15.8,20.3c-2.4,3.1-6.1,4.9-10,4.9h-36.6
	C1357,149.5,1351.1,137.5,1357.5,129.2z"/>
	<g>
		<path class="st11" d="M1301.7,378.9L1301.7,378.9c1.9-2.4,4.8-3.9,7.9-3.9h29.5l-12.5,16.1c-1.9,2.4-4.8,3.9-7.9,3.9h-9
		C1301.3,395.1,1296.6,385.5,1301.7,378.9z"/>
	</g>
	<g>
		<path class="st11" d="M374.3,575.1L374.3,575.1c1.9-2.4,4.8-3.9,7.9-3.9h29.5l-12.5,16.1c-1.9,2.4-4.8,3.9-7.9,3.9h-9
		C373.9,591.3,369.2,581.7,374.3,575.1z"/>
	</g>
	<g>
		<path class="st11" d="M659.2,1037.8L659.2,1037.8c1.9-2.4,4.8-3.9,7.9-3.9h29.5l-12.5,16.1c-1.9,2.4-4.8,3.9-7.9,3.9h-9
		C658.7,1054,654.1,1044.4,659.2,1037.8z"/>
	</g>
	<g>
		<path class="st11" d="M379.3,256.1L379.3,256.1c1.9-2.4,4.8-3.9,7.9-3.9h29.5l-12.5,16.1c-1.9,2.4-4.8,3.9-7.9,3.9h-9
		C378.9,272.2,374.2,262.7,379.3,256.1z"/>
	</g>
	<path class="st31" d="M359.9,504.5v81.7c0,27.6,22.4,50,50,50l0,0c27.6,0,50,22.4,50,50v7.5"/>
	<g>
		<path class="st11" d="M226,373.4L226,373.4c-2.4-1.9-3.9-4.8-3.9-7.9V316l16.1,12.5c2.4,1.9,3.9,4.8,3.9,7.9v29
		C242.1,373.8,232.5,378.5,226,373.4z"/>
		<line class="st15" x1="232.1" y1="371" x2="232.1" y2="335.9"/>
		<line class="st15" x1="238.4" y1="358.9" x2="232.2" y2="365.1"/>
		<line class="st15" x1="232.1" y1="343.9" x2="228.2" y2="340"/>
	</g>
	<g>
		<path class="st16" d="M385.2,391.6h-11.7c-21.6,0-34-24.5-21.2-41.9l0,0c5-6.8,12.9-10.8,21.2-10.8h63.6l-30.7,41.9
		C401.5,387.6,393.6,391.6,385.2,391.6z"/>
		<line class="st14" x1="411" y1="358.2" x2="352.8" y2="358.2"/>
		<line class="st14" x1="364" y1="358.3" x2="387.4" y2="381.6"/>
		<line class="st14" x1="397.8" y1="348" x2="387.5" y2="358.3"/>
	</g>
	<path class="st31" d="M358.9,319.2v-52.5c0-14.2-11.5-25.8-25.8-25.8H135c-14.2,0-25.8-11.5-25.8-25.8V134
	c0-14.2-11.5-25.8-25.8-25.8l0,0"/>
	<g>
		<line class="st32" x1="400.5" y1="57.4" x2="400.5" y2="132.7"/>
		<line class="st32" x1="430.5" y1="57.4" x2="430.5" y2="132.7"/>
		<line class="st32" x1="460.5" y1="57.4" x2="460.5" y2="132.7"/>
		<line class="st32" x1="490.5" y1="57.4" x2="490.5" y2="132.7"/>
		<line class="st32" x1="520.5" y1="57.4" x2="520.5" y2="132.7"/>
	</g>
	<g>
		<line class="st32" x1="929.7" y1="1037.9" x2="1005" y2="1037.9"/>
		<line class="st32" x1="929.7" y1="1007.9" x2="1005" y2="1007.9"/>
		<line class="st32" x1="929.7" y1="977.9" x2="1005" y2="977.9"/>
		<line class="st32" x1="929.7" y1="947.9" x2="1005" y2="947.9"/>
		<line class="st32" x1="929.7" y1="917.9" x2="1005" y2="917.9"/>
	</g>
	<rect x="1097.2" y="813.9" class="st16" width="97.8" height="102.9"/>
	<path class="st16" d="M1061.8,932h31.7v-7h-9.5C1076.1,925,1068.4,927.4,1061.8,932L1061.8,932z"/>
	<path class="st16" d="M1220.1,932h-31.7v-7h9.5C1205.8,925,1213.6,927.4,1220.1,932L1220.1,932z"/>
	<g>
		<rect x="1042.4" y="917.4" class="st33" width="195.1" height="114.9"/>
		<path class="st16" d="M1154,988.4L1154,988.4c31.8,0,57.6,25.8,57.6,57.6v1.6h-115.1v-1.6C1096.5,1014.2,1122.2,988.4,1154,988.4z" />
		<path class="st33" d="M1141.3,1010.6L1141.3,1010.6c22.4,0,40.5,18.1,40.5,40.5v13.2h-81.1v-13.2
		C1100.8,1028.7,1118.9,1010.6,1141.3,1010.6z"/>
		<path class="st16" d="M1139.2,1025.1L1139.2,1025.1c-22.4,0-40.5-18.1-40.5-40.5v-17.9h81.1v17.9
		C1179.7,1007,1161.6,1025.1,1139.2,1025.1z"/>
		<path class="st16" d="M1140.2,934L1140.2,934c19.2,0,34.8,15.6,34.8,34.8v19h-69.6v-19C1105.4,949.6,1121,934,1140.2,934z"/>
		<g>
			<path class="st0" d="M1164,973.5L1164,973.5c-4.3,4.3-11.2,4.3-15.5,0l0,0l0,0C1152.8,969.2,1159.8,969.2,1164,973.5L1164,973.5z" />
			<circle class="st17" cx="1156.6" cy="973.5" r="2.1"/>
		</g>
		<g>
			<g>
				<path class="st0" d="M1125.7,973.5L1125.7,973.5c-4.3,4.3-11.2,4.3-15.5,0l0,0l0,0C1114.5,969.2,1121.4,969.2,1125.7,973.5
				L1125.7,973.5z"/>
			</g>
			<circle class="st17" cx="1118.3" cy="973.5" r="2.1"/>
		</g>
		<path class="st33" d="M1140.9,1014.8h-6.3c-3.5,0-6.5-2.1-7.7-5.4l-3.6-9.8h29l-3.6,9.8C1147.4,1012.6,1144.3,1014.8,1140.9,1014.8
		z"/>
		<path class="st0" d="M1137.9,1005.8L1137.9,1005.8c-6.1,0-11.1-5-11.1-11.1v-10.4c0-6.1,5-11.1,11.1-11.1l0,0
		c6.1,0,11.1,5,11.1,11.1v10.4C1149,1000.8,1144.1,1005.8,1137.9,1005.8z"/>
		<path class="st0" d="M1141.3,997.2c-1.1,1.1-1.7,2.6-1.7,4c1.5,0,2.9-0.6,4-1.7c1.1-1.1,1.7-2.6,1.7-4
		C1143.8,995.5,1142.4,996.1,1141.3,997.2z"/>
		<path class="st0" d="M1132.6,997.2c-1.1-1.1-2.6-1.7-4-1.7c0,1.5,0.6,2.9,1.7,4s2.6,1.7,4,1.7
		C1134.2,999.7,1133.7,998.3,1132.6,997.2z"/>
		<path class="st16" d="M1108.9,932L1108.9,932c-3.3-2.7-7.2-4.8-11.4-6l-1.8-0.5c-0.8-0.2-1.6-0.4-2.4-0.5l-0.6-0.1
		c-3.9-0.4-7.8,0.7-10.8,3.3l-5.4,4.5c-2,1.7-3.5,3.9-4.4,6.3l-5.9,17c-2,5.8-0.2,12.2,4.6,16l12.2,9.9c1.5,1.2,3.2,2.1,5.1,2.6l0,0
		c7.7,2.2,15.8-2.3,17.9-10l7.7-27.5C1115.1,941.5,1113.3,935.6,1108.9,932z"/>
		<path class="st16" d="M1056.7,938.9h31.7v-7h-9.5C1071,931.9,1063.2,934.3,1056.7,938.9L1056.7,938.9z"/>
		<path class="st16" d="M1052.9,945.8h31.7v-7h-9.5C1067.2,938.8,1059.4,941.2,1052.9,945.8L1052.9,945.8z"/>
		<path class="st16" d="M1050.3,952.7h31.7v-7h-9.5C1064.6,945.7,1056.8,948.1,1050.3,952.7L1050.3,952.7z"/>
		<path class="st16" d="M1049,959.8h31.7v-7h-9.5C1063.2,952.8,1055.5,955.2,1049,959.8L1049,959.8z"/>
		<path class="st16" d="M1054.2,965.1h31.7v-7h-9.5C1068.5,958.1,1060.8,960.6,1054.2,965.1L1054.2,965.1z"/>
		<path class="st16" d="M1058.7,969.2h31.7v-7h-9.5C1073,962.2,1065.2,964.7,1058.7,969.2L1058.7,969.2z"/>
		<path class="st16" d="M1173.1,932L1173.1,932c3.3-2.7,7.2-4.8,11.4-6l1.8-0.5c0.8-0.2,1.6-0.4,2.4-0.5l0.6-0.1
		c3.9-0.4,7.8,0.7,10.8,3.3l5.4,4.5c2,1.7,3.5,3.9,4.4,6.3l5.9,17c2,5.8,0.2,12.2-4.6,16l-12.2,9.9c-1.5,1.2-3.2,2.1-5.1,2.6l0,0
		c-7.7,2.2-15.8-2.3-17.9-10l-7.7-27.5C1166.8,941.5,1168.7,935.6,1173.1,932z"/>
		<path class="st16" d="M1225.2,938.9h-31.7v-7h9.5C1211,931.9,1218.7,934.3,1225.2,938.9L1225.2,938.9z"/>
		<path class="st16" d="M1229,945.8h-31.7v-7h9.5C1214.8,938.8,1222.5,941.2,1229,945.8L1229,945.8z"/>
		<path class="st16" d="M1231.7,952.7H1200v-7h9.5C1217.4,945.7,1225.2,948.1,1231.7,952.7L1231.7,952.7z"/>
		<path class="st16" d="M1233,959.8h-31.7v-7h9.5C1218.7,952.8,1226.5,955.2,1233,959.8L1233,959.8z"/>
		<path class="st16" d="M1227.7,965.1H1196v-7h9.5C1213.4,958.1,1221.2,960.6,1227.7,965.1L1227.7,965.1z"/>
		<path class="st16" d="M1223.3,969.2h-31.7v-7h9.5C1209,962.2,1216.7,964.7,1223.3,969.2L1223.3,969.2z"/>
		<path class="st33" d="M1202,969.1l-9.9,5.8c-2.6,1.5-6,1.1-8.1-1l0,0c-2.6-2.6-2.6-6.9,0-9.5l0,0c2.2-2.2,5.5-2.6,8.1-1L1202,969.1
		z"/>
		<path class="st33" d="M1075,971.1l9.9,5.8c2.6,1.5,6,1.1,8.1-1l0,0c2.6-2.6,2.6-6.9,0-9.5l0,0c-2.2-2.2-5.5-2.6-8.1-1L1075,971.1z" />
		<rect x="1086.2" y="1032.6" class="st13" width="153.2" height="46.6"/>
		<path class="st16" d="M1071.6,1032.6h-23.8l0,0c0-11.5,9.3-20.8,20.8-20.8h3V1032.6z"/>
		<line class="st34" x1="1069.5" y1="1023.8" x2="1082" y2="985.4"/>
		<line class="st34" x1="1073.5" y1="1008.7" x2="1067.6" y2="1000.9"/>
		<path class="st17" d="M1078.1,1010.5l0.4-1.4c0.5-1.9,2.4-3.1,4.3-2.6l8.4,2.1l-7.4,5.7c-0.9,0.6-2,0.9-3,0.6l0,0
		C1078.8,1014.3,1077.6,1012.4,1078.1,1010.5z"/>
		<path class="st17" d="M1073.8,995.5l-1.3,0.8c-1.7,1-3.9,0.5-4.9-1.2l-4.5-7.4l9.3,1.3c1.1,0.1,2,0.8,2.6,1.7l0,0
		C1076,992.3,1075.4,994.5,1073.8,995.5z"/>
	</g>
	<rect x="1236.5" y="696.7" class="st23" width="373.5" height="221.2"/>
	<path class="st16" d="M1610.3,817.1L1610.3,817.1c-19.4,0-34.5-9.9-45-26.3l-5.2-8.1c-17.1-26.8-56.4-26.3-72.8,0.9l0,0
	c-16.9,28.1-57.9,27.5-74-1.1l-31.4-56c-16-28.5-56.7-29.3-73.8-1.4l-26.4,43c-9.2,15-27.6,24.2-45.3,24.2l0,0v126.4h373.9
	L1610.3,817.1L1610.3,817.1z"/>
	<circle class="st17" cx="1566" cy="734.6" r="20"/>
	<path class="st17" d="M1487.3,756.2c-3.3-5.3-9.2-8.8-15.9-8.8c-0.2,0-0.3,0-0.5,0c-4.9,0.1-9.2-2.9-11-7.4
	c-4.8-12.4-16.8-21.1-30.9-21.1c-10.6,0-20.1,5-26.1,12.8c-3.1,3.9-8.4,5.3-13.1,3.6c-2.8-1.1-5.8-1.6-9-1.6
	c-8.5,0-16.1,4.1-20.8,10.5c-2.9,3.9-7.8,5.7-12.4,4.2c-1.8-0.6-3.7-0.9-5.7-0.9c-6.7,0-12.6,3.5-15.9,8.8L1487.3,756.2
	L1487.3,756.2z"/>
	<g>

		<linearGradient id="SVGID_1_" gradientUnits="userSpaceOnUse" x1="1879.1061" y1="-363.2657" x2="1990.0834" y2="-363.2657" gradientTransform="matrix(-0.8858 -0.4641 0.4641 -0.8858 3314.6172 1382.6147)">
			<stop offset="0" style="stop-color:#AACF97;stop-opacity:0"/>
			<stop offset="0.6623" style="stop-color:#E1EEDB;stop-opacity:0.3311"/>
			<stop offset="1" style="stop-color:#FFFFFF;stop-opacity:0.5"/>
		</linearGradient>
		<path class="st35" d="M1395.9,797.6l84.2,37.4l0,0c3.1-5.9,0.8-13.1-5-16.2l-87.7-46l0,0C1382.5,782.1,1386.5,793.4,1395.9,797.6z" />
		<path class="st22" d="M1420.7,847.3h62.7c7.9,0,14.2-6.4,14.2-14.2v-10.3h-96.8v4.7C1400.8,838.4,1409.7,847.3,1420.7,847.3z"/>
		<g>
			<path class="st33" d="M1483.1,844.8l-21.1-0.5l1.3-0.9l-9.5,21l-0.2,0.4l-0.4,0.1l-9.2,1.9c-0.4,0.1-0.7-0.2-0.8-0.5
			c-0.1-0.4,0.1-0.7,0.5-0.8l9.1-2.3l-0.6,0.5l8.5-21.5l0.3-0.9h1l21.1-0.5c1.1,0,2,0.8,2.1,1.9s-0.8,2-1.9,2.1
			C1483.2,844.8,1483.2,844.8,1483.1,844.8z"/>
		</g>
		<g>
			<path class="st33" d="M1493.3,843.2l15,8.1l0.3,0.1l0.1,0.2l8.9,13l-0.6-0.3l9.9,0.2c0.3,0,0.5,0.2,0.5,0.5s-0.2,0.5-0.5,0.5
			l-9.9,0.2h-0.4l-0.2-0.3l-9.5-12.5l0.4,0.3l-15.4-7.4c-0.7-0.4-1.1-1.3-0.7-2C1491.6,843.1,1492.5,842.8,1493.3,843.2
			C1493.3,843.1,1493.3,843.1,1493.3,843.2z"/>
		</g>
		<g>
			<path class="st23" d="M1508.5,824.7c3.8-3,7.1-6.8,10.3-10.6c3.2-3.8,6.1-7.8,8.9-11.9c2.8-4.1,5.5-8.3,7.8-12.6
			c2.3-4.4,4.5-8.9,5.9-13.6c0-0.1,0.1-0.1,0.2-0.1s0.1,0.1,0.1,0.2c-1.3,4.8-3.4,9.4-5.7,13.8c-2.3,4.4-4.9,8.6-7.7,12.8
			c-2.8,4.1-5.7,8.2-8.8,12c-3.2,3.9-6.4,7.6-10.3,10.8c-0.2,0.2-0.5,0.1-0.7-0.1C1508.3,825.2,1508.3,824.9,1508.5,824.7
			L1508.5,824.7L1508.5,824.7z"/>
		</g>
		<g>
			<path class="st23" d="M1505.5,826.8c1.5-4.6,2.3-9.6,2.9-14.5s0.9-9.9,1-14.8c0.1-5,0.1-9.9-0.3-14.9c-0.4-4.9-1-9.9-2.5-14.6
			c0-0.1,0-0.2,0.1-0.2s0.2,0,0.2,0.1c1.5,4.8,2.2,9.7,2.6,14.7s0.5,9.9,0.5,14.9c-0.1,5-0.4,9.9-0.9,14.9
			c-0.6,4.9-1.2,9.9-2.8,14.7c-0.1,0.3-0.4,0.4-0.6,0.3C1505.6,827.3,1505.4,827.1,1505.5,826.8L1505.5,826.8L1505.5,826.8z"/>
		</g>
		<g>
			<path class="st33" d="M1448.9,845.8c-0.3-0.2-0.6-0.5-0.9-0.7l-0.6-0.5l-1.1-1l-2.2-2l-4.4-4l-8.7-8l-17.3-16l4-0.9l-24.4,51.3
			l-0.4,0.9h-0.9l-13.5-0.3c-0.7,0-1.2-0.6-1.2-1.2c0-0.6,0.5-1.1,1.2-1.2l13.5-0.2l-1.3,0.8l22.4-52.2l1.3-3.1l2.7,2.3l18,15.3
			l9,7.6l4.5,3.8l4.2,3.5l0.5,0.4c1.5,1.2,1.7,3.4,0.5,4.9C1452.5,846.7,1450.4,846.9,1448.9,845.8z"/>
		</g>
		<path class="st23" d="M1499.8,823.8L1499.8,823.8c2.6-0.1,5.2,0.7,7.4,2.1l3.8,2.5c0.1,0,0.3,5.6,0.5,9.2c0.1,2-0.8,3.8-2.5,5
		l-4.4,3l0,0c-2.3,0.1-4.7-0.6-6.6-1.9l-4.6-3.3L1499.8,823.8z"/>
		<path class="st11" d="M1501.7,824.1L1501.7,824.1c-1.7-1.1-3.5-1.7-5.4-1.7l-13.2-0.1l0,0c4.8,4,7.3,10.9,6.6,17.9
		c-0.3,3.3-0.5,6.1-0.2,6.1c0.8-0.1,11-3.9,11-3.9l-0.2-0.8C1499.1,835.6,1499.6,829.5,1501.7,824.1L1501.7,824.1z"/>
		<circle class="st36" cx="1505.5" cy="830.3" r="2.5"/>

		<linearGradient id="SVGID_2_" gradientUnits="userSpaceOnUse" x1="2344.627" y1="306.1346" x2="2455.7268" y2="306.1346" gradientTransform="matrix(-1 0 0 -1 3827.2268 1136)">
			<stop offset="0" style="stop-color:#AACF97;stop-opacity:0"/>
			<stop offset="0.6623" style="stop-color:#E1EEDB;stop-opacity:0.3311"/>
			<stop offset="1" style="stop-color:#FFFFFF;stop-opacity:0.5"/>
		</linearGradient>
		<path class="st37" d="M1390.6,838.8l92-5.9l0,0c0-6.6-5.4-12-12-12h-99.1l0,0C1371.5,831.2,1380.3,839.4,1390.6,838.8z"/>
	</g>
	<g>
		<g>
			<circle class="st17" cx="1265.4" cy="729.3" r="8.8"/>
			<path class="st38" d="M1266.3,729L1266.3,729c22.5,23.2,35.1,54.3,35.1,86.7v105"/>
		</g>
		<g>
			<circle class="st17" cx="1265.4" cy="690.1" r="8.8"/>
			<path class="st38" d="M1266.3,689.8L1266.3,689.8c22.5,23.2,35.1,54.3,35.1,86.7v36.8"/>
		</g>
		<g>
			<circle class="st17" cx="1337.3" cy="657" r="8.8"/>
			<path class="st38" d="M1336.4,656.7L1336.4,656.7c-22.5,23.2-35.1,54.3-35.1,86.7v36.8"/>
		</g>
	</g>
	<g>
		<g>
			<circle class="st17" cx="1253.1" cy="810.9" r="5.7"/>
			<path class="st39" d="M1253.6,810.7L1253.6,810.7c14.5,15,22.6,35,22.6,55.9v6.9"/>
		</g>
		<g>
			<circle class="st17" cx="1253.1" cy="785.6" r="5.7"/>
			<path class="st39" d="M1253.6,785.4L1253.6,785.4c14.5,15,22.6,35,22.6,55.9V865"/>
		</g>
	</g>
	<g>
		<polygon class="st23" points="1333.9,864.8 1356.2,882.5 1355.3,882.1 1384.5,892.8 1383.6,895.7 1353.5,887.9 1353.1,887.8
		1352.6,887.5 1328.6,872.1 	"/>
	</g>
	<g>
		<polygon class="st23" points="1560.2,864.5 1574.8,851.6 1575.1,851.4 1575.3,851.3 1595,842.9 1595.7,844.4 1576.8,854.4
		1577.2,854.1 1563.6,868.1 	"/>
	</g>
	<polygon class="st33" points="449.7,816.5 496.2,715.6 542.7,816.5 "/>
	<polygon class="st33" points="410.2,816.5 432.3,768.4 454.5,816.5 "/>
	<polygon class="st33" points="323.6,815.3 323.6,735.4 360.5,815.3 "/>
	<g>
		<path class="st40" d="M1402.6,1050.4v20.1c0,2.1-1.7,3.8-3.8,3.8l0,0c-2.1,0-3.8,1.7-3.8,3.8v56.8"/>
		<path class="st40" d="M1315,1064.2v12.2c0,5.9,4.8,10.7,10.7,10.7l0,0c5.9,0,10.7,4.8,10.7,10.7v37.2"/>
		<line class="st40" x1="1364.6" y1="1082.3" x2="1364.6" y2="1135"/>
		<g>
			<path class="st0" d="M1380.1,968.1v99.5c0,12.9-14.7,20.4-25.1,12.7l0,0c-4.1-3-6.5-7.7-6.5-12.7V936.9l25.1,18.4
			C1377.7,958.3,1380.1,963,1380.1,968.1z"/>
			<line class="st41" x1="1361" y1="961.8" x2="1361" y2="1082"/>
			<line class="st41" x1="1360.7" y1="1056.2" x2="1374.5" y2="1042.4"/>
			<line class="st41" x1="1360.7" y1="1033.1" x2="1370.2" y2="1023.6"/>
			<line class="st41" x1="1360.7" y1="986.8" x2="1370.1" y2="977.4"/>
			<line class="st41" x1="1360.7" y1="1009.9" x2="1371.7" y2="998.9"/>
			<line class="st41" x1="1361" y1="1056.2" x2="1348.7" y2="1043.9"/>
			<line class="st41" x1="1361" y1="1033.2" x2="1351.8" y2="1024"/>
			<line class="st41" x1="1361" y1="986.3" x2="1355.4" y2="980.7"/>
			<line class="st41" x1="1361" y1="1009.8" x2="1354.2" y2="1003"/>
		</g>
		<g>
			<path class="st33" d="M1315.9,1066.3h-5.6c-7.5,0-13.5-6.1-13.5-13.5v-32.9l27.7,22.4c3.2,2.6,5,6.4,5,10.5l0,0
			C1329.4,1060.2,1323.3,1066.3,1315.9,1066.3z"/>
			<line class="st14" x1="1320.6" y1="1057.5" x2="1305.9" y2="1042.8"/>
			<line class="st14" x1="1311.4" y1="1053.8" x2="1317" y2="1053.8"/>
		</g>
		<g>
			<path class="st0" d="M1393.7,1036.9v4.3c0,8,9.1,12.6,15.6,7.9l0,0c2.5-1.8,4-4.8,4-7.9v-23.6l-15.6,11.4
			C1395.2,1030.9,1393.7,1033.8,1393.7,1036.9z"/>
			<line class="st14" x1="1402.5" y1="1046.5" x2="1402.5" y2="1031.8"/>
			<line class="st14" x1="1402.8" y1="1042.4" x2="1408.3" y2="1036.9"/>
		</g>
	</g>
	<g>
		<path class="st17" d="M1343.5,952.9l0.1,10.8l-6.2-3.7v-1C1337.4,955.7,1340.1,952.9,1343.5,952.9L1343.5,952.9z"/>
		<g>
			<path class="st23" d="M1344.5,964.5v-1.2c0-0.3-0.2-0.5-0.4-0.7l0.3-0.6c0.3-0.5-0.2-1.4-1-1.8l-3.6-2.1c-0.9-0.5-1.9-0.7-2.5-0.4
			l-0.6,0.3c-0.4,0.2-0.7,0.6-0.6,1.1l0.1,0.6c0.1,0.7,0.7,1.4,1.6,1.9l0.9,0.5h-0.9c-1.2,0-2.2,0.4-2.7,0.9l-0.5,0.5
			c-0.4,0.4-0.4,0.9,0,1.3l0.4,0.5c0.4,0.5,1.2,0.8,2,0.9c-1.2,0-2.2,0.5-2.7,1.3l-0.5,0.7c-0.4,0.5-0.4,1.2,0,1.8l0.5,0.7
			c0.4,0.6,1.1,1,1.9,1.2c-1.4,0-2.6,0.7-3.2,1.9l-0.6,1.1c-0.5,0.9-0.4,1.9,0,2.8l0.5,1c0.4,0.9,1.2,1.5,2.1,1.7
			c-1,0.3-1.9,1-2.4,2l-0.6,1.3c-0.5,1-0.5,2.1,0,3.1l0.5,1.2c0.5,1,1.3,1.7,2.3,2c-1,0.3-1.8,1-2.2,1.9l-0.6,1.3
			c-0.5,1-0.5,2.1,0,3.1l0.5,1.2c0.5,1.1,1.6,1.9,2.8,2.1c-1.1,0.2-2.1,0.8-2.7,1.8l-0.6,1.1c-0.5,0.9-0.5,1.9,0,2.8l0.5,1
			c0.6,1.2,1.9,1.9,3.3,1.9h0.1c-1.4,0-2.7,0.6-3.3,1.7l-0.6,1c-0.5,0.8-0.5,1.7,0,2.5l0.5,0.9c0.6,1,1.9,1.7,3.3,1.7h4.3
			c2.3,0,4.2-1.5,4.2-3.4v-2.4c0-1.1-1.1-2.1-2.5-2h-1.7c2.3,0,4.2-1.6,4.2-3.7v-2.6c0-1.3-1.1-2.3-2.5-2.4h-0.8
			c1.9-0.4,3.3-2.1,3.3-4.1v-2.9c0-1.4-1.1-2.6-2.5-2.7h-0.2c1.6-0.6,2.7-2.1,2.7-3.9v-2.9c0-1.4-1.1-2.6-2.4-2.7
			c1.4-0.6,2.4-1.8,2.4-3.4v-2.6c0-1.3-1.1-2.3-2.5-2.4h-0.1c1.5-0.3,2.6-1.2,2.6-2.4v-1.8c0-0.9-1-1.6-2.3-1.5
			C1343.4,965.9,1344.5,965.3,1344.5,964.5z"/>
			<path class="st23" d="M1341.9,1016h-5.7c-1.4,0-2.7,0.6-3.3,1.7l-0.6,1c-0.5,0.8-0.5,1.7,0,2.5l0.5,0.9c0.4,0.9,1.5,1.5,2.7,1.7
			c-0.9,0.3-1.7,1-2,1.8l-0.5,1.2c-0.4,1-0.4,2.1,0,3l0.5,1.1c0.4,1,1.3,1.7,2.3,1.9c-0.8,0.3-1.4,0.8-1.7,1.5l-0.5,1
			c-0.4,0.8-0.4,1.7,0,2.5l0.5,0.9c0.5,0.9,1.5,1.5,2.5,1.7c-0.4,0.2-0.7,0.4-0.8,0.7l-0.4,0.6c-0.3,0.5-0.3,1.1,0,1.6l0.4,0.6
			c0.3,0.5,1,0.9,1.7,1c0.1,2.8,2.4,5.2,5.3,5.2h0.6c0-2.4-1.7-4.5-3.9-5.1h1.8c1.6,0,3-0.9,3-2.1v-1.5c0-0.7-0.8-1.3-1.8-1.4h-0.1
			c1.1-0.6,1.9-1.7,1.9-3v-2.4c0-1.2-1-2.2-2.3-2h-0.1c1.4-0.6,2.4-2,2.4-3.7v-2.8c0-1.4-1-2.5-2.3-2.5h-0.4
			c1.6-0.5,2.7-1.7,2.7-3.2v-2.4C1344.3,1016.8,1343.2,1015.8,1341.9,1016z"/>
		</g>
		<path class="st17" d="M1345.5,1001.3l2.3,1.2l-2.3,1.2c-0.5,0.3-1.2,0.2-1.6-0.2l0,0c-0.5-0.5-0.5-1.4,0-1.9l0,0
		C1344.3,1001.2,1344.9,1001.1,1345.5,1001.3z"/>
		<path class="st17" d="M1345.5,991.6l2.3,1.2l-2.3,1.2c-0.5,0.3-1.2,0.2-1.6-0.2l0,0c-0.5-0.5-0.5-1.4,0-1.9l0,0
		C1344.3,991.4,1344.9,991.3,1345.5,991.6z"/>
		<path class="st17" d="M1345.5,982.4l2.3,1.2l-2.3,1.2c-0.5,0.3-1.2,0.2-1.6-0.2l0,0c-0.5-0.5-0.5-1.4,0-1.9l0,0
		C1344.3,982.2,1344.9,982.1,1345.5,982.4z"/>
		<path class="st17" d="M1345.5,973.1l2.3,1.2l-2.3,1.2c-0.5,0.3-1.2,0.2-1.6-0.2l0,0c-0.5-0.5-0.5-1.4,0-1.9l0,0
		C1344.3,972.9,1344.9,972.8,1345.5,973.1z"/>
		<path class="st17" d="M1345.5,1026.2l2.3,1.2l-2.3,1.2c-0.5,0.3-1.2,0.2-1.6-0.2l0,0c-0.5-0.5-0.5-1.4,0-1.9l0,0
		C1344.3,1026,1344.9,1025.9,1345.5,1026.2z"/>
		<path class="st17" d="M1345.5,1035l2.3,1.2l-2.3,1.2c-0.5,0.3-1.2,0.2-1.6-0.2l0,0c-0.5-0.5-0.5-1.4,0-1.9l0,0
		C1344.3,1034.8,1344.9,1034.7,1345.5,1035z"/>
		<path class="st17" d="M1346.3,1043.4l0.7,2.4l-2.4-0.7c-0.6-0.2-1-0.7-1-1.3l0,0c0-0.8,0.6-1.4,1.4-1.4l0,0
		C1345.6,1042.5,1346.1,1042.9,1346.3,1043.4z"/>
	</g>
	<g>
		<path class="st32" d="M1118.9,1135c0-43.8,35.5-79.3,79.3-79.3s79.3,35.5,79.3,79.3"/>
		<path class="st32" d="M1143.3,1135c0-30.3,24.6-54.9,54.9-54.9s54.9,24.6,54.9,54.9"/>
		<path class="st32" d="M1167.7,1135c0-16.8,13.7-30.5,30.5-30.5s30.5,13.7,30.5,30.5"/>
	</g>
	<g>
		<g>
			<path class="st33" d="M783.1,1088.1l-1.3,46.9h56l-1.1-46.9c-1-7.5,1.6-15,7-20.3l0,0c8.7-8.6,12.4-21.1,9.8-33l-21.2-96
			c-1.3-5.7-5.9-10.1-11.6-11.1L811,926h-2.3l-9.7,1.7c-5.8,1-10.4,5.4-11.6,11.1l-21.2,96c-2.6,12,1.1,24.5,9.8,33
			C781.5,1073.1,784.1,1080.6,783.1,1088.1z"/>
			<path class="st33" d="M410.9,1135c3.7-9.2,5.8-19.3,5.8-29.9c0-11,9-20,20-20h63.2c10.9,0,19.8,8.8,20,19.6v30.3h60v-30.5v-0.4
			c-0.3-21.2-8.7-41.1-23.8-55.9c-15.1-14.9-35-23.1-56.2-23.1h-63.2c-44.1,0-80,35.9-80,80c0,11-9,20-20,20H0v9.9H410.9z"/>
		</g>
		<g>
			<path class="st16" d="M829.9,1085.5v6l0,0c0,2.5-2,4.5-4.5,4.5H824c-2.5,0-4.5-2-4.5-4.5l0,0H817c-2.5,0-4.5-2-4.5-4.5v-0.4
			c0-2.5,2-4.5,4.5-4.5h9.5C828.4,1082.1,829.9,1083.6,829.9,1085.5L829.9,1085.5z"/>
			<path class="st16" d="M825,1113.3h-4.3l0,0c-1.8,0-3.2-1.4-3.2-3.2v-1.1c0-1.8,1.4-3.2,3.2-3.2l0,0v-1.8c0-1.8,1.4-3.2,3.2-3.2
			h0.3c1.8,0,3.2,1.4,3.2,3.2v6.8C827.4,1112.2,826.3,1113.3,825,1113.3L825,1113.3z"/>
			<path class="st16" d="M790.5,1085.5v6l0,0c0,2.5,2,4.5,4.5,4.5h1.5c2.5,0,4.5-2,4.5-4.5l0,0h2.5c2.5,0,4.5-2,4.5-4.5v-0.4
			c0-2.5-2-4.5-4.5-4.5H794C792,1082.1,790.5,1083.6,790.5,1085.5L790.5,1085.5z"/>
			<path class="st16" d="M795.5,1113.3h4.3l0,0c1.8,0,3.2-1.4,3.2-3.2v-1.1c0-1.8-1.4-3.2-3.2-3.2l0,0v-1.8c0-1.8-1.4-3.2-3.2-3.2
			h-0.3c-1.8,0-3.2,1.4-3.2,3.2v6.8C793,1112.2,794.1,1113.3,795.5,1113.3L795.5,1113.3z"/>
			<path class="st16" d="M815.3,1122.7h-9.2c-0.9,0-1.6-0.7-1.6-1.6v-1.1c0-0.9,0.7-1.6,1.6-1.6l0,0c0.9,0,1.6-0.7,1.6-1.6v-0.3
			c0-0.9,0.7-1.6,1.6-1.6h0.6c0.9,0,1.6,0.7,1.6,1.6v0.3c0,0.9,0.7,1.6,1.6,1.6h2.4c0.9,0,1.6,0.7,1.6,1.6v1.1
			C816.9,1122,816.2,1122.7,815.3,1122.7z"/>
		</g>
		<g>
			<g>
				<path class="st16" d="M511,1076.2h-6l0,0c-2.5,0-4.5-2-4.5-4.5v-1.5c0-2.5,2-4.5,4.5-4.5l0,0v-2.5c0-2.5,2-4.5,4.5-4.5h0.4
				c2.5,0,4.5,2,4.5,4.5v9.5C514.5,1074.7,512.9,1076.2,511,1076.2L511,1076.2z"/>
				<path class="st16" d="M483.2,1071.2v-4.3l0,0c0-1.8,1.4-3.2,3.2-3.2h1.1c1.8,0,3.2,1.4,3.2,3.2l0,0h1.8c1.8,0,3.2,1.4,3.2,3.2
				v0.3c0,1.8-1.4,3.2-3.2,3.2h-6.8C484.3,1073.7,483.2,1072.6,483.2,1071.2L483.2,1071.2z"/>
				<path class="st16" d="M511,1036.8h-6l0,0c-2.5,0-4.5,2-4.5,4.5v1.5c0,2.5,2,4.5,4.5,4.5l0,0v2.5c0,2.5,2,4.5,4.5,4.5h0.4
				c2.5,0,4.5-2,4.5-4.5v-9.5C514.5,1038.3,512.9,1036.8,511,1036.8L511,1036.8z"/>
				<path class="st16" d="M483.2,1041.7v4.3l0,0c0,1.8,1.4,3.2,3.2,3.2h1.1c1.8,0,3.2-1.4,3.2-3.2l0,0h1.8c1.8,0,3.2-1.4,3.2-3.2
				v-0.3c0-1.8-1.4-3.2-3.2-3.2h-6.8C484.3,1039.3,483.2,1040.4,483.2,1041.7L483.2,1041.7z"/>
				<path class="st16" d="M473.8,1061.6v-9.2c0-0.9,0.7-1.6,1.6-1.6h1.1c0.9,0,1.6,0.7,1.6,1.6l0,0c0,0.9,0.7,1.6,1.6,1.6h0.3
				c0.9,0,1.6,0.7,1.6,1.6v0.6c0,0.9-0.7,1.6-1.6,1.6h-0.3c-0.9,0-1.6,0.7-1.6,1.6v2.4c0,0.9-0.7,1.6-1.6,1.6h-1.1
				C474.5,1063.1,473.8,1062.4,473.8,1061.6z"/>
			</g>
			<g>
				<path class="st16" d="M568.7,1090.8v6l0,0c0,2.5-2,4.5-4.5,4.5h-1.5c-2.5,0-4.5-2-4.5-4.5l0,0h-2.5c-2.5,0-4.5-2-4.5-4.5v-0.4
				c0-2.5,2-4.5,4.5-4.5h9.5C567.2,1087.4,568.7,1088.9,568.7,1090.8L568.7,1090.8z"/>
				<path class="st16" d="M563.7,1118.6h-4.3l0,0c-1.8,0-3.2-1.4-3.2-3.2v-1.1c0-1.8,1.4-3.2,3.2-3.2l0,0v-1.8c0-1.8,1.4-3.2,3.2-3.2
				h0.3c1.8,0,3.2,1.4,3.2,3.2v6.8C566.2,1117.5,565.1,1118.6,563.7,1118.6L563.7,1118.6z"/>
				<path class="st16" d="M529.3,1090.8v6l0,0c0,2.5,2,4.5,4.5,4.5h1.5c2.5,0,4.5-2,4.5-4.5l0,0h2.5c2.5,0,4.5-2,4.5-4.5v-0.4
				c0-2.5-2-4.5-4.5-4.5h-9.5C530.8,1087.4,529.3,1088.9,529.3,1090.8L529.3,1090.8z"/>
				<path class="st16" d="M534.2,1118.6h4.3l0,0c1.8,0,3.2-1.4,3.2-3.2v-1.1c0-1.8-1.4-3.2-3.2-3.2l0,0v-1.8c0-1.8-1.4-3.2-3.2-3.2
				H535c-1.8,0-3.2,1.4-3.2,3.2v6.8C531.8,1117.5,532.9,1118.6,534.2,1118.6L534.2,1118.6z"/>
				<path class="st16" d="M554.1,1128h-9.2c-0.9,0-1.6-0.7-1.6-1.6v-1.1c0-0.9,0.7-1.6,1.6-1.6l0,0c0.9,0,1.6-0.7,1.6-1.6v-0.3
				c0-0.9,0.7-1.6,1.6-1.6h0.6c0.9,0,1.6,0.7,1.6,1.6v0.3c0,0.9,0.7,1.6,1.6,1.6h2.4c0.9,0,1.6,0.7,1.6,1.6v1.1
				C555.7,1127.3,555,1128,554.1,1128z"/>
			</g>
			<g>
				<path class="st16" d="M402.6,1057.2h-4.3l0,0c-1.8,0-3.2-1.4-3.2-3.2v-1.1c0-1.8,1.4-3.2,3.2-3.2l0,0v-1.8c0-1.8,1.4-3.2,3.2-3.2
				h0.3c1.8,0,3.2,1.4,3.2,3.2v6.8C405,1056.1,403.9,1057.2,402.6,1057.2L402.6,1057.2z"/>
				<path class="st16" d="M392.9,1066.5h-9.2c-0.9,0-1.6-0.7-1.6-1.6v-1.1c0-0.9,0.7-1.6,1.6-1.6l0,0c0.9,0,1.6-0.7,1.6-1.6v-0.3
				c0-0.9,0.7-1.6,1.6-1.6h0.6c0.9,0,1.6,0.7,1.6,1.6v0.3c0,0.9,0.7,1.6,1.6,1.6h2.4c0.9,0,1.6,0.7,1.6,1.6v1.1
				C394.5,1065.8,393.8,1066.5,392.9,1066.5z"/>
			</g>
			<g>
				<path class="st16" d="M530.6,1060.2h4.3l0,0c1.8,0,3.2-1.4,3.2-3.2v-1.1c0-1.8-1.4-3.2-3.2-3.2l0,0v-1.8c0-1.8-1.4-3.2-3.2-3.2
				h-0.3c-1.8,0-3.2,1.4-3.2,3.2v6.8C528.1,1059.1,529.2,1060.2,530.6,1060.2L530.6,1060.2z"/>
				<path class="st16" d="M540.2,1069.5h9.2c0.9,0,1.6-0.7,1.6-1.6v-1.1c0-0.9-0.7-1.6-1.6-1.6l0,0c-0.9,0-1.6-0.7-1.6-1.6v-0.3
				c0-0.9-0.7-1.6-1.6-1.6h-0.6c-0.9,0-1.6,0.7-1.6,1.6v0.3c0,0.9-0.7,1.6-1.6,1.6H540c-0.9,0-1.6,0.7-1.6,1.6v1.1
				C538.7,1068.8,539.4,1069.5,540.2,1069.5z"/>
			</g>
			<g>
				<path class="st16" d="M382.7,1122.3h9.2c0.9,0,1.6,0.7,1.6,1.6v1.1c0,0.9-0.7,1.6-1.6,1.6l0,0c-0.9,0-1.6,0.7-1.6,1.6v0.3
				c0,0.9-0.7,1.6-1.6,1.6h-0.6c-0.9,0-1.6-0.7-1.6-1.6v-0.3c0-0.9-0.7-1.6-1.6-1.6h-2.4c-0.9,0-1.6-0.7-1.6-1.6v-1.1
				C381.1,1123,381.8,1122.3,382.7,1122.3z"/>
			</g>
			<g>
				<path class="st16" d="M369.1,1111.6v-6l0,0c0-2.5,2-4.5,4.5-4.5h1.5c2.5,0,4.5,2,4.5,4.5l0,0h2.5c2.5,0,4.5,2,4.5,4.5v0.4
				c0,2.5-2,4.5-4.5,4.5h-9.5C370.6,1115,369.1,1113.5,369.1,1111.6L369.1,1111.6z"/>
				<path class="st16" d="M374,1083.8h4.3l0,0c1.8,0,3.2,1.4,3.2,3.2v1.1c0,1.8-1.4,3.2-3.2,3.2l0,0v1.8c0,1.8-1.4,3.2-3.2,3.2h-0.3
				c-1.8,0-3.2-1.4-3.2-3.2v-6.8C371.6,1084.9,372.7,1083.8,374,1083.8L374,1083.8z"/>
				<path class="st16" d="M408.5,1111.6v-6l0,0c0-2.5-2-4.5-4.5-4.5h-1.5c-2.5,0-4.5,2-4.5,4.5l0,0h-2.5c-2.5,0-4.5,2-4.5,4.5v0.4
				c0,2.5,2,4.5,4.5,4.5h9.5C407,1115,408.5,1113.5,408.5,1111.6L408.5,1111.6z"/>
				<path class="st16" d="M403.6,1083.8h-4.3l0,0c-1.8,0-3.2,1.4-3.2,3.2v1.1c0,1.8,1.4,3.2,3.2,3.2l0,0v1.8c0,1.8,1.4,3.2,3.2,3.2
				h0.3c1.8,0,3.2-1.4,3.2-3.2v-6.8C406,1084.9,404.9,1083.8,403.6,1083.8L403.6,1083.8z"/>
				<path class="st16" d="M383.7,1074.4h9.2c0.9,0,1.6,0.7,1.6,1.6v1.1c0,0.9-0.7,1.6-1.6,1.6l0,0c-0.9,0-1.6,0.7-1.6,1.6v0.3
				c0,0.9-0.7,1.6-1.6,1.6h-0.6c-0.9,0-1.6-0.7-1.6-1.6v-0.3c0-0.9-0.7-1.6-1.6-1.6h-2.4c-0.9,0-1.6-0.7-1.6-1.6v-1.1
				C382.1,1075.1,382.8,1074.4,383.7,1074.4z"/>
			</g>
			<g>
				<path class="st16" d="M427.7,1036.8h6l0,0c2.5,0,4.5,2,4.5,4.5v1.5c0,2.5-2,4.5-4.5,4.5l0,0v2.5c0,2.5-2,4.5-4.5,4.5h-0.4
				c-2.5,0-4.5-2-4.5-4.5v-9.5C424.3,1038.3,425.8,1036.8,427.7,1036.8L427.7,1036.8z"/>
				<path class="st16" d="M455.6,1041.7v4.3l0,0c0,1.8-1.4,3.2-3.2,3.2h-1.1c-1.8,0-3.2-1.4-3.2-3.2l0,0h-1.8c-1.8,0-3.2-1.4-3.2-3.2
				v-0.3c0-1.8,1.4-3.2,3.2-3.2h6.8C454.5,1039.3,455.6,1040.4,455.6,1041.7L455.6,1041.7z"/>
				<path class="st16" d="M427.7,1076.2h6l0,0c2.5,0,4.5-2,4.5-4.5v-1.5c0-2.5-2-4.5-4.5-4.5l0,0v-2.5c0-2.5-2-4.5-4.5-4.5h-0.4
				c-2.5,0-4.5,2-4.5,4.5v9.5C424.3,1074.7,425.8,1076.2,427.7,1076.2L427.7,1076.2z"/>
				<path class="st16" d="M455.6,1071.2v-4.3l0,0c0-1.8-1.4-3.2-3.2-3.2h-1.1c-1.8,0-3.2,1.4-3.2,3.2l0,0h-1.8
				c-1.8,0-3.2,1.4-3.2,3.2v0.3c0,1.8,1.4,3.2,3.2,3.2h6.8C454.5,1073.7,455.6,1072.6,455.6,1071.2L455.6,1071.2z"/>
				<path class="st16" d="M464.9,1051.4v9.2c0,0.9-0.7,1.6-1.6,1.6h-1.1c-0.9,0-1.6-0.7-1.6-1.6l0,0c0-0.9-0.7-1.6-1.6-1.6h-0.3
				c-0.9,0-1.6-0.7-1.6-1.6v-0.6c0-0.9,0.7-1.6,1.6-1.6h0.3c0.9,0,1.6-0.7,1.6-1.6v-2.4c0-0.9,0.7-1.6,1.6-1.6h1.1
				C464.2,1049.8,464.9,1050.5,464.9,1051.4z"/>
			</g>
		</g>
		<g>
			<path class="st23" d="M819.1,938.1c0-2.5,2-4.6,4.6-4.6s4.6,2,4.6,4.6H819.1z"/>
			<path class="st23" d="M792.3,938.2c0-2.5,2-4.6,4.6-4.6c2.5,0,4.6,2,4.6,4.6H792.3z"/>
			<g>
				<line class="st19" x1="811.2" y1="866" x2="811.2" y2="928.4"/>
				<polyline class="st42" points="822.8,854.4 811.2,866 799.6,854.4 			"/>
			</g>
			<path class="st23" d="M850.6,997.7c0,6.7-5.4,12-12,12c-6.7,0-6.7-24.1,0-24.1C845.2,985.6,850.6,991,850.6,997.7z"/>
			<path class="st17" d="M849.6,997.7c0,3-2.4,5.5-5.5,5.5s-3-10.9,0-10.9S849.6,994.6,849.6,997.7z"/>
			<path class="st23" d="M768.8,997.7c0,6.7,5.4,12,12,12s6.7-24.1,0-24.1S768.8,991,768.8,997.7z"/>
			<path class="st17" d="M769.2,997.7c0-3,2.4-5.5,5.5-5.5s3,10.9,0,10.9S769.2,1000.7,769.2,997.7z"/>
		</g>
	</g>
	<rect x="1013.8" y="285.4" class="st16" width="79.8" height="12.4"/>
	<path class="st23" d="M1610.3,852.9l-18,4.8c-3.7,1-7.1,1.9-10.7,2.7c-3.5,0.8-7.1,1.5-10.7,2.1c-7.2,1.2-14.5,1.9-21.7,2.3
	c-3.6,0.1-7.3,0.2-10.9,0.2c-3.7-0.1-7.2-0.2-11-0.4l-89-4l-22.3-1l-11.1-0.5c-3.6-0.2-7.1-0.4-10.7-0.8c-3.5-0.4-7.1-0.8-10.6-1.4
	l-2.7-0.4l-2.9-0.4c-1.9-0.2-3.8-0.6-5.7-0.8c-7.7-1-15.4-1.4-23.1-1.6c-30.7-0.4-61.6,6.1-89.7,19.2l-23,8.7v21l30.1-12.3l0.5-0.2
	l0.2-0.1c25.2-12.8,53.5-19.9,82-20.5c7.1-0.1,14.3,0.1,21.4,0.8c1.8,0.2,3.5,0.4,5.3,0.6l2.7,0.3l2.9,0.4c3.8,0.5,7.7,0.8,11.5,1.1
	c3.8,0.2,7.7,0.4,11.5,0.4l11.1,0.1l22.3,0.2l89.1,0.9c3.7,0.1,7.5,0.1,11.3,0s7.6-0.3,11.4-0.6c7.5-0.7,15.1-1.7,22.5-3.2
	c3.7-0.7,7.4-1.5,11.1-2.5c3.7-0.9,7.4-2,10.9-3.1l16-4.9V852.9z"/>
	<rect x="1008.4" y="1078.5" class="st16" width="79.3" height="25.8"/>
	<g>
		<path class="st11" d="M421.2,399h-9.9l0.4-1.1c1.4-4,5.2-6.7,9.5-6.7l0,0c2.2,0,3.9,1.8,3.9,3.9l0,0
		C425.1,397.3,423.3,399,421.2,399z"/>
		<path class="st11" d="M434.7,398.9h-3.5c-1.2,0-2.2-1-2.2-2.2l0,0c0-1.2,1-2.2,2.2-2.2h0.7c2,0,3.6,1.6,3.6,3.6l0,0
		C435.5,398.6,435.2,398.9,434.7,398.9z"/>
		<polyline class="st21" points="433.9,396.1 436.2,393.9 441.3,393.9 	"/>
		<polyline class="st21" points="434.1,395.6 434.1,392.4 437.6,388.8 	"/>
		<path class="st11" d="M427.4,398.2h-1.7c-1.7,0-2.7-1.4-1.7-2.3l0,0c0.4-0.4,1-0.6,1.7-0.6h1.7c1.5,0,2.5,1,2,2l0,0
		C429,397.8,428.2,398.2,427.4,398.2z"/>
		<polyline class="st21" points="425.9,397.6 428.3,400.2 428.3,403.6 	"/>
		<polyline class="st21" points="425.4,397.7 423,400.3 418.9,403.7 	"/>
		<polyline class="st21" points="427.9,397.7 430.3,400.3 434.4,403.7 	"/>
	</g>
	<g>
		<path class="st11" d="M177,456.8h-9.9l0.4-1.1c1.4-4,5.2-6.7,9.5-6.7l0,0c2.2,0,3.9,1.8,3.9,3.9l0,0
		C180.9,455.1,179.1,456.8,177,456.8z"/>
		<path class="st11" d="M190.5,456.8H187c-1.2,0-2.2-1-2.2-2.2l0,0c0-1.2,1-2.2,2.2-2.2h0.7c2,0,3.6,1.6,3.6,3.6l0,0
		C191.3,456.4,191,456.8,190.5,456.8z"/>
		<polyline class="st21" points="189.7,453.9 192,451.7 197.1,451.7 	"/>
		<polyline class="st21" points="189.9,453.4 189.9,450.2 193.5,446.6 	"/>
		<path class="st11" d="M183.2,456h-1.7c-1.7,0-2.7-1.4-1.7-2.3l0,0c0.4-0.4,1-0.6,1.7-0.6h1.7c1.5,0,2.5,1,2,2l0,0
		C184.8,455.7,184,456,183.2,456z"/>
		<polyline class="st21" points="181.7,455.4 184.1,458 184.1,461.4 	"/>
		<polyline class="st21" points="181.2,455.5 178.8,458.1 174.7,461.5 	"/>
		<polyline class="st21" points="183.7,455.5 186.1,458.1 190.2,461.5 	"/>
	</g>
	<path class="st13" d="M0,1014.9l115.9-0.1c-12.8-9.9-28.4-16.6-45.3-18.8c13.5-10.4,23.6-24,29.9-38.9c-16.1-2.3-33-0.3-48.8,6.3
	c6.6-15.8,8.5-32.7,6.4-48.9c-15,6.3-28.6,16.5-39.1,30c-2.2-16.9-8.9-32.5-18.8-45.4L0,1014.9z"/>
	<g>
		<path class="st0" d="M674,904.9H527.4v-55.4h96.3c27.8,0,50.3,22.5,50.3,50.3V904.9z"/>
		<path class="st11" d="M618.6,884.4h-91.2v20.5h134.2C651.5,892.4,636,884.4,618.6,884.4z"/>
		<path class="st0" d="M472,904.9v1.1c-49.5,1.5-92.5,34.2-107.3,81.2l-71.8,41.5l1.1,0.1c26.5,2.1,53-3.9,76-17.2l27.8-16.1H450
		c42,0,76.2-33.7,76.8-75.6l0.6-70.3C496.8,849.5,472,874.3,472,904.9z"/>
		<polygon class="st0" points="460.9,1020.9 444.6,1020.9 444.6,987.7 471.5,987.7 	"/>
		<polygon class="st0" points="427.5,1020.2 417.6,1020.2 417.6,987 434,987 	"/>
		<polyline class="st38" points="445.3,1021.9 500.8,1021.9 506.6,1027.5 	"/>
		<polyline class="st38" points="481.8,1021.9 492.1,1029.3 492.1,1033.4 	"/>
		<polyline class="st38" points="468.3,1021.9 476.8,1028 476.8,1031.3 	"/>
		<polyline class="st38" points="418.5,1021.9 449.7,1021.9 455.5,1027.5 	"/>
		<polyline class="st38" points="436,1021.9 446.3,1029.3 446.3,1033.4 	"/>
		<polyline class="st38" points="425.6,1021.9 434.1,1028 434.1,1031.3 	"/>
		<path class="st17" d="M527.2,861.1c-25.4,5-44.6,27.4-44.6,54.3l13.5,21.3c9,14.3,31.1,7.9,31.1-9V861.1z"/>
		<path class="st43" d="M488.8,890h9.4c10.6,0,20.5-2.9,28.9-8v-20.9C510.4,864.4,496.4,875.3,488.8,890z"/>
		<circle class="st13" cx="508.2" cy="871.9" r="9.3"/>
		<circle class="st0" cx="506.1" cy="869.9" r="4.2"/>
	</g>
	<g>
		<g>
			<circle class="st17" cx="1652.7" cy="874.7" r="5.8"/>
			<path class="st39" d="M1652.1,874.5L1652.1,874.5c-14.8,15.2-23,35.6-23,56.8v66.9"/>
		</g>
		<g>
			<circle class="st17" cx="1652.7" cy="849.1" r="5.8"/>
			<path class="st39" d="M1652.1,848.9L1652.1,848.9c-14.8,15.2-23,35.6-23,56.8v24.1"/>
		</g>
		<g>
			<circle class="st17" cx="1605.6" cy="827.3" r="5.8"/>
			<path class="st39" d="M1606.1,827.2L1606.1,827.2c14.8,15.2,23,35.6,23,56.8v24.1"/>
		</g>
	</g>
	<g>
		<polygon class="st33" points="1681.7,1135 1681.7,1122.3 1669,1135 	"/>
		<polygon class="st33" points="1648,1135 1648,1096 1609,1135 	"/>
		<polygon class="st33" points="1528.1,1135 1528.1,1096 1489.1,1135 	"/>
		<polygon class="st33" points="1588,1135 1588,1096 1549.1,1135 	"/>
	</g>
	<g>
		<polygon class="st33" points="876.6,0 876.6,40.8 917.4,0 	"/>
		<polygon class="st33" points="816.7,0 816.7,40.8 857.5,0 	"/>
		<polygon class="st33" points="996.5,0 996.5,40.8 1037.3,0 	"/>
		<polygon class="st33" points="936.6,0 936.6,40.8 977.4,0 	"/>
		<polygon class="st33" points="1056.5,0 1056.5,40.8 1097.3,0 	"/>
	</g>
</svg>
