<?xml version="1.0" encoding="utf-8"?>
<!-- Generator: Adobe Illustrator 23.0.1, SVG Export Plug-In . SVG Version: 6.00 Build 0)  -->
<!DOCTYPE svg PUBLIC "-//W3C//DTD SVG 1.1//EN" "http://www.w3.org/Graphics/SVG/1.1/DTD/svg11.dtd" [
	<!ENTITY ns_extend "http://ns.adobe.com/Extensibility/1.0/">
	<!ENTITY ns_ai "http://ns.adobe.com/AdobeIllustrator/10.0/">
	<!ENTITY ns_graphs "http://ns.adobe.com/Graphs/1.0/">
	<!ENTITY ns_vars "http://ns.adobe.com/Variables/1.0/">
	<!ENTITY ns_imrep "http://ns.adobe.com/ImageReplacement/1.0/">
	<!ENTITY ns_sfw "http://ns.adobe.com/SaveForWeb/1.0/">
	<!ENTITY ns_custom "http://ns.adobe.com/GenericCustomNamespace/1.0/">
	<!ENTITY ns_adobe_xpath "http://ns.adobe.com/XPath/1.0/">
]>
<svg version="1.1" id="Layer_1" xmlns:x="&ns_extend;" xmlns:i="&ns_ai;" xmlns:graph="&ns_graphs;"
	 xmlns="http://www.w3.org/2000/svg" xmlns:xlink="http://www.w3.org/1999/xlink" x="0px" y="0px" width="53.5px" height="53.5px"
	 viewBox="0 0 53.5 53.5" style="enable-background:new 0 0 53.5 53.5;" xml:space="preserve">
<style type="text/css">
	.st0{fill-rule:evenodd;clip-rule:evenodd;fill:#FFFFFF;}
</style>
<metadata>
	<sfw  xmlns="&ns_sfw;">
		<slices></slices>
		<sliceSourceBounds  bottomLeftOrigin="true" height="53.5" width="53.5" x="770.3" y="-1280.7"></sliceSourceBounds>
	</sfw>
</metadata>
<g>
	<path id="path3019_10_" d="M53.5,26.7c0,14.8-12,26.7-26.7,26.7C12,53.5,0,41.5,0,26.7C0,12,12,0,26.7,0C41.5,0,53.5,12,53.5,26.7z
		"/>
	<path class="st0" d="M26.7,12.8c-7.9,0-14.3,6.4-14.3,14.3c0,6.3,4.1,11.6,9.8,13.5c0.7,0.1,1-0.3,1-0.7c0-0.3,0-1.2,0-2.4
		c-4,0.9-4.8-1.9-4.8-1.9c-0.6-1.6-1.6-2.1-1.6-2.1c-1.3-0.9,0.1-0.9,0.1-0.9c1.4,0.1,2.2,1.5,2.2,1.5c1.3,2.2,3.3,1.6,4.2,1.2
		c0.1-0.9,0.5-1.6,0.9-1.9c-3.2-0.4-6.5-1.6-6.5-7c0-1.6,0.6-2.8,1.5-3.8c-0.1-0.4-0.6-1.8,0.1-3.8c0,0,1.2-0.4,3.9,1.5
		c1.1-0.3,2.4-0.5,3.6-0.5c1.2,0,2.4,0.2,3.6,0.5c2.7-1.8,3.9-1.5,3.9-1.5c0.8,2,0.3,3.4,0.1,3.8c0.9,1,1.5,2.3,1.5,3.8
		c0,5.5-3.3,6.7-6.5,7c0.5,0.4,1,1.3,1,2.6c0,1.9,0,3.4,0,3.9c0,0.4,0.3,0.8,1,0.7c5.7-1.9,9.7-7.2,9.7-13.5
		C41,19.2,34.6,12.8,26.7,12.8z"/>
</g>
</svg>
