<?xml version="1.0" encoding="utf-8"?>
<!-- Generator: Adobe Illustrator 23.0.1, SVG Export Plug-In . SVG Version: 6.00 Build 0)  -->
<!DOCTYPE svg PUBLIC "-//W3C//DTD SVG 1.1//EN" "http://www.w3.org/Graphics/SVG/1.1/DTD/svg11.dtd" [
	<!ENTITY ns_extend "http://ns.adobe.com/Extensibility/1.0/">
	<!ENTITY ns_ai "http://ns.adobe.com/AdobeIllustrator/10.0/">
	<!ENTITY ns_graphs "http://ns.adobe.com/Graphs/1.0/">
	<!ENTITY ns_vars "http://ns.adobe.com/Variables/1.0/">
	<!ENTITY ns_imrep "http://ns.adobe.com/ImageReplacement/1.0/">
	<!ENTITY ns_sfw "http://ns.adobe.com/SaveForWeb/1.0/">
	<!ENTITY ns_custom "http://ns.adobe.com/GenericCustomNamespace/1.0/">
	<!ENTITY ns_adobe_xpath "http://ns.adobe.com/XPath/1.0/">
]>
<svg version="1.1" id="Layer_1" xmlns:x="&ns_extend;" xmlns:i="&ns_ai;" xmlns:graph="&ns_graphs;"
	 xmlns="http://www.w3.org/2000/svg" xmlns:xlink="http://www.w3.org/1999/xlink" x="0px" y="0px" width="157px" height="35.3px"
	 viewBox="0 0 157 35.3" style="enable-background:new 0 0 157 35.3;" xml:space="preserve">
<metadata>
	<sfw  xmlns="&ns_sfw;">
		<slices></slices>
		<sliceSourceBounds  bottomLeftOrigin="true" height="35.3" width="157" x="1153.1" y="4789"></sliceSourceBounds>
	</sfw>
</metadata>
<g>
	<g>
		<polygon points="37.1,0 14.4,0 0,17.4 14.5,35.3 37.1,35.3 22.7,17.4 		"/>
		<polygon points="47,0 40.1,0 31.9,9.9 38.2,17.4 31.9,25.1 40.1,35.3 47,35.3 61.4,17.4 		"/>
	</g>
</g>
<g>
	<path d="M113.7,13.9c-1.9,0-3.5,1.6-3.5,3.5s1.5,3.5,3.5,3.5s3.5-1.5,3.5-3.5S115.6,13.9,113.7,13.9z"/>
	<path d="M90.7,14.2h-2.1v6.4h2.1c1.9,0,3.5-1.4,3.5-3.2S92.6,14.2,90.7,14.2z"/>
	<path d="M145.4,3.4H53l11.4,14.1L53,31.9h92.4L157,17.5L145.4,3.4z M76.2,23h-2.8l-4.2-11.2h2.6l3,8.1l3-8.1h2.5L76.2,23z M83.9,23
		h-2.4V11.8h2.4V23z M90.7,23h-4.5V11.8h4.5c3.2,0,5.9,2.5,5.9,5.6S93.9,23,90.7,23z M106.2,23h-7.9V11.8h7.6v2.4h-5.3v1.9h5v2.4h-5
		v2.1h5.5V23z M113.7,23.2c-3.2,0-5.8-2.6-5.8-5.8s2.6-5.9,5.8-5.9c3.2,0,5.9,2.6,5.9,5.9S116.9,23.2,113.7,23.2z M130,19.9
		c0,1.9-1.6,3.5-3.5,3.5c-1.7,0-3.1-1.2-3.4-2.8l2.3-0.6c0,0.6,0.5,1,1.1,1c0.6,0,1.1-0.5,1.1-1.1v-8.1h2.4V19.9z M135.2,23.2
		c-1.5,0-2.8-0.6-3.6-1.5l1.9-1.5c0.3,0.3,0.9,0.6,1.6,0.6c0.9,0,1.6-0.4,1.6-1.1c0-0.4-0.3-0.8-0.7-0.9l-2-0.6
		c-1.4-0.4-2.2-1.8-2.2-3.2c0-2.1,1.8-3.5,3.7-3.5c1.3,0,2.4,0.5,3.1,1.3l-1.8,1.5c-0.2-0.2-0.7-0.4-1.2-0.4c-0.8,0-1.3,0.5-1.3,1.1
		c0,0.4,0.3,0.8,0.7,0.9l2,0.6c1.4,0.4,2.2,1.8,2.2,3.2C139.1,21.8,137.3,23.2,135.2,23.2z"/>
</g>
</svg>
