<?xml version="1.0" encoding="utf-8"?>
<!-- Generator: Adobe Illustrator 23.0.1, SVG Export Plug-In . SVG Version: 6.00 Build 0)  -->
<!DOCTYPE svg PUBLIC "-//W3C//DTD SVG 1.1//EN" "http://www.w3.org/Graphics/SVG/1.1/DTD/svg11.dtd" [
	<!ENTITY ns_extend "http://ns.adobe.com/Extensibility/1.0/">
	<!ENTITY ns_ai "http://ns.adobe.com/AdobeIllustrator/10.0/">
	<!ENTITY ns_graphs "http://ns.adobe.com/Graphs/1.0/">
	<!ENTITY ns_vars "http://ns.adobe.com/Variables/1.0/">
	<!ENTITY ns_imrep "http://ns.adobe.com/ImageReplacement/1.0/">
	<!ENTITY ns_sfw "http://ns.adobe.com/SaveForWeb/1.0/">
	<!ENTITY ns_custom "http://ns.adobe.com/GenericCustomNamespace/1.0/">
	<!ENTITY ns_adobe_xpath "http://ns.adobe.com/XPath/1.0/">
]>
<svg version="1.1" id="Layer_1" xmlns:x="&ns_extend;" xmlns:i="&ns_ai;" xmlns:graph="&ns_graphs;"
	 xmlns="http://www.w3.org/2000/svg" xmlns:xlink="http://www.w3.org/1999/xlink" x="0px" y="0px" width="53.5px" height="53.5px"
	 viewBox="0 0 53.5 53.5" style="enable-background:new 0 0 53.5 53.5;" xml:space="preserve">
<style type="text/css">
	.st0{fill:#FFFFFF;}
</style>
<metadata>
	<sfw  xmlns="&ns_sfw;">
		<slices></slices>
		<sliceSourceBounds  bottomLeftOrigin="true" height="53.5" width="53.5" x="770.3" y="-1280.7"></sliceSourceBounds>
	</sfw>
</metadata>
<g>
	<path id="path3019_9_" d="M53.5,26.7c0,14.8-12,26.7-26.7,26.7C12,53.5,0,41.5,0,26.7C0,12,12,0,26.7,0C41.5,0,53.5,12,53.5,26.7z"
		/>
	<path class="st0" d="M13.1,36.6c-0.4,0-0.7-0.3-0.7-0.7v-1l8.3-8.3l5.9,5.9l5.8-5.8l8.4,8.4v0.8c0,0.4-0.3,0.7-0.7,0.7H13.1z
		 M34.1,25.3l7-7v13.9L34.1,25.3z M12.5,18.3l6.8,6.8L12.5,32V18.3z M14.2,16.9h25L26.7,29.4L14.2,16.9z"/>
</g>
</svg>
