<?xml version="1.0" encoding="utf-8"?>
<!-- Generator: Adobe Illustrator 23.0.1, SVG Export Plug-In . SVG Version: 6.00 Build 0)  -->
<!DOCTYPE svg PUBLIC "-//W3C//DTD SVG 1.1//EN" "http://www.w3.org/Graphics/SVG/1.1/DTD/svg11.dtd" [
	<!ENTITY ns_extend "http://ns.adobe.com/Extensibility/1.0/">
	<!ENTITY ns_ai "http://ns.adobe.com/AdobeIllustrator/10.0/">
	<!ENTITY ns_graphs "http://ns.adobe.com/Graphs/1.0/">
	<!ENTITY ns_vars "http://ns.adobe.com/Variables/1.0/">
	<!ENTITY ns_imrep "http://ns.adobe.com/ImageReplacement/1.0/">
	<!ENTITY ns_sfw "http://ns.adobe.com/SaveForWeb/1.0/">
	<!ENTITY ns_custom "http://ns.adobe.com/GenericCustomNamespace/1.0/">
	<!ENTITY ns_adobe_xpath "http://ns.adobe.com/XPath/1.0/">
]>
<svg version="1.1" id="Layer_1" xmlns:x="&ns_extend;" xmlns:i="&ns_ai;" xmlns:graph="&ns_graphs;"
	 xmlns="http://www.w3.org/2000/svg" xmlns:xlink="http://www.w3.org/1999/xlink" x="0px" y="0px" width="170px" height="170px"
	 viewBox="0 0 170 170" style="enable-background:new 0 0 170 170;" xml:space="preserve">
<style type="text/css">
	.st0{fill:#DBA7E8;}
	.st1{fill:#7D378F;}
	.st2{fill:#A956BB;}
	.st3{fill:none;stroke:#9341A7;stroke-width:3;stroke-linecap:round;stroke-miterlimit:10;}
	.st4{fill:none;stroke:#DBA7E8;stroke-width:3;stroke-linecap:round;stroke-miterlimit:10;}
	.st5{fill:#B26AC3;}
	.st6{fill:none;stroke:#B26BC3;stroke-width:4;stroke-miterlimit:10;}
</style>
<metadata>
	<sfw  xmlns="&ns_sfw;">
		<slices></slices>
		<sliceSourceBounds  bottomLeftOrigin="true" height="150" width="152.1" x="11.9" y="7.4"></sliceSourceBounds>
	</sfw>
</metadata>
<circle class="st0" cx="89" cy="87.6" r="75"/>
<g>
	<rect x="39" y="52.1" class="st1" width="100" height="10"/>
	<rect x="39" y="62.1" class="st2" width="100" height="59.1"/>
	<polygon class="st0" points="79.8,96.4 79.8,77.4 100.5,86.9 	"/>
	<line class="st3" x1="47.2" y1="112.8" x2="129.5" y2="112.8"/>
	<line class="st4" x1="47.2" y1="112.8" x2="94.5" y2="112.8"/>
	<g>
		<circle class="st5" cx="45.2" cy="57" r="2.1"/>
		<circle class="st5" cx="52.1" cy="57" r="2.1"/>
		<circle class="st5" cx="59.1" cy="57" r="2.1"/>
	</g>
</g>
<polyline class="st6" points="13.4,25.3 24.8,38.1 36.2,25.3 47.6,38.1 59.1,25.3 70.5,38.1 81.9,25.3 93.4,38.1 "/>
<g>
	<rect x="80.4" y="139.8" transform="matrix(0.7071 -0.7071 0.7071 0.7071 -77.345 102.7882)" class="st2" width="10" height="10"/>
	
		<rect x="96.9" y="139.8" transform="matrix(0.7071 -0.7071 0.7071 0.7071 -72.5181 114.4413)" class="st2" width="10" height="10"/>
	
		<rect x="113.4" y="139.8" transform="matrix(0.7071 -0.7071 0.7071 0.7071 -67.6912 126.0944)" class="st2" width="10" height="10"/>
	
		<rect x="129.9" y="139.8" transform="matrix(0.7071 -0.7071 0.7071 0.7071 -62.8643 137.7476)" class="st2" width="10" height="10"/>
	
		<rect x="146.3" y="139.8" transform="matrix(0.7071 -0.7071 0.7071 0.7071 -58.0375 149.4007)" class="st2" width="10" height="10"/>
</g>
</svg>
