<?xml version="1.0" encoding="utf-8"?>
<!-- Generator: Adobe Illustrator 23.0.1, SVG Export Plug-In . SVG Version: 6.00 Build 0)  -->
<!DOCTYPE svg PUBLIC "-//W3C//DTD SVG 1.1//EN" "http://www.w3.org/Graphics/SVG/1.1/DTD/svg11.dtd" [
	<!ENTITY ns_extend "http://ns.adobe.com/Extensibility/1.0/">
	<!ENTITY ns_ai "http://ns.adobe.com/AdobeIllustrator/10.0/">
	<!ENTITY ns_graphs "http://ns.adobe.com/Graphs/1.0/">
	<!ENTITY ns_vars "http://ns.adobe.com/Variables/1.0/">
	<!ENTITY ns_imrep "http://ns.adobe.com/ImageReplacement/1.0/">
	<!ENTITY ns_sfw "http://ns.adobe.com/SaveForWeb/1.0/">
	<!ENTITY ns_custom "http://ns.adobe.com/GenericCustomNamespace/1.0/">
	<!ENTITY ns_adobe_xpath "http://ns.adobe.com/XPath/1.0/">
]>
<svg version="1.1" id="Layer_1" xmlns:x="&ns_extend;" xmlns:i="&ns_ai;" xmlns:graph="&ns_graphs;"
	 xmlns="http://www.w3.org/2000/svg" xmlns:xlink="http://www.w3.org/1999/xlink" x="0px" y="0px" width="1760px" height="1135px"
	 viewBox="0 0 1760 1135" style="enable-background:new 0 0 1760 1135;" xml:space="preserve">
<style type="text/css">
	.st0{fill-rule:evenodd;clip-rule:evenodd;fill:#5283C6;}
	.st1{fill:#3A6AB1;}
	.st2{fill-rule:evenodd;clip-rule:evenodd;fill:#5384C4;}
	.st3{fill-rule:evenodd;clip-rule:evenodd;fill:#6693CE;}
	.st4{fill-rule:evenodd;clip-rule:evenodd;fill:#8CADD9;}
	.st5{fill-rule:evenodd;clip-rule:evenodd;fill:#3A6BB1;}
	.st6{fill-rule:evenodd;clip-rule:evenodd;fill:#5282C7;}
	.st7{fill-rule:evenodd;clip-rule:evenodd;fill:#5182C4;}
	.st8{fill-rule:evenodd;clip-rule:evenodd;fill:#3866A2;}
	.st9{fill:#325E97;}
	.st10{fill:#6B94C9;}
	.st11{fill:#90AED6;}
	.st12{fill:#4076BE;}
	.st13{fill:none;stroke:#375F93;stroke-miterlimit:10;}
	.st14{fill:url(#SVGID_1_);}
	.st15{fill:url(#SVGID_2_);}
	.st16{fill:none;stroke:#6B94C9;stroke-miterlimit:10;}
	.st17{fill-rule:evenodd;clip-rule:evenodd;fill:#335E98;}
	.st18{fill:#5184C6;}
	.st19{fill:none;stroke:#8CACD8;stroke-width:5;stroke-linecap:round;stroke-miterlimit:10;}
	.st20{fill:none;stroke:#8CACD8;stroke-width:2;stroke-miterlimit:10;}
	.st21{fill:none;stroke:#8CACD8;stroke-miterlimit:10;}
	.st22{fill:none;stroke:#6B94C9;stroke-width:3;stroke-linecap:round;stroke-miterlimit:10;}
	.st23{fill:none;stroke:#6B94C9;stroke-width:3;stroke-linecap:round;stroke-miterlimit:10;stroke-dasharray:3.1353,9.4058;}
	.st24{fill:none;stroke:#6B94C9;stroke-width:3;stroke-linecap:round;stroke-miterlimit:10;stroke-dasharray:2.7419,8.2258;}
	.st25{fill:none;stroke:#6B94C9;stroke-width:3;stroke-linecap:round;stroke-miterlimit:10;stroke-dasharray:2.9594,8.8782;}
	.st26{fill:none;stroke:#8CACD8;stroke-width:3;stroke-miterlimit:10;}
	.st27{opacity:0.35;fill:#5184C6;enable-background:new    ;}
	.st28{fill:#6591CB;}
	.st29{fill:none;}
	.st30{fill:none;stroke:#416EAC;stroke-width:10;stroke-miterlimit:10;}
	.st31{fill:none;stroke:#5084C7;stroke-width:6;stroke-miterlimit:10;}
	.st32{fill:#5785C2;}
	.st33{fill:none;stroke:#8CACD8;stroke-width:10;stroke-miterlimit:10;}
	.st34{fill:none;stroke:#8CACD8;stroke-width:10;stroke-linecap:round;stroke-miterlimit:10;}
	.st35{fill:none;stroke:#416EAC;stroke-miterlimit:10;}
	.st36{fill-rule:evenodd;clip-rule:evenodd;fill:#5184C7;}
</style>
<metadata>
	<sfw  xmlns="&ns_sfw;">
		<slices></slices>
		<sliceSourceBounds  bottomLeftOrigin="true" height="1135" width="1762" x="-1.4" y="0"></sliceSourceBounds>
	</sfw>
</metadata>
<g id="Rectangle_2_copy_9">
	<g>
		<rect x="1306.7" y="711.1" class="st0" width="200" height="313"/>
	</g>
</g>
<path class="st1" d="M1479.3,810.3c0-37.4-30.2-67.7-67.5-68c-37.6-0.3-68.6,30.4-68.6,68c0,12,3.1,23.3,8.6,33.1
	c8.7,15.5,13,33,12.8,50.8c0,0.4,0,0.9,0,1.3c0.1,7.3,2,14.2,5.1,20.4c5.3,19.3,23,33.4,43.9,33.4l0,0c25.2,0,45.6-20.4,45.6-45.6
	v-7.9h-1.5c0-0.4,0-0.7,0-1.1c0-0.3,0-0.5,0-0.8c-0.3-17.8,4.4-35.3,13-51C1476.2,833.3,1479.3,822.1,1479.3,810.3z"/>
<g id="Rectangle_2_copy_15">
	<g>
		<rect x="1300.7" y="268.1" class="st2" width="187" height="193"/>
	</g>
</g>
<g id="Rectangle_2">
	<g>
		<rect x="1076.7" class="st3" width="202" height="22.1"/>
	</g>
</g>
<g id="Rectangle_2_copy_23">
	<g>
		<rect x="1488.7" y="461.1" class="st4" width="173" height="146"/>
	</g>
</g>
<g id="Rectangle_2_copy_2_1_">
	<g>
		<rect x="159.7" y="186" class="st3" width="305" height="234"/>
	</g>
</g>
<g id="Rectangle_2_copy_6">
	<g>
		<rect x="1179.7" y="1024.1" class="st5" width="327" height="110.9"/>
	</g>
</g>
<g id="Rectangle_2_copy_7_1_">
	<g>
		<rect x="164.7" y="538.1" class="st5" width="253" height="113"/>
	</g>
</g>
<g id="Rectangle_2_copy_10_1_">
	<g>
		<rect x="320.7" y="725.1" class="st0" width="97" height="104"/>
	</g>
</g>
<g id="Rectangle_2_copy_26_1_">
	<g>
		<rect x="67.7" y="651.1" class="st6" width="97" height="104"/>
	</g>
</g>
<g id="Rectangle_2_copy_25_1_">
	<g>
		<rect x="794.7" y="982.1" class="st0" width="97" height="104"/>
	</g>
</g>
<g id="Rectangle_2_copy_18_1_">
	<g>
		<rect x="746.7" class="st7" width="97" height="91.1"/>
	</g>
</g>
<g id="Rectangle_2_copy_13">
	<g>
		<rect x="697.7" y="870.5" class="st0" width="97" height="111.5"/>
	</g>
</g>
<g id="Rectangle_2_copy_8_1_">
	<g>
		<rect x="417.7" y="829.1" class="st8" width="61" height="36"/>
	</g>
</g>
<g id="Rectangle_2_copy_19_1_">
	<g>
		<rect x="464.7" y="420.1" class="st5" width="61" height="36"/>
	</g>
</g>
<g id="Rectangle_2_copy_24_1_">
	<g>
		<rect x="874.7" y="847.1" class="st5" width="61" height="36"/>
	</g>
</g>
<g id="Rectangle_2_copy_27_1_">
	<g>
		<rect x="67.7" y="137.1" class="st5" width="166" height="22"/>
	</g>
</g>
<g id="Rectangle_2_copy_20_1_">
	<g>
		<rect x="1239.7" y="232.1" class="st5" width="61" height="36"/>
	</g>
</g>
<g id="Rectangle_2_copy_14">
	<g>
		<rect x="1542.7" y="148.1" class="st5" width="194" height="36"/>
	</g>
</g>
<g id="Rectangle_2_copy_21_1_">
	<g>
		<rect x="503.7" y="982.1" class="st8" width="194" height="60"/>
	</g>
</g>
<g id="Rectangle_2_copy_17_1_">
	<g>
		<rect y="420.1" class="st5" width="159.7" height="36"/>
	</g>
</g>
<path class="st9" d="M377.3,565.4C356,554.6,332.5,549,308.7,549H199h-37h-0.6c-4.9,0-7.6-5.6-4.7-9.4l8.7-11.5l11.5-15.4l3.8,3.8
	l2.9,2.9c6.6,6.6,16,9.6,25.2,8l23.7-4.1l-27.2-22.5c-4.8-4-10.5-6.1-16.3-6.5c-0.4-5.8-2.6-11.5-6.5-16.3L160,450.6l-4.1,23.7
	c-1.6,9.2,1.4,18.6,8,25.2l2.9,2.9l3.5,3.5l-39.1,29.4l0,0c-8.6,5.9-14.2,15.8-14.2,26.9v1.8c-0.1,0.4-0.1,0.9-0.1,1.4l0,0l0,0
	c0,0.2,0,0.4,0,0.5s0,0.2,0,0.3l0,0c0,0.1,0,0.1,0,0.2v0.1l0,0c0,1.7,0.1,3.4,0.3,5.1c3.1,32.8,30.8,58.5,64.4,58.5h18.1L179.2,657
	l12-4.9c14-5.7,27.3-13.1,39.4-22h26c49.6,0,96.1-24.2,124.5-64.7l0,0H377.3z"/>
<g id="Rectangle_2_copy_11_1_">
	<g>
		<rect x="1246.7" y="579.1" class="st5" width="195" height="115"/>
	</g>
</g>
<g>
	<path class="st9" d="M1453.4,893.5c-8,0-14.4-6.5-14.4-14.4c0-8,6.5-14.4,14.4-14.4s14.4,6.5,14.4,14.4
		C1467.9,887,1461.4,893.5,1453.4,893.5z"/>
	<path class="st1" d="M1453.4,867.1c6.6,0,11.9,5.3,11.9,11.9c0,6.6-5.3,11.9-11.9,11.9s-11.9-5.3-11.9-11.9
		C1441.5,872.4,1446.8,867.1,1453.4,867.1 M1453.4,862.1c-9.3,0-16.9,7.6-16.9,16.9c0,9.3,7.6,16.9,16.9,16.9s16.9-7.6,16.9-16.9
		C1470.4,869.7,1462.8,862.1,1453.4,862.1L1453.4,862.1z"/>
</g>
<g>
	<path class="st9" d="M1368,893.5c-8,0-14.4-6.5-14.4-14.4c0-8,6.5-14.4,14.4-14.4c8,0,14.4,6.5,14.4,14.4S1375.9,893.5,1368,893.5z
		"/>
	<path class="st1" d="M1368,867.1c6.6,0,11.9,5.3,11.9,11.9c0,6.6-5.3,11.9-11.9,11.9s-11.9-5.3-11.9-11.9
		C1356,872.4,1361.4,867.1,1368,867.1 M1368,862.1c-9.3,0-16.9,7.6-16.9,16.9c0,9.3,7.6,16.9,16.9,16.9s16.9-7.6,16.9-16.9
		C1384.9,869.7,1377.3,862.1,1368,862.1L1368,862.1z"/>
</g>
<g>
	<g>
		<path class="st1" d="M1432.9,935.6l-1.3,33.4l-0.3,8.3l-0.1,2.1v1v0.3c0,0.1,0,0.1,0,0.2c0,0.5,0,1,0.2,1.4
			c0.3,0.9,0.9,1.9,1.8,2.5c0.4,0.3,0.9,0.5,1.4,0.7c0.3,0.1,0.5,0.1,0.8,0.2c0,0,0.4,0,0.6,0c0.3,0,0.6,0,0.8,0.1
			c0.6,0,1.1,0.1,1.6,0.2c4.4,0.8,8.4,3.1,11.3,6.3s4.7,7.5,4.9,11.8c0,0.5,0,1.1,0,1.6l-0.1,1.1l-0.1,2.1l-0.3,4.2l-0.6,8.3
			l-2.3,33.4c-0.1,1.9-1.7,3.3-3.6,3.1c-1.7-0.1-3-1.5-3.1-3.1l-2.3-33.4l-0.6-8.3l-0.3-4.2l-0.1-2.1l-0.1-1c0-0.2,0-0.3-0.1-0.5
			c-0.2-1.3-0.9-2.4-1.8-3.2s-2-1.3-3.2-1.3c-0.1,0-0.3,0-0.4,0s-0.1,0-0.2,0s0,0-0.4,0c-1.1,0-2.2-0.1-3.3-0.2
			c-2.2-0.3-4.4-1.1-6.4-2.1c-4-2.1-7.2-5.6-9.1-9.8c-0.9-2.1-1.5-4.4-1.7-6.6c0-0.3,0-0.6-0.1-0.9v-0.7v-1l-0.1-2.1l-0.3-8.3
			l-1.3-33.4c-0.2-5.5,4.1-10.2,9.6-10.4s10.2,4.1,10.4,9.6C1432.9,935.1,1432.9,935.4,1432.9,935.6z"/>
	</g>
	<g>
		<path class="st1" d="M1249,796.2l0.4,15.3l0.2,7.6l0.1,1.9v1v0.5v0.3c0,0.9,0.3,1.7,0.6,2.5c0.3,0.8,0.7,1.5,1.3,2.2
			c0.5,0.6,1.1,1.2,1.9,1.7c1.4,0.9,3,1.3,4.6,1.3l15.3-0.4l30.6-0.8l15.3-0.4c1.9,0,3.8,0.2,5.7,0.7c1.8,0.6,3.6,1.4,5.2,2.4
			c3.2,2.2,5.8,5.3,7.2,8.9c0.7,1.8,1.2,3.8,1.3,5.7c0.1,1.1,0.1,1.6,0.1,2.3l0.1,1.9l0.2,7.6l0.4,15.3l0.4,15.3l0.1,1.9v1v0.5
			c0,0.2,0,0.3,0,0.4c0,0.5,0.2,0.9,0.3,1.3c0.4,0.8,0.9,1.5,1.7,2c0.7,0.5,1.5,0.7,2.4,0.6l7.4-0.2l15.3-0.4l30.6-0.8
			c5.5-0.1,10.1,4.2,10.3,9.7c0.1,5.5-4.2,10.1-9.7,10.3c-0.2,0-0.4,0-0.5,0l-30.6-0.8l-15.3-0.4l-7.9-0.2
			c-4.3-0.2-8.5-1.7-11.8-4.4c-3.4-2.6-5.9-6.2-7.1-10.2c-0.6-2-1-4.1-0.9-6.2c0-0.3,0-0.4,0-0.6V892v-1l0.1-1.9l0.4-15.3l0.4-15.3
			l0.2-7.6l0.1-1.9c0-0.6,0-1.4,0-1.6c0-0.6-0.1-1.2-0.2-1.7c-0.3-1.1-1.1-2.2-2-3c-0.5-0.4-1-0.7-1.6-0.9s-1.2-0.3-1.9-0.4
			l-15.3-0.4l-30.6-0.8l-15.3-0.4c-1.7-0.1-3.5-0.4-5.1-0.9c-1.6-0.6-3.2-1.4-4.6-2.4s-2.6-2.3-3.6-3.6c-1-1.4-1.8-2.9-2.3-4.5
			s-0.8-3.3-0.8-5v-0.6v-0.5v-1l0.1-1.9l0.2-7.6l0.4-15.3c0.1-1.9,1.6-3.3,3.5-3.3C1247.5,792.9,1249,794.4,1249,796.2z"/>
	</g>
	<g>
		<path class="st1" d="M1422.6,895.2l62.4,1.7l15.6,0.4l7.8,0.2l3.8,0.1c0.5,0,1,0,1.5-0.2c2-0.5,3.7-2.5,3.8-4.8l0.4-15.6l0.8-31.2
			l0.4-15.6v-0.6v-0.7c0-0.5,0.1-0.9,0.2-1.4c0.1-0.9,0.4-1.8,0.6-2.7c0.6-1.8,1.4-3.4,2.5-4.9c2.2-3,5.2-5.3,8.7-6.4
			c1.7-0.6,3.5-0.9,5.3-0.9c0.5,0,0.8,0,1.1,0h1l1.9,0.1l7.8,0.2l15.6,0.4l31.2,0.8c1.9,0,3.3,1.6,3.3,3.5c0,1.8-1.5,3.2-3.3,3.3
			l-31.2,0.8l-15.6,0.4l-7.8,0.2l-1.9,0.1h-1c-0.3,0-0.7,0-0.8,0c-0.8,0-1.6,0.3-2.3,0.5c-1.4,0.6-2.7,1.6-3.5,2.9
			c-0.4,0.6-0.7,1.3-0.9,2.1c-0.1,0.4-0.2,0.7-0.2,1.1c0,0.2,0,0.4,0,0.6v0.6l0.4,15.6l0.8,31.2l0.4,15.6c0,2-0.3,4.1-0.8,6
			c-0.6,2-1.5,3.8-2.7,5.5c-2.3,3.4-5.7,6-9.7,7.4c-2,0.7-4,1.1-6.1,1.2l-4,0.1l-7.8,0.2l-15.6,0.4l-62.4,1.7
			c-5.5,0.1-10.1-4.2-10.3-9.7s4.2-10.1,9.7-10.3C1422.2,895.2,1422.4,895.2,1422.6,895.2z"/>
	</g>
	<g>
		<path class="st1" d="M1410.5,916.9l-1.7,48.3l-0.1,3l-0.1,1.5v0.8l-0.1,1.2c-0.2,3.3-1.3,6.6-3,9.3c-3.4,5.6-9.6,9.3-16.1,9.6
			h-1.2h-0.3h-0.2h-0.4l-1.5-0.1l-3-0.1l-6-0.2l-12.1-0.4l-24.1-0.8l-1.5-0.1h-0.4c-0.1,0-0.3,0-0.3,0h-0.4c-0.6,0-1.1,0.1-1.6,0.2
			c-1.1,0.3-2.1,0.8-2.9,1.6s-1.5,1.8-1.9,2.8c-0.2,0.6-0.4,1.1-0.4,1.7l-0.1,0.5v0.8l-0.1,1.5l-0.1,1.5v0.8v0.4v0.5
			c0,0.7-0.1,1.4-0.2,2.1c-0.1,0.3-0.1,0.7-0.2,1l-0.3,1c-0.8,2.7-2.3,5.1-4.2,7.1c-1.9,2-4.3,3.5-6.9,4.3c-1.3,0.4-2.6,0.7-4,0.8
			h-1c-0.3,0-0.7,0-0.9,0l-1.5-0.1l-24.1-0.8c-1.9-0.1-3.3-1.6-3.2-3.5c0.1-1.8,1.5-3.2,3.2-3.2l24.1-0.8l1.5-0.1c0.3,0,0.4,0,0.6,0
			h0.5c0.7-0.1,1.3-0.3,1.9-0.5c1.2-0.5,2.3-1.3,3.1-2.3c0.8-1,1.4-2.1,1.6-3.4l0.1-0.5v-0.5c0.1-0.3,0-0.6,0-0.9v-0.2v-0.4v-0.8
			l-0.1-1.5l-0.1-1.5v-0.8v-1c0-1.4,0.3-2.8,0.6-4.2c0.8-2.8,2.2-5.3,4.2-7.4c2-2.1,4.5-3.7,7.2-4.7c1.4-0.5,2.8-0.8,4.3-0.9
			l1.1-0.1h0.8l1.5-0.1l24.1-0.8l12.1-0.4l6-0.2l3-0.1l1.5-0.1h0.4h0.2h0.1c0.1,0,0.2,0,0.3,0c1.6-0.2,3-1.3,3.6-2.7
			c0.3-0.7,0.4-1.4,0.4-2.1l-0.2-5.6l-1.7-48.3c-0.2-5.5,4.1-10.2,9.7-10.3s10.2,4.1,10.3,9.7
			C1410.5,916.5,1410.5,916.7,1410.5,916.9z"/>
	</g>
	<g>
		<path class="st1" d="M1389.3,906.6l-0.8,29.9l-0.1,3.7v0.9v0.7l-0.1,0.8c0,1.1-0.3,2.1-0.5,3.2c-0.5,2.1-1.3,4.1-2.3,5.9
			c-1.1,1.8-2.4,3.5-3.9,4.9c-3.1,2.9-7,4.8-11.2,5.4c-0.5,0.1-1,0.1-1.6,0.2l-1.6,0.1h-0.4h-0.3h-0.5h-0.9l-3.7-0.1l-59.8-1.7
			l-7.5-0.2l-3.7-0.1h-0.9h-0.5h-0.7l-1.4-0.1l-1.4-0.2c-3.7-0.7-7.1-2.6-9.7-5.2c-1.3-1.3-2.4-2.8-3.2-4.4
			c-0.8-1.6-1.4-3.4-1.8-5.2c-0.3-1.7-0.3-3.9-0.3-4.9l0.1-3.7l0.1-3.7l0.1-1.9c0-0.6,0-1.4,0-1.6c0-0.7-0.1-1.4-0.3-2.1
			c-0.2-0.7-0.5-1.3-0.9-1.9c-0.8-1.2-2-2.2-3.4-2.7c-0.7-0.2-1.4-0.5-2.2-0.5c-0.1,0-0.2,0-0.3,0h-0.5h-0.9l-1.9-0.1l-7.5-0.2
			l-7.5-0.2l-3.7-0.1l-1.9-0.1h-0.9h-0.6c-1.7,0.1-3.3,0.6-4.7,1.7c-0.7,0.5-1.3,1.1-1.8,1.8s-0.9,1.5-1.2,2.3
			c-0.3,0.8-0.4,1.7-0.5,2.6l-0.1,3.7l-0.2,7.5c-0.1,1.9-1.6,3.3-3.5,3.3c-1.8,0-3.2-1.5-3.3-3.3l-0.2-7.5l-0.1-3.7
			c0-1.6,0.2-3.2,0.6-4.8c0.5-1.6,1.1-3.1,2-4.4c0.9-1.4,2-2.6,3.2-3.7c2.5-2.1,5.7-3.5,9-3.8l1.2-0.1h1l1.9-0.1l3.7-0.1l7.5-0.2
			l7.5-0.2l1.9-0.1h0.9h0.5c0.1,0,0.4,0,0.6,0c1.7,0,3.5,0.3,5.1,0.8c3.3,1.1,6.3,3.1,8.5,5.9c1.1,1.4,2,2.9,2.6,4.6
			c0.7,1.7,1,3.4,1.2,5.2c0.1,1,0.1,1.5,0.1,2.1l0.1,1.9l0.1,3.7c0.1,2.4,0.1,5.5,0.3,6.3c0.6,2.6,3,4.6,5.4,4.8c0.2,0,0.3,0,0.5,0
			h0.5c0.1,0,0.1,0,0.3,0h0.5h0.9l3.7-0.1l7.5-0.2l59.8-1.7l3.7-0.1h0.9h0.5c0.1,0,0.2,0,0.2,0h0.1c0.1,0,0.2,0,0.3,0l0.3-0.1
			c0.8-0.2,1.4-0.6,1.9-1.2c0.2-0.3,0.5-0.6,0.6-0.9c0.1-0.3,0.2-0.7,0.3-1c0-0.2,0-0.3,0-0.5v-1.3l-0.1-3.7l-0.8-29.9
			c-0.2-5.5,4.2-10.1,9.7-10.3s10.1,4.2,10.3,9.7C1389.3,906.2,1389.3,906.4,1389.3,906.6z"/>
	</g>
	<g>
		<path class="st1" d="M1374.3,935.5l-45.1-1.7l-11.3-0.4l-5.6-0.2h-0.7h-0.9c-0.8-0.1-1.5-0.1-2.2-0.2c-0.7-0.1-1.5-0.3-2.2-0.5
			s-1.4-0.4-2.1-0.7c-5.6-2.2-9.9-7.1-11.6-12.7c-0.2-0.7-0.4-1.4-0.5-2.1c-0.1-0.7-0.2-1.5-0.3-2.2v-1.1v-0.5v-0.4l0.1-1.4l0.2-5.6
			l0.8-22.5l0.2-5.6l0.1-1.4v-0.7v-0.3v-0.2c0-0.3,0-0.5,0-0.8v-0.4l-0.1-0.4c-0.4-2.1-1.8-4-3.8-5.1c-0.2-0.1-0.5-0.2-0.8-0.4
			c-0.3-0.1-0.5-0.2-0.8-0.3c-0.3,0-0.6-0.1-0.8-0.2c-0.3,0-0.5-0.1-1-0.1l-2.8-0.1h-1.4c-0.3,0-0.6,0-0.9,0
			c-2.4,0.1-4.7,1.4-6.2,3.5c-0.7,1-1.2,2.2-1.4,3.5l-0.1,1l-0.1,1.4l-0.1,2.8l-0.4,11.3c-0.1,1.9-1.6,3.3-3.5,3.2
			c-1.8-0.1-3.2-1.5-3.2-3.2l-0.4-11.3l-0.1-2.8l-0.1-1.4c0-0.6,0-1.2,0-1.8c0.2-2.5,1-4.9,2.2-7.1c2.5-4.4,7.1-7.5,12.2-8.2
			c0.6-0.1,1.3-0.1,1.9-0.2l1.4-0.1l2.8-0.1c0.4,0,1.2,0,1.8,0c0.6,0,1.3,0.1,1.9,0.2c0.6,0.1,1.3,0.3,1.9,0.4
			c0.6,0.2,1.3,0.4,1.9,0.7c4.9,2,8.8,6.3,10.3,11.5l0.3,1l0.2,1c0.1,0.7,0.2,1.3,0.2,2v0.5v0.4v0.7l0.1,1.4l0.2,5.6l0.8,22.5
			l0.2,5.6l0.1,1.4c0,0.1,0,0.3,0,0.3v0.2v0.3c0,0.2,0.1,0.4,0.1,0.6l0.2,0.6c0.6,1.5,2,2.7,3.4,3c0.2,0.1,0.4,0.1,0.5,0.1
			c0.2,0,0.4,0,0.6,0.1c0.2,0,0.4,0,0.6,0h0.2h0.4h0.7l5.6-0.2l11.3-0.4l45.1-1.7c5.5-0.2,10.2,4.1,10.4,9.6
			c0.2,5.5-4.1,10.2-9.6,10.4C1374.8,935.5,1374.6,935.5,1374.3,935.5z"/>
	</g>
	<g>
		<path class="st1" d="M1442.9,919.7l45.4,1.7l11.3,0.4l5.7,0.2l2.8,0.1h0.4h0.6l1.1,0.1c0.8,0.1,1.5,0.2,2.2,0.4
			c5.9,1.3,11.1,5.4,13.6,10.8c1.3,2.7,1.9,5.6,1.9,8.5c0,0.4,0,0.6,0,0.8v0.7l-0.1,1.4l-0.1,2.8l-0.8,22.7v1.4c0,0.3,0,0.5,0,0.8
			c0,0.5,0.1,1,0.3,1.5c0.3,1,0.8,2,1.5,2.7c0.7,0.8,1.6,1.4,2.7,1.8c0.3,0.1,0.5,0.2,0.8,0.3c0.3,0,0.5,0.1,0.8,0.2h0.4
			c0.1,0,0.3,0,0.5,0l1.4,0.1l11.3,0.4l2.8,0.1h0.7h0.3h0.2c0.3,0,0.6,0,0.9,0c1.2-0.1,2.4-0.5,3.5-1.1c2.1-1.3,3.8-3.7,4-6.3
			c0.1-0.5,0.1-1.7,0.1-2.6l0.1-2.8l0.2-5.7c0.1-1.9,1.6-3.3,3.5-3.2c1.8,0.1,3.2,1.5,3.2,3.2l0.2,5.7l0.1,2.8l0.1,1.4
			c0,0.4,0,1.1,0,1.7c-0.1,4.9-2.8,9.8-6.9,12.7c-2,1.5-4.5,2.5-7,2.9c-0.6,0.1-1.3,0.2-1.9,0.2h-0.5h-0.4h-0.7l-2.8,0.1L1535,989
			l-1.4,0.1c-0.2,0-0.6,0-0.9,0h-1c-0.7,0-1.3-0.1-2-0.2c-0.7-0.1-1.3-0.3-2-0.5c-2.6-0.8-5-2.2-7-4s-3.6-4.1-4.6-6.7
			c-0.5-1.3-0.9-2.6-1.1-4c-0.1-0.7-0.1-1.4-0.2-2.1l-0.1-1.5l-0.8-22.7l-0.1-2.8l-0.1-1.4v-0.7c0-0.2,0-0.5,0-0.6
			c-0.1-0.9-0.4-1.7-0.8-2.4c-0.8-1.4-2.4-2.3-3.9-2.5c-0.2,0-0.4,0-0.6,0c-0.1,0-0.2,0-0.3,0h-0.2h-0.4l-2.8,0.1l-5.7,0.2
			l-11.3,0.4l-45.4,1.7c-5.5,0.2-10.2-4.1-10.4-9.6c-0.2-5.5,4.1-10.2,9.6-10.4C1442.4,919.7,1442.6,919.7,1442.9,919.7z"/>
	</g>
	<g>
		<path class="st1" d="M1454.1,921.4l-0.8,19.1l-0.4,9.5v0.6v0.3v0.1c0,0.1,0,0.3,0,0.4c0,0.1,0,0.3,0,0.4c0,0.1,0,0.2,0,0.4
			c0.1,0.5,0.3,1,0.6,1.5c0.6,0.9,1.5,1.6,2.7,1.9c0.1,0.1,0.3,0,0.4,0.1h0.1c0,0,0.2,0,0.3,0h0.6l2.4,0.1l4.8,0.2l9.5,0.4l2.4,0.1
			l1.2,0.1h0.6l0.9,0.1c2.4,0.2,4.9,0.8,7.1,1.9c4.4,2.1,7.9,5.9,9.6,10.4c0.9,2.2,1.3,4.6,1.2,7l-0.2,4.8l-0.8,19.1v0.6v0.4
			c0,0.2,0,0.5,0,0.7s0,0.5,0.1,0.7c0,0.2,0.1,0.5,0.2,0.7c0.3,0.9,0.7,1.9,1.3,2.7c1.2,1.6,3.1,2.8,5.2,3.1c0.3,0,0.5,0.1,0.8,0.1
			l1.2,0.1l2.4,0.1l4.8,0.2l9.5,0.4c1.9,0.1,3.3,1.7,3.2,3.5c-0.1,1.8-1.5,3.1-3.2,3.2l-9.5,0.4l-4.8,0.2l-2.4,0.1l-1.2,0.1h-1.6
			c-4.2-0.3-8.4-2.2-11.3-5.4c-1.5-1.6-2.7-3.5-3.4-5.5c-0.2-0.5-0.4-1-0.5-1.6c-0.2-0.5-0.3-1.1-0.4-1.6s-0.2-1.1-0.2-1.6l-0.1-0.8
			v-0.6l-0.8-19.1l-0.2-4.7c-0.1-0.8-0.3-1.6-0.7-2.3c-0.7-1.4-2-2.5-3.4-3c-0.7-0.2-1.4-0.3-2.2-0.3l-4.5,0.2l-9.5,0.4l-4.8,0.2
			l-2.4,0.1h-0.6c-0.1,0-0.2,0-0.3,0h-0.5c-0.6,0-1.3,0-1.9-0.1c-5.2-0.5-10.2-3-13.6-7c-1.7-2-3.1-4.3-4-6.9
			c-0.2-0.6-0.4-1.3-0.6-1.9c-0.2-0.7-0.3-1.3-0.4-2s-0.1-1.3-0.2-2l-0.1-1.4l-0.4-9.5l-0.8-19.1c-0.2-5.5,4-10.2,9.6-10.4
			s10.2,4,10.4,9.6C1454.1,920.8,1454.1,921.1,1454.1,921.4z"/>
	</g>
</g>
<g>
	<path class="st1" d="M341,400.4c5.3,8.6,14.8,14.4,25.6,14.4c10.9,0,20.4-5.8,25.6-14.4H341z"/>
	<path class="st1" d="M226.6,400.4c5.3,8.6,14.8,14.4,25.6,14.4c10.9,0,20.4-5.8,25.6-14.4H226.6z"/>
	<path class="st1" d="M398.2,400.4c5.3,8.6,14.8,14.4,25.6,14.4c10.9,0,20.4-5.8,25.6-14.4H398.2z"/>
	<path class="st1" d="M169.4,400.4c5.3,8.6,14.8,14.4,25.6,14.4c10.9,0,20.4-5.8,25.6-14.4H169.4z"/>
	<path class="st1" d="M283.8,400.4c5.3,8.6,14.8,14.4,25.6,14.4c10.9,0,20.4-5.8,25.6-14.4H283.8z"/>
</g>
<g>
	<path class="st1" d="M409,381.7c3.3,5.4,9.2,9,15.9,9c6.7,0,12.7-3.6,15.9-9H409z"/>
	<path class="st1" d="M337.9,381.7c3.3,5.4,9.2,9,15.9,9c6.7,0,12.7-3.6,15.9-9H337.9z"/>
	<path class="st1" d="M302.4,381.7c3.3,5.4,9.2,9,15.9,9c6.7,0,12.7-3.6,15.9-9H302.4z"/>
	<path class="st1" d="M373.5,381.7c3.3,5.4,9.2,9,15.9,9c6.7,0,12.7-3.6,15.9-9H373.5z"/>
</g>
<g>
	<path class="st10" d="M386.4,639.8c1.9,3.2,5.4,5.3,9.4,5.3s7.5-2.1,9.4-5.3H386.4z"/>
	<path class="st10" d="M365.4,639.8c1.9,3.2,5.4,5.3,9.4,5.3s7.5-2.1,9.4-5.3H365.4z"/>
</g>
<g>
	<path class="st10" d="M388.3,620c1.9,3.2,5.4,5.3,9.4,5.3s7.5-2.1,9.4-5.3H388.3z"/>
</g>
<g>
	<path class="st10" d="M320.5,647.3c1.9,3.2,5.4,5.3,9.4,5.3s7.5-2.1,9.4-5.3H320.5z"/>
</g>
<g>
	<path class="st10" d="M216.6,647.8c1.9,3.2,5.4,5.3,9.4,5.3s7.5-2.1,9.4-5.3H216.6z"/>
</g>
<g>
	<path class="st10" d="M161.5,642.5c1.9,3.2,5.4,5.3,9.4,5.3s7.5-2.1,9.4-5.3H161.5z"/>
</g>
<rect x="221" y="228.5" class="st11" width="31.9" height="25.9"/>
<rect x="221" y="246.3" class="st10" width="31.9" height="8.1"/>
<polygon class="st9" points="252.5,224.8 221.5,224.8 237,209.3 "/>
<polygon class="st11" points="253.5,254.5 220.5,254.5 218.3,285.2 255.6,285.2 "/>
<polygon class="st12" points="218.3,285.2 215.9,320.9 258.1,320.9 255.6,285.2 "/>
<path class="st9" d="M238.8,273.7h-5.3v-9.1c0-1.5,1.2-2.7,2.7-2.7l0,0c1.5,0,2.7,1.2,2.7,2.7L238.8,273.7L238.8,273.7z"/>
<path class="st9" d="M238.8,307.7h-5.3v-9.1c0-1.5,1.2-2.7,2.7-2.7l0,0c1.5,0,2.7,1.2,2.7,2.7L238.8,307.7L238.8,307.7z"/>
<polygon class="st11" points="258.1,320.9 215.9,320.9 212.7,366.2 261.2,366.2 "/>
<polygon class="st12" points="262,377.4 261.2,366.2 212.7,366.2 211.9,377.4 "/>
<line class="st13" x1="236.8" y1="210.7" x2="236.8" y2="198.1"/>
<path class="st11" d="M447.4,348c-3.3-5.3-9.2-8.8-15.9-8.8c-0.2,0-0.3,0-0.5,0c-4.9,0.1-9.2-2.9-11-7.4
	c-4.8-12.4-16.8-21.1-30.9-21.1c-10.6,0-20.1,5-26.1,12.8c-3.1,3.9-8.4,5.3-13.1,3.6c-2.8-1.1-5.8-1.6-9-1.6
	c-8.5,0-16.1,4.1-20.8,10.5c-2.9,3.9-7.8,5.7-12.4,4.2c-1.8-0.6-3.7-0.9-5.7-0.9c-6.7,0-12.6,3.5-15.9,8.8h161.3V348z"/>
<circle class="st11" cx="310.2" cy="290.4" r="20"/>
<circle class="st11" cx="1415.6" cy="598.4" r="8.3"/>
<path class="st9" d="M236.1,350.7L236.1,350.7c2.5,0,4.5,2,4.5,4.5v21.9h-9v-21.9C231.6,352.7,233.7,350.7,236.1,350.7z"/>
<polygon class="st1" points="300.1,390.9 279.5,372.1 210.4,377.3 198.5,372.1 175.7,390.9 "/>
<path class="st9" d="M238.8,340.3h-5.3v-9.1c0-1.5,1.2-2.7,2.7-2.7l0,0c1.5,0,2.7,1.2,2.7,2.7L238.8,340.3L238.8,340.3z"/>
<linearGradient id="SVGID_1_" gradientUnits="userSpaceOnUse" x1="265" y1="897.3" x2="447.7" y2="897.3" gradientTransform="matrix(1 0 0 -1 0 1136)">
	<stop  offset="0" style="stop-color:#FFFFFF;stop-opacity:0.2"/>
	<stop  offset="1" style="stop-color:#FFFFFF;stop-opacity:0"/>
</linearGradient>
<polygon class="st14" points="447.7,220.2 265,230.2 265,247.2 447.7,257.2 "/>
<linearGradient id="SVGID_2_" gradientUnits="userSpaceOnUse" x1="167.2" y1="897.3" x2="208.6" y2="897.3" gradientTransform="matrix(1 0 0 -1 0 1136)">
	<stop  offset="0" style="stop-color:#FFFFFF;stop-opacity:0"/>
	<stop  offset="1" style="stop-color:#FFFFFF;stop-opacity:0.2"/>
</linearGradient>
<polygon class="st15" points="167.2,227.9 167.2,249.5 208.6,247.2 208.6,230.2 "/>
<g>
	<polyline class="st16" points="237.3,247.1 242.4,228.4 247.6,247.1 	"/>
	<line class="st16" x1="247.6" y1="247.1" x2="252.7" y2="228.4"/>
	<polyline class="st16" points="227,247.1 232.1,228.4 237.2,247.1 	"/>
	<line class="st16" x1="221.8" y1="228.4" x2="226.9" y2="247.1"/>
</g>
<g>
	<rect x="215.6" y="250.2" class="st9" width="42.8" height="4.8"/>
	<rect x="215.7" y="239.4" class="st13" width="42.6" height="15.1"/>
	<g>
		<line class="st13" x1="244" y1="254.5" x2="244" y2="239.4"/>
		<line class="st13" x1="236.9" y1="254.5" x2="236.9" y2="239.4"/>
		<line class="st13" x1="222.7" y1="254.5" x2="222.7" y2="239.4"/>
		<line class="st13" x1="229.8" y1="254.5" x2="229.8" y2="239.4"/>
		<line class="st13" x1="251.1" y1="254.5" x2="251.1" y2="239.4"/>
	</g>
</g>
<rect x="216" y="223.5" class="st9" width="42" height="5"/>
<path class="st11" d="M1462.4,879l-0.8,0.8c-3.1,3.1-8.2,3.1-11.3,0l-0.8-0.8l0.8-0.8c3.1-3.1,8.2-3.1,11.3,0L1462.4,879z"/>
<path class="st11" d="M1371.4,879l-0.8,0.8c-3.1,3.1-8.2,3.1-11.3,0l-0.8-0.8l0.8-0.8c3.1-3.1,8.2-3.1,11.3,0L1371.4,879z"/>
<circle class="st11" cx="1468.7" cy="742" r="10"/>
<circle class="st11" cx="1488.1" cy="757.8" r="5"/>
<circle class="st11" cx="1374.4" cy="1016.4" r="5"/>
<circle class="st11" cx="1325.8" cy="784.7" r="7"/>
<circle class="st11" cx="1336.2" cy="764.4" r="4.2"/>
<circle class="st11" cx="1391.2" cy="1007.5" r="3"/>
<g>
	<g id="Rectangle_2_copy_5">
		<g>
			<rect x="82.7" y="953" class="st17" width="309" height="182"/>
		</g>
	</g>
	<circle class="st18" cx="356.7" cy="1026.4" r="7"/>
	<circle class="st18" cx="267" cy="1118.6" r="7"/>
	<circle class="st18" cx="371.7" cy="1009.5" r="5"/>
	<circle class="st18" cx="204.3" cy="1125.3" r="5"/>
	<circle class="st18" cx="110.1" cy="981.3" r="3"/>
	<circle class="st18" cx="129.1" cy="999.6" r="8.5"/>
	<g>
		<path class="st19" d="M235.9,1123.6v-33.8c0-3.8,3.1-6.9,6.9-6.9h44.7c3.8,0,6.9-3.1,6.9-6.9v-58.6c0-3.8,3.1-6.9,6.9-6.9h28
			c3.8,0,6.9-3.1,6.9-6.9v-22.3"/>
		<path class="st19" d="M294.1,1052.9h-21.5c-3.8,0-6.9-3.1-6.9-6.9v-12.2"/>
		<path class="st19" d="M234.6,1101.8h-23.4c-3.8,0-6.9-3.1-6.9-6.9V1042c0-3.8-3.1-6.9-6.9-6.9H173c-3.8,0-6.9-3.1-6.9-6.9V981"/>
		<path class="st19" d="M295.4,1071.4h23.4c3.8,0,6.9-3.1,6.9-6.9v-22.1"/>
		<path class="st19" d="M201.6,1069.4H120c-3.8,0-6.9-3.1-6.9-6.9v-6.9"/>
		<path class="st19" d="M142.8,1068.1v-10.2c0-3.8-3.1-6.9-6.9-6.9l0,0c-3.8,0-6.9-3.1-6.9-6.9v-7.6"/>
		<path class="st19" d="M165.9,1006.1h6.3c3.8,0,6.9-3.1,6.9-6.9v-7.3"/>
		<path class="st19" d="M336.3,994.8h-2.9c-3.8,0-6.9-3.1-6.9-6.9v-3.6"/>
		<path class="st19" d="M325.9,1060.2h2.9c3.8,0,6.9-3.1,6.9-6.9v-3.6"/>
	</g>
	<g>
		<path class="st1" d="M278.5,1016.5L278.5,1016.5l-16.1-16.1l16.1-16.1l0,0C287.4,993.2,287.4,1007.6,278.5,1016.5z"/>
		<path class="st1" d="M256.8,994.4c-5.4-5.4-12.2-8.8-19.2-10v-10.1l0,0c-5.8,0-10.6,4.3-11.3,10c-7.4,1.1-14.5,4.4-20.2,10.1l-6,6
			l6,6c14,14,36.7,14,50.7,0l6-6L256.8,994.4z"/>
		<path class="st18" d="M226.1,989.5c1.9,0,3.5,1.5,3.5,3.5s-1.5,3.5-3.5,3.5"/>
		<path class="st18" d="M226.1,997.6c1.9,0,3.5,1.5,3.5,3.5c0,1.9-1.5,3.5-3.5,3.5"/>
		<path class="st18" d="M226.1,1005.8c1.9,0,3.5,1.5,3.5,3.5c0,1.9-1.5,3.5-3.5,3.5"/>
		<path class="st18" d="M237.8,989.5c1.9,0,3.5,1.5,3.5,3.5s-1.5,3.5-3.5,3.5"/>
		<path class="st18" d="M237.8,997.6c1.9,0,3.5,1.5,3.5,3.5c0,1.9-1.5,3.5-3.5,3.5"/>
		<path class="st18" d="M237.8,1005.8c1.9,0,3.5,1.5,3.5,3.5c0,1.9-1.5,3.5-3.5,3.5"/>
		<path class="st18" d="M232,993.8c1.9,0,3.5,1.5,3.5,3.5c0,1.9-1.5,3.5-3.5,3.5"/>
		<path class="st18" d="M232,1001.9c1.9,0,3.5,1.5,3.5,3.5c0,1.9-1.5,3.5-3.5,3.5"/>
		<circle class="st20" cx="211.6" cy="1001.2" r="3.4"/>
		<g>
			<polygon class="st18" points="284.5,1005.1 272.3,1002.5 284.8,1002.1 			"/>
		</g>
		<g>
			<polygon class="st18" points="281.8,1012.1 274.8,1006.8 283.2,1009.4 			"/>
		</g>
		<g>
			<polygon class="st18" points="284.8,999 272.3,998.7 284.5,996 			"/>
		</g>
		<g>
			<polygon class="st18" points="283.3,991.2 274.8,994.1 281.9,988.6 			"/>
		</g>
	</g>
	<g>
		<path class="st18" d="M118,1120.1l1.4,1.4l11.4-11.4l-11.4-11.4l-1.4,1.4C112.5,1105.7,112.5,1114.6,118,1120.1z"/>
		<path class="st18" d="M134.6,1105.9c3.8-3.8,8.6-6.2,13.6-7v-7.1l0,0c4.1,0,7.5,3.1,8,7c5.2,0.8,10.2,3.1,14.2,7.1l4.2,4.2
			l-4.2,4.2c-9.9,9.9-25.9,9.9-35.8,0l-4.2-4.2L134.6,1105.9z"/>
		<path class="st1" d="M156.4,1102.4c-1.3,0-2.4,1.1-2.4,2.4s1.1,2.4,2.4,2.4"/>
		<path class="st1" d="M156.4,1108.2c-1.3,0-2.4,1.1-2.4,2.4s1.1,2.4,2.4,2.4"/>
		<path class="st1" d="M156.4,1113.9c-1.3,0-2.4,1.1-2.4,2.4s1.1,2.4,2.4,2.4"/>
		<path class="st1" d="M148.1,1102.4c-1.3,0-2.4,1.1-2.4,2.4s1.1,2.4,2.4,2.4"/>
		<path class="st1" d="M148.1,1108.2c-1.3,0-2.4,1.1-2.4,2.4s1.1,2.4,2.4,2.4"/>
		<path class="st1" d="M148.1,1113.9c-1.3,0-2.4,1.1-2.4,2.4s1.1,2.4,2.4,2.4"/>
		<path class="st1" d="M152.2,1105.4c-1.3,0-2.4,1.1-2.4,2.4s1.1,2.4,2.4,2.4"/>
		<path class="st1" d="M152.2,1111.2c-1.3,0-2.4,1.1-2.4,2.4s1.1,2.4,2.4,2.4"/>
		<circle class="st20" cx="166.6" cy="1110.7" r="2.4"/>
		<g>
			<polygon class="st1" points="114.9,1110.9 123.7,1111.6 115.1,1113.9 			"/>
		</g>
		<g>
			<polygon class="st1" points="115.8,1116.1 122,1114.6 117.2,1118.8 			"/>
		</g>
		<g>
			<polygon class="st1" points="115.1,1106.6 123.7,1108.9 114.9,1109.6 			"/>
		</g>
		<g>
			<polygon class="st1" points="117.2,1101.4 122,1105.7 115.7,1104 			"/>
		</g>
	</g>
	<g>
		<path class="st18" d="M98.7,1026.6L98.7,1026.6c-2-2-2-5.1,0-7.1l0,0c1.5-1.5,3.7-1.9,5.6-1l9.9,4.6l-9.9,4.6
			C102.5,1028.5,100.2,1028.1,98.7,1026.6z"/>
		<circle class="st9" cx="100.2" cy="1023.1" r="1.4"/>
		<path class="st11" d="M118,1027.1L118,1027.1l-4.1-4.1l4.1-4.1l0,0C120.3,1021.3,120.3,1024.9,118,1027.1z"/>
	</g>
	<g>
		<ellipse class="st18" cx="306.4" cy="1108.5" rx="25.3" ry="5.6"/>
		<path class="st1" d="M343.2,1108.5c7.8-3.6,16.4-6,25.4-6.7c-1.9-0.2-3.9-0.2-5.9-0.2c-11.2,0-21.8,2.5-31.3,6.9
			c9.5,4.4,20.1,6.9,31.3,6.9c2,0,3.9-0.1,5.9-0.2C359.6,1114.4,351,1112.1,343.2,1108.5z"/>
		<g>
			<path class="st9" d="M297.7,1107.9c1.4-0.1,2.8-0.5,4.1-1.1c-1.3-0.6-2.6-1-4.1-1.1V1107.9z"/>
			<path class="st9" d="M297.7,1111.2c1.4-0.1,2.8-0.5,4.1-1.1c-1.3-0.6-2.6-1-4.1-1.1V1111.2z"/>
			<path class="st9" d="M309.3,1107.9c1.4-0.1,2.8-0.5,4.1-1.1c-1.3-0.6-2.6-1-4.1-1.1V1107.9z"/>
			<path class="st9" d="M309.3,1111.2c1.4-0.1,2.8-0.5,4.1-1.1c-1.3-0.6-2.6-1-4.1-1.1V1111.2z"/>
			<path class="st9" d="M303.6,1106.2c1.4-0.1,2.8-0.5,4.1-1.1c-1.3-0.6-2.6-1-4.1-1.1V1106.2z"/>
			<path class="st9" d="M303.6,1109.5c1.4-0.1,2.8-0.5,4.1-1.1c-1.3-0.6-2.6-1-4.1-1.1V1109.5z"/>
			<path class="st9" d="M303.6,1113c1.4-0.1,2.8-0.5,4.1-1.1c-1.3-0.6-2.6-1-4.1-1.1V1113z"/>
		</g>
		<circle class="st21" cx="288.1" cy="1108.4" r="1.2"/>
	</g>
</g>
<g>
	<path class="st9" d="M116.9,566.6h262.7l-0.2-0.1c-22-11.5-46.2-17.5-70.7-17.5H134.5C124.7,549,116.9,556.9,116.9,566.6
		L116.9,566.6z"/>
	<path class="st11" d="M181.6,630.2h75c49.6,0,96.1-24.2,124.5-64.7l0,0H116.9l0,0C116.9,601.2,145.8,630.2,181.6,630.2z"/>
	<path class="st13" d="M342.2,582.5c-20.3,16.6-45.1,27.1-71.5,29.9"/>
	<path class="st13" d="M363.5,574c-27,30.1-65.9,47.7-106.9,47.7"/>
	<path class="st9" d="M339.1,565.4h-22c-18.5,0-35.7,9.4-45.6,25l0,0c-10,15.6-27.2,25-45.6,25H166c-27.2,0-49.2-22-49.2-49.2l0,0
		c0-8.6,7-15.6,15.6-15.6h187.9L339.1,565.4z"/>
	<path class="st9" d="M179.2,657.1l12-4.9c30.4-12.4,57-32.7,76.9-58.8l0,0L242.6,574L179.2,657.1z"/>
	<circle class="st12" cx="280.6" cy="565.3" r="5.2"/>
	<circle class="st11" cx="280.6" cy="565.3" r="1.5"/>
</g>
<g>
	<g>
		<line class="st22" x1="285.5" y1="540.3" x2="285.5" y2="538.8"/>
		<path class="st23" d="M285.5,529.4v-33.7c0-9.1-7.4-16.6-16.6-16.6h-3.6c-7,0-13,4.3-15.4,10.5"/>
		<path class="st22" d="M248.9,494.2c0,0.5-0.1,1-0.1,1.5"/>
	</g>
</g>
<g>
	<g>
		<line class="st22" x1="298.1" y1="541.8" x2="298.1" y2="540.3"/>
		<path class="st24" d="M298.1,532.1v-25.3c0-5.1,4.1-9.2,9.2-9.2h2c3.1,0,5.9,1.6,7.6,4"/>
		<path class="st22" d="M318.5,505.3c0.1,0.5,0.1,1,0.1,1.5"/>
	</g>
</g>
<g>
	<g>
		<line class="st22" x1="293.5" y1="492.5" x2="293.5" y2="491"/>
		<path class="st25" d="M293.5,482.1v-17.8c0-5.1,4.1-9.2,9.2-9.2h2c3,0,5.7,1.5,7.4,3.7"/>
		<path class="st22" d="M313.8,462.8c0.1,0.5,0.1,1,0.1,1.5"/>
	</g>
</g>
<g>
	<circle class="st9" cx="416.1" cy="776.8" r="9.8"/>
	<circle class="st9" cx="344.1" cy="777.5" r="9.8"/>
	<circle class="st9" cx="335.5" cy="717.7" r="9.8"/>
	<path class="st26" d="M415.3,779.8L415.3,779.8c0,10.7-8.7,19.4-19.4,19.4h-8.4c-10.7,0-19.4,8.7-19.4,19.4v21.1"/>
	<path class="st26" d="M368.1,831.1v-60.3c0-8.8-7.1-15.9-15.9-15.9l0,0c-8.8,0-15.9-7.1-15.9-15.9v-19.4"/>
	<path class="st26" d="M367.7,796.1h-6.3c-9.3,0-16.8-7.5-16.8-16.8l0,0"/>
</g>
<g>
	<path class="st9" d="M1272.7,1088.8l-43.8,29.9l-43.5-29.9c-11-7.6-12.5-23.3-3-32.8l46.7-46.7l46.7,46.7
		C1285.2,1065.5,1283.7,1081.3,1272.7,1088.8z"/>
	<path class="st18" d="M1235.4,1006.6c-1.8-0.1-3.6-0.2-5.5-0.2c-1.8,0-3.7,0.1-5.5,0.2c-6.8,0.4-11.7,6.6-10.4,13.3v0.1l8.7,43
		l7.1,46l7.1-46l8.7-43v-0.1C1247.1,1013.2,1242.1,1007,1235.4,1006.6z"/>
	<path class="st18" d="M1271.5,1025.9c-1.4-0.7-2.9-1.3-4.4-1.9s-3-1.1-4.5-1.6c-5.6-1.9-11.6,1.6-12.8,7.3v0.1l-7,37.6l-7.3,35.1
		l18.8-30.5l21.1-32c0,0,0-0.1,0.1-0.1C1278.8,1035.1,1276.8,1028.5,1271.5,1025.9z"/>
	<path class="st18" d="M1293.9,1056.8c-0.8-0.9-1.7-1.9-2.6-2.8s-1.8-1.8-2.7-2.6c-3.5-3.2-9-2.6-11.7,1.2c0,0,0,0.1-0.1,0.1
		l-17.2,25.1l-16.9,22.5l23.8-15.4l25.7-16.4c0,0,0.1,0,0.1-0.1C1296.2,1065.9,1296.9,1060.4,1293.9,1056.8z"/>
	<path class="st18" d="M1284.5,1090.4c-0.2-0.6-0.4-1.1-0.6-1.7s-0.4-1.1-0.7-1.6c-0.9-2-3.4-2.7-5.2-1.6l0,0l-11.9,7.7l-9.8,6.3
		l11.4-2l14-2.4l0,0C1283.9,1094.7,1285.2,1092.5,1284.5,1090.4z"/>
	<path class="st18" d="M1175.5,1085.9c-0.3,0.5-0.5,1-0.8,1.6c-0.2,0.5-0.5,1.1-0.7,1.6c-0.7,2.1,0.4,4.3,2.6,4.8l0,0l13.9,3
		l11.4,2.5l-9.5-6.7l-11.6-8.1l0,0C1179,1083.3,1176.5,1084,1175.5,1085.9z"/>
	<path class="st18" d="M1187.4,1025.9c1.4-0.7,2.9-1.3,4.4-1.9s3-1.1,4.5-1.6c5.6-1.9,11.6,1.6,12.8,7.3v0.1l7,37.6l7.4,34.5
		l-18.9-29.8l-21.1-32c0,0,0-0.1-0.1-0.1C1180.1,1035.1,1182.1,1028.5,1187.4,1025.9z"/>
	<path class="st18" d="M1165.1,1056.8c0.8-0.9,1.7-1.9,2.6-2.8s1.8-1.8,2.7-2.6c3.5-3.2,9-2.6,11.7,1.2c0,0,0,0.1,0.1,0.1l17.2,25.1
		l15.1,22.2l-22-15.1l-25.7-16.4c0,0-0.1,0-0.1-0.1C1162.7,1065.9,1162,1060.4,1165.1,1056.8z"/>
</g>
<g>
	<path class="st9" d="M596.5,846.7l6.5,37.7c1.1,6.2,6.5,10.6,12.8,10.5l39.1-0.9c5.2-0.1,6.6,7.1,1.8,9l-30,11.5
		c-7.2,2.8-10.3,11.3-6.5,18.1l16.5,29.1c2.6,4.5-3.1,9.2-7.1,5.8l-29.4-25.3c-4.8-4.1-11.8-4.1-16.6,0l-31.4,27.2
		c-4,3.4-9.7-1.3-7-5.8l18.1-30.9c4-6.7,0.9-15.4-6.4-18.2L527.2,903c-4.9-1.9-3.4-9.1,1.8-9l39,1c6.3,0.1,11.7-4.3,12.8-10.5
		l6.5-37.7C588.2,841.6,595.6,841.6,596.5,846.7z"/>
	<g>
		<path class="st18" d="M591.5,868.2h1.4l0,0c0.6,0,1.1,0.5,1.1,1.1v0.4c0,0.6-0.5,1.1-1.1,1.1l0,0v0.6c0,0.6-0.5,1.1-1.1,1.1h-0.1
			c-0.6,0-1.1-0.5-1.1-1.1V869C590.7,868.6,591,868.2,591.5,868.2L591.5,868.2z"/>
		<path class="st18" d="M593.2,888.6h-1.4l0,0c-0.6,0-1.1-0.5-1.1-1.1v-0.4c0-0.6,0.5-1.1,1.1-1.1l0,0v-0.6c0-0.6,0.5-1.1,1.1-1.1
			h0.1c0.6,0,1.1,0.5,1.1,1.1v2.3C594,888.2,593.7,888.6,593.2,888.6L593.2,888.6z"/>
		<path class="st18" d="M592.9,860.1v3.9c0,0.4-0.3,0.7-0.7,0.7h-0.4c-0.4,0-0.7-0.3-0.7-0.7l0,0c0-0.4-0.3-0.7-0.7-0.7h-0.1
			c-0.4,0-0.7-0.3-0.7-0.7v-0.2c0-0.4,0.3-0.7,0.7-0.7h0.1c0.4,0,0.7-0.3,0.7-0.7v-1c0-0.4,0.3-0.7,0.7-0.7h0.4
			C592.6,859.4,592.9,859.7,592.9,860.1z"/>
		<path class="st18" d="M590.8,880.5v-3.9c0-0.4,0.3-0.7,0.7-0.7h0.4c0.4,0,0.7,0.3,0.7,0.7l0,0c0,0.4,0.3,0.7,0.7,0.7h0.1
			c0.4,0,0.7,0.3,0.7,0.7v0.2c0,0.4-0.3,0.7-0.7,0.7h-0.1c-0.4,0-0.7,0.3-0.7,0.7v1c0,0.4-0.3,0.7-0.7,0.7h-0.4
			C591.1,881.2,590.8,880.9,590.8,880.5z"/>
	</g>
	<g>
		<path class="st18" d="M631.9,903.3l0.3,1.4l0,0c0.1,0.6-0.3,1.2-0.9,1.3l-0.4,0.1c-0.6,0.1-1.2-0.3-1.3-0.9l0,0l-0.6,0.1
			c-0.6,0.1-1.2-0.3-1.3-0.9v-0.1c-0.1-0.6,0.3-1.2,0.9-1.3l2.3-0.4C631.4,902.5,631.8,902.8,631.9,903.3L631.9,903.3z"/>
		<path class="st18" d="M612.1,908.5l-0.3-1.4l0,0c-0.1-0.6,0.3-1.2,0.9-1.3l0.4-0.1c0.6-0.1,1.2,0.3,1.3,0.9l0,0l0.6-0.1
			c0.6-0.1,1.2,0.3,1.3,0.9v0.1c0.1,0.6-0.3,1.2-0.9,1.3l-2.3,0.4C612.6,909.2,612.2,908.9,612.1,908.5L612.1,908.5z"/>
		<path class="st18" d="M640.1,903.2l-3.8,0.7c-0.4,0.1-0.7-0.2-0.8-0.5l-0.1-0.4c-0.1-0.4,0.2-0.7,0.5-0.8l0,0
			c0.4-0.1,0.6-0.4,0.5-0.8v-0.1c-0.1-0.4,0.2-0.7,0.5-0.8h0.2c0.4-0.1,0.7,0.2,0.8,0.5v0.1c0.1,0.4,0.4,0.6,0.8,0.5l1-0.2
			c0.4-0.1,0.7,0.2,0.8,0.5l0.1,0.4C640.7,902.8,640.5,903.2,640.1,903.2z"/>
		<path class="st18" d="M619.6,904.7l3.8-0.7c0.4-0.1,0.7,0.2,0.8,0.5l0.1,0.4c0.1,0.4-0.2,0.7-0.5,0.8l0,0
			c-0.4,0.1-0.6,0.4-0.5,0.8v0.1c0.1,0.4-0.2,0.7-0.5,0.8h-0.2c-0.4,0.1-0.7-0.2-0.8-0.5v-0.1c-0.1-0.4-0.4-0.6-0.8-0.5l-1,0.2
			c-0.4,0.1-0.7-0.2-0.8-0.5l-0.1-0.4C619,905.1,619.3,904.8,619.6,904.7z"/>
	</g>
	<g>
		<path class="st18" d="M568,941.2l1.1,0.9l0,0c0.5,0.4,0.5,1.1,0.2,1.5l-0.2,0.3c-0.4,0.5-1.1,0.5-1.5,0.2l0,0l-0.4,0.5
			c-0.4,0.5-1.1,0.5-1.5,0.2l-0.1-0.1c-0.5-0.4-0.5-1.1-0.2-1.5l1.4-1.8C567.1,941,567.7,940.9,568,941.2L568,941.2z"/>
		<path class="st18" d="M556.7,958.2l-1.1-0.9l0,0c-0.5-0.4-0.5-1.1-0.2-1.5l0.2-0.3c0.4-0.5,1.1-0.5,1.5-0.2l0,0l0.4-0.5
			c0.4-0.5,1.1-0.5,1.5-0.2l0.1,0.1c0.5,0.4,0.5,1.1,0.2,1.5l-1.4,1.8C557.6,958.4,557,958.5,556.7,958.2L556.7,958.2z"/>
		<path class="st18" d="M574.2,935.7l-2.4,3c-0.2,0.3-0.6,0.3-0.9,0.1l-0.4-0.3c-0.3-0.2-0.3-0.6-0.1-0.9l0,0
			c0.2-0.3,0.2-0.7-0.1-0.9l-0.1-0.1c-0.3-0.2-0.3-0.6-0.1-0.9l0.2-0.2c0.2-0.3,0.6-0.3,0.9-0.1l0.1,0.1c0.3,0.2,0.7,0.2,0.9-0.1
			l0.6-0.8c0.2-0.3,0.6-0.3,0.9-0.1l0.4,0.3C574.4,935,574.4,935.4,574.2,935.7z"/>
		<path class="st18" d="M559.8,950.4l2.4-3c0.2-0.3,0.6-0.3,0.9-0.1l0.4,0.3c0.3,0.2,0.3,0.6,0.1,0.9l0,0c-0.2,0.3-0.2,0.7,0.1,0.9
			l0.1,0.1c0.3,0.2,0.3,0.6,0.1,0.9l-0.2,0.2c-0.2,0.3-0.6,0.3-0.9,0.1l-0.1-0.1c-0.3-0.2-0.7-0.2-0.9,0.1l-0.6,0.8
			c-0.2,0.3-0.6,0.3-0.9,0.1l-0.4-0.3C559.6,951.1,559.6,950.7,559.8,950.4z"/>
	</g>
	<g>
		<path class="st18" d="M620.2,948l-1.1,1l0,0c-0.4,0.4-1.1,0.4-1.5-0.1l-0.2-0.3c-0.4-0.4-0.4-1.1,0.1-1.5l0,0l-0.4-0.4
			c-0.4-0.4-0.4-1.1,0.1-1.5l0.1-0.1c0.4-0.4,1.1-0.4,1.5,0.1l1.5,1.7C620.6,947.1,620.6,947.7,620.2,948L620.2,948z"/>
		<path class="st18" d="M605.3,934l1.1-1l0,0c0.4-0.4,1.1-0.4,1.5,0.1l0.2,0.3c0.4,0.4,0.4,1.1-0.1,1.5l0,0l0.4,0.4
			c0.4,0.4,0.4,1.1-0.1,1.5l-0.1,0.1c-0.4,0.4-1.1,0.4-1.5-0.1l-1.5-1.7C605,934.8,605,934.3,605.3,934L605.3,934z"/>
		<path class="st18" d="M624.6,955l-2.6-2.9c-0.2-0.3-0.2-0.7,0-0.9l0.3-0.3c0.3-0.2,0.7-0.2,0.9,0l0,0c0.2,0.3,0.7,0.3,0.9,0.1
			l0.1-0.1c0.3-0.2,0.7-0.2,0.9,0l0.2,0.2c0.2,0.3,0.2,0.7,0,0.9l-0.1,0.1c-0.3,0.2-0.3,0.7,0,0.9l0.7,0.8c0.2,0.3,0.2,0.7,0,0.9
			l-0.3,0.3C625.3,955.3,624.9,955.2,624.6,955z"/>
		<path class="st18" d="M612.5,938.3l2.6,2.9c0.2,0.3,0.2,0.7-0.1,0.9l-0.3,0.3c-0.3,0.2-0.7,0.2-0.9,0l0,0c-0.2-0.3-0.7-0.3-0.9,0
			l-0.1,0.1c-0.3,0.2-0.7,0.2-0.9,0l-0.2-0.2c-0.2-0.3-0.2-0.7,0-0.9l0.1-0.1c0.3-0.2,0.3-0.7,0-0.9l-0.7-0.8
			c-0.2-0.3-0.2-0.7,0-0.9l0.3-0.3C611.9,938,612.3,938.1,612.5,938.3z"/>
	</g>
	<g>
		<path class="st18" d="M558.2,904.6l-0.4,1.4l0,0c-0.2,0.6-0.8,0.9-1.3,0.8l-0.3-0.1c-0.6-0.2-0.9-0.8-0.8-1.3l0,0l-0.6-0.2
			c-0.6-0.2-0.9-0.8-0.8-1.3v-0.1c0.2-0.6,0.8-0.9,1.3-0.8l2.2,0.6C558.1,903.7,558.4,904.2,558.2,904.6L558.2,904.6z"/>
		<path class="st18" d="M538.1,900.9l0.4-1.4l0,0c0.2-0.6,0.8-0.9,1.3-0.8l0.3,0.1c0.6,0.2,0.9,0.8,0.8,1.3l0,0l0.6,0.2
			c0.6,0.2,0.9,0.8,0.8,1.3v0.1c-0.2,0.6-0.8,0.9-1.3,0.8l-2.2-0.6C538.3,901.8,538,901.4,538.1,900.9L538.1,900.9z"/>
		<path class="st18" d="M565.7,908.1l-3.7-1c-0.3-0.1-0.6-0.5-0.5-0.8l0.1-0.4c0.1-0.3,0.5-0.6,0.8-0.5l0,0c0.3,0.1,0.7-0.1,0.8-0.5
			v-0.1c0.1-0.3,0.5-0.6,0.8-0.5l0.2,0.1c0.3,0.1,0.6,0.5,0.5,0.8v0.1c-0.1,0.3,0.1,0.7,0.5,0.8l1,0.3c0.3,0.1,0.6,0.5,0.5,0.8
			l-0.1,0.4C566.4,908,566.1,908.2,565.7,908.1z"/>
		<path class="st18" d="M546.5,900.7l3.7,1c0.3,0.1,0.6,0.5,0.5,0.8l-0.1,0.4c-0.1,0.3-0.5,0.6-0.8,0.5l0,0
			c-0.3-0.1-0.7,0.1-0.8,0.5v0.1c-0.1,0.3-0.5,0.6-0.8,0.5l-0.2-0.1c-0.3-0.1-0.6-0.5-0.5-0.8v-0.1c0.1-0.3-0.1-0.7-0.5-0.8l-1-0.3
			c-0.3-0.1-0.6-0.5-0.5-0.8l0.1-0.4C545.8,900.8,546.2,900.6,546.5,900.7z"/>
	</g>
	<g>
		<path class="st18" d="M591.7,925.8l0.8,0.8l0,0c0.3,0.3,0.3,0.8,0,1.1l-0.2,0.2c-0.3,0.3-0.8,0.3-1.1,0l0,0l-0.3,0.3
			c-0.3,0.3-0.8,0.3-1.1,0l-0.1-0.1c-0.3-0.3-0.3-0.8,0-1.1l1.2-1.2C591.1,925.6,591.5,925.6,591.7,925.8L591.7,925.8z"/>
		<path class="st18" d="M580.6,918.8l-0.8,0.8l0,0c-0.3,0.3-0.8,0.3-1.1,0l-0.2-0.2c-0.3-0.3-0.3-0.8,0-1.1l0,0l-0.3-0.3
			c-0.3-0.3-0.3-0.8,0-1.1l0.1-0.1c0.3-0.3,0.8-0.3,1.1,0l1.2,1.2C580.9,918.2,580.9,918.6,580.6,918.8L580.6,918.8z"/>
		<path class="st18" d="M584,906.4l-0.8-0.8l0,0c-0.3-0.3-0.3-0.8,0-1.1l0.2-0.2c0.3-0.3,0.8-0.3,1.1,0l0,0l0.3-0.3
			c0.3-0.3,0.8-0.3,1.1,0l0.1,0.1c0.3,0.3,0.3,0.8,0,1.1l-1.2,1.2C584.6,906.6,584.3,906.6,584,906.4L584,906.4z"/>
		<path class="st18" d="M596.7,905.3v-1.1l0,0c0-0.4,0.4-0.8,0.8-0.8h0.3c0.4,0,0.8,0.4,0.8,0.8l0,0h0.4c0.4,0,0.8,0.4,0.8,0.8v0.1
			c0,0.4-0.4,0.8-0.8,0.8h-1.7C597,905.9,596.7,905.7,596.7,905.3L596.7,905.3z"/>
		<path class="st18" d="M600.8,917.3h1.1l0,0c0.4,0,0.8,0.4,0.8,0.8v0.3c0,0.4-0.4,0.8-0.8,0.8l0,0v0.4c0,0.4-0.4,0.8-0.8,0.8H601
			c-0.4,0-0.8-0.4-0.8-0.8v-1.7C600.2,917.5,600.5,917.3,600.8,917.3L600.8,917.3z"/>
		<path class="st18" d="M606.3,908.5v2l0,0c0,0.8-0.7,1.5-1.5,1.5h-0.5c-0.8,0-1.5-0.7-1.5-1.5l0,0H602c-0.8,0-1.5-0.7-1.5-1.5v-0.1
			c0-0.8,0.7-1.5,1.5-1.5h3.2C605.8,907.3,606.3,907.8,606.3,908.5L606.3,908.5z"/>
		<path class="st18" d="M576.5,929.2v-2l0,0c0-0.8,0.7-1.5,1.5-1.5h0.5c0.8,0,1.5,0.7,1.5,1.5l0,0h0.8c0.8,0,1.5,0.7,1.5,1.5v0.1
			c0,0.8-0.7,1.5-1.5,1.5h-3.2C577,930.3,576.5,929.8,576.5,929.2L576.5,929.2z"/>
		<path class="st18" d="M575,906.8h2l0,0c0.8,0,1.5,0.7,1.5,1.5v0.5c0,0.8-0.7,1.5-1.5,1.5l0,0v0.8c0,0.8-0.7,1.5-1.5,1.5h-0.1
			c-0.8,0-1.5-0.7-1.5-1.5V908C573.9,907.3,574.4,906.8,575,906.8L575,906.8z"/>
		<path class="st18" d="M592.8,895.3l1.4,1.4l0,0c0.6,0.6,0.6,1.5,0,2.1l-0.4,0.4c-0.6,0.6-1.5,0.6-2.1,0l0,0l-0.6,0.6
			c-0.6,0.6-1.5,0.6-2.1,0l-0.1-0.1c-0.6-0.6-0.6-1.5,0-2.1l2.3-2.3C591.6,894.8,592.4,894.8,592.8,895.3L592.8,895.3z"/>
		<path class="st18" d="M602.8,930h-2l0,0c-0.8,0-1.5-0.7-1.5-1.5V928c0-0.8,0.7-1.5,1.5-1.5l0,0v-0.8c0-0.8,0.7-1.5,1.5-1.5h0.1
			c0.8,0,1.5,0.7,1.5,1.5v3.2C603.9,929.4,603.4,930,602.8,930L602.8,930z"/>
	</g>
</g>
<g>
	<g>
		<path class="st11" d="M1283.6,380.3l2.2,3.1c1.1,1.5,2.6,2.7,4.3,3.4l8,3.1c2.1,0.8,4.3,0.7,6.4-0.1c4.5-1.8,9.4-2.3,14.2-1.6
			l17.7,2.6l-2.6-13.8v-1.9l2.6-13.8l-18.1,2.7c-4.8,0.7-9.6-0.1-14.1-1.8c-2-0.7-4.2-0.7-6.2,0l-8,3.1c-1.7,0.7-3.2,1.9-4.3,3.4
			l-2.2,3.1C1281.9,374.5,1281.9,377.8,1283.6,380.3z"/>
	</g>
	<path class="st11" d="M1363.3,281L1363.3,281c-7.3,10.5-12.7,22.2-15.9,34.6l-9.9,38.3l-6.2-2c-8.3-2.7-12.9-11.6-10.2-19.9l7.4-23
		c4.7-14.5,15-26.6,28.7-33.5l0,0C1360.7,273.7,1364.7,277.2,1363.3,281z"/>
	<path class="st11" d="M1363.3,470.3L1363.3,470.3c-7.3-10.5-12.7-22.2-15.9-34.6l-9.9-38.3l-6.2,2c-8.3,2.7-12.9,11.6-10.2,19.9
		l7.4,23c4.7,14.5,15,26.6,28.7,33.5l0,0C1360.7,477.5,1364.7,474,1363.3,470.3z"/>
	<path class="st11" d="M1484,339.1L1484,339.1l-18.5,18.5l-14.3-14.3l4.2-4.2C1463.4,331.2,1476.2,331.2,1484,339.1z"/>
	<path class="st11" d="M1484,414.7L1484,414.7l-18.5-18.5l-14.3,14.3l4.2,4.2C1463.4,422.5,1476.2,422.5,1484,414.7z"/>
	<path class="st9" d="M1326.5,380.2l13.6,31c1,2.3,2.8,4.2,5.1,5.3l27.5,13.6l0.1-0.1l0.2,0.3l30.4,5c2,0.3,4.1,0.1,6-0.8l32-14.1
		c1.1-0.5,2.1-1.2,3-2l23.3-21.9c0.9-0.8,1.6-1.8,2.2-2.9l8.7-16.9c0.1-0.3,0.2-0.6,0.2-0.9l0,0c0-0.3-0.1-0.6-0.2-0.9l-8.7-16.9
		c-0.6-1.1-1.3-2.1-2.2-2.9l-23.3-21.9c-0.9-0.8-1.9-1.5-3-2l-32-14.1c-1.9-0.8-4-1.1-6-0.8l-30.4,5l-0.2,0.3l-0.1-0.1l-27.5,13.6
		c-2.3,1.1-4,3-5.1,5.3l-13.6,31c-0.6,1.4-0.9,2.8-0.9,4.3l0,0C1325.6,377.4,1325.9,378.8,1326.5,380.2z"/>
	<path class="st27" d="M1458.2,391.9l-18,16.9c-1.8,1.7-3.9,3.1-6.2,4.1l-22.9,10.1c-3.9,1.7-8.2,2.2-12.4,1.6l-17.4-2.9
		c-1.6-0.3-3.1-0.7-4.6-1.3l-6.6-2.6c-0.5-0.2-1-0.4-1.5-0.7l-12.1-6c-4.6-2.3-8.3-6.1-10.3-10.8l-10.6-24.1v-0.3l10.6-24.1
		c2.1-4.7,5.7-8.6,10.3-10.8l12-6c0.5-0.2,1-0.5,1.5-0.7l6.6-2.7c1.5-0.6,3-1,4.6-1.3l17.4-2.9c4.2-0.7,8.5-0.2,12.4,1.6l22.9,10.1
		c2.3,1,4.4,2.4,6.2,4.1l18,16.9c1.8,1.7,3.4,3.8,4.5,6l0,0c3.2,6.3,3.2,13.7,0,20l0,0C1461.6,388.1,1460.1,390.2,1458.2,391.9z"/>
	<g>
		<path class="st18" d="M1314.4,378.1l4.1-0.7c0.4-0.1,0.7,0.2,0.8,0.6l0.1,0.5c0.1,0.4-0.2,0.7-0.6,0.8l0,0
			c-0.4,0.1-0.6,0.4-0.6,0.8v0.1c0.1,0.4-0.2,0.7-0.6,0.8h-0.3c-0.4,0.1-0.7-0.2-0.8-0.6v-0.1c-0.1-0.4-0.4-0.6-0.8-0.6l-1.1,0.2
			c-0.4,0.1-0.7-0.2-0.8-0.6l-0.1-0.5C1313.8,378.5,1314,378.2,1314.4,378.1z"/>
	</g>
	<g>
		<path class="st18" d="M1314.4,374.2l4.1,0.7c0.4,0.1,0.7-0.2,0.8-0.6l0.1-0.5c0.1-0.4-0.2-0.7-0.6-0.8l0,0
			c-0.4-0.1-0.6-0.4-0.6-0.8v-0.1c0.1-0.4-0.2-0.7-0.6-0.8h-0.3c-0.4-0.1-0.7,0.2-0.8,0.6v0.1c-0.1,0.4-0.4,0.6-0.8,0.6l-1.1-0.2
			c-0.4-0.1-0.7,0.2-0.8,0.6l-0.1,0.5C1313.8,373.8,1314,374.2,1314.4,374.2z"/>
	</g>
	<g>
		<path class="st18" d="M1339.6,453.7l1.4-0.9l0,0c0.6-0.4,1.3-0.2,1.7,0.3l0.2,0.3c0.4,0.6,0.2,1.3-0.3,1.7l0,0l0.4,0.6
			c0.4,0.6,0.2,1.3-0.3,1.7l-0.1,0.1c-0.6,0.4-1.3,0.2-1.7-0.3l-1.5-2.2C1339.1,454.6,1339.2,454,1339.6,453.7L1339.6,453.7z"/>
		<path class="st18" d="M1347.1,446.7l0.9,1.4l0,0c0.4,0.6,0.2,1.3-0.3,1.7l-0.3,0.2c-0.6,0.4-1.3,0.2-1.7-0.3l0,0l-0.6,0.4
			c-0.6,0.4-1.3,0.2-1.7-0.3l-0.1-0.1c-0.4-0.6-0.2-1.3,0.3-1.7l2.2-1.5C1346.3,446.2,1346.8,446.3,1347.1,446.7L1347.1,446.7z"/>
		<path class="st18" d="M1335.9,443.1l-1.4,0.9l0,0c-0.6,0.4-1.3,0.2-1.7-0.3l-0.2-0.3c-0.4-0.6-0.2-1.3,0.3-1.7l0,0l-0.4-0.6
			c-0.4-0.6-0.2-1.3,0.3-1.7l0.1-0.1c0.6-0.4,1.3-0.2,1.7,0.3l1.5,2.2C1336.4,442.2,1336.3,442.8,1335.9,443.1L1335.9,443.1z"/>
		<path class="st18" d="M1338,423.2l-1.6-0.3l0,0c-0.7-0.1-1.1-0.8-1-1.5l0.1-0.4c0.1-0.7,0.8-1.1,1.5-1l0,0l0.1-0.7
			c0.1-0.7,0.8-1.1,1.5-1h0.1c0.7,0.1,1.1,0.8,1,1.5l-0.5,2.6C1339,423,1338.5,423.3,1338,423.2L1338,423.2z"/>
		<path class="st18" d="M1340.2,443.2l0.3-1.6l0,0c0.1-0.7,0.8-1.1,1.5-1l0.4,0.1c0.7,0.1,1.1,0.8,1,1.5l0,0l0.7,0.1
			c0.7,0.1,1.1,0.8,1,1.5v0.1c-0.1,0.7-0.8,1.1-1.5,1l-2.6-0.5C1340.4,444.2,1340.1,443.7,1340.2,443.2L1340.2,443.2z"/>
		<path class="st18" d="M1338,426.3l3.1,0.6l0,0c1.3,0.2,2.1,1.5,1.9,2.8l-0.1,0.8c-0.2,1.3-1.5,2.1-2.8,1.9l0,0l-0.2,1.3
			c-0.2,1.3-1.5,2.1-2.8,1.9h-0.2c-1.3-0.2-2.1-1.5-1.9-2.8l0.9-4.9C1336.1,426.7,1337,426.1,1338,426.3L1338,426.3z"/>
		<path class="st18" d="M1337,448.4l0.2-1.1l0,0c0.1-0.5,0.5-0.8,1-0.7l0.3,0.1c0.5,0.1,0.8,0.5,0.7,1l0,0l0.5,0.1
			c0.5,0.1,0.8,0.5,0.7,1v0.1c-0.1,0.5-0.5,0.8-1,0.7l-1.8-0.3C1337.2,449.2,1336.9,448.8,1337,448.4L1337,448.4z"/>
		<path class="st18" d="M1326.3,423.2l0.3-1.3l0,0c0.1-0.6,0.6-0.9,1.2-0.8l0.3,0.1c0.6,0.1,0.9,0.6,0.8,1.2l0,0l0.6,0.1
			c0.6,0.1,0.9,0.6,0.8,1.2v0.1c-0.1,0.6-0.6,0.9-1.2,0.8l-2.1-0.4C1326.5,424,1326.2,423.6,1326.3,423.2L1326.3,423.2z"/>
		<path class="st18" d="M1346.7,455.7l0.1-0.8l0,0c0.1-0.3,0.4-0.5,0.7-0.5h0.2c0.3,0.1,0.5,0.4,0.5,0.7l0,0l0.3,0.1
			c0.3,0.1,0.5,0.4,0.5,0.7v0.1c-0.1,0.3-0.4,0.5-0.7,0.5l-1.2-0.2C1346.8,456.1,1346.7,455.9,1346.7,455.7L1346.7,455.7z"/>
		<path class="st18" d="M1330.9,406.8l0.1-0.8l0,0c0.1-0.3,0.4-0.5,0.7-0.5h0.2c0.3,0.1,0.5,0.4,0.5,0.7l0,0l0.3,0.1
			c0.3,0.1,0.5,0.4,0.5,0.7v0.1c-0.1,0.3-0.4,0.5-0.7,0.5l-1.2-0.2C1331,407.2,1330.9,407,1330.9,406.8L1330.9,406.8z"/>
		<path class="st18" d="M1347.6,461.6l0.1-0.8l0,0c0.1-0.3,0.4-0.5,0.7-0.5h0.2c0.3,0.1,0.5,0.4,0.5,0.7l0,0l0.3,0.1
			c0.3,0.1,0.5,0.4,0.5,0.7v0.1c-0.1,0.3-0.4,0.5-0.7,0.5l-1.2-0.2C1347.8,462.1,1347.6,461.9,1347.6,461.6L1347.6,461.6z"/>
		<path class="st18" d="M1327.6,430.3l1.7-1.2l0,0c0.7-0.5,1.7-0.3,2.2,0.4l0.3,0.4c0.5,0.7,0.3,1.7-0.4,2.2l0,0l0.5,0.7
			c0.5,0.7,0.3,1.7-0.4,2.2l-0.1,0.1c-0.7,0.5-1.7,0.3-2.2-0.4l-1.9-2.7C1327,431.4,1327.1,430.6,1327.6,430.3L1327.6,430.3z"/>
		<path class="st18" d="M1335.9,413.3l-0.6,3.1l0,0c-0.2,1.3-1.5,2.1-2.8,1.9l-0.8-0.1c-1.3-0.2-2.1-1.5-1.9-2.8l0,0l-1.3-0.2
			c-1.3-0.2-2.1-1.5-1.9-2.8v-0.2c0.2-1.3,1.5-2.1,2.8-1.9l4.9,0.9C1335.5,411.4,1336.1,412.3,1335.9,413.3L1335.9,413.3z"/>
	</g>
	<g>
		<path class="st18" d="M1339.6,297l1.4,0.9l0,0c0.6,0.4,1.3,0.2,1.7-0.3l0.2-0.3c0.4-0.6,0.2-1.3-0.3-1.7l0,0l0.4-0.6
			c0.4-0.6,0.2-1.3-0.3-1.7l-0.1-0.1c-0.6-0.4-1.3-0.2-1.7,0.3l-1.5,2.2C1339.1,296.1,1339.2,296.7,1339.6,297L1339.6,297z"/>
		<path class="st18" d="M1347.1,303.9l0.9-1.4l0,0c0.4-0.6,0.2-1.3-0.3-1.7l-0.3-0.2c-0.6-0.4-1.3-0.2-1.7,0.3l0,0l-0.6-0.4
			c-0.6-0.4-1.3-0.2-1.7,0.3l-0.1,0.1c-0.4,0.6-0.2,1.3,0.3,1.7l2.2,1.5C1346.3,304.5,1346.8,304.4,1347.1,303.9L1347.1,303.9z"/>
		<path class="st18" d="M1335.9,307.6l-1.4-0.9l0,0c-0.6-0.4-1.3-0.2-1.7,0.3l-0.2,0.3c-0.4,0.6-0.2,1.3,0.3,1.7l0,0l-0.4,0.6
			c-0.4,0.6-0.2,1.3,0.3,1.7l0.1,0.1c0.6,0.4,1.3,0.2,1.7-0.3l1.5-2.2C1336.4,308.5,1336.3,307.9,1335.9,307.6L1335.9,307.6z"/>
		<path class="st18" d="M1338,327.5l-1.6,0.3l0,0c-0.7,0.1-1.1,0.8-1,1.5l0.1,0.4c0.1,0.7,0.8,1.1,1.5,1l0,0l0.1,0.7
			c0.1,0.7,0.8,1.1,1.5,1h0.1c0.7-0.1,1.1-0.8,1-1.5l-0.5-2.6C1339,327.7,1338.5,327.4,1338,327.5L1338,327.5z"/>
		<path class="st18" d="M1340.2,307.5l0.3,1.6l0,0c0.1,0.7,0.8,1.1,1.5,1l0.4-0.1c0.7-0.1,1.1-0.8,1-1.5l0,0l0.7-0.1
			c0.7-0.1,1.1-0.8,1-1.5v-0.1c-0.1-0.7-0.8-1.1-1.5-1l-2.6,0.5C1340.4,306.5,1340.1,307,1340.2,307.5L1340.2,307.5z"/>
		<path class="st18" d="M1338,324.4l3.1-0.6l0,0c1.3-0.2,2.1-1.5,1.9-2.8l-0.1-0.8c-0.2-1.3-1.5-2.1-2.8-1.9l0,0l-0.2-1.3
			c-0.2-1.3-1.5-2.1-2.8-1.9h-0.2c-1.3,0.2-2.1,1.5-1.9,2.8l0.9,4.9C1336.1,323.9,1337,324.6,1338,324.4L1338,324.4z"/>
		<path class="st18" d="M1337,302.2l0.2,1.1l0,0c0.1,0.5,0.5,0.8,1,0.7l0.3-0.1c0.5-0.1,0.8-0.5,0.7-1l0,0l0.5-0.1
			c0.5-0.1,0.8-0.5,0.7-1v-0.1c-0.1-0.5-0.5-0.8-1-0.7l-1.8,0.3C1337.2,301.5,1336.9,301.9,1337,302.2L1337,302.2z"/>
		<path class="st18" d="M1326.3,327.5l0.3,1.3l0,0c0.1,0.6,0.6,0.9,1.2,0.8l0.3-0.1c0.6-0.1,0.9-0.6,0.8-1.2l0,0l0.6-0.1
			c0.6-0.1,0.9-0.6,0.8-1.2v-0.1c-0.1-0.6-0.6-0.9-1.2-0.8l-2.1,0.4C1326.5,326.6,1326.2,327.1,1326.3,327.5L1326.3,327.5z"/>
		<path class="st18" d="M1346.7,295l0.1,0.8l0,0c0.1,0.3,0.4,0.5,0.7,0.5h0.2c0.3-0.1,0.5-0.4,0.5-0.7l0,0l0.3-0.1
			c0.3-0.1,0.5-0.4,0.5-0.7v-0.1c-0.1-0.3-0.4-0.5-0.7-0.5l-1.2,0.2C1346.8,294.6,1346.7,294.8,1346.7,295L1346.7,295z"/>
		<path class="st18" d="M1330.9,343.9l0.1,0.8l0,0c0.1,0.3,0.4,0.5,0.7,0.5h0.2c0.3-0.1,0.5-0.4,0.5-0.7l0,0l0.3-0.1
			c0.3-0.1,0.5-0.4,0.5-0.7v-0.1c-0.1-0.3-0.4-0.5-0.7-0.5l-1.2,0.2C1331,343.4,1330.9,343.7,1330.9,343.9L1330.9,343.9z"/>
		<path class="st18" d="M1347.6,289.1l0.1,0.8l0,0c0.1,0.3,0.4,0.5,0.7,0.5h0.2c0.3-0.1,0.5-0.4,0.5-0.7l0,0l0.3-0.1
			c0.3-0.1,0.5-0.4,0.5-0.7v-0.1c-0.1-0.3-0.4-0.5-0.7-0.5l-1.2,0.2C1347.8,288.6,1347.6,288.8,1347.6,289.1L1347.6,289.1z"/>
		<path class="st18" d="M1327.6,320.4l1.7,1.2l0,0c0.7,0.5,1.7,0.3,2.2-0.4l0.3-0.4c0.5-0.7,0.3-1.7-0.4-2.2l0,0l0.5-0.7
			c0.5-0.7,0.3-1.7-0.4-2.2l-0.1-0.1c-0.7-0.5-1.7-0.3-2.2,0.4l-1.9,2.7C1327,319.3,1327.1,320,1327.6,320.4L1327.6,320.4z"/>
		<path class="st18" d="M1335.9,337.4l-0.6-3.1l0,0c-0.2-1.3-1.5-2.1-2.8-1.9l-0.8,0.1c-1.3,0.2-2.1,1.5-1.9,2.8l0,0l-1.3,0.2
			c-1.3,0.2-2.1,1.5-1.9,2.8v0.2c0.2,1.3,1.5,2.1,2.8,1.9l4.9-0.9C1335.5,339.3,1336.1,338.4,1335.9,337.4L1335.9,337.4z"/>
	</g>
	<g>
		<path class="st18" d="M1464.7,338.1l0.7,1.5l0,0c0.3,0.6,1,0.9,1.7,0.6l0.4-0.2c0.6-0.3,0.9-1,0.6-1.7l0,0l0.6-0.3
			c0.6-0.3,0.9-1,0.6-1.7v-0.1c-0.3-0.6-1-0.9-1.7-0.6l-2.4,1.1C1464.7,337,1464.5,337.6,1464.7,338.1L1464.7,338.1z"/>
		<path class="st18" d="M1468.8,348.6l1.5-0.7l0,0c0.6-0.3,0.9-1,0.6-1.7l-0.2-0.4c-0.3-0.6-1-0.9-1.7-0.6l0,0l-0.3-0.6
			c-0.3-0.6-1-0.9-1.7-0.6h-0.1c-0.6,0.3-0.9,1-0.6,1.7l1.1,2.4C1467.8,348.6,1468.4,348.8,1468.8,348.6L1468.8,348.6z"/>
		<path class="st18" d="M1464.7,345.2l-0.3-0.7l0,0c-0.1-0.3-0.5-0.4-0.8-0.3l-0.2,0.1c-0.3,0.1-0.4,0.5-0.3,0.8l0,0l-0.3,0.1
			c-0.3,0.1-0.4,0.5-0.3,0.8v0.1c0.1,0.3,0.5,0.4,0.8,0.3l1.2-0.5C1464.7,345.7,1464.8,345.4,1464.7,345.2L1464.7,345.2z"/>
		<path class="st18" d="M1460,340.5l-0.4,1.1l0,0c-0.2,0.5,0.1,1,0.5,1.1l0.3,0.1c0.5,0.2,1-0.1,1.1-0.5l0,0l0.4,0.2
			c0.5,0.2,1-0.1,1.1-0.5v-0.1c0.2-0.5-0.1-1-0.5-1.1l-1.7-0.6C1460.5,340,1460.1,340.1,1460,340.5L1460,340.5z"/>
		<path class="st18" d="M1470,340.5l-0.3,0.7l0,0c-0.1,0.3,0,0.6,0.3,0.7l0.2,0.1c0.3,0.1,0.6,0,0.7-0.3l0,0l0.3,0.1
			c0.3,0.1,0.6,0,0.7-0.3v-0.1c0.1-0.3,0-0.6-0.3-0.7l-1.1-0.4C1470.3,340.2,1470,340.3,1470,340.5L1470,340.5z"/>
		<path class="st18" d="M1474.7,340.5l-0.3,0.7l0,0c-0.1,0.3,0,0.6,0.3,0.7l0.2,0.1c0.3,0.1,0.6,0,0.7-0.3l0,0l0.3,0.1
			c0.3,0.1,0.6,0,0.7-0.3v-0.1c0.1-0.3,0-0.6-0.3-0.7l-1.1-0.4C1475,340.2,1474.7,340.3,1474.7,340.5L1474.7,340.5z"/>
		<path class="st18" d="M1472.8,336.2l-0.3,0.7l0,0c-0.1,0.3,0,0.6,0.3,0.7l0.2,0.1c0.3,0.1,0.6,0,0.7-0.3l0,0l0.3,0.1
			c0.3,0.1,0.6,0,0.7-0.3v-0.1c0.1-0.3,0-0.6-0.3-0.7l-1.1-0.4C1473.1,335.9,1472.9,336,1472.8,336.2L1472.8,336.2z"/>
	</g>
	<g>
		<g>
			<path class="st18" d="M1293.7,369l1,2.3l0,0c0.4,0.9,1.5,1.3,2.5,0.9l0.6-0.3c0.9-0.4,1.3-1.5,0.9-2.5l0,0l0.9-0.4
				c0.9-0.4,1.3-1.5,0.9-2.5l-0.1-0.2c-0.4-0.9-1.5-1.3-2.5-0.9l-3.6,1.6C1293.7,367.5,1293.4,368.3,1293.7,369L1293.7,369z"/>
			<path class="st18" d="M1300.7,372.5l-0.4,1.1l0,0c-0.2,0.4,0.1,0.9,0.5,1.1l0.3,0.1c0.4,0.2,0.9-0.1,1.1-0.5l0,0l0.4,0.2
				c0.4,0.2,0.9-0.1,1.1-0.5v-0.1c0.2-0.4-0.1-0.9-0.5-1.1l-1.7-0.6C1301.2,372,1300.9,372.2,1300.7,372.5L1300.7,372.5z"/>
			<path class="st18" d="M1304.9,365.7l-0.4,1.1l0,0c-0.2,0.4,0.1,0.9,0.5,1.1l0.3,0.1c0.4,0.2,0.9-0.1,1.1-0.5l0,0l0.4,0.2
				c0.4,0.2,0.9-0.1,1.1-0.5v-0.1c0.2-0.4-0.1-0.9-0.5-1.1l-1.7-0.6C1305.4,365.2,1305,365.3,1304.9,365.7L1304.9,365.7z"/>
			<path class="st18" d="M1287.9,378.1l1.9,0.7l0,0c0.8,0.3,1.7-0.1,2-0.9l0.2-0.5c0.3-0.8-0.1-1.7-0.9-2l0,0l0.3-0.8
				c0.3-0.8-0.1-1.7-0.9-2l-0.1-0.1c-0.8-0.3-1.7,0.1-2,0.9l-1.1,3.1C1287,377.2,1287.3,377.9,1287.9,378.1L1287.9,378.1z"/>
			<path class="st18" d="M1310.3,370.6l-0.7,2.7c-0.1,0.2-0.3,0.4-0.6,0.3l-0.3-0.1c-0.2-0.1-0.4-0.3-0.3-0.6l0,0
				c0.1-0.2-0.1-0.5-0.3-0.6h-0.1c-0.2-0.1-0.4-0.3-0.3-0.6v-0.2c0.1-0.2,0.3-0.4,0.6-0.3h0.1c0.2,0.1,0.5-0.1,0.6-0.3l0.2-0.7
				c0.1-0.2,0.3-0.4,0.6-0.3l0.3,0.1C1310.2,370.1,1310.3,370.3,1310.3,370.6z"/>
		</g>
		<g>
			<path class="st18" d="M1299.9,383.7l-1.1,2.2l0,0c-0.5,0.9-1.6,1.3-2.5,0.8l-0.6-0.3c-0.9-0.5-1.3-1.6-0.8-2.5l0,0l-0.9-0.5
				c-0.9-0.5-1.3-1.6-0.8-2.5l0.1-0.2c0.5-0.9,1.6-1.3,2.5-0.8l3.5,1.8C1300,382.1,1300.3,383,1299.9,383.7L1299.9,383.7z"/>
			<path class="st18" d="M1306.4,383.5l0.9,0.7l0,0c0.4,0.3,0.4,0.8,0.1,1.2l-0.2,0.2c-0.3,0.4-0.8,0.4-1.2,0.1l0,0l-0.3,0.4
				c-0.3,0.4-0.8,0.4-1.2,0.1h-0.1c-0.4-0.3-0.4-0.8-0.1-1.2l1.1-1.4C1305.7,383.4,1306.1,383.3,1306.4,383.5L1306.4,383.5z"/>
			<path class="st18" d="M1301.1,381.6l-0.4-1.1l0,0c-0.2-0.4,0.1-0.9,0.5-1.1l0.3-0.1c0.4-0.2,0.9,0.1,1.1,0.5l0,0l0.4-0.2
				c0.4-0.2,0.9,0.1,1.1,0.5v0.1c0.2,0.4-0.1,0.9-0.5,1.1l-1.7,0.6C1301.6,382.1,1301.2,381.9,1301.1,381.6L1301.1,381.6z"/>
			<path class="st18" d="M1308,380.1l1.7,2.2c0.2,0.2,0.4,0.2,0.7,0.1l0.3-0.2c0.2-0.2,0.2-0.4,0.1-0.7l0,0
				c-0.2-0.2-0.1-0.5,0.1-0.7l0.1-0.1c0.2-0.2,0.2-0.4,0.1-0.7l-0.1-0.1c-0.2-0.2-0.4-0.2-0.7-0.1l-0.1,0.1
				c-0.2,0.2-0.5,0.1-0.7-0.1l-0.4-0.6c-0.2-0.2-0.4-0.2-0.7-0.1l-0.3,0.2C1307.8,379.6,1307.8,379.9,1308,380.1z"/>
		</g>
	</g>
	<g>
		<path class="st18" d="M1464.7,414.7l0.7-1.5l0,0c0.3-0.6,1-0.9,1.7-0.6l0.4,0.2c0.6,0.3,0.9,1,0.6,1.7l0,0l0.6,0.3
			c0.6,0.3,0.9,1,0.6,1.7v0.1c-0.3,0.6-1,0.9-1.7,0.6l-2.4-1.1C1464.7,415.8,1464.5,415.2,1464.7,414.7L1464.7,414.7z"/>
		<path class="st18" d="M1468.8,404.2l1.5,0.7l0,0c0.6,0.3,0.9,1,0.6,1.7l-0.2,0.4c-0.3,0.6-1,0.9-1.7,0.6l0,0l-0.3,0.6
			c-0.3,0.6-1,0.9-1.7,0.6h-0.1c-0.6-0.3-0.9-1-0.6-1.7l1.1-2.4C1467.8,404.2,1468.4,404,1468.8,404.2L1468.8,404.2z"/>
		<path class="st18" d="M1464.7,407.7l-0.3,0.7l0,0c-0.1,0.3-0.5,0.4-0.8,0.3l-0.2-0.1c-0.3-0.1-0.4-0.5-0.3-0.8l0,0l-0.3-0.1
			c-0.3-0.1-0.4-0.5-0.3-0.8v-0.1c0.1-0.3,0.5-0.4,0.8-0.3l1.2,0.5C1464.7,407.1,1464.8,407.4,1464.7,407.7L1464.7,407.7z"/>
		<path class="st18" d="M1460,412.3l-0.4-1.1l0,0c-0.2-0.5,0.1-1,0.5-1.1l0.3-0.1c0.5-0.2,1,0.1,1.1,0.5l0,0l0.4-0.2
			c0.5-0.2,1,0.1,1.1,0.5v0.1c0.2,0.5-0.1,1-0.5,1.1l-1.7,0.6C1460.5,412.8,1460.1,412.7,1460,412.3L1460,412.3z"/>
		<path class="st18" d="M1470,412.3l-0.3-0.7l0,0c-0.1-0.3,0-0.6,0.3-0.7l0.2-0.1c0.3-0.1,0.6,0,0.7,0.3l0,0l0.3-0.1
			c0.3-0.1,0.6,0,0.7,0.3v0.1c0.1,0.3,0,0.6-0.3,0.7l-1.1,0.4C1470.3,412.6,1470,412.5,1470,412.3L1470,412.3z"/>
		<path class="st18" d="M1474.7,412.3l-0.3-0.7l0,0c-0.1-0.3,0-0.6,0.3-0.7l0.2-0.1c0.3-0.1,0.6,0,0.7,0.3l0,0l0.3-0.1
			c0.3-0.1,0.6,0,0.7,0.3v0.1c0.1,0.3,0,0.6-0.3,0.7l-1.1,0.4C1475,412.6,1474.7,412.5,1474.7,412.3L1474.7,412.3z"/>
		<path class="st18" d="M1472.8,416.6l-0.3-0.7l0,0c-0.1-0.3,0-0.6,0.3-0.7l0.2-0.1c0.3-0.1,0.6,0,0.7,0.3l0,0l0.3-0.1
			c0.3-0.1,0.6,0,0.7,0.3v0.1c0.1,0.3,0,0.6-0.3,0.7l-1.1,0.4C1473.1,416.9,1472.9,416.8,1472.8,416.6L1472.8,416.6z"/>
	</g>
	<g>
		<path class="st18" d="M1356.1,351.8c0.3-0.2,0.5-0.5,0.5-0.9v-10.2l-0.2,0.1c-4.6,2.3-8.3,6.1-10.3,10.8l-3.5,7.9L1356.1,351.8z"
			/>
		<path class="st18" d="M1363.3,343.8c0,0.4,0.2,0.7,0.5,0.9l14.5,8.4c0.3,0.2,0.7,0.2,1,0l14.5-8.4c0.3-0.2,0.5-0.5,0.5-0.9V328
			l-13.2,2.2c-1.6,0.3-3.1,0.7-4.6,1.3l-6.6,2.7c-0.5,0.2-1,0.4-1.5,0.7l-5.2,2.6L1363.3,343.8L1363.3,343.8z"/>
		<path class="st18" d="M1365.1,352.9c-0.4-0.2-0.8-0.2-1.1,0.1l-9.8,7.4c-0.3,0.2-0.4,0.5-0.4,0.8v27.9c0,0.3,0.1,0.6,0.3,0.8
			l9.8,8.7c0.3,0.3,0.8,0.3,1.2,0.1l9.6-5.3c0.3-0.2,0.5-0.5,0.5-0.9v-33.4c0-0.4-0.2-0.7-0.5-0.9L1365.1,352.9z"/>
		<path class="st18" d="M1343.8,385.4h4.7c0.6,0,1-0.4,1-1l0.5-8.9v-0.1l-0.5-8.9c0-0.5-0.5-1-1-1h-4.7c-0.4,0-0.8,0.3-1,0.7l-3,8.9
			c-0.1,0.2-0.1,0.4,0,0.7l3,8.9C1342.9,385.1,1343.3,385.4,1343.8,385.4z"/>
		<path class="st18" d="M1456.1,391l-9.5-0.2c-0.1,0-0.3,0-0.4,0.1l-9.9,4.2c-0.4,0.2-0.6,0.5-0.6,1V412c1.7-0.9,3.2-2,4.6-3.3
			l16.9-15.9V392C1457.1,391.5,1456.7,391,1456.1,391z"/>
		<path class="st18" d="M1431.2,399.6l-14.4-4.4c-0.3-0.1-0.6,0-0.8,0.1l-14.7,8.5c-0.3,0.2-0.5,0.5-0.5,0.9v20
			c3.5,0.2,7.1-0.4,10.3-1.8l20.8-9.1v-13.2C1431.9,400.1,1431.6,399.7,1431.2,399.6z"/>
		<path class="st18" d="M1395.4,406.9l-14.5-8.4c-0.3-0.2-0.7-0.2-1,0l-14.5,8.4c-0.3,0.2-0.5,0.5-0.5,0.9v7.3l3.8,1.9
			c0.5,0.2,1,0.5,1.5,0.7l6.6,2.6c1.5,0.6,3,1,4.6,1.3l14.6,2.4v-16.2C1395.9,407.4,1395.7,407.1,1395.4,406.9z"/>
		<path class="st18" d="M1436.5,386v-21c0-0.4-0.2-0.7-0.5-0.9l-9.7-5.6c-0.3-0.2-0.7-0.2-1,0l-9.7,5.6c-0.3,0.2-0.5,0.5-0.5,0.9v21
			c0,0.4,0.2,0.7,0.5,0.9l9.7,5.6c0.3,0.2,0.7,0.2,1,0l9.7-5.6C1436.3,386.7,1436.5,386.3,1436.5,386z"/>
		<path class="st18" d="M1436.3,355.3l9.9,4.2c0.1,0.1,0.3,0.1,0.4,0.1l9.5-0.2c0.4,0,0.7-0.2,0.9-0.5l-16.8-15.7
			c-1.4-1.3-2.9-2.4-4.6-3.3v14.6C1435.7,354.7,1435.9,355.1,1436.3,355.3z"/>
		<path class="st18" d="M1460.8,374.9l-5.6-9.7c-0.2-0.3-0.5-0.5-0.9-0.5h-12.1c-0.6,0-1,0.4-1,1l-0.5,9.7v0.1l0.5,9.7
			c0,0.6,0.5,1,1,1h12.1c0.4,0,0.7-0.2,0.9-0.5l5.6-9.7C1461,375.6,1461,375.2,1460.8,374.9z"/>
		<path class="st18" d="M1400.8,347.4l14.6,8.5c0.3,0.2,0.6,0.2,0.9,0.1l14.4-5c0.4-0.1,0.7-0.5,0.7-1v-12.2l-20.3-8.9
			c-3.4-1.5-7.2-2.1-10.8-1.8v19.4C1400.2,346.9,1400.4,347.2,1400.8,347.4z"/>
		<path class="st18" d="M1360.2,402.6c0-0.3-0.2-0.7-0.5-0.9l-16.7-11.2c-0.3-0.2-0.8-0.2-1.1,0l4.2,9.6c2.1,4.7,5.7,8.6,10.3,10.8
			l3.7,1.8L1360.2,402.6L1360.2,402.6z"/>
		<path class="st18" d="M1410.4,391.3v-31c0-0.4-0.2-0.7-0.5-0.9l-14.5-8.4c-0.3-0.2-0.7-0.2-1,0l-14.5,8.4
			c-0.3,0.2-0.5,0.5-0.5,0.9v31c0,0.4,0.2,0.7,0.5,0.9l14.5,8.4c0.3,0.2,0.7,0.2,1,0l14.5-8.4C1410.2,392,1410.4,391.6,1410.4,391.3
			z"/>
	</g>
</g>
<path class="st28" d="M1111.5,1027L1111.5,1027L1111.5,1027c-16.3-25.1-16.3-57.4,0-82.5l0,0l0,0
	C1127.8,969.7,1127.8,1002,1111.5,1027z"/>
<path class="st28" d="M1111.5,1113.6L1111.5,1113.6L1111.5,1113.6c-16.3-25.1-16.3-57.4,0-82.5l0,0l0,0
	C1127.8,1056.2,1127.8,1088.5,1111.5,1113.6z"/>
<path class="st28" d="M1111.5,940.5L1111.5,940.5L1111.5,940.5c-16.3-25.1-16.3-57.4,0-82.5l0,0l0,0
	C1127.8,883.1,1127.8,915.5,1111.5,940.5z"/>
<path class="st28" d="M987,1105L987,1105L987,1105c-16.3-25.1-16.3-57.4,0-82.5l0,0l0,0C1003.3,1047.6,1003.3,1079.9,987,1105z"/>
<path class="st28" d="M987,1018.5L987,1018.5L987,1018.5c-16.3-25.1-16.3-57.4,0-82.5l0,0l0,0C1003.3,961.1,1003.3,993.4,987,1018.5
	z"/>
<path class="st28" d="M1025.7,1062.8L1025.7,1062.8L1025.7,1062.8c-16.3-25.1-16.3-57.4,0-82.5l0,0l0,0
	C1041.9,1005.4,1041.9,1037.7,1025.7,1062.8z"/>
<path class="st28" d="M1067.8,1076.7L1067.8,1076.7L1067.8,1076.7c-16.3-25.1-16.3-57.4,0-82.5l0,0l0,0
	C1084.1,1019.3,1084.1,1051.7,1067.8,1076.7z"/>
<path class="st28" d="M1067.8,990.2L1067.8,990.2L1067.8,990.2c-16.3-25.1-16.3-57.4,0-82.5l0,0l0,0
	C1084.1,932.8,1084.1,965.1,1067.8,990.2z"/>
<path class="st28" d="M483.7,96.6L483.7,96.6L483.7,96.6c-16.3-25.1-16.3-57.4,0-82.5l0,0l0,0C500,39.3,500,71.6,483.7,96.6z"/>
<path class="st28" d="M522.3,141L522.3,141L522.3,141c-16.3-25.1-16.3-57.4,0-82.5l0,0l0,0C538.6,83.6,538.6,115.9,522.3,141z"/>
<g>
	<g>
		<polygon class="st9" points="271.6,800.8 290.8,791 292.3,794.7 		"/>
	</g>
	<g>
		<polygon class="st9" points="272.9,810.2 293.1,818 291.3,821.6 		"/>
	</g>
	<g>
		<polygon class="st9" points="274.6,802.4 295.6,797.2 296.2,801.2 		"/>
	</g>
	<g>
		<polygon class="st9" points="276.1,806.8 302.6,804.1 302.7,808.1 		"/>
	</g>
	<g>
		<polygon class="st9" points="278.5,808.9 299.8,812.9 298.7,816.7 		"/>
	</g>
	<path class="st18" d="M276.8,753.3L276.8,753.3c-0.1-0.2-0.1-0.5-0.2-0.7c-3.8-12.4-15.4-20.7-28.4-20.1L237,733l-6.4,12.1
		c-0.2,0.4-0.6,0.8-1,1.1l-5.6,3.6c-0.8,0.5-1.3,1.3-1.3,2.2l-0.8,8.4c-0.1,0.7-0.4,1.4-1,1.9l-17.9,16l0,0
		c3.5,2.3,7.9,2.1,11.2-0.4l22.1-16.9l5.6-2.1l13.2-1.6c-4.7,4.7-8.2,10.2-10.6,16.1c-6.5,16.4-3.4,35.7,9.2,49.3l1.5,20.8l6.7-9
		c1-1.3,1.8-2.8,2.4-4.3l0,0c2.5-6.5,4.2-13.2,4.9-20.1l0.9-8.5c0.5-4.2,1.2-8.5,2.3-12.6l4.6-17.6
		C278.5,765.4,278.5,759.2,276.8,753.3z"/>
	<path class="st18" d="M279.3,817.3c2.7-3,4.3-7,4.3-11.4s-1.6-8.3-4.3-11.4l-20.7,6.4v10L279.3,817.3z"/>
	<circle class="st9" cx="230.1" cy="751.6" r="7.2"/>
	<circle class="st11" cx="228.2" cy="751.6" r="2.4"/>
	<g>
		<path class="st18" d="M265.6,819.2l-1.7,7.1l-0.9,3.6c-0.1,0.3-0.1,0.5-0.2,0.9l-0.3,1.1c-0.2,0.7-0.4,1.4-0.7,2.1
			c-2.1,5.6-5.9,10.4-10.8,13.6c-2.4,1.6-5.1,2.8-7.9,3.6l-1,0.3l-1.1,0.2l-1.1,0.2l-1.1,0.1c-1.4,0.2-3,0.2-4.5,0.1
			c-6-0.5-11.7-3.7-15.2-8.5c-1.9-2.5-3-5.6-3.1-8.7c-0.2-3.1,0.6-6.2,2.2-8.9c0.2-0.3,0.4-0.7,0.6-1l0.7-0.9
			c0.2-0.3,0.5-0.6,0.8-0.9l0.4-0.4l0.3-0.3l1.3-1.3c0.6-0.6,1.4-1.2,2.1-1.6c1.6-0.9,3.4-1.2,5.1-1.1c0.4,0,0.9,0.1,1.3,0.2
			l0.6,0.2l0.5,0.2c0.7,0.2,1.4,0.5,2.1,0.9c2.7,1.4,4.9,3.7,6.2,6.4c0.3,0.6,0.6,1.5,0.8,2.3s0.2,1.7,0.1,2.6
			c-0.2,1.7-0.9,3.3-2.1,4.6v0.1l-0.2,0.2l-0.3,0.3l-0.3,0.3c-0.1,0.1-0.3,0.3-0.5,0.5c-0.7,0.6-1.5,1-2.4,1.3
			c-1.7,0.5-3.7,0.3-5.2-0.5c-1.6-0.8-2.7-2.4-3.2-4.1c-0.5-1.7-0.2-3.6,0.7-5l0,0c0.5-0.9,1.7-1.1,2.6-0.6c0.8,0.5,1.1,1.6,0.6,2.5
			c-0.7,1.3-0.1,3,1.2,3.5c0.6,0.3,1.3,0.3,1.9,0c0.3-0.1,0.6-0.3,0.8-0.5l0.5-0.5l0.3-0.3l0.1-0.2l0.1-0.1c0.5-0.6,0.7-1.3,0.7-2
			c0-0.4,0-0.7-0.1-1.1c-0.1-0.3-0.2-0.6-0.5-1.1c-0.9-1.7-2.4-3-4.1-3.7c-0.4-0.2-0.9-0.3-1.3-0.5l-0.3-0.1h-0.3
			c-0.2,0-0.3,0-0.5,0c-0.7,0-1.3,0.2-1.9,0.6c-0.3,0.2-0.5,0.4-0.7,0.6l-1.2,1.4l-0.3,0.3l-0.2,0.3c-0.1,0.2-0.3,0.3-0.4,0.5
			l-0.4,0.6l-0.3,0.6c-1.7,3.2-1.2,7.3,1.1,9.9c2.5,2.9,6.2,4.7,9.9,4.7c0.9,0,1.8,0,2.8-0.2l0.7-0.1l0.7-0.2l0.7-0.2l0.7-0.2
			c1.9-0.6,3.6-1.6,5.2-2.8c3.1-2.4,5.4-5.7,6.5-9.3c0.1-0.5,0.3-0.9,0.4-1.4l0.1-0.7c0.1-0.2,0.1-0.6,0.2-0.9l0.6-3.6l1.3-7.2
			c0.5-3,3.4-5,6.4-4.5s5,3.4,4.5,6.4C265.7,819,265.7,819.1,265.6,819.2z"/>
	</g>
	<g>
		<polygon class="st9" points="241.4,738.8 241.3,723.8 245.3,724.3 		"/>
	</g>
	<g>
		<polygon class="st9" points="240.1,738.4 237.3,719.1 241.3,719 		"/>
	</g>
	<g>
		<path class="st9" d="M253.3,767.2l1.5,0.6l0,0c0.6,0.3,1.4,0,1.6-0.7l0.2-0.4c0.3-0.6,0-1.4-0.7-1.6l0,0l0.3-0.6
			c0.3-0.6,0-1.4-0.7-1.6h-0.1c-0.6-0.3-1.4,0-1.6,0.7l-1,2.4C252.6,766.4,252.8,767,253.3,767.2L253.3,767.2z"/>
		<path class="st9" d="M262.1,772.4l0.6-1.5l0,0c0.3-0.6,0-1.4-0.7-1.6l-0.4-0.2c-0.6-0.3-1.4,0-1.6,0.7l0,0l-0.6-0.3
			c-0.6-0.3-1.4,0-1.6,0.7v0.1c-0.3,0.6,0,1.4,0.7,1.6l2.4,1C261.4,773.1,261.9,772.9,262.1,772.4L262.1,772.4z"/>
		<path class="st9" d="M251.8,778.3l-1.5-0.6l0,0c-0.6-0.3-1.4,0-1.6,0.7l-0.2,0.4c-0.3,0.6,0,1.4,0.7,1.6l0,0l-0.3,0.6
			c-0.3,0.6,0,1.4,0.7,1.6h0.1c0.6,0.3,1.4,0,1.6-0.7l1-2.4C252.5,779.1,252.3,778.5,251.8,778.3L251.8,778.3z"/>
		<path class="st9" d="M258,797.3l-1.5,0.6l0,0c-0.6,0.3-0.9,1-0.7,1.6l0.2,0.4c0.3,0.6,1,0.9,1.6,0.7l0,0l0.3,0.6
			c0.3,0.6,1,0.9,1.6,0.7h0.1c0.6-0.3,0.9-1,0.7-1.6l-1-2.4C259.1,797.3,258.5,797.1,258,797.3L258,797.3z"/>
		<path class="st9" d="M256,777.3l0.6,1.5l0,0c0.3,0.6,1,0.9,1.6,0.7l0.4-0.2c0.6-0.3,0.9-1,0.7-1.6l0,0l0.6-0.3
			c0.6-0.3,0.9-1,0.7-1.6v-0.1c-0.3-0.6-1-0.9-1.6-0.7l-2.4,1C256,776.3,255.8,776.8,256,777.3L256,777.3z"/>
		<path class="st9" d="M257.4,794.3l2.9-1.2l0,0c1.2-0.5,1.8-1.9,1.3-3.1l-0.3-0.7c-0.5-1.2-1.9-1.8-3.1-1.3l0,0l-0.5-1.2
			c-0.5-1.2-1.9-1.8-3.1-1.3l-0.2,0.1c-1.2,0.5-1.8,1.9-1.3,3.1l1.9,4.6C255.4,794.2,256.5,794.7,257.4,794.3L257.4,794.3z"/>
		<path class="st9" d="M251.8,772.8l0.4,1.1l0,0c0.2,0.4,0.7,0.7,1.1,0.5l0.3-0.1c0.4-0.2,0.7-0.7,0.5-1.1l0,0l0.4-0.2
			c0.4-0.2,0.7-0.7,0.5-1.1v-0.1c-0.2-0.4-0.7-0.7-1.1-0.5l-1.7,0.7C251.9,772.1,251.7,772.5,251.8,772.8L251.8,772.8z"/>
		<path class="st9" d="M246.5,799.7l0.5,1.3l0,0c0.2,0.5,0.8,0.8,1.3,0.5l0.3-0.1c0.5-0.2,0.8-0.8,0.5-1.3l0,0l0.5-0.2
			c0.5-0.2,0.8-0.8,0.5-1.3v-0.1c-0.2-0.5-0.8-0.8-1.3-0.5l-2,0.8C246.6,798.9,246.4,799.3,246.5,799.7L246.5,799.7z"/>
		<path class="st9" d="M259.9,763.8l0.3,0.7l0,0c0.1,0.3,0.5,0.4,0.8,0.3l0.2-0.1c0.3-0.1,0.4-0.5,0.3-0.8l0,0l0.3-0.1
			c0.3-0.1,0.4-0.5,0.3-0.8l0,0c-0.1-0.3-0.5-0.4-0.8-0.3l-1.1,0.5C259.9,763.3,259.8,763.5,259.9,763.8L259.9,763.8z"/>
		<path class="st9" d="M254.5,814.9l0.3,0.7l0,0c0.1,0.3,0.5,0.4,0.8,0.3l0.2-0.1c0.3-0.1,0.4-0.5,0.3-0.8l0,0l0.3-0.1
			c0.3-0.1,0.4-0.5,0.3-0.8l0,0c-0.1-0.3-0.5-0.4-0.8-0.3l-1.1,0.5C254.5,814.4,254.4,814.6,254.5,814.9L254.5,814.9z"/>
		<path class="st9" d="M259.5,757.7l0.3,0.7l0,0c0.1,0.3,0.5,0.4,0.8,0.3l0.2-0.1c0.3-0.1,0.4-0.5,0.3-0.8l0,0l0.3-0.1
			c0.3-0.1,0.4-0.5,0.3-0.8l0,0c-0.1-0.3-0.5-0.4-0.8-0.3l-1.1,0.5C259.6,757.3,259.4,757.5,259.5,757.7L259.5,757.7z"/>
		<path class="st9" d="M246.4,792.5l1.9,0.8l0,0c0.8,0.3,1.7-0.1,2-0.9l0.2-0.5c0.3-0.8-0.1-1.7-0.9-2l0,0l0.3-0.8
			c0.3-0.8-0.1-1.7-0.9-2l-0.1-0.1c-0.8-0.3-1.7,0.1-2,0.9l-1.3,3.1C245.5,791.6,245.8,792.3,246.4,792.5L246.4,792.5z"/>
		<path class="st9" d="M258,807.5l-1.2-2.9l0,0c-0.5-1.2-1.9-1.8-3.1-1.3l-0.7,0.3c-1.2,0.5-1.8,1.9-1.3,3.1l0,0l-1.2,0.5
			c-1.2,0.5-1.8,1.9-1.3,3.1l0.1,0.2c0.5,1.2,1.9,1.8,3.1,1.3l4.6-1.9C258,809.4,258.4,808.4,258,807.5L258,807.5z"/>
	</g>
</g>
<g>
	<g>
		<polygon class="st9" points="152,834.5 140.5,826.5 143.2,823.6 		"/>
	</g>
	<g>
		<polygon class="st9" points="149,839.9 135.4,843.1 135,839.1 		"/>
	</g>
	<g>
		<polygon class="st9" points="149.8,834.8 136.8,829.6 138.8,826.2 		"/>
	</g>
	<g>
		<polygon class="st9" points="147.9,837 131.4,832.3 132.9,828.6 		"/>
	</g>
	<g>
		<polygon class="st9" points="145.9,837.8 131.9,838.4 132.3,834.5 		"/>
	</g>
	<path class="st18" d="M159.9,804.8L159.9,804.8c0.1-0.1,0.2-0.3,0.3-0.4c5.1-6.5,14.1-8.8,21.7-5.4l6.6,2.9l1,8.7
		c0,0.3,0.2,0.6,0.4,0.9l2.5,3.5c0.3,0.5,0.5,1.1,0.3,1.6l-1.5,5.2c-0.1,0.5-0.1,0.9,0.1,1.4l7,13.8l0,0c-2.6,0.5-5.2-0.6-6.6-2.9
		l-9.3-15.2l-2.8-2.6l-7.6-4.1c1.7,3.9,2.6,8,2.6,12.1c0,11.3-6.3,22.2-17,27.4l-5.8,12.1l-1.9-7c-0.3-1-0.4-2.1-0.4-3.2l0,0
		c0-4.5,0.6-8.9,1.8-13.2l1.4-5.3c0.7-2.7,1.2-5.4,1.6-8.1l1.4-11.6C156.1,811.7,157.6,808,159.9,804.8z"/>
	<path class="st18" d="M143.5,842.6c-0.9-2.4-0.9-5.2,0.1-7.8s2.9-4.6,5.2-5.8l10.9,8.7l-2.3,6L143.5,842.6z"/>
	<circle class="st9" cx="188.3" cy="814.7" r="4.6"/>
	<circle class="st11" cx="189.5" cy="815.2" r="1.6"/>
	<g>
		<path class="st18" d="M158.2,848.1l-0.9,4.6l-0.5,2.3c-0.1,0.4-0.1,0.7-0.2,1c-0.1,0.3-0.1,0.6-0.1,0.9c-0.2,2.4,0.4,5,1.7,7.1
			c0.7,1.1,1.5,2,2.5,2.9c1,0.8,2.1,1.5,3.2,1.9c2.2,0.8,4.9,0.7,7.1-0.5c2-1,3.3-3.4,3-5.7c0-0.3-0.1-0.6-0.2-0.9
			c-0.1-0.3-0.1-0.5-0.3-0.9l-0.4-1.1c-0.1-0.2-0.2-0.4-0.3-0.6c-0.2-0.3-0.6-0.6-1-0.8c-0.3-0.2-1-0.2-1.6-0.2
			c-1.2,0-2.4,0.5-3.3,1.3c-0.3,0.2-0.4,0.4-0.5,0.5c-0.1,0.2-0.2,0.4-0.3,0.6c-0.2,0.4-0.2,0.9,0,1.4c0,0.1,0.1,0.3,0.2,0.5
			l0.2,0.4c0.1,0.2,0.2,0.3,0.3,0.5c0.3,0.3,0.7,0.4,1.1,0.4c0.9,0,1.7-0.9,1.5-1.9c-0.1-0.6,0.4-1.2,1-1.3s1.2,0.3,1.3,0.9l0,0
			c0.2,1.1-0.1,2.3-0.7,3.2c-0.6,0.9-1.7,1.5-2.8,1.7s-2.3-0.2-3.2-0.9c-0.5-0.4-0.8-0.8-1.1-1.3c-0.1-0.1-0.1-0.3-0.2-0.4l-0.1-0.3
			c-0.1-0.2-0.1-0.3-0.3-0.6c-0.4-1-0.4-2.2-0.2-3.2c0.1-0.5,0.4-1,0.7-1.5s0.7-0.9,1-1.2c1.4-1.3,3.2-2.2,5.2-2.4
			c0.5-0.1,1-0.1,1.5,0c0.5,0,1.1,0.1,1.6,0.3c1.1,0.3,2.1,1,2.8,1.9c0.4,0.4,0.7,0.9,0.9,1.4l0.5,1.1c0.2,0.3,0.4,0.8,0.5,1.3
			s0.3,0.9,0.4,1.4c0.7,3.9-1.2,8.2-4.6,10.3c-3.2,2-7.3,2.6-11.1,1.5c-0.9-0.3-1.9-0.6-2.7-1.1c-0.4-0.2-0.8-0.4-1.2-0.7
			c-0.4-0.2-0.8-0.5-1.2-0.8c-1.5-1.1-2.8-2.5-3.9-4c-2.2-3-3.4-6.8-3.3-10.6c0-0.5,0-1,0.1-1.4c0-0.5,0.1-1,0.2-1.3l0.3-2.3
			l0.6-4.7c0.3-1.9,2-3.3,3.9-3s3.3,2,3,3.9C158.2,848,158.2,848,158.2,848.1z"/>
	</g>
	<g>
		<polygon class="st9" points="184.5,804.4 184.9,794.7 188.8,795.6 		"/>
	</g>
	<g>
		<polygon class="st9" points="185.4,804.5 188.5,792.3 192.2,793.9 		"/>
	</g>
	<g>
		<path class="st9" d="M170.8,818.6h-1.1l0,0c-0.4,0-0.8-0.3-0.8-0.8v-0.3c0-0.4,0.3-0.8,0.8-0.8l0,0v-0.4c0-0.4,0.3-0.8,0.8-0.8
			h0.1c0.4,0,0.8,0.3,0.8,0.8v1.7C171.4,818.3,171.1,818.6,170.8,818.6L170.8,818.6z"/>
		<path class="st9" d="M164.3,819.7v-1.1l0,0c0-0.4,0.3-0.8,0.8-0.8h0.3c0.4,0,0.8,0.3,0.8,0.8l0,0h0.4c0.4,0,0.8,0.3,0.8,0.8v0.1
			c0,0.4-0.3,0.8-0.8,0.8h-1.7C164.6,820.3,164.3,820.1,164.3,819.7L164.3,819.7z"/>
		<path class="st9" d="M169.1,825.7h1.1l0,0c0.4,0,0.8,0.3,0.8,0.8v0.3c0,0.4-0.3,0.8-0.8,0.8l0,0v0.4c0,0.4-0.3,0.8-0.8,0.8h-0.1
			c-0.4,0-0.8-0.3-0.8-0.8v-1.7C168.5,825.9,168.7,825.7,169.1,825.7L169.1,825.7z"/>
		<path class="st9" d="M160.9,835.6l0.8,0.7l0,0c0.3,0.3,0.3,0.8,0,1.1l-0.2,0.2c-0.3,0.3-0.8,0.3-1.1,0l0,0l-0.3,0.3
			c-0.3,0.3-0.8,0.3-1.1,0l-0.1-0.1c-0.3-0.3-0.3-0.8,0-1.1l1.2-1.2C160.3,835.4,160.7,835.4,160.9,835.6L160.9,835.6z"/>
		<path class="st9" d="M166.8,824.1l-0.7,0.8l0,0c-0.3,0.3-0.8,0.3-1.1,0l-0.2-0.2c-0.3-0.3-0.3-0.8,0-1.1l0,0l-0.3-0.3
			c-0.3-0.3-0.3-0.8,0-1.1l0.1-0.1c0.3-0.3,0.8-0.3,1.1,0l1.2,1.2C167,823.4,167,823.8,166.8,824.1L166.8,824.1z"/>
		<path class="st9" d="M162,833.9l-1.4-1.4l0,0c-0.6-0.6-0.6-1.5,0-2.1l0.3-0.4c0.6-0.6,1.5-0.6,2.1,0l0,0l0.6-0.6
			c0.6-0.6,1.5-0.6,2.1,0l0.1,0.1c0.6,0.6,0.6,1.5,0,2.1l-2.2,2.3C163.2,834.4,162.5,834.4,162,833.9L162,833.9z"/>
		<path class="st9" d="M170.3,822.4l-0.5,0.5l0,0c-0.2,0.2-0.6,0.2-0.8,0l-0.1-0.1c-0.2-0.2-0.2-0.6,0-0.8l0,0l-0.2-0.2
			c-0.2-0.2-0.2-0.6,0-0.8l0,0c0.2-0.2,0.6-0.2,0.8,0l0.9,0.8C170.5,821.9,170.5,822.2,170.3,822.4L170.3,822.4z"/>
		<path class="st9" d="M167.2,839.7l-0.6,0.6l0,0c-0.3,0.3-0.7,0.3-0.9,0l-0.2-0.2c-0.3-0.3-0.3-0.7,0-0.9l0,0l-0.3-0.3
			c-0.3-0.3-0.3-0.7,0-0.9l0,0c0.3-0.3,0.7-0.3,0.9,0l1,1C167.4,839.2,167.4,839.5,167.2,839.7L167.2,839.7z"/>
		<path class="st9" d="M167.6,815.1l-0.3,0.4l0,0c-0.1,0.1-0.4,0.2-0.5,0l-0.1-0.1c-0.1-0.1-0.2-0.4,0-0.5l0,0l-0.1-0.1
			c-0.1-0.1-0.2-0.4,0-0.5l0,0c0.1-0.1,0.4-0.2,0.5,0l0.6,0.5C167.8,814.8,167.8,814.9,167.6,815.1L167.6,815.1z"/>
		<path class="st9" d="M159,846.9l-0.3,0.4l0,0c-0.1,0.1-0.4,0.2-0.5,0l-0.1-0.1c-0.1-0.1-0.2-0.4,0-0.5l0,0l-0.1-0.1
			c-0.1-0.1-0.2-0.4,0-0.5l0,0c0.1-0.1,0.4-0.2,0.5,0l0.6,0.5C159.1,846.7,159.1,846.8,159,846.9L159,846.9z"/>
		<path class="st9" d="M169.2,811.5l-0.3,0.4l0,0c-0.1,0.1-0.4,0.2-0.5,0l-0.1-0.1c-0.1-0.1-0.2-0.4,0-0.5l0,0l-0.1-0.1
			c-0.1-0.1-0.2-0.4,0-0.5l0,0c0.1-0.1,0.4-0.2,0.5,0l0.6,0.5C169.3,811.2,169.4,811.4,169.2,811.5L169.2,811.5z"/>
		<path class="st9" d="M169,835.4h-1.3l0,0c-0.6,0-1-0.4-1-1v-0.3c0-0.6,0.4-1,1-1l0,0v-0.6c0-0.6,0.4-1,1-1h0.1c0.6,0,1,0.4,1,1
			v2.1C169.7,835.1,169.4,835.4,169,835.4L169,835.4z"/>
		<path class="st9" d="M158.6,841.7l1.4-1.4l0,0c0.6-0.6,1.5-0.6,2.1,0l0.4,0.3c0.6,0.6,0.6,1.5,0,2.1l0,0l0.6,0.6
			c0.6,0.6,0.6,1.5,0,2.1l-0.1,0.1c-0.6,0.6-1.5,0.6-2.1,0l-2.3-2.2C158.1,842.9,158.1,842.1,158.6,841.7L158.6,841.7z"/>
	</g>
</g>
<g>
	<g>
		<g>
			<polygon class="st9" points="880.6,1013.9 892.5,1009 894.4,1008.3 895.8,1008.9 913.6,1016.4 915.2,1017 915.5,1018.3 
				918.6,1031.9 915.4,1033 909.5,1020.4 911.5,1022.3 892.9,1016.9 896.2,1016.7 884.9,1022.9 			"/>
		</g>
		<g>
			<polygon class="st9" points="879.9,1023.9 893.8,1022.9 895.8,1022.8 897,1023.8 912.8,1037.5 914.3,1038.9 914,1040.4 
				910.5,1055.2 907.2,1054.7 907.7,1039.6 908.9,1042.5 891.7,1030.5 894.9,1031.4 881.1,1033.8 			"/>
		</g>
		<g>
			<polygon class="st9" points="867.2,1030.3 883,1033.2 884.9,1033.5 885.8,1034.7 899.6,1053.9 900.4,1055.1 900.3,1056.1 
				896.6,1081 893.2,1080.7 894.1,1055.6 894.8,1057.8 879.1,1040.1 881.9,1041.6 865.8,1040.2 			"/>
		</g>
		<g>
			<polygon class="st9" points="865,1036.5 873.9,1042.4 875.7,1043.5 876.1,1044.3 885.8,1060.4 887.6,1063.3 886.2,1065.5 
				877.4,1078.9 876.5,1080.3 875.4,1080.5 866.3,1082.4 864.9,1077.6 873.4,1074.1 871.5,1075.7 877.7,1060.9 878,1066 865.6,1052 
				867.8,1053.9 858,1049.8 			"/>
		</g>
	</g>
	<g>
		<g>
			<polygon class="st9" points="756.6,1022.9 745.3,1016.7 748.5,1016.9 730,1022.3 732,1020.4 726,1033 722.9,1031.9 726,1018.3 
				726.2,1017 727.9,1016.4 745.7,1008.9 747.1,1008.3 748.9,1009 760.9,1013.9 			"/>
		</g>
		<g>
			<polygon class="st9" points="760.4,1033.8 746.6,1031.4 749.7,1030.5 732.6,1042.5 733.8,1039.6 734.3,1054.7 731,1055.2 
				727.5,1040.4 727.1,1038.9 728.7,1037.5 744.5,1023.8 745.6,1022.8 747.6,1022.9 761.6,1023.9 			"/>
		</g>
		<g>
			<polygon class="st9" points="775.6,1040.2 759.6,1041.6 762.4,1040.1 746.7,1057.8 747.3,1055.6 748.2,1080.7 744.9,1081 
				741.2,1056.1 741.1,1055.1 741.9,1053.9 755.7,1034.7 756.6,1033.5 758.5,1033.2 774.3,1030.3 			"/>
		</g>
		<g>
			<polygon class="st9" points="783.5,1049.8 773.7,1053.9 775.9,1052 763.5,1066 763.8,1060.9 770,1075.7 768,1074.1 776.6,1077.6 
				775.1,1082.4 766.1,1080.5 765,1080.3 764.1,1078.9 755.3,1065.5 753.9,1063.3 755.7,1060.4 765.4,1044.3 765.8,1043.5 
				767.6,1042.4 776.5,1036.5 			"/>
		</g>
	</g>
	<g>
		<path class="st29" d="M904.4,987.7"/>
	</g>
	<g>
		<path class="st9" d="M875.3,928.1c-2.4,6.2-1.1,13.4,3.9,18.4s12.2,6.3,18.4,3.9L875.3,928.1z"/>
		<path class="st9" d="M868.7,912.6l42.2,42.2c3.1-11.5,0.1-24.3-8.9-33.3S880.2,909.6,868.7,912.6z"/>
		<g>
			<path class="st29" d="M904.3,954.2"/>
		</g>
		<path class="st9" d="M893.9,974.2h-7.3v-31.8h24.8v14.4C911.3,966.4,903.5,974.2,893.9,974.2z"/>
		<path class="st9" d="M886.9,999.9h-4v-15.1c0-5.2,4.2-9.4,9.4-9.4h4v15.1C896.2,995.7,892,999.9,886.9,999.9z"/>
	</g>
	<g>
		<path class="st9" d="M766.7,928.1c2.4,6.2,1.1,13.4-3.9,18.4s-12.2,6.3-18.4,3.9L766.7,928.1z"/>
		<path class="st9" d="M773.2,912.6L731,954.9c-3.1-11.5-0.1-24.3,8.9-33.3C749,912.5,761.7,909.6,773.2,912.6z"/>
		<g>
			<path class="st29" d="M737.7,954.2"/>
		</g>
		<path class="st9" d="M748.1,974.2h7.3v-31.8h-24.8v14.4C730.6,966.4,738.4,974.2,748.1,974.2z"/>
		<path class="st9" d="M755.1,999.9h4v-15.1c0-5.2-4.2-9.4-9.4-9.4h-4v15.1C745.7,995.7,749.9,999.9,755.1,999.9z"/>
	</g>
	<path class="st1" d="M840,974.6h-38.6c-22.7,0-41.7,17.3-43.8,39.9l-1.6,16.7h1c10.5,0.5,19.7,7.4,23,17.4l0,0
		c3.5,10.4,13.3,17.5,24.3,17.5h15.5h1.7H837c11,0,20.8-7,24.3-17.5l0,0c3.4-10,12.5-16.9,23-17.4h1l-1.6-16.7
		C881.6,991.9,862.7,974.6,840,974.6z"/>
	<g>
		<g>
			<circle class="st9" cx="841" cy="963.4" r="3.1"/>
			<polyline class="st30" points="837.2,966.7 832.5,971.4 832.5,982.5 			"/>
		</g>
		<g>
			<circle class="st9" cx="800.4" cy="963.4" r="3.1"/>
			<polyline class="st30" points="804.2,966.7 808.9,971.4 808.9,982.5 			"/>
		</g>
	</g>
	<g>
		<circle class="st18" cx="824.6" cy="986.3" r="1.1"/>
		<circle class="st18" cx="805.7" cy="986.8" r="1.8"/>
		<circle class="st18" cx="841.4" cy="989.6" r="1.8"/>
		<circle class="st18" cx="821" cy="992.5" r="0.7"/>
		<circle class="st18" cx="858.7" cy="993.6" r="0.7"/>
		<circle class="st18" cx="798.5" cy="993.3" r="0.7"/>
		<circle class="st18" cx="850.3" cy="985.4" r="0.7"/>
		<circle class="st18" cx="830.1" cy="993.8" r="0.7"/>
		<circle class="st18" cx="815.6" cy="983.2" r="0.7"/>
		<circle class="st18" cx="783.3" cy="995.1" r="0.7"/>
		<circle class="st18" cx="791.2" cy="986.8" r="1.4"/>
	</g>
</g>
<path class="st31" d="M1363,224.2c15.1,0,29-4.6,40.7-12.4c11.6,7.8,25.6,12.4,40.7,12.4s29-4.6,40.7-12.4
	c11.6,7.8,25.6,12.4,40.7,12.4s29-4.6,40.7-12.4c11.6,7.8,25.6,12.4,40.7,12.4s29-4.6,40.7-12.4c11.6,7.8,25.6,12.4,40.7,12.4
	s29-4.6,40.7-12.4c9.1,6.1,19.6,10.2,30.9,11.7"/>
<path class="st31" d="M0,913.2c10.2,5.4,21.8,8.5,34.2,8.5c15.1,0,29-4.6,40.7-12.4c11.6,7.8,25.6,12.4,40.7,12.4s29-4.6,40.7-12.4
	c11.6,7.8,25.6,12.4,40.7,12.4c15.1,0,29-4.6,40.7-12.4c11.6,7.8,25.6,12.4,40.7,12.4s29-4.6,40.7-12.4
	c11.6,7.8,25.6,12.4,40.7,12.4s29-4.6,40.7-12.4c11.6,7.8,25.6,12.4,40.7,12.4"/>
<path class="st31" d="M442.7,1103.2c15.1,0,29-4.6,40.7-12.4c11.6,7.8,25.6,12.4,40.7,12.4c15.1,0,29-4.6,40.7-12.4
	c11.6,7.8,25.6,12.4,40.7,12.4s29-4.6,40.7-12.4c11.6,7.8,25.6,12.4,40.7,12.4"/>
<g>
	<g>
		<path class="st12" d="M1364.5,302.4l15.6,1.3c0.4,0,0.6,0.4,0.6,0.7c0,0.3-0.3,0.6-0.6,0.6l-15.6,1.3c-1.1,0.1-2.1-0.7-2.2-1.8
			c-0.1-1.1,0.7-2.1,1.8-2.2C1364.2,302.4,1364.4,302.4,1364.5,302.4z"/>
	</g>
	<g>
		<path class="st12" d="M1397.3,302.4l48.4,1.3c0.4,0,0.7,0.3,0.7,0.7c0,0.4-0.3,0.6-0.7,0.7l-48.4,1.3c-1.1,0-2-0.8-2.1-1.9
			c0-1.1,0.8-2,1.9-2.1C1397.2,302.4,1397.2,302.4,1397.3,302.4z"/>
	</g>
	<g>
		<path class="st12" d="M1382.9,290.3l32,1.3c0.4,0,0.7,0.3,0.6,0.7c0,0.4-0.3,0.6-0.6,0.6l-32,1.3c-1.1,0-2-0.8-2.1-1.9
			c0-1.1,0.8-2,1.9-2.1C1382.8,290.3,1382.8,290.3,1382.9,290.3z"/>
	</g>
	<g>
		<path class="st12" d="M1388.1,444l34,1.3c0.4,0,0.7,0.3,0.6,0.7c0,0.4-0.3,0.6-0.6,0.6l-34,1.3c-1.1,0-2-0.8-2.1-1.9
			c0-1.1,0.8-2,1.9-2.1C1388,444,1388,444,1388.1,444z"/>
	</g>
	<g>
		<path class="st12" d="M1438.2,444l14,1.3c0.4,0,0.6,0.4,0.6,0.7c0,0.3-0.3,0.6-0.6,0.6l-14,1.3c-1.1,0.1-2.1-0.7-2.2-1.8
			c-0.1-1.1,0.7-2.1,1.8-2.2C1438,444,1438.1,444,1438.2,444z"/>
	</g>
	<g>
		<path class="st12" d="M1358.4,436.1l14,1.3c0.4,0,0.6,0.4,0.6,0.7c0,0.3-0.3,0.6-0.6,0.6l-14,1.3c-1.1,0.1-2.1-0.7-2.2-1.8
			c-0.1-1.1,0.7-2.1,1.8-2.2C1358.2,436.1,1358.3,436.1,1358.4,436.1z"/>
	</g>
	<g>
		<path class="st12" d="M1368,456.1l32,1.3c0.4,0,0.7,0.3,0.6,0.7c0,0.4-0.3,0.6-0.6,0.6l-32,1.3c-1.1,0-2-0.8-2.1-1.9
			c0-1.1,0.8-2,1.9-2.1C1367.9,456.1,1368,456.1,1368,456.1z"/>
	</g>
</g>
<g>
	<path class="st9" d="M1579.2,643.6l-0.2,17.9c0,1.5,0,2.8-0.1,5c-0.2,2-0.6,4-1.2,5.9c-1.3,3.8-3.5,7.3-6.4,10.2
		c-2.9,2.8-6.4,4.9-10.3,6.1c-1.9,0.6-3.9,0.9-5.9,1.1c-0.5,0-1,0-1.5,0h-1.2h-2.2l-17.9-0.2l-8.9-0.1h-4.5h-1.1h-1.2
		c-1,0-2-0.1-2.9-0.3c-3.9-0.6-7.7-2.1-10.9-4.4c-3.2-2.3-5.8-5.3-7.6-8.8c-1.8-3.5-2.7-7.4-2.7-11.3v-0.9c0-0.3,0-0.5-0.1-0.8
		c-0.1-0.5-0.1-1-0.2-1.5c-0.2-1-0.6-2-1-2.9c-1.8-3.7-5.5-6.5-9.6-7.2c-0.5-0.1-1-0.1-1.6-0.2h-0.4h-0.5h-1.1h-4.5h-0.6h-0.7
		c-0.5,0-1-0.1-1.4-0.1c-1-0.1-1.9-0.2-2.9-0.4c-1.9-0.4-3.7-1-5.4-1.9c-3.5-1.7-6.5-4.2-8.8-7.2c-2.3-3.1-3.9-6.7-4.5-10.4
		c-0.2-0.9-0.3-1.9-0.3-2.8c0-0.5,0-1,0-1.4v-1.1v-4.5l0.1-8.9l0.1-8.9v-2.2v-1.1v-0.6V599c0.1-1.9,0.4-3.7,1-5.6
		c2.1-7.3,7.9-13.2,15-15.6c1.8-0.6,3.6-1,5.5-1.2c0.5,0,0.9-0.1,1.4-0.1c0.4,0,1,0,1.3,0h2.2l8.9,0.1l35.7,0.3c2.4,0,4.3,2,4.3,4.3
		s-1.9,4.2-4.3,4.3l-35.7,0.3l-8.9,0.1h-2.2c-0.4,0-0.6,0-0.9,0s-0.6,0-0.8,0.1c-1.1,0.1-2.2,0.4-3.2,0.8c-4.2,1.5-7.5,5.1-8.6,9.4
		c-0.3,1.1-0.5,2.1-0.5,3.2v0.9v1.1v2.2l0.1,8.9l0.1,8.9v4.5v1.1v0.8c0,0.5,0.1,1.1,0.2,1.6c0.8,4.2,3.7,7.9,7.6,9.7
		c1,0.4,2,0.8,3,1c0.5,0.1,1,0.2,1.6,0.2c0.3,0,0.5,0,0.8,0h0.4h0.6h4.5h1.1h0.6h0.7c1,0,1.9,0.1,2.9,0.2c3.8,0.6,7.5,2.1,10.7,4.3
		c3.2,2.3,5.8,5.3,7.6,8.7c0.9,1.7,1.6,3.6,2,5.5c0.2,0.9,0.4,1.9,0.5,2.9c0.1,0.5,0.1,1,0.1,1.5v1.4c0,2.1,0.6,4.1,1.5,5.9
		c1.9,3.6,5.6,6.1,9.6,6.6c0.5,0.1,1,0.1,1.5,0.1h1h1.1h4.5l8.9-0.1l17.9-0.2h2.2h1.1c0.2,0,0.5,0,0.7,0c1-0.1,1.9-0.3,2.8-0.6
		c1.8-0.6,3.5-1.7,4.9-3c1.4-1.4,2.4-3.1,2.9-4.9c0.3-0.9,0.5-1.8,0.5-2.8c0.1-0.7,0-2.5,0-3.9l-0.2-17.9c0-3.9,3.1-7,6.9-7.1
		s7,3.1,7.1,6.9C1579.2,643.5,1579.2,643.6,1579.2,643.6z"/>
</g>
<circle class="st32" cx="1678.1" cy="491.6" r="31.8"/>
<circle class="st32" cx="1639.2" cy="598.4" r="3.6"/>
<circle class="st32" cx="1642.9" cy="568" r="3.6"/>
<circle class="st32" cx="1654.1" cy="584.1" r="6.5"/>
<circle class="st32" cx="1662.7" cy="547.7" r="10.6"/>
<path class="st12" d="M1549.7,629.2c-16.8,0-30.5-13.1-31.2-29.9l-2.3-89.1c-0.6-15.8,5.1-30.8,16.1-42.2
	c11-11.4,25.7-17.7,41.6-17.7c15.8,0,30.6,6.3,41.6,17.7c11,11.4,16.7,26.4,16.1,42.2l-2.3,89.1c-0.7,16.8-14.4,29.9-31.2,29.9
	H1549.7z"/>
<path class="st28" d="M1598.1,619.2h-48.4c-11.4,0-20.7-9-21.2-20.3l-2.3-59.1c-1-27,20.6-49.5,47.7-49.5l0,0
	c27,0,48.7,22.5,47.7,49.5l-2.3,59.1C1618.8,610.2,1609.4,619.2,1598.1,619.2z"/>
<circle class="st9" cx="1573.9" cy="616.5" r="28"/>
<circle class="st20" cx="1573.9" cy="616.5" r="18"/>
<path class="st9" d="M1612.3,520.4c-0.8-4.6-4.9-8-9.7-8h-59.8c-4.8,0-8.8,3.5-9.7,8c-12.8,0.9-22.9,11.6-22.9,24.6v7.5
	c0,13.8,11.2,24.9,24.9,24.9h19.9l0,0c0,1.3,1.1,2.4,2.4,2.4h7.3c1,1.8,3,3,5.2,3h5.5c2.2,0,4.2-1.2,5.2-3h7.3
	c1.3,0,2.4-1.1,2.4-2.4l0,0h19.9c13.8,0,24.9-11.2,24.9-24.9V545C1635.2,532,1625.1,521.3,1612.3,520.4z"/>
<path class="st12" d="M1610.6,525.2h-75.7c-10.9,0-19.7,8.8-19.7,19.7v7.5c0,11.1,9,20.1,20.1,20.1l0,0c13.7,0,25.9-9,30-22.1l0.9-3
	c0.9-2.9,3.6-4.9,6.7-4.9l0,0c3.1,0,5.8,2,6.7,4.9l0.9,3c4.1,13.1,16.2,22.1,30,22.1l0,0c11.1,0,20.1-9,20.1-20.1V545
	C1630.3,534.1,1621.5,525.2,1610.6,525.2z"/>
<circle class="st11" cx="1604.9" cy="544.5" r="5"/>
<circle class="st11" cx="1541.5" cy="544.5" r="5"/>
<path class="st33" d="M1415,1135v-26.5c0-15.3,12.4-27.7,27.7-27.7h164.5c15.3,0,27.7-12.4,27.7-27.7v-226
	c0-15.3,12.4-27.7,27.7-27.7l0,0c15.3,0,27.7-12.4,27.7-27.7V734c0-15.3,12.4-27.7,27.7-27.7h41.8"/>
<path class="st34" d="M1599.9,987.2L1599.9,987.2c0,16.6,13.4,30,30,30l0,0"/>
<path class="st34" d="M1639.6,909.8L1639.6,909.8c16.6,0,30-13.4,30-30l0,0"/>
<path class="st34" d="M1504.7,1086.8L1504.7,1086.8c0,16.6,13.4,30,30,30l0,0"/>
<polygon class="st28" points="1311,625.1 1295.5,625.1 1285.2,611.3 1293,611.3 "/>
<path class="st28" d="M1367.7,630.3c-13.2-6.1-27.8-8.8-42.3-7.8l-52,3.4c-2.2,0.1-4,2-4,4.3l0,0l22.9,1.1v2.6h-2
	c-2.7,0-5,1.8-5.8,4.3c-0.4,1.1-1.5,1.9-2.7,1.9l0,0c-6.8,0-12.4,5.5-12.4,12.4l0,0l135.3-4.3l-10.8-5.7L1367.7,630.3z"/>
<line class="st20" x1="1316" y1="624.2" x2="1306" y2="604.2"/>
<path class="st11" d="M1392,667.3h-141.2l12.4-12.2c3.6-3.6,8.5-5.6,13.5-5.7l146.4-2.4l-21.5,16.9
	C1398.9,666.1,1395.5,667.3,1392,667.3z"/>
<path class="st35" d="M1263,662.3l3.7-3.6c2.7-2.7,6.3-4.2,10.1-4.2l21.6-0.2"/>
<circle class="st1" cx="1376.9" cy="657.3" r="2.6"/>
<circle class="st1" cx="1384.7" cy="657.3" r="2.6"/>
<circle class="st1" cx="1392.4" cy="657.3" r="2.6"/>
<g>
	<path class="st28" d="M1396.7,675.9c3.3,5.4,9.2,9,15.9,9c6.7,0,12.7-3.6,15.9-9H1396.7z"/>
	<path class="st28" d="M1325.7,675.9c3.3,5.4,9.2,9,15.9,9c6.7,0,12.7-3.6,15.9-9H1325.7z"/>
	<path class="st28" d="M1290.2,675.9c3.3,5.4,9.2,9,15.9,9c6.7,0,12.7-3.6,15.9-9H1290.2z"/>
	<path class="st28" d="M1253.6,675.9c3.3,5.4,9.2,9,15.9,9c6.7,0,12.7-3.6,15.9-9H1253.6z"/>
	<path class="st28" d="M1361.2,675.9c3.3,5.4,9.2,9,15.9,9s12.7-3.6,15.9-9H1361.2z"/>
</g>
<path class="st9" d="M1325.5,637.9h58.9l-16.7-7.7c-1.2-0.6-2.4-1.1-3.7-1.6h-38.6c-2.6,0-4.6,2.1-4.6,4.6l0,0
	C1320.9,635.9,1323,637.9,1325.5,637.9z"/>
<path class="st9" d="M1312.4,637.9L1312.4,637.9c-2.5,0-4.4-2-4.4-4.4v-0.4c0-2.5,2-4.4,4.4-4.4l0,0c2.5,0,4.4,2,4.4,4.4v0.4
	C1316.9,635.9,1314.9,637.9,1312.4,637.9z"/>
<g>
	<g>
		<line class="st20" x1="1376.9" y1="649.1" x2="1376.9" y2="643"/>
		<line class="st20" x1="1390.2" y1="649.1" x2="1390.2" y2="643"/>
		<line class="st20" x1="1403.4" y1="649.1" x2="1403.4" y2="643"/>
		<line class="st20" x1="1416.7" y1="647.1" x2="1416.7" y2="643"/>
		<line class="st20" x1="1363.7" y1="649.1" x2="1363.7" y2="643"/>
		<line class="st20" x1="1350.4" y1="648.1" x2="1350.4" y2="643"/>
	</g>
	<line class="st20" x1="1344.8" y1="643" x2="1425.4" y2="643"/>
</g>
<path class="st11" d="M1418.4,617.5c-1.3-2-3.6-3.4-6.3-3.4c-0.2,0-0.3,0-0.5,0c-2.1,0.1-4.2-0.6-5.6-2.1c-1.8-1.9-4.4-3-7.2-3
	c-0.5,0-1,0-1.5,0.1c-2.3,0.3-4.5-0.5-6.1-2.2c-2.4-2.6-5.8-4.2-9.6-4.2c-7.3,0-13.2,5.9-13.2,13.2c0,0.5,0,1.1,0.1,1.6
	L1418.4,617.5L1418.4,617.5z"/>
<g id="Rectangle_2_copy_16">
	<g>
		<rect x="1590.7" y="268.1" class="st36" width="169.3" height="115"/>
	</g>
</g>
<path class="st28" d="M997.7,1135c-1.9-9.1-5.4-17.9-10.7-26l0,0c-5.2,8.1-8.8,16.9-10.7,26H997.7z"/>
<path class="st28" d="M1032.9,1135c8.5-22.3,6.1-47.6-7.3-68.1l0,0l0,0c-13.3,20.5-15.7,45.9-7.3,68.1H1032.9z"/>
<path class="st28" d="M599.3,0c2,6.5,4.9,12.8,8.8,18.7l0,0c3.8-5.9,6.7-12.2,8.8-18.7H599.3z"/>
<path class="st28" d="M511.3,0c-3.3,18.5,0.4,38,11.1,54.5l0,0l0,0c10.6-16.5,14.3-36,11-54.5H511.3z"/>
<path class="st28" d="M478.2,0c1.6,3.5,3.4,6.9,5.5,10.1l0,0l0,0c2.1-3.3,4-6.6,5.5-10.1H478.2z"/>
</svg>
