<?xml version="1.0" encoding="utf-8"?>
<!-- Generator: Adobe Illustrator 23.0.1, SVG Export Plug-In . SVG Version: 6.00 Build 0)  -->
<!DOCTYPE svg PUBLIC "-//W3C//DTD SVG 1.1//EN" "http://www.w3.org/Graphics/SVG/1.1/DTD/svg11.dtd" [
	<!ENTITY ns_extend "http://ns.adobe.com/Extensibility/1.0/">
	<!ENTITY ns_ai "http://ns.adobe.com/AdobeIllustrator/10.0/">
	<!ENTITY ns_graphs "http://ns.adobe.com/Graphs/1.0/">
	<!ENTITY ns_vars "http://ns.adobe.com/Variables/1.0/">
	<!ENTITY ns_imrep "http://ns.adobe.com/ImageReplacement/1.0/">
	<!ENTITY ns_sfw "http://ns.adobe.com/SaveForWeb/1.0/">
	<!ENTITY ns_custom "http://ns.adobe.com/GenericCustomNamespace/1.0/">
	<!ENTITY ns_adobe_xpath "http://ns.adobe.com/XPath/1.0/">
]>
<svg version="1.1" id="Layer_1" xmlns:x="&ns_extend;" xmlns:i="&ns_ai;" xmlns:graph="&ns_graphs;"
	 xmlns="http://www.w3.org/2000/svg" xmlns:xlink="http://www.w3.org/1999/xlink" x="0px" y="0px" width="170px" height="170px"
	 viewBox="0 0 170 170" style="enable-background:new 0 0 170 170;" xml:space="preserve">
<style type="text/css">
	.st0{fill:#F1BCC5;}
	.st1{fill:#983040;}
	.st2{fill:#BF3B4D;}
	.st3{fill:#C84C5D;}
	.st4{fill:none;stroke:#C84C5D;stroke-width:4;stroke-miterlimit:10;}
</style>
<metadata>
	<sfw  xmlns="&ns_sfw;">
		<slices></slices>
		<sliceSourceBounds  bottomLeftOrigin="true" height="153.1" width="150" x="14.6" y="7.2"></sliceSourceBounds>
	</sfw>
</metadata>
<circle class="st0" cx="89.6" cy="87.8" r="75"/>
<g>
	<circle class="st1" cx="147.2" cy="17.7" r="8"/>
	<circle class="st1" cx="147.2" cy="42.2" r="8"/>
	<circle class="st1" cx="147.2" cy="66.7" r="8"/>
</g>
<g>
	<g>
		<rect x="48.2" y="41" class="st2" width="74.7" height="41.4"/>
		<polygon class="st1" points="80.7,68.1 80.7,55.2 94.7,61.7 		"/>
	</g>
	<g>
		<rect x="114.2" y="90.1" class="st3" width="17.9" height="32.6"/>
		<polygon class="st0" points="119.6,109.6 119.6,103.2 126.6,106.4 		"/>
	</g>
	<g>
		<rect x="58.7" y="96.2" class="st1" width="37.5" height="43.7"/>
		<polygon class="st0" points="74.9,122.7 74.9,113.5 84.9,118.1 		"/>
	</g>
</g>
<polyline class="st4" points="29.2,153.9 39.2,145 29.2,136.1 39.2,127.1 29.2,118.2 39.2,109.3 29.2,100.3 39.2,91.4 "/>
</svg>
