<?xml version="1.0" encoding="UTF-8" standalone="no"?>
<!-- Generator: Adobe Illustrator 14.0.0, SVG Export Plug-In . SVG Version: 6.00 Build 43363)  -->
<!DOCTYPE svg PUBLIC "-//W3C//DTD SVG 1.1//EN" "http://www.w3.org/Graphics/SVG/1.1/DTD/svg11.dtd">
<svg id="Calque_1" xmlns="http://www.w3.org/2000/svg" y="0px" xml:space="preserve" height="134px" width="647px" version="1.1" x="0px" xmlns:xlink="http://www.w3.org/1999/xlink" viewBox="0 0 647 134" enable-background="new 0 0 647 134">
		<path d="m627.46 97.009c-10.326 0-18.693 8.198-18.693 18.307 0 10.101 8.367 18.3 18.693 18.3 10.328 0 18.696-8.199 18.696-18.3-0.01-10.11-8.37-18.311-18.7-18.311m-102.36 10.411l0.029-107.35h-11.292s-18.76 6.785-32.272 8.228v20.277h8.531c2.742 0 3.894 1.171 3.934 3.733v75.109c0 2.646-1.556 4.097-4.073 4.261-2.155 0.143-6.984 0.455-6.984 0.455v20.28h53.188v-20.28s-4.836-0.312-6.986-0.455c-2.53-0.16-4.08-1.61-4.08-4.26zm107.5-53.275c-1.037-22.621-31.673-23.662-47.686-8.381l-2.923-8.759h-37.026v20.731l7.764-0.011c2.753 0 3.769 1.168 3.806 3.729v45.971c0 2.646-1.558 4.097-4.076 4.261-2.156 0.143-6.494 0.451-6.494 0.451v20.284h52.133v-20.284s-4.312-0.309-6.461-0.451c-2.521-0.164-4.082-1.614-4.082-4.261l-0.012-31.169c0-5.842 1.339-15.591 11.649-18.085 1.271 9.749 10.689 12.661 15.286 12.661 11.61 0.003 18.12-8.684 18.12-16.682zm-196.42-18.409c-7.895 0.346-16.223 3.367-22.272 8.624v-44.282h-11.176s-18.273 6.492-32.42 8.228l-0.461 20.277 8.942 0.013c2.745 0 3.927 1.169 3.964 3.734v100.1l25.554-0.026 3.655-8.214c0.78 0.438 12.506 11.459 31.23 9.254 23.573-2.779 35.954-21.444 35.954-49.763 0.02-14.851-4.54-49.62-42.96-47.941zm-4.72 74.554c-4.342 0.32-12.377-0.41-17.544-9.479v-13.285l0.004-0.008h-0.004v-15.362c0-6.641 6.136-12.471 15.628-12.823 9.613-0.356 18.125 6.206 18.125 24.74-0.02 25.008-10.98 25.828-16.22 26.218zm-68.86-2.79s0.002-23.559 0.002-28.944c0-10.315-0.124-20.975-6.952-29.677-6.254-7.963-16.629-13.803-32.382-13.045-10.462 0.504-21.621 5.366-27.782 13.692l-0.971 1.226-0.59-0.71c-6.333-9.146-16.446-14.965-32.197-14.208-10.465 0.504-21.624 5.366-27.785 13.692l-0.92-12.426h-38.603v20.735l8.884 0.131c2.748 0 3.907 1.169 3.945 3.733l0.001 40.577v5.229c0 2.647-1.557 4.099-4.072 4.264-2.156 0.142-6.519 0.451-6.519 0.451v20.279l52.2 0.018v-20.3s-4.113-0.291-6.52-0.451c-2.517-0.172-4.07-1.616-4.07-4.264 0 0 0.042-25.899 0.042-31.086 0-5.179 4.287-15.809 17.894-15.809 10.977 0 13.226 6.69 13.226 14.476 0 7.783 0.012 32.423 0.012 32.423 0 2.647-1.554 4.095-4.069 4.26-2.155 0.145-6.52 0.457-6.52 0.457v20.273h52.145v-20.28s-4.111-0.291-6.521-0.451c-2.515-0.172-4.047-1.616-4.047-4.264h-0.078s0.045-25.899 0.045-31.086c0-5.179 3.822-15.809 17.432-15.809 10.976 0 13.724 6.69 13.724 14.476v27.189l-0.006 5.233c0 2.647-1.559 4.095-4.071 4.26-2.157 0.145-6.521 0.457-6.521 0.457v20.273h52.213v-20.28s-4.113-0.291-6.518-0.451c-2.49-0.17-4.02-1.62-4.02-4.27zm-185.14 0.2v-70.595h-43.382v20.729l8.358 0.002c2.752 0 3.907 1.17 3.944 3.733l-0.043 32.204c0 3.157-2.276 15.012-18.081 15.309-10.77 0.207-13.036-6.145-13.036-14.475v-57.5h-31.947v59.146c0 14.966 6.835 38.51 38.726 37.649 10.47-0.288 22.465-5.554 28.698-13.276l0.261 11.893h35.597v-20.279s-2.879-0.224-5.035-0.368c-2.52-0.15-4.06-1.51-4.06-4.16zm-118.26 2.35c-10.6 0.272-12.65-7.29-12.741-12.781v-38.089h24.703v-22.077h-24.604v-32.813h-19.398c-0.318 0-0.874 0.275-0.952 0.97-1.138 10.104-5.972 27.842-26.053 34.927v18.993h15.286v40.099c0 14.499 9.042 35.094 37.881 34.61 9.732-0.161 20.543-4.152 22.936-7.591l-6.369-18.483c-2.465 1.14-7.17 2.14-10.689 2.23z" fill="#35465c"/>
</svg>