<?xml version="1.0" encoding="utf-8"?>
<!-- Generator: Adobe Illustrator 23.0.1, SVG Export Plug-In . SVG Version: 6.00 Build 0)  -->
<!DOCTYPE svg PUBLIC "-//W3C//DTD SVG 1.1//EN" "http://www.w3.org/Graphics/SVG/1.1/DTD/svg11.dtd" [
	<!ENTITY ns_extend "http://ns.adobe.com/Extensibility/1.0/">
	<!ENTITY ns_ai "http://ns.adobe.com/AdobeIllustrator/10.0/">
	<!ENTITY ns_graphs "http://ns.adobe.com/Graphs/1.0/">
	<!ENTITY ns_vars "http://ns.adobe.com/Variables/1.0/">
	<!ENTITY ns_imrep "http://ns.adobe.com/ImageReplacement/1.0/">
	<!ENTITY ns_sfw "http://ns.adobe.com/SaveForWeb/1.0/">
	<!ENTITY ns_custom "http://ns.adobe.com/GenericCustomNamespace/1.0/">
	<!ENTITY ns_adobe_xpath "http://ns.adobe.com/XPath/1.0/">
]>
<svg version="1.1" id="Layer_1" xmlns:x="&ns_extend;" xmlns:i="&ns_ai;" xmlns:graph="&ns_graphs;"
	 xmlns="http://www.w3.org/2000/svg" xmlns:xlink="http://www.w3.org/1999/xlink" x="0px" y="0px" width="53.5px" height="53.5px"
	 viewBox="0 0 53.5 53.5" style="enable-background:new 0 0 53.5 53.5;" xml:space="preserve">
<style type="text/css">
	.st0{fill:#FFFFFF;}
</style>
<metadata>
	<sfw  xmlns="&ns_sfw;">
		<slices></slices>
		<sliceSourceBounds  bottomLeftOrigin="true" height="53.5" width="53.5" x="770.3" y="-1280.7"></sliceSourceBounds>
	</sfw>
</metadata>
<g>
	<path id="path3019_8_" d="M53.5,26.7c0,14.8-12,26.7-26.7,26.7C12,53.5,0,41.5,0,26.7C0,12,12,0,26.7,0C41.5,0,53.5,12,53.5,26.7z"
		/>
	<g id="Shape_15_6_">
		<g>
			<path class="st0" d="M39.2,19c-0.9,0.4-1.9,0.7-2.9,0.8c1.1-0.6,1.9-1.6,2.3-2.8c-1,0.6-2.1,1-3.3,1.2c-0.9-1-2.3-1.6-3.7-1.6
				c-2.8,0-5.1,2.3-5.1,5.1c0,0.4,0,0.8,0.1,1.2c-4.3-0.2-8-2.2-10.6-5.3c-0.4,0.8-0.7,1.6-0.7,2.6c0,1.8,0.9,3.3,2.3,4.2
				c-0.8,0-1.6-0.3-2.3-0.6v0.1c0,2.5,1.8,4.5,4.1,5C18.9,28.9,18.5,29,18,29c-0.3,0-0.7,0-1-0.1c0.7,2,2.5,3.5,4.8,3.5
				c-1.8,1.4-4,2.2-6.4,2.2c-0.4,0-0.8,0-1.2-0.1c2.3,1.4,5,2.3,7.9,2.3c9.4,0,14.6-7.8,14.6-14.5c0-0.2,0-0.4,0-0.7
				C37.7,21,38.5,20.1,39.2,19z"/>
		</g>
	</g>
</g>
</svg>
