<?xml version="1.0" encoding="utf-8"?>
<!-- Generator: Adobe Illustrator 23.0.1, SVG Export Plug-In . SVG Version: 6.00 Build 0)  -->
<!DOCTYPE svg PUBLIC "-//W3C//DTD SVG 1.1//EN" "http://www.w3.org/Graphics/SVG/1.1/DTD/svg11.dtd" [
	<!ENTITY ns_extend "http://ns.adobe.com/Extensibility/1.0/">
	<!ENTITY ns_ai "http://ns.adobe.com/AdobeIllustrator/10.0/">
	<!ENTITY ns_graphs "http://ns.adobe.com/Graphs/1.0/">
	<!ENTITY ns_vars "http://ns.adobe.com/Variables/1.0/">
	<!ENTITY ns_imrep "http://ns.adobe.com/ImageReplacement/1.0/">
	<!ENTITY ns_sfw "http://ns.adobe.com/SaveForWeb/1.0/">
	<!ENTITY ns_custom "http://ns.adobe.com/GenericCustomNamespace/1.0/">
	<!ENTITY ns_adobe_xpath "http://ns.adobe.com/XPath/1.0/">
]>
<svg version="1.1" id="Layer_1" xmlns:x="&ns_extend;" xmlns:i="&ns_ai;" xmlns:graph="&ns_graphs;"
	 xmlns="http://www.w3.org/2000/svg" xmlns:xlink="http://www.w3.org/1999/xlink" x="0px" y="0px" width="170px" height="170px"
	 viewBox="0 0 170 170" style="enable-background:new 0 0 170 170;" xml:space="preserve">
<style type="text/css">
	.st0{fill:#C5E1B5;}
	.st1{fill:none;stroke:#67A24C;stroke-width:4;stroke-miterlimit:10;}
	.st2{opacity:0.25;}
	.st3{fill:none;stroke:#7FB764;stroke-width:4;stroke-miterlimit:10;}
	.st4{fill:#67A24C;}
	.st5{fill:#538841;}
	.st6{fill:#7FB764;}
</style>
<metadata>
	<sfw  xmlns="&ns_sfw;">
		<slices></slices>
		<sliceSourceBounds  bottomLeftOrigin="true" height="160.2" width="164.6" x="0.5" y="8.7"></sliceSourceBounds>
	</sfw>
</metadata>
<circle class="st0" cx="90.1" cy="86.3" r="75"/>
<g>
	<line class="st1" x1="127.1" y1="45.2" x2="153.2" y2="45.2"/>
	<line class="st1" x1="127.1" y1="34.8" x2="153.2" y2="34.8"/>
	<line class="st1" x1="127.1" y1="24.4" x2="153.2" y2="24.4"/>
	<line class="st1" x1="127.1" y1="14" x2="153.2" y2="14"/>
	<line class="st1" x1="127.1" y1="3.6" x2="153.2" y2="3.6"/>
</g>
<g class="st2">
	<circle class="st3" cx="32.2" cy="32.8" r="29.7"/>
	<circle class="st3" cx="32.2" cy="32.8" r="20.5"/>
	<circle class="st3" cx="32.2" cy="32.8" r="11.4"/>
</g>
<g>
	<g>
		<polygon class="st4" points="69.7,73 51.6,73 40.1,86.9 51.6,101.1 69.7,101.1 58.2,86.9 		"/>
		<polygon class="st4" points="77.6,73 72.1,73 65.6,80.9 70.5,86.9 65.6,93 72.1,101.1 77.6,101.1 89.1,86.9 		"/>
	</g>
	<g id="Shape_15_4_">
		<g>
			<path class="st5" d="M140.1,74.4c-1.4,0.6-2.9,1.1-4.5,1.2c1.6-1,2.9-2.5,3.5-4.4c-1.5,0.9-3.2,1.6-5,1.9
				c-1.4-1.5-3.5-2.5-5.8-2.5c-4.4,0-7.9,3.5-7.9,7.9c0,0.6,0.1,1.2,0.2,1.8c-6.6-0.3-12.4-3.5-16.3-8.2c-0.7,1.2-1.1,2.5-1.1,4
				c0,2.7,1.4,5.1,3.5,6.6c-1.3,0-2.5-0.4-3.6-1v0.1c0,3.8,2.7,7,6.3,7.7c-0.7,0.2-1.4,0.3-2.1,0.3c-0.5,0-1,0-1.5-0.1
				c1,3.1,3.9,5.4,7.4,5.5c-2.7,2.1-6.1,3.4-9.8,3.4c-0.6,0-1.3,0-1.9-0.1c3.5,2.2,7.7,3.5,12.1,3.5c14.6,0,22.5-12,22.5-22.4
				c0-0.3,0-0.7,0-1C137.7,77.4,139.1,76,140.1,74.4z"/>
		</g>
	</g>
</g>
<g>
	<polygon class="st6" points="160.6,148.2 143.5,148.2 160.6,131.2 	"/>
	<polygon class="st6" points="144.7,148.2 127.6,148.2 144.7,131.2 	"/>
	<polygon class="st6" points="128.8,148.2 111.8,148.2 128.8,131.2 	"/>
	<polygon class="st6" points="112.9,148.2 95.9,148.2 112.9,131.2 	"/>
</g>
</svg>
