<svg version="1.1" id="logo" xmlns="http://www.w3.org/2000/svg" viewBox="0 243.5 792 125"><path fill="#FFE100" d="M31.842,364.018H3.25V246.298h76.183v27.414H31.842v21.021h47.561v26.742H31.842V364.018z"/><path fill="#FFE100" d="M87.006,326.182v-79.883h28.755v79.713c0,17.656,33.303,17.324,33.303,0v-79.713h28.755v79.883 c0,26.57-22.872,39.688-45.575,39.52C109.539,365.701,87.006,352.75,87.006,326.182z"/><path fill="#FFE100" d="M185.384,364.018V246.298h22.201l40.699,58.86v-58.86h28.421v117.719h-22.534l-40.192-57.344v57.344H185.384 z"/><path fill="#FFE100" d="M284.345,364.018V246.298h22.199l40.698,58.86v-58.86h28.423v117.719h-22.538l-40.193-57.344v57.344H284.345 z"/><path fill="#FFE100" d="M452.06,316.428v47.59h-28.761v-47.422l-43.84-70.297h33.247l11.772,18.835l13.286,24.051l13.961-25.563 l10.762-17.323h33.63L452.06,316.428z"/><path fill="#3FB1EA" d="M537.575,280.25h21.312v15.288h-62.951v-24.462c0-24.999,30.843-28.686,40.109-9.348l22.842-15.429V264.6 l-21.312,13.13V280.25L537.575,280.25z M523.635,280.25v-8.814c0-9.263-12.952-9.35-12.952,0v8.814H523.635z"/><path fill="#ED1C24" d="M610.653,246.298c38.847,0,58.356,29.598,58.356,59.027c0,29.43-19.51,58.692-58.356,58.692h-44.398V246.298 H610.653z M610.653,336.605c19.842,0,29.935-15.809,29.935-31.279c0-15.473-10.093-31.784-29.935-31.784h-15.809v63.064h15.809 V336.605z"/><path fill="#ED1C24" d="M674.665,364.018V246.298h28.758v117.719H674.665z"/><path fill="#ED1C24" d="M739.983,336.271h48.767v27.746h-77.694V246.298h77.526v27.749h-48.599v17.157h48.572v27.912h-48.572 V336.271z"/><path fill="#3FB1EA" d="M527.366,299.281c-17.907,0-32.42,14.512-32.42,32.417s14.514,32.416,32.42,32.416 c17.902,0,32.417-14.512,32.417-32.416C559.784,313.793,545.269,299.281,527.366,299.281z M527.366,349.486 c-9.826,0-17.788-7.961-17.788-17.787c0-9.827,7.962-17.789,17.788-17.789c9.825,0,17.789,7.962,17.789,17.789 C545.155,341.525,537.191,349.486,527.366,349.486z"/></svg>
